<svg xmlns="http://www.w3.org/2000/svg" viewBox="0 0 268.11 312.8"><defs><style>.cls-1{fill:#f85c77;}.cls-2{fill:#088ce7;}.cls-3{fill:#1b1d5d;}.cls-4{fill:none;stroke:#fff;stroke-linecap:round;stroke-miterlimit:10;stroke-width:11px;}</style></defs><title>Asset 2</title><g id="Layer_2" data-name="Layer 2"><g id="Layer_1-2" data-name="Layer 1"><path class="cls-1" d="M168.85,116.41l51,40.6,37.21-29.55a29.15,29.15,0,0,0,0-45.64L169.85,12.41a57,57,0,0,0-71,0L12,81.34A29.15,29.15,0,0,0,12,127l36.22,28.81,49.62-39.41A57,57,0,0,1,168.85,116.41Z"/><path class="cls-2" d="M256.11,185.82,219.89,157l-49.62,39.41a57,57,0,0,1-71,0l-51-40.6L11,185.34A29.15,29.15,0,0,0,11,231l87.26,69.41a57,57,0,0,0,71,0l86.83-69A29.15,29.15,0,0,0,256.11,185.82Z"/><path class="cls-3" d="M97.84,116.38,48.22,155.79l51,40.6a57,57,0,0,0,71,0L219.89,157l-51-40.6A57,57,0,0,0,97.84,116.38Z"/><circle class="cls-4" cx="135.31" cy="157.15" r="23"/></g></g></svg>