<svg xmlns="http://www.w3.org/2000/svg" viewBox="0 0 312.73 375.12"><title>reddit</title><g id="Layer_2" data-name="Layer 2"><g id="Layer_1-2" data-name="Layer 1"><path d="M139.13,152.15a21.68,21.68,0,0,0-18-21.27c-31.36-4.69-60.92,6.85-77.86,28.12v-2.89a21.44,21.44,0,0,0-21.62-21.63A21.7,21.7,0,0,0,0,156.11V332.73c0,11.53,8.65,21.63,20.19,22.35a21.59,21.59,0,0,0,23.06-21.63V242.26c0-40.37,30.28-73.53,72.09-68.85h4.33C130.48,172.69,139.13,163.32,139.13,152.15Z"/><g id="Regular-M"><path d="M179.22,361.61l132-332C315.58,18.82,310,5.89,299,1.5A21.81,21.81,0,0,0,270.9,13.58l-132,332a21.81,21.81,0,0,0,12.09,28.06C162,378,174.91,372.43,179.22,361.61Z"/></g></g></g></svg>