<svg xmlns="http://www.w3.org/2000/svg" viewBox="0 0 171 171"><defs><style>.cls-1{fill:#ff4500;}.cls-2{fill:#fff;}</style></defs><title>Artwork</title><g id="Layer_2" data-name="Layer 2"><g id="Layer_1-2" data-name="Layer 1"><g id="Artwork"><circle class="cls-1" cx="85.5" cy="85.5" r="85.5"/><path class="cls-2" d="M142.5,85.5A12.5,12.5,0,0,0,130,73a12,12,0,0,0-8.6,3.5c-8.5-6.1-20.3-10.1-33.3-10.6l5.7-26.7,18.5,3.9a8.9,8.9,0,1,0,8.9-9.3,8.65,8.65,0,0,0-7.9,5L92.6,34.4a2.49,2.49,0,0,0-1.7.3,2.43,2.43,0,0,0-1,1.4L83.6,65.9c-13.3.4-25.2,4.3-33.8,10.6a12.45,12.45,0,0,0-21.1,9,12.46,12.46,0,0,0,7.4,11.4,23.4,23.4,0,0,0-.3,3.8c0,19.2,22.3,34.7,49.9,34.7s49.9-15.5,49.9-34.7a22.18,22.18,0,0,0-.3-3.7A12.94,12.94,0,0,0,142.5,85.5ZM57,94.4a8.9,8.9,0,1,1,8.9,8.9A8.92,8.92,0,0,1,57,94.4Zm49.7,23.5c-6.1,6.1-17.7,6.5-21.1,6.5s-15.1-.5-21.1-6.5a2.33,2.33,0,0,1,3.3-3.3c3.8,3.8,12,5.2,17.9,5.2s14-1.4,17.9-5.2a2.35,2.35,0,0,1,3.3,0A2.57,2.57,0,0,1,106.7,117.9Zm-1.6-14.6a8.9,8.9,0,1,1,8.9-8.9A8.92,8.92,0,0,1,105.1,103.3Z"/></g></g></g></svg>