<svg xmlns="http://www.w3.org/2000/svg" viewBox="0 0 250 250"><defs><style>.cls-1{fill:#1da1f2;}.cls-2{fill:none;}</style></defs><title>Asset 1</title><g id="Layer_2" data-name="Layer 2"><g id="Logo_FIXED" data-name="Logo FIXED"><path class="cls-1" d="M78.62,226.57c94.34,0,145.94-78.16,145.94-145.94,0-2.22,0-4.43-.15-6.63A104.36,104.36,0,0,0,250,47.45a102.24,102.24,0,0,1-29.46,8.07,51.46,51.46,0,0,0,22.55-28.37A103,103,0,0,1,210.52,39.6a51.34,51.34,0,0,0-87.41,46.78A145.63,145.63,0,0,1,17.4,32.79a51.33,51.33,0,0,0,15.88,68.47A50.84,50.84,0,0,1,10,94.84v.65a51.32,51.32,0,0,0,41.15,50.28,51.2,51.2,0,0,1-23.16.88,51.36,51.36,0,0,0,47.92,35.62,103,103,0,0,1-63.7,22A106,106,0,0,1,0,203.53a145.22,145.22,0,0,0,78.62,23"/><rect class="cls-2" width="250" height="250"/></g></g></svg>