<svg xmlns="http://www.w3.org/2000/svg" viewBox="0 0 512 512"><defs><style>.cls-1{fill:#4bd763;}.cls-2{fill:#fff;}</style></defs><title>Battery</title><g id="Layer_2" data-name="Layer 2"><g id="Layer_1-2" data-name="Layer 1"><rect class="cls-1" width="512" height="512"/><path class="cls-2" d="M120.09,332h256c10.14,0,15.75-1.56,20-6.39s5.76-11.54,5.76-22.95v-95c0-11.54-1.38-18-5.76-22.95s-9.88-6.39-20-6.39h-256c-10.28,0-15.9,1.4-20.17,6.39s-5.62,11.38-5.62,22.95v95c0,11.38,1.24,18,5.62,22.95S109.78,332,120.09,332Z"/><path class="cls-2" d="M413.25,300.68c13.87-.86,32.44-18.61,32.44-45.45,0-26.66-18.61-44.37-32.44-45.27Z"/></g></g></svg>