<svg xmlns="http://www.w3.org/2000/svg" viewBox="0 0 512 512"><defs><style>.cls-1{fill:#ff2e56;}.cls-2{fill:#fff;}</style></defs><title>Brightness</title><g id="Layer_2" data-name="Layer 2"><g id="Layer_1-2" data-name="Layer 1"><rect class="cls-1" width="512" height="512"/><g id="Regular-M"><path class="cls-2" d="M271.36,90.69a14.52,14.52,0,0,0-29,0v34.82a14.52,14.52,0,0,0,29,0Zm67.36,63.21a14.74,14.74,0,0,0,0,20.41,14.43,14.43,0,0,0,20.54,0L384,149.59A14.42,14.42,0,1,0,363.75,129ZM154.29,174.28a14.42,14.42,0,0,0,20.41,0c5.64-5.3,5.64-14.91.17-20.41L150.15,129a14.49,14.49,0,0,0-20.58,20.41Zm102.51-2.65c-46.26,0-84.57,38.31-84.57,84.57s38.31,84.74,84.57,84.74c46.08,0,84.4-38.48,84.4-84.74S302.88,171.63,256.8,171.63Zm165,99a14.44,14.44,0,1,0,0-28.87H387.15a14.44,14.44,0,1,0,0,28.87Zm-330-28.87a14.44,14.44,0,0,0,0,28.87h34.68a14.44,14.44,0,1,0,0-28.87Zm267.33,96.53a14.43,14.43,0,0,0-20.41,20.41l25,24.86A14.44,14.44,0,0,0,384,363ZM129.57,362.85a14.48,14.48,0,1,0,20.37,20.58l24.73-24.73a14.58,14.58,0,0,0,.17-20.41,14.92,14.92,0,0,0-20.55,0Zm141.79,24a14.52,14.52,0,0,0-29,0v34.82a14.52,14.52,0,0,0,29,0Z"/></g></g></g></svg>