<svg xmlns="http://www.w3.org/2000/svg" viewBox="0 0 512 512"><defs><style>.cls-1{fill:#ff4450;}.cls-2{fill:#fff;}</style></defs><title>Definition</title><g id="Layer_2" data-name="Layer 2"><g id="Layer_1-2" data-name="Layer 1"><rect class="cls-1" width="512" height="512"/><g id="Thin-M"><path class="cls-2" d="M82.34,363.44c3.45,0,5.26-1.48,6.75-5.44l29.46-76.86H227.67L257.14,358c1.64,4,3.29,5.44,6.91,5.44,3.78,0,6.42-2.31,6.42-5.93a11.35,11.35,0,0,0-1-4.28l-87.89-226c-1.48-3.78-4-6.25-8.4-6.25-4.28,0-7.07,2.3-8.56,6.25l-87.89,226a10.85,10.85,0,0,0-.82,4.28C75.92,361.13,78.39,363.44,82.34,363.44Zm40.16-93.82,50.2-130.69h.82l50.2,130.69Zm234.22,93.16c29.46,0,55.79-16.3,64.19-40.16h.33v33.74c0,3.95,2.47,6.42,5.92,6.42,3.62,0,6.09-2.47,6.09-6.42V244.27c0-35.88-23.21-58.76-61.72-58.76-32.43,0-55,14.81-63.37,39.5-1,3.29-2.14,7.08-2.14,9.71,0,3.3,2.63,5.44,6.09,5.44,2.8,0,4.61-1.49,5.43-4.28,6.26-24.53,24.86-39.34,53.66-39.34,31.44,0,49.71,19.42,49.71,48.55V260.4l-60.24,4.12c-40.16,2.63-60.9,20.57-60.9,49.37C299.77,342.86,323.14,362.78,356.72,362.78Zm1.64-10.87c-26.66,0-46.25-15.8-46.25-38.67,0-21.24,16.79-35.72,50.53-38.36l58.27-4.44v26.17C420.91,326.57,392.6,351.91,358.36,351.91Z"/></g></g></g></svg>