<svg xmlns="http://www.w3.org/2000/svg" viewBox="0 0 512 512"><defs><style>.cls-1{fill:#5756d4;}.cls-2{fill:#fff;}</style></defs><title>DND</title><g id="Layer_2" data-name="Layer 2"><g id="Layer_1-2" data-name="Layer 1"><rect class="cls-1" width="512" height="512"/><path class="cls-2" d="M337.84,297C264.1,297,217,250.78,217,176.9c0-15.27,3.68-37.07,8.59-48.37a17.48,17.48,0,0,0,1.51-6.39,7.72,7.72,0,0,0-8-7.76,25.91,25.91,0,0,0-7.75,1.51C160.83,136.07,127,190.29,127,247.4,127,327.53,188.1,384.77,268,384.77c58.72,0,109.57-35.56,126.46-80a23.16,23.16,0,0,0,1.51-7.62,8.41,8.41,0,0,0-8-8.45,19,19,0,0,0-5.86,1.22A154.87,154.87,0,0,1,337.84,297Z"/></g></g></svg>