<svg xmlns="http://www.w3.org/2000/svg" viewBox="0 0 512 512"><defs><style>.cls-1{fill:#8c14fb;}.cls-2{fill:#fff;}</style></defs><title>File</title><g id="Layer_2" data-name="Layer 2"><g id="Layer_1-2" data-name="Layer 1"><rect class="cls-1" width="512" height="512"/><path class="cls-2" d="M266.8,102.59v93.54a7.24,7.24,0,0,0,7.23,7.24h93.54A7.24,7.24,0,0,0,372.69,191L279.14,97.48A7.23,7.23,0,0,0,266.8,102.59Z"/><path class="cls-2" d="M245.39,200.54V101.26a6.81,6.81,0,0,0-6.81-6.81H165a31.91,31.91,0,0,0-31.91,31.91V373.64A31.91,31.91,0,0,0,165,405.55H347.68a31.91,31.91,0,0,0,31.91-31.91v-145a6.81,6.81,0,0,0-6.81-6.81H266.66A21.27,21.27,0,0,1,245.39,200.54Z"/></g></g></svg>