<svg xmlns="http://www.w3.org/2000/svg" viewBox="0 0 512 512"><defs><style>.cls-1{fill:#f8850f;}.cls-2{fill:#fff;}.cls-3{fill:none;stroke:#fff;stroke-miterlimit:10;stroke-width:22.86px;}</style></defs><title>Handoff</title><g id="Layer_2" data-name="Layer 2"><g id="Layer_1-2" data-name="Layer 1"><rect class="cls-1" width="512" height="512"/><path class="cls-2" d="M302.84,253.43l-55.18-49.79a2.89,2.89,0,0,0-4.82,2.15V235.1A2.89,2.89,0,0,1,240,238H90.82a2.89,2.89,0,0,0-2.89,2.89v29.76a2.89,2.89,0,0,0,2.89,2.89H240a2.89,2.89,0,0,1,2.89,2.89v28.95a2.88,2.88,0,0,0,4.82,2.14l55.18-49.79A2.89,2.89,0,0,0,302.84,253.43Z"/><path class="cls-3" d="M168,214.6V135.91a23.18,23.18,0,0,1,23.18-23.18H351a23.18,23.18,0,0,1,23.18,23.18V374.19A23.18,23.18,0,0,1,351,397.38H191.18A23.18,23.18,0,0,1,168,374.19V297"/></g></g></svg>