<svg xmlns="http://www.w3.org/2000/svg" viewBox="0 0 512 512"><defs><style>.cls-1{fill:#fffffb;}.cls-2,.cls-3{fill:#231f20;}.cls-2{opacity:0.85;}.cls-3{opacity:0.6;}</style></defs><title>Input</title><g id="Layer_2" data-name="Layer 2"><g id="Layer_1-2" data-name="Layer 1"><rect class="cls-1" width="512" height="512"/><path class="cls-2" d="M357.39,195.45l-79-62.89a51.69,51.69,0,0,0-64.32,0L135.38,195a26.41,26.41,0,0,0,0,41.34l79,62.88a51.69,51.69,0,0,0,64.32,0l78.65-62.47A26.39,26.39,0,0,0,357.39,195.45Z"/><path class="cls-3" d="M356.49,289.65l-79-62.88a51.7,51.7,0,0,0-64.33,0l-78.65,62.47a26.39,26.39,0,0,0,0,41.33l79,62.89a51.69,51.69,0,0,0,64.32,0L356.47,331A26.41,26.41,0,0,0,356.49,289.65Z"/></g></g></svg>