<svg xmlns="http://www.w3.org/2000/svg" viewBox="0 0 512 512"><defs><style>.cls-1{fill:#f9c019;}.cls-2{fill:#fff;}</style></defs><title>Language</title><g id="Layer_2" data-name="Layer 2"><g id="Layer_1-2" data-name="Layer 1"><rect class="cls-1" width="512" height="512"/><g id="Regular-M"><path class="cls-2" d="M255.46,436.4c98.19,0,179.39-81.38,179.39-179.57,0-98-81.38-179.57-179.57-179.57S75.71,158.82,75.71,256.83C75.71,355,157.27,436.4,255.46,436.4ZM203.38,163.16c10.67-26.95,25.5-46.3,41.59-52.26v56.42A265.26,265.26,0,0,1,203.38,163.16Zm62.39-52.26c15.91,6,30.74,25.31,41.41,52.26a262.89,262.89,0,0,1-41.41,4.16Zm38,5.06a148,148,0,0,1,51.72,30.56,149.42,149.42,0,0,1-27.67,11.57C321.28,141.28,313.15,127,303.74,116ZM155.1,146.52A150.77,150.77,0,0,1,206.82,116c-9.23,11-17.54,25.32-24,42.13A149.42,149.42,0,0,1,155.1,146.52ZM345,246.34c-.9-25.13-4.52-48.46-10.67-69.08,13.57-4.16,25.68-9.4,35.63-15.55a147,147,0,0,1,33.81,84.63Zm-238,0a148,148,0,0,1,33.63-84.63,157.71,157.71,0,0,0,35.63,15.55,286.4,286.4,0,0,0-10.67,69.08Zm158.77,0V188.11a285.42,285.42,0,0,0,47.92-5.6,269.68,269.68,0,0,1,9.94,63.83Zm-78.85,0a279.75,279.75,0,0,1,10-63.83,285.27,285.27,0,0,0,48.1,5.6v58.23Zm-80.1,20.8h58.77a277.1,277.1,0,0,0,10.67,70.16c-13.39,4.16-25.14,9.22-35.09,15.37A150.22,150.22,0,0,1,106.82,267.14Zm80.1,0H245v59.31a267,267,0,0,0-48.1,5.61A268.46,268.46,0,0,1,186.92,267.14Zm78.85,59.31V267.14h57.86a268.47,268.47,0,0,1-9.94,64.92A267,267,0,0,0,265.77,326.45ZM334.3,337.3A277.1,277.1,0,0,0,345,267.14h58.95a148.32,148.32,0,0,1-34.17,85.53A168.73,168.73,0,0,0,334.3,337.3ZM203.38,351.4A265.3,265.3,0,0,1,245,347.25v56.41C228.88,397.7,214.05,378.35,203.38,351.4Zm62.39-4.15a262.93,262.93,0,0,1,41.41,4.15c-10.67,27-25.5,46.3-41.41,52.26ZM155.82,367.68a141.73,141.73,0,0,1,27-11.21,155.13,155.13,0,0,0,23.14,41A144.89,144.89,0,0,1,155.82,367.68Zm172-11.21a139,139,0,0,1,27.31,11.39,148.93,148.93,0,0,1-50.63,29.84C313.51,386.67,321.46,372.74,327.79,356.47Z"/></g></g></g></svg>