<svg xmlns="http://www.w3.org/2000/svg" viewBox="0 0 512 512"><defs><style>.cls-1{fill:#1982f2;}.cls-2{fill:#fff;}</style></defs><title>Link</title><g id="Layer_2" data-name="Layer 2"><g id="Layer_1-2" data-name="Layer 1"><rect class="cls-1" width="512" height="512"/><g id="Regular-M"><path class="cls-2" d="M258.35,311.46l18.12-18.27c-17.91-1.41-29.57-6.88-38.37-15.74-23.68-23.84-23.43-57.51.14-80.92l44.4-44.11c23.84-23.54,57.24-23.57,80.92.27s23.3,57.37-.27,80.78L336.59,260a50.81,50.81,0,0,1,3.17,27.57l40.05-39.65c32.56-32.48,33-78.5.24-111.6s-79.05-33-111.74-.51l-46.45,46.28c-32.7,32.47-33.12,78.63-.24,111.6C230.14,302.27,241,308.42,258.35,311.46Zm3.77-111.86L244,217.87c17.92,1.55,29.58,6.89,38.37,15.74,23.68,23.84,23.44,57.51-.13,80.92L237.7,358.64c-23.71,23.55-57.11,23.57-80.79-.13-23.68-24-23.43-57.37.27-80.92l26.7-26.52a49.48,49.48,0,0,1-3.16-27.57l-40.05,39.64c-32.56,32.48-33,78.64-.24,111.61s79,33,111.6.64L298.62,329c32.69-32.48,33.12-78.64.24-111.61C290.33,208.79,279.49,202.65,262.12,199.6Z"/></g></g></g></svg>