<?xml version="1.0" encoding="utf-8"?>
<!-- Generator: Adobe Illustrator 23.0.1, SVG Export Plug-In . SVG Version: 6.00 Build 0)  -->
<svg version="1.1" id="Layer_1" xmlns="http://www.w3.org/2000/svg" xmlns:xlink="http://www.w3.org/1999/xlink" x="0px" y="0px"
	 viewBox="0 0 929 929" style="enable-background:new 0 0 929 929;" xml:space="preserve">
<style type="text/css">
	.st0{fill:#0040DB;}
</style>
<path class="st0" d="M810.5,95.5l55-17l-55-16l-17-55l-17,55l-54,16l54,17l17,55L810.5,95.5z M453.5,95.5l54-17l-54-16l-17-55
	l-17,55l-54,16l54,17l17,55L453.5,95.5z M911.5,750.5l-718-718c-6.7-6.7-15-10-25-10s-18.3,3.3-25,10l-110,111c-6.7,6.7-10,15-10,25
	s3.3,18.3,10,25l717,718c6.7,6.7,15,10,25,10s18.3-3.3,25-10l111-111c6.7-6.7,10-15,10-25S918.2,757.2,911.5,750.5z M648.5,219.5
	l109-33l-109-34l-33-109l-34,109l-109,34l109,33l34,109L648.5,219.5z M168.5,108.5l164,164l-60,59l-164-163L168.5,108.5z
	 M96.5,452.5l54-16l-54-17l-17-55l-17,55l-55,17l55,16l17,55L96.5,452.5z"/>
</svg>
