<svg xmlns="http://www.w3.org/2000/svg" viewBox="0 0 512 512"><defs><style>.cls-1{fill:#a8a8a8;}.cls-2{fill:#fff;}</style></defs><title>Print</title><g id="Layer_2" data-name="Layer 2"><g id="Layer_1-2" data-name="Layer 1"><rect class="cls-1" width="512" height="512"/><path class="cls-2" d="M390.15,181.48h-267A26.55,26.55,0,0,0,96.62,208V332.17a17.11,17.11,0,0,0,17.11,17.1h17.21a12.4,12.4,0,0,0,12.4-12.4v-53.6a16.18,16.18,0,0,1,16.18-16.18H351.8A16.17,16.17,0,0,1,368,283.27v53.6a12.4,12.4,0,0,0,12.4,12.4H399.6a17.1,17.1,0,0,0,17.1-17.1V208A26.55,26.55,0,0,0,390.15,181.48ZM384.7,229a13.81,13.81,0,1,1,11.89-11.89A13.81,13.81,0,0,1,384.7,229Z"/><path class="cls-2" d="M351.3,277.33H162a8.09,8.09,0,0,0-8.09,8.08V410.92A8.09,8.09,0,0,0,162,419H351.3a8.09,8.09,0,0,0,8.09-8.09V285.41A8.09,8.09,0,0,0,351.3,277.33ZM331.58,390.69a4.58,4.58,0,0,1-4.58,4.58H186.33a4.58,4.58,0,0,1-4.58-4.58v-2.82a4.58,4.58,0,0,1,4.58-4.58H327a4.58,4.58,0,0,1,4.58,4.58Zm0-38.57A4.58,4.58,0,0,1,327,356.7H186.33a4.58,4.58,0,0,1-4.58-4.58V349.3a4.58,4.58,0,0,1,4.58-4.58H327a4.58,4.58,0,0,1,4.58,4.58Zm0-42.49a4.58,4.58,0,0,1-4.58,4.58H186.33a4.58,4.58,0,0,1-4.58-4.58v-2.82a4.58,4.58,0,0,1,4.58-4.58H327a4.58,4.58,0,0,1,4.58,4.58Z"/><rect class="cls-2" x="153.93" y="93.97" width="205.46" height="77.93" rx="8.89"/></g></g></svg>