<svg xmlns="http://www.w3.org/2000/svg" viewBox="0 0 512 512"><defs><style>.cls-1{fill:#fb3a2f;}.cls-2{fill:#fff;}</style></defs><title>Record</title><g id="Layer_2" data-name="Layer 2"><g id="Layer_1-2" data-name="Layer 1"><rect class="cls-1" width="512" height="512"/><g id="Regular-M"><path class="cls-2" d="M256.05,331.3c27.1,0,45.35-20.29,45.35-49.29V147.46c0-29.14-18.25-49.29-45.35-49.29s-45.47,20.15-45.47,49.29V282C210.58,311,228.82,331.3,256.05,331.3ZM166.3,278.67c0,49.13,32.47,83.6,80.22,87.61v29.21H200A9.52,9.52,0,0,0,190.5,405a9.41,9.41,0,0,0,9.52,9.4H312a9.41,9.41,0,0,0,9.53-9.4,9.52,9.52,0,0,0-9.53-9.52h-46.5V366.28c47.88-4,80.22-38.48,80.22-87.61V213.22a9.31,9.31,0,0,0-9.4-9.4,9.42,9.42,0,0,0-9.53,9.4v64.7c0,42.74-27.82,71.06-70.69,71.06s-70.82-28.32-70.82-71.06v-64.7a9.47,9.47,0,0,0-18.93,0Z"/></g></g></g></svg>