<svg xmlns="http://www.w3.org/2000/svg" viewBox="0 0 512 512"><defs><style>.cls-1{fill:#fa6531;}.cls-2{fill:#fff;}</style></defs><title>RSS</title><g id="Layer_2" data-name="Layer 2"><g id="Layer_1-2" data-name="Layer 1"><rect class="cls-1" width="512" height="512"/><path class="cls-2" d="M135.35,220.16a6,6,0,0,0-6,6v47.7a6,6,0,0,0,6,6A101.47,101.47,0,0,1,236.71,381.13a6,6,0,0,0,6,6h47.69a6,6,0,0,0,6-6c0-88.76-72.21-161-161-161m0-95.39a6,6,0,0,0-6,6v47.69a6,6,0,0,0,6,6c108.49,0,196.75,88.26,196.75,196.74a6,6,0,0,0,6,6h47.69a6,6,0,0,0,6-6c0-141.36-115-256.36-256.37-256.36M189,357.28a29.81,29.81,0,1,1-29.81-29.81A29.85,29.85,0,0,1,189,357.28"/></g></g></svg>