<svg xmlns="http://www.w3.org/2000/svg" viewBox="0 0 512 512"><defs><style>.cls-1{fill:#1d97f5;}.cls-2{fill:#fff;}</style></defs><title>Share</title><g id="Layer_2" data-name="Layer 2"><g id="Layer_1-2" data-name="Layer 1"><rect class="cls-1" width="512" height="512"/><g id="Regular-M"><path class="cls-2" d="M258.35,297.09c6.86,0,12.59-6.06,12.59-13.13V111.11L270,85.87l10.67,11.95,24.22,27.26a11.34,11.34,0,0,0,8.61,4,11.54,11.54,0,0,0,11.63-12,12.2,12.2,0,0,0-3.82-8.75L267.44,53.55c-3.19-3.36-5.9-4.54-9.09-4.54-3.34,0-6.05,1.18-9.24,4.54l-53.86,54.87a12.2,12.2,0,0,0-3.82,8.75c0,6.9,4.78,12,11.47,12a11.66,11.66,0,0,0,8.77-4l24.22-27.26,10.67-11.95-.95,25.24V284C245.61,291,251.5,297.09,258.35,297.09ZM156.89,428.87H359.66c33.3,0,40-7.5,40-42.17v-188c0-34.67-6.73-42.17-40-42.17H310.53a5.33,5.33,0,0,0-5.33,5.32v16.45a5.33,5.33,0,0,0,5.33,5.32h48.65c15.78,0,14.86-.91,14.86,16.6V385.18c0,17.51.92,16.6-14.86,16.6h-202c-15.94,0-14.7.91-14.7-16.6V200.25c0-17.51-1.24-16.6,14.7-16.6H206a5.33,5.33,0,0,0,5.33-5.32V161.88a5.33,5.33,0,0,0-5.33-5.32H156.89c-33.3,0-40,7.5-40,42.17v188C116.86,421.37,123.59,428.87,156.89,428.87Z"/></g></g></g></svg>