<svg xmlns="http://www.w3.org/2000/svg" viewBox="0 0 512 512"><defs><style>.cls-1{fill:#ff2c55;}.cls-2{fill:#fff;}</style></defs><title>Skip-Forward</title><g id="Layer_2" data-name="Layer 2"><g id="Layer_1-2" data-name="Layer 1"><rect class="cls-1" width="512" height="512"/><g id="Regular-M"><path class="cls-2" d="M165,349.49c3.19,0,5.84-1.54,9-4.37l79.35-70.85a21.73,21.73,0,0,0,7.48-13v68c0,13.1,5.14,20.19,11.21,20.19,3.19,0,5.84-1.54,9-4.37l79.43-70.85a23.49,23.49,0,0,0,0-35.07l-79.43-70.85c-3.12-2.83-5.77-4.37-9-4.37-6.07,0-11.21,7.09-11.21,20.19v68a21.73,21.73,0,0,0-7.48-13l-79.35-70.85c-3.2-2.83-5.77-4.37-9-4.37-6.07,0-11.21,7.09-11.21,20.19V329.3C153.77,342.4,158.91,349.49,165,349.49Z"/></g></g></g></svg>