<svg xmlns="http://www.w3.org/2000/svg" viewBox="0 0 512 512"><defs><style>.cls-1{fill:#ff2c55;}.cls-2{fill:#fff;}</style></defs><title>Skip-Back</title><g id="Layer_2" data-name="Layer 2"><g id="Layer_1-2" data-name="Layer 1"><rect class="cls-1" width="512" height="512"/><g id="Regular-M"><path class="cls-2" d="M335,164c-3.19,0-5.84,1.54-9,4.37L246.71,239.2a21.73,21.73,0,0,0-7.48,13v-68c0-13.1-5.14-20.19-11.21-20.19-3.19,0-5.84,1.54-9,4.37L139.63,239.2a23.49,23.49,0,0,0,0,35.07l79.43,70.85c3.12,2.83,5.77,4.37,9,4.37,6.07,0,11.21-7.09,11.21-20.19v-68a21.73,21.73,0,0,0,7.48,13l79.35,70.85c3.2,2.83,5.77,4.37,9,4.37,6.07,0,11.21-7.09,11.21-20.19V184.17C346.23,171.07,341.09,164,335,164Z"/></g></g></g></svg>