<svg xmlns="http://www.w3.org/2000/svg" viewBox="0 0 512 512"><defs><style>.cls-1{fill:#fa8511;}.cls-2{fill:#fff;}</style></defs><title>Variable</title><g id="Layer_2" data-name="Layer 2"><g id="Layer_1-2" data-name="Layer 1"><rect class="cls-1" width="512" height="512"/><path class="cls-2" d="M160.15,361.73l3.75-19.55q.78-6.26,1.18-14.85l7.71-1.37,4.54,11.33q5.34,3.33,9.48,3.33a22.66,22.66,0,0,0,12.25-3.33q9.08-5.46,22.12-22.28,6.7-8.6,25.28-38.31-8.29-57.25-18-72.12-4.74-7.22-13-7.23a24.28,24.28,0,0,0-10.76,2.45q-5,2.44-13.53,11.23L186,216.12,178.91,212l23.7-33.42a37.42,37.42,0,0,1,11-5.18,44.77,44.77,0,0,1,12.35-1.66q19.35,0,29.23,17.39,7.3,12.9,11.85,54.73l22.12-33a169.53,169.53,0,0,1,21.13-25.21q8.31-8.22,15.21-11.24a32.19,32.19,0,0,1,12.84-3,25.51,25.51,0,0,1,12.24,3.32q-3.36,15.84-6.12,34l-5.33,1.17q-3-5.28-5.63-7a12.49,12.49,0,0,0-7-1.76A26.35,26.35,0,0,0,314,204.19q-8.1,4.5-17.78,15.64-6.32,7.23-26.47,35.77,6.72,40.07,9.88,53,5.34,20.93,12.24,28.15a13.4,13.4,0,0,0,9.88,4.49A24.44,24.44,0,0,0,313.31,338q6-3.23,19.46-15.15l4.54,7q-24.49,23.06-39.7,32.25A27.73,27.73,0,0,1,283,366.61q-12.84,0-20.35-15.44t-13.43-61q-32.58,53.76-50.95,68.6Q188.19,367,176.34,367A25.94,25.94,0,0,1,160.15,361.73Z"/></g></g></svg>