<svg xmlns="http://www.w3.org/2000/svg" viewBox="0 0 512 512"><defs><style>.cls-1{fill:#017bfb;}.cls-2{fill:#fff;}</style></defs><title>WiFi</title><g id="Layer_2" data-name="Layer 2"><g id="Layer_1-2" data-name="Layer 1"><rect class="cls-1" width="512" height="512"/><g id="Regular-M"><path class="cls-2" d="M124.31,252a5.91,5.91,0,0,0,8.77-.14c32.47-34.39,75.21-52.47,123-52.47,48.09,0,90.83,18.22,123.17,52.61a5.8,5.8,0,0,0,8.49-.28l18.09-18.22a5.41,5.41,0,0,0,.55-7.53c-31-38.09-89.2-66.18-150.3-66.18S136.64,187.88,105.81,226a5.26,5.26,0,0,0,.41,7.53Zm54.8,54.94c2.74,2.88,6.3,2.6,8.91-.41,15.75-17.68,41.65-30.42,68.09-30.14,26.58-.28,52.34,12.87,68.37,30.55,2.6,2.74,5.89,2.74,8.63-.14l20.41-20.14a5.22,5.22,0,0,0,.41-7.4c-19.86-24.52-56.86-42.61-97.82-42.61s-78,18.23-98,42.61c-1.92,2.33-1.78,5.07.55,7.4Zm77,71.93c2.88,0,5.34-1.51,10.41-6.44l32.06-30.83a5.33,5.33,0,0,0,.82-7.26c-8.63-11.1-24.8-20.69-43.29-20.69-19.05,0-35.35,10-43.84,21.51-1.37,1.92-.83,4.52,1.23,6.44l32.06,30.83C250.63,377.36,253.23,378.87,256.11,378.87Z"/></g></g></g></svg>