<svg xmlns="http://www.w3.org/2000/svg" viewBox="0 0 12.01 16"><title>accessibility</title><g id="Layer_2" data-name="Layer 2"><g id="Layer_1-2" data-name="Layer 1"><path d="M6,3a1.5,1.5,0,1,0-1.5-1.5A1.5,1.5,0,0,0,6,3"/><path d="M12,3.85a.51.51,0,0,1-.31.62l-.59.21C8,5.78,7.76,5.85,7.76,8A44.26,44.26,0,0,0,9,15.38a.5.5,0,0,1-.94.34,17.2,17.2,0,0,1-.87-2.59,28.77,28.77,0,0,0-.94-3A.27.27,0,0,0,5.88,10a.27.27,0,0,0-.14.14c-.3.72-.66,2.12-.9,3A18.27,18.27,0,0,1,4,15.72.5.5,0,0,1,3,15.38,45.69,45.69,0,0,0,4.26,8c0-2.15-.19-2.22-3.33-3.32L.34,4.47A.5.5,0,0,1,0,3.84a.52.52,0,0,1,.64-.32h0A20.81,20.81,0,0,0,6,4.25a20.94,20.94,0,0,0,5.36-.73.5.5,0,0,1,.62.33"/></g></g></svg>