<svg xmlns="http://www.w3.org/2000/svg" viewBox="0 0 110.06 99.41"><title>Symbols</title><g id="Layer_2" data-name="Layer 2"><g id="Layer_1-2" data-name="Layer 1"><g id="Symbols"><g id="Regular-M"><path d="M110.06,49.71c0-5.72-7.81-9.87-17.14-9.87H73.24c-2.73,0-3.76-.44-5.37-2.29L35.06,1.76A4.86,4.86,0,0,0,31.3,0H25.63c-1.26,0-2,1.12-1.36,2.49L41.16,39.84l-24.8,2.84L7.52,26.46A3.34,3.34,0,0,0,4.2,24.71H2.1A2,2,0,0,0,0,26.81v45.8a1.94,1.94,0,0,0,2.1,2H4.2A3.4,3.4,0,0,0,7.52,73l8.84-16.21,24.8,2.83L24.27,96.92a1.6,1.6,0,0,0,1.36,2.49H31.3a5,5,0,0,0,3.76-1.75L67.87,61.82c1.61-1.81,2.64-2.25,5.37-2.25H92.92C102.25,59.57,110,55.37,110.06,49.71Z"/></g></g></g></g></svg>