<svg xmlns="http://www.w3.org/2000/svg" viewBox="0 0 93.36 101.27"><title>alarm</title><g id="Layer_2" data-name="Layer 2"><g id="Layer_1-2" data-name="Layer 1"><g id="Symbols"><g id="Regular-M"><path d="M6.59,20.41a2.79,2.79,0,0,0,1.95-.63L24.9,7.42a2.77,2.77,0,0,0,1.22-2.2A3.55,3.55,0,0,0,24.8,2.59C23,.93,19.63,0,16.7,0A13.67,13.67,0,0,0,3,13.72a11.92,11.92,0,0,0,.83,4.74A3,3,0,0,0,6.59,20.41Zm80.18,0a3.23,3.23,0,0,0,2.83-1.95,12.76,12.76,0,0,0,.78-4.74A13.63,13.63,0,0,0,76.66,0c-2.93,0-6.25.93-8.11,2.59a3.54,3.54,0,0,0-1.31,2.63,2.7,2.7,0,0,0,1.27,2.2l16.3,12.36A2.9,2.9,0,0,0,86.77,20.41ZM5.86,99.85a3.69,3.69,0,0,0,5.37,0L19,92.14a46.68,46.68,0,0,0,55.46,0l7.72,7.66a3.73,3.73,0,1,0,5.32-5.22L80,87.21A46.68,46.68,0,1,0,0,54.59,46.41,46.41,0,0,0,13.33,87.21L5.91,94.58A3.7,3.7,0,0,0,5.86,99.85ZM24.46,60a3.32,3.32,0,0,1-3.37-3.37,3.36,3.36,0,0,1,3.37-3.42h18.8V27a3.36,3.36,0,0,1,3.37-3.42A3.4,3.4,0,0,1,50.05,27V56.59A3.35,3.35,0,0,1,46.63,60Z"/></g></g></g></g></svg>