<?xml version="1.0" encoding="utf-8"?>
<!-- Generator: Adobe Illustrator 23.0.1, SVG Export Plug-In . SVG Version: 6.00 Build 0)  -->
<svg version="1.1" id="Layer_1" xmlns="http://www.w3.org/2000/svg" xmlns:xlink="http://www.w3.org/1999/xlink" x="0px" y="0px"
	 viewBox="0 0 1000 1000" style="enable-background:new 0 0 1000 1000;" xml:space="preserve">
<path d="M561,90c-11.3,0-21,4-29,12s-12,17.7-12,29v41h82v-41c0-11.3-4-21-12-29S572.3,90,561,90z M958,567c10.7,10.7,19,23.3,25,38
	s9,30,9,46l0,0v95c0,11.3-4,21-12,29s-17.7,12-29,12h-44l0,0c-4.7,0-9-1.7-13-5s-6.3-7.3-7-12c-6.7-30.7-22-56-46-76s-52-30-84-30
	s-60.2,10.2-84.5,30.5c-24.3,20.3-39.8,45.8-46.5,76.5c-0.7,4.7-3,8.5-7,11.5s-8.3,4.5-13,4.5l0,0H375l0,0h-1c-4.7,0-8.8-1.7-12.5-5
	s-6.2-7.3-7.5-12c-6-30.7-21.2-56-45.5-76S256,664,224,664s-60.2,10.2-84.5,30.5C115.2,714.8,100,740.3,94,771
	c-1.3,4.7-3.8,8.5-7.5,11.5S78.7,787,74,787l0,0h-1H49c-11.3,0-21-4-29-12S8,757.3,8,746V254c0-11.3,4-21,12-29s17.7-12,29-12h602
	l0,0c35.3,0,65.3,13,90,39l218,315H958z M561,541c11.3,0,21-4,29-12s12-17.7,12-29s-4-21-12-29s-17.7-12-29-12h-61v-61
	c0-11.3-4-21-12-29s-17.7-12-29-12s-21,4-29,12s-12,17.7-12,29v61h-61c-11.3,0-21,4-29,12s-12,17.7-12,29s4,21,12,29s17.7,12,29,12
	h61v61c0,11.3,4,21,12,29s17.7,12,29,12s21-4,29-12s12-17.7,12-29v-61H561z M316,817c0-25.3-9-47-27-65s-39.7-27-65-27
	c-26,0-48,9-66,27s-27,39.7-27,65c0,26,9,48,27,66s40,27,66,27c25.3,0,47-9,65-27S316,843,316,817z M848,817c0-25.3-9-47-27-65
	s-39.7-27-65-27s-47,9-65,27s-27,39.7-27,65c0,26,9,48,27,66s39.7,27,65,27s47-9,65-27S848,843,848,817z"/>
</svg>
