<svg xmlns="http://www.w3.org/2000/svg" viewBox="0 0 97.61 89.89"><title>Regular-M</title><g id="Layer_2" data-name="Layer 2"><g id="Layer_1-2" data-name="Layer 1"><g id="Regular-M"><path d="M8.3,21.92h81c5.51,0,8.3-3.27,8.3-8.74V8.74c0-5.47-2.79-8.74-8.3-8.74H8.3C3.08,0,0,3.27,0,8.74v4.44C0,18.65,2.78,21.92,8.3,21.92ZM22,89.89H75.59c9.61,0,14.74-5,14.74-14.55V28.61h-83V75.34C7.28,85,12.4,89.89,22,89.89ZM32.71,46.24a3.33,3.33,0,0,1-3.46-3.56V41.16a3.28,3.28,0,0,1,3.46-3.51H64.94a3.33,3.33,0,0,1,3.52,3.51v1.52a3.38,3.38,0,0,1-3.52,3.56Z"/></g></g></g></svg>