<?xml version="1.0" encoding="utf-8"?>
<!-- Generator: Adobe Illustrator 23.0.1, SVG Export Plug-In . SVG Version: 6.00 Build 0)  -->
<svg version="1.1" id="Layer_1" xmlns="http://www.w3.org/2000/svg" xmlns:xlink="http://www.w3.org/1999/xlink" x="0px" y="0px"
	 viewBox="0 0 1000 1000" style="enable-background:new 0 0 1000 1000;" xml:space="preserve">
<path d="M846.6,500c13.9,15.3,23.6,26.6,28.9,33.9c47.1,59.1,70.7,112.5,70.7,160.4c0,21.2-4.6,39.8-13.9,55.8
	c-24.6,42.5-74.4,63.7-149.4,63.7c-8,0-19.3-0.7-33.9-2c-22.6-2-40.5-4.3-53.8-7c-6-0.7-13.3-2.3-21.9-5
	c-21.2,64.4-47.3,113.9-78.2,148.4c-30.9,34.5-62.9,51.8-96.1,51.8c-33.2,0-65.6-17.4-97.1-52.3s-57.3-84.2-77.2-147.9
	c-16.6,4.6-30.2,7.3-40.8,8c-22.6,4-45.8,6-69.7,6c-73.7,0-122.8-21.2-147.4-63.7c-9.3-15.9-13.9-34.5-13.9-55.8
	c0-47.8,23.6-101.3,70.7-160.4c6.6-8,16.6-19.3,29.9-33.9c-13.3-14.6-23.2-25.9-29.9-33.9C76.4,407,52.8,353.6,52.8,305.8
	c0-21.2,4.6-39.8,13.9-55.8c24.6-42.5,74-63.7,148.4-63.7c24.6,0,46.8,1.7,66.7,5l21.9,4c6,0.7,13.3,2.3,21.9,5
	c19.9-63.7,45.7-113,77.2-147.9S466.8,0,500,0s65.6,17.4,97.1,52.3s57.3,84.2,77.2,147.9c8.6-2.7,15.9-4.3,21.9-5l21.9-4
	c19.9-3.3,42.2-5,66.7-5c74.4,0,123.8,21.2,148.4,63.7c9.3,15.9,13.9,34.5,13.9,55.8c0,47.8-23.6,101.3-70.7,160.4
	C869.9,474.1,859.9,485.4,846.6,500z M500,61.8c-20.6,0-40.7,13.9-60.3,41.8c-19.6,27.9-35,66.1-46.3,114.5
	C436.6,231.4,470.1,246,494,262c35.9-15.9,75.7-31.2,119.5-45.8c-15.3-48.5-33-86.3-53.3-113.5S519.9,61.8,500,61.8z M120.5,280.9
	c-4,6.6-6,15.3-6,25.9c0,15.9,5,34.4,14.9,55.3c10,20.9,23.9,42.7,41.8,65.2l12,14.9c5.3,6.6,9.6,11.6,12.9,14.9
	c19.9-17.9,34.9-31.2,44.8-39.8c29.9-23.9,46.5-37.5,49.8-40.8c3.3-39.2,9.6-78.4,18.9-117.5c-14.6-4-26.2-6.3-34.9-7
	c-21.9-3.3-42.2-5-60.8-5C163.7,247,132.5,258.3,120.5,280.9z M727.1,252c-9.3,1.3-16.9,2-22.9,2c-6.6,0-12-0.7-15.9-2
	c6,27.2,13.9,70.7,23.9,130.5c33.2,23.9,63.7,48.8,91.6,74.7c5.3-6.6,9.6-11.6,12.9-14.9l12-14.9c18.6-23.2,32.9-45.5,42.8-66.7
	c10-21.2,14.9-39.5,14.9-54.8c0-10-2-18.3-6-24.9c-12.6-22.6-44.2-33.9-94.6-33.9C765.3,247,745.7,248.7,727.1,252z M392.4,314.7
	l17.9-10l16.9-9c-25.2-9.3-44.2-15.9-56.8-19.9c-5.3,25.2-9,44.8-11,58.8l16.9-10L392.4,314.7z M572.7,295.8l17.9,9l16.9,10l16.9,10
	l15.9,10c-2-13.9-5.6-33.5-11-58.8C616.9,279.9,597.9,286.5,572.7,295.8z M576.7,632.5c3.3-2,15.9-9.6,37.8-22.9l34.9-22.9
	c2.7-24.6,4-53.5,4-86.7s-1.3-62.1-4-86.7c-15.3-10.6-39.5-25.9-72.7-45.8c-22.6-13.3-48.1-26.9-76.7-40.8
	c-28.6,13.9-54.1,27.6-76.7,40.8c-33.2,19.9-57.4,35.2-72.7,45.8c-2.7,24.6-4,53.5-4,86.7s1.3,62.1,4,86.7
	c15.3,10.6,39.5,25.9,72.7,45.8c22.6,13.3,48.1,26.9,76.7,40.8C528.6,659.4,554.1,645.8,576.7,632.5z M571.7,500
	c0-19.9-7-36.9-20.9-50.8s-30.9-20.9-50.8-20.9c-19.9,0-36.9,7-50.8,20.9s-20.9,30.9-20.9,50.8c0,19.9,7,36.9,20.9,50.8
	s30.9,20.9,50.8,20.9c19.9,0,36.9-7,50.8-20.9S571.7,519.9,571.7,500z M286.9,538.8l-1-10l1-9V499v-19.9v-18.9
	c-11.3,8.6-26.9,21.6-46.8,38.8C266.6,521.6,282.2,534.9,286.9,538.8z M713.1,461.2c0.7,4.6,1,11,1,18.9c-0.7,4.6-1,11.6-1,20.9
	v19.9v18.9c11.3-8.6,26.9-21.6,46.8-38.8C733.4,478.4,717.8,465.1,713.1,461.2z M272.9,748c9.3-1.3,16.9-2,22.9-2
	c6.6,0,12,0.7,15.9,2c-8-35.2-15.6-78.7-22.9-130.5c-33.9-23.9-64.4-48.8-91.6-74.7c-3.3,3.3-7.6,8.3-12.9,14.9
	c-3.3,3.3-7.6,8.3-12.9,14.9c-17.9,22.6-31.9,44.3-41.8,65.2c-10,20.9-14.9,39.3-14.9,55.3c0,10,2,18.6,6,25.9
	c6,10.6,17.1,18.9,33.4,24.9c16.3,6,36,9,59.3,9C228.4,753,248.3,751.3,272.9,748z M879.5,719.1c4-7.3,6-15.9,6-25.9
	c0-15.9-5-34.4-14.9-55.3c-10-20.9-23.9-42.7-41.8-65.2l-12-14.9c-3.3-3.3-7.6-8.3-12.9-14.9c-19.3,17.9-51.1,44.8-95.6,80.7
	c-4,45.8-10.3,85-18.9,117.5l19.9,4l17.9,3c24.6,3.3,44.5,5,59.8,5c23.2,0,43-3,59.3-9C862.4,738,873.5,729.7,879.5,719.1z
	 M427.3,704.2l-16.9-10l-17.9-9l-15.9-10l-16.9-10c2,13.9,5.6,33.5,11,58.8C383.1,720.1,402.1,713.5,427.3,704.2z M640.4,665.3
	l-15.9,10l-33.9,19.9l-17.9,9c18.6,8,37.5,14.9,56.8,20.9C634.8,701.2,638.4,681.3,640.4,665.3z M500,938.2
	c20.6,0,40.7-13.9,60.3-41.8c19.6-27.9,35-66.1,46.3-114.5C563.4,768.6,529.9,754,506,738c-35.9,15.9-75.7,31.2-119.5,45.8
	c15.3,48.5,33,86.3,53.3,113.5C460,924.6,480.1,938.2,500,938.2z"/>
</svg>
