<?xml version="1.0" encoding="utf-8"?>
<!-- Generator: Adobe Illustrator 23.0.1, SVG Export Plug-In . SVG Version: 6.00 Build 0)  -->
<svg version="1.1" id="Layer_1" xmlns="http://www.w3.org/2000/svg" xmlns:xlink="http://www.w3.org/1999/xlink" x="0px" y="0px"
	 viewBox="0 0 1000 1000" style="enable-background:new 0 0 1000 1000;" xml:space="preserve">
<path d="M889,490c28.7,0,53,10,73,30s30,44.3,30,73c0,28-10.2,52-30.5,72S917,695,889,695h-7c-3.3,0-5.7,0.3-7,1
	c-11.3,40.7-28.8,78.3-52.5,113s-52.2,65-85.5,91c-32.7,26-69.3,45.8-110,59.5S544,980,500,980s-86.3-7-127-21s-77.3-34-110-60
	c-33.3-26-61.8-56.5-85.5-91.5S136.3,734.7,125,694h-6c-2,0.7-4.7,1-8,1c-28.7,0-53-10-73-30S8,621,8,593c0-28.7,10.2-53,30.5-73
	S83,490,111,490c2,0.7,4.7,1,8,1c1.3,0,3.3-0.7,6-2c20.7-70.7,57.3-131,110-181c53.3-49.3,116.7-81.7,190-97c-21.3-22.7-32-48-32-76
	v-3c0-0.7,0.3-1,1-1l-1-2c0-21.3,5.8-40.8,17.5-58.5S437.3,39.7,456,31c16.7-7.3,34.3-11,53-11c28,0,54.3,8.7,79,26
	c16.7,14.7,25,32.3,25,53v5c0,2-0.3,3.3-1,4c-2,13.3-7.2,25.3-15.5,36s-18.8,19-31.5,25c-4.7,4-10.7,6-18,6c-8.7,0-16-3-22-9
	s-9-13.3-9-22c0-6.7,2-12.7,6-18s9-9,15-11c6-4,9.7-6.7,11-8c2-2,3-4,3-6l0,0c0-4-1-6.3-3-7c-11.3-7.3-24.3-11-39-11
	c-8.7,0-18,1.7-28,5c-8,4-14.3,9.7-19,17s-7,15.7-7,25v2v2c-0.7,15.3,6.5,29,21.5,41s32.8,22,53.5,30c84,7.3,156.7,37,218,89
	c30.7,26,57,55.8,79,89.5s38,69.8,48,108.5c1.3-0.7,3.7-1,7-1C884.7,491,887,490.7,889,490z M275,521c0,17.3,6,32,18,44
	s26.3,18,43,18c17.3,0,32-6,44-18s18-26.7,18-44c0-16.7-6-31-18-43s-26.7-18-44-18c-16.7,0-31,6-43,18S275,504.3,275,521z M664,583
	c16.7,0,31-6,43-18s18-26.7,18-44c0-16.7-6-31-18-43s-26.3-18-43-18c-17.3,0-32,6-44,18s-18,26.3-18,43c0,17.3,6,32,18,44
	S646.7,583,664,583z M695,758c5.3-5.3,8-12.3,8-21s-3-16-9-22s-13.3-9-22-9c-8,0-15,3-21,9c-48,48-98.3,72-151,72
	c-43.3,0-78.3-11-105-33l-46-36c-6-4.7-12.7-7-20-7c-8.7,0-16,3-22,9s-9,13-9,21c0,6.7,2,12.7,6,18c0.7,1.3,19.7,16.7,57,46
	c35.3,28,81.7,42.7,139,44h3c68.7,0,133-30.3,193-91H695z"/>
</svg>
