<?xml version="1.0" encoding="utf-8"?>
<!-- Generator: Adobe Illustrator 23.0.1, SVG Export Plug-In . SVG Version: 6.00 Build 0)  -->
<svg version="1.1" id="Layer_1" xmlns="http://www.w3.org/2000/svg" xmlns:xlink="http://www.w3.org/1999/xlink" x="0px" y="0px"
	 viewBox="0 0 1000 1000" style="enable-background:new 0 0 1000 1000;" xml:space="preserve">
<path d="M708,44c4.7,5.3,8.7,15.7,12,31s5,32,5,50c0,25.3-3,47.5-9,66.5s-15,29.8-27,32.5h-2h-3h-3h-3c-29.3-3.3-53.3-10.3-72-21
	l-4-2l-7-3l-9-5l-10-6l-7-4c-4.7,6.7-10.7,12.7-18,18h1c-2,0.7-3.5,1.3-4.5,2s-1.8,1.3-2.5,2c-4.7,3.3-7.3,5-8,5l-1-1
	c-5.3,3.3-11,5.3-17,6h-1c-6.7,1.3-12.7,2-18,2c-5.3,0-11.3-0.7-18-2h-2l-8-3l-8-2l-2-1c-3.3-1.3-5.7-2.7-7-4c-2-0.7-3.5-1.3-4.5-2
	s-1.8-1.3-2.5-2l0,0l-6-6l-7-6c-0.7-2-2-4-4-6l-7,4l-11,6l-9,5l-10,5c-16.7,9.3-38.3,16.3-65,21h-4h-3h-3h-3h-2h-3
	c-12-2-21-12.5-27-31.5s-9-41.2-9-66.5c0-18.7,1.7-35.7,5-51s7.7-25.7,13-31l2-2l6-2h4l0,0h1c21.3,0,62.3,14.7,123,44
	c7.3-11.3,17.3-20.5,30-27.5S485.3,46,500,46c14,0,27.5,3.5,40.5,10.5S564,72.7,572,84c60.7-29.3,101.7-44,123-44h1h4l6,2L708,44z
	 M889,470c28.7,0,53,10,73,30s30,44.3,30,73c0,28-10.2,52-30.5,72S917,675,889,675h-7c-3.3,0-5.7,0.3-7,1
	c-11.3,40.7-28.8,78.3-52.5,113s-52.2,65-85.5,91c-32.7,26-69.3,45.8-110,59.5S544,960,500,960s-86.3-7-127-21s-77.3-34-110-60
	c-33.3-26-61.8-56.5-85.5-91.5S136.3,714.7,125,674h-6c-2,0.7-4.7,1-8,1c-28.7,0-53-10-73-30S8,601,8,573c0-28.7,10.2-53,30.5-73
	S83,470,111,470h8c2.7,0,4.7-0.3,6-1c12-44,31-84.3,57-121s58-68.3,96-95c4,4,8,6.3,12,7c6.7,3.3,14,5,22,5h8h1h1
	c37.3-3.3,71-13.7,101-31c21.3,17.3,47,26,77,26c29.3,0,54.3-8.7,75-26c32.7,18,67.3,28.3,104,31h1l0,0h9c3.3,0,6-0.3,8-1
	c8-0.7,16.7-4,26-10c37.3,26.7,69,58.5,95,95.5s45,77.8,57,122.5C880.3,470.7,885,470,889,470z M275,501c0,16.7,6,31,18,43
	s26.3,18,43,18c17.3,0,32-6,44-18s18-26.3,18-43c0-16.7-6-31-18-43s-26.7-18-44-18c-16.7,0-31,6-43,18S275,484.3,275,501z M664,562
	c16.7,0,31-6,43-18s18-26.3,18-43c0-16.7-6-31-18-43s-26.3-18-43-18c-17.3,0-32,6-44,18s-18,26.3-18,43c0,16.7,6,31,18,43
	S646.7,562,664,562z M695,738c5.3-7.3,8-14.3,8-21c0-8.7-3-16-9-22s-13.3-9-22-9c-8,0-15,3-21,9c-46.7,48-96.3,72-149,72h-2
	c-43.3,0-78.3-11-105-33l-46-36c-4.7-4.7-11.3-7-20-7s-16,3-22,9s-9,13-9,21c0,6.7,2,12.7,6,18c1.3,2,20.3,17,57,45
	c36,29.3,82.3,44.3,139,45h3c68.7,0,133-30.3,193-91H695z"/>
</svg>
