<svg xmlns="http://www.w3.org/2000/svg" viewBox="0 0 100.63 100.71"><title>bandage</title><g id="Layer_2" data-name="Layer 2"><g id="Layer_1-2" data-name="Layer 1"><g id="Symbols"><g id="Regular-M"><path d="M84.43,51.52,92.24,43c11.14-11.13,10.94-25.24.88-35.4S68.81-2.68,57.67,8.4l-8.49,7.86C53.38,15,57.92,16,62.7,20.8L80.48,38.58C85.26,43.31,85.6,47.27,84.43,51.52ZM42.68,75.05c4.89,4.88,9.57,5,14.55,0L75.06,57.23c5-5,4.93-9.67,0-14.55L58,25.54c-4.89-4.88-9.48-5-14.55.1L25.59,43.41c-5,5-4.88,9.72,0,14.6Zm4.45-31.74a4.57,4.57,0,0,1-.05-6.54,4.47,4.47,0,0,1,6.49,0,4.53,4.53,0,0,1,0,6.54A4.62,4.62,0,0,1,47.13,43.31ZM36.78,53.62a4.61,4.61,0,1,1,6.54-.1A4.54,4.54,0,0,1,36.78,53.62Zm27.1,0a4.61,4.61,0,0,1-6.55-6.5,4.61,4.61,0,1,1,6.55,6.5ZM7.53,93.12c10.06,10.2,24.31,10.3,35.45-.83l8.4-7.91c-4.25,1.22-8.55.39-13.29-4.35L20.27,62.21c-4.78-4.74-5.17-8.69-4-12.94L8.41,57.72C-2.78,68.8-2.53,83,7.53,93.12ZM47.08,63.87a4.57,4.57,0,1,1,6.49,0A4.47,4.47,0,0,1,47.08,63.87Z"/></g></g></g></g></svg>