<?xml version="1.0" encoding="utf-8"?>
<!-- Generator: Adobe Illustrator 23.0.1, SVG Export Plug-In . SVG Version: 6.00 Build 0)  -->
<svg version="1.1" id="Layer_1" xmlns="http://www.w3.org/2000/svg" xmlns:xlink="http://www.w3.org/1999/xlink" x="0px" y="0px"
	 viewBox="0 0 1000 1000" style="enable-background:new 0 0 1000 1000;" xml:space="preserve">
<path d="M60.5,29.8c-5.3,0-10,2-14,6s-6,8.7-6,14v676c0,6,2,11,6,15s8.7,6,14,6h103c5.3,0,10-2,14-6s6-9,6-15v-676c0-5.3-2-10-6-14
	s-8.7-6-14-6H60.5z M245.5,29.8c-6,0-11,2-15,6s-6,8.7-6,14v676c0,6,2,11,6,15s9,6,15,6h41c5.3,0,10-2,14-6s6-9,6-15v-676
	c0-5.3-2-10-6-14s-8.7-6-14-6H245.5z M368.5,29.8c5.3,0,10,2,14,6s6,8.7,6,14v676c0,6-2,11-6,15s-8.7,6-14,6c-6,0-11-2-15-6
	s-6-9-6-15v-676c0-5.3,2-10,6-14S362.5,29.8,368.5,29.8z M450.5,29.8c-6,0-11,2-15,6s-6,8.7-6,14v676c0,6,2,11,6,15s9,6,15,6h102
	c5.3,0,10-2,14-6s6-9,6-15v-676c0-5.3-2-10-6-14s-8.7-6-14-6H450.5z M634.5,29.8c-6,0-11,2-15,6s-6,8.7-6,14v676c0,6,2,11,6,15
	s9,6,15,6h41c5.3,0,10-2,14-6s6-9,6-15v-676c0-5.3-2-10-6-14s-8.7-6-14-6H634.5z M757.5,29.8c5.3,0,10,2,14,6s6,8.7,6,14v676
	c0,6-2,11-6,15s-8.7,6-14,6c-6,0-11-2-15-6s-6-9-6-15v-676c0-5.3,2-10,6-14S751.5,29.8,757.5,29.8z M839.5,29.8c-6,0-11,2-15,6
	s-6,8.7-6,14v676c0,6,2,11,6,15s9,6,15,6h102c6,0,11-2,15-6s6-9,6-15v-676c0-5.3-2-10-6-14s-9-6-15-6H839.5z M60.5,787.8
	c-5.3,0-10,2-14,6s-6,8.7-6,14v123c0,6,2,11,6,15s8.7,6,14,6h103c5.3,0,10-2,14-6s6-9,6-15v-123c0-5.3-2-10-6-14s-8.7-6-14-6H60.5z
	 M245.5,787.8c-6,0-11,2-15,6s-6,8.7-6,14v123c0,6,2,11,6,15s9,6,15,6h41c5.3,0,10-2,14-6s6-9,6-15v-123c0-5.3-2-10-6-14
	s-8.7-6-14-6H245.5z M368.5,787.8c5.3,0,10,2,14,6s6,8.7,6,14v123c0,6-2,11-6,15s-8.7,6-14,6c-6,0-11-2-15-6s-6-9-6-15v-123
	c0-5.3,2-10,6-14S362.5,787.8,368.5,787.8z M450.5,787.8c-6,0-11,2-15,6s-6,8.7-6,14v123c0,6,2,11,6,15s9,6,15,6h102
	c5.3,0,10-2,14-6s6-9,6-15v-123c0-5.3-2-10-6-14s-8.7-6-14-6H450.5z M634.5,787.8c-6,0-11,2-15,6s-6,8.7-6,14v123c0,6,2,11,6,15
	s9,6,15,6h41c5.3,0,10-2,14-6s6-9,6-15v-123c0-5.3-2-10-6-14s-8.7-6-14-6H634.5z M757.5,787.8c5.3,0,10,2,14,6s6,8.7,6,14v123
	c0,6-2,11-6,15s-8.7,6-14,6c-6,0-11-2-15-6s-6-9-6-15v-123c0-5.3,2-10,6-14S751.5,787.8,757.5,787.8z M839.5,787.8c-6,0-11,2-15,6
	s-6,8.7-6,14v123c0,6,2,11,6,15s9,6,15,6h102c6,0,11-2,15-6s6-9,6-15v-123c0-5.3-2-10-6-14s-9-6-15-6H839.5z"/>
</svg>
