<?xml version="1.0" encoding="utf-8"?>
<!-- Generator: Adobe Illustrator 23.0.1, SVG Export Plug-In . SVG Version: 6.00 Build 0)  -->
<svg version="1.1" id="Layer_1" xmlns="http://www.w3.org/2000/svg" xmlns:xlink="http://www.w3.org/1999/xlink" x="0px" y="0px"
	 viewBox="0 0 1000 1000" style="enable-background:new 0 0 1000 1000;" xml:space="preserve">
<path d="M753.1,819.1c18,31.9,35.3,57.2,52,75.9c-42.3,33.3-89.4,59.1-141.4,77.4c-52,18.4-106.4,27.5-163.2,27.5l0,0h-1
	c-56.1,0-110.2-9-162.2-27s-99.4-43.3-142.4-75.9c22.9-31.9,42.3-60.3,58.2-85.2l20.8,17.7c4.9,3.5,9.4,5.2,13.5,5.2
	c7.6,0,13.2-2.8,16.6-8.3l14.6-17.7c2.8-2.8,4.2-6.9,4.2-12.5c0-6.2-2.4-11.8-7.3-16.6l-33.3-21.8c21.5-44.4,37.8-88.4,48.9-132
	l39.5,11.4c0.7,0.7,1.7,1,3.1,1h3.1c4.9,0,9.2-1.4,13-4.2s6.1-6.2,6.8-10.4l7.3-21.8c0-1.4,0.3-2.4,1-3.1v-3.1c0-4.9-1.4-9.2-4.2-13
	c-2.8-3.8-6.6-6.4-11.4-7.8l-42.6-9.4c2.8-22.2,4.2-47.8,4.2-76.9c0-13.9-0.7-31.2-2.1-52l37.4-8.3c4.9-0.7,9-2.9,12.5-6.8
	c3.5-3.8,5.2-8.5,5.2-14v-2.1c-0.7,0-1-0.3-1-1l-3.1-21.8c-1.4-4.9-4-9-7.8-12.5c-3.8-3.5-8.1-5.2-13-5.2h-2.1l-2.1,1l-37.4,2.1
	c-9.7-47.1-24.9-91.1-45.7-132l23.9-11.4c7.6-4.2,11.4-10.4,11.4-18.7c0-4.9-1-8.3-3.1-10.4l-9.4-19.8c-4.2-7.6-10.7-11.4-19.8-11.4
	c-3.5,0.7-5.2,1-5.2,1l-4.2,2.1l-27,10.4c-18.7-29.8-38.8-55.4-60.3-76.9c43-31.9,90.1-56.7,141.4-74.3S444,0,499.5,0h3.1h3.1
	c55.4,0,108.6,8.7,159.6,26s97.2,41.9,138.8,73.8c-15.9,18.7-35.3,44.7-58.2,78l-20.8-10.4c-4.2-1.4-7.3-2.1-9.4-2.1
	c-9,0-15.6,3.8-19.8,11.4l-9.4,19.8l-2.1,4.2c-0.7,1.4-1,3.1-1,5.2c0,8.3,4.2,14.9,12.5,19.8l17.7,4.2
	c-22.2,43.7-39.5,90.4-52,140.3l-27-4.2l-2.1-1h-2.1c-5.5,0-10.2,1.7-14,5.2c-3.8,3.5-6.1,7.6-6.8,12.5l-4.2,21.8v1v2.1
	c0,4.9,1.7,9.4,5.2,13.5c3.5,4.2,8,6.6,13.5,7.3l30.1,3.1c-2.1,11.1-3.1,28.8-3.1,53c0,24.9,2.4,51.3,7.3,79l-35.3,11.4
	c-4.2,1.4-7.6,4-10.4,7.8c-2.8,3.8-4.2,8.1-4.2,13v2.1c0,2.1,0.3,3.5,1,4.2l6.2,20.8c1.4,4.9,4,8.7,7.8,11.4s8.1,4.2,13,4.2
	c1.4,0,2.4-0.3,3.1-1h2.1l32.2-4.2c11.8,40.9,27.7,82.5,47.8,124.7l-26,21.8c-4.9,4.9-7.3,10.4-7.3,16.6c0,5.5,1.4,10,4.2,13.5
	l13.5,16.6c4.2,5.5,9.7,8.3,16.6,8.3c4.9,0,9.7-1.7,14.6-5.2L753.1,819.1z M850.8,138.3c46.4,45.7,82.8,98.4,109.1,158
	c26.3,62.4,39.5,127.2,39.5,194.4v3.1v4.2l0,0v2.1c0,67.9-12.8,132.7-38.5,194.4C935.4,754,899.7,807.7,854,855.5
	c-19.4-24.3-37.8-51.3-55.1-81.1l22.9-18.7c5.5-4.2,8.3-10,8.3-17.7c0-5.5-1.7-10-5.2-13.5l-14.6-17.7c-4.2-5.5-9.7-8.3-16.6-8.3
	c-4.2,0-8.7,1.7-13.5,5.2l-9.4,12.5c-18-35.3-31.2-71.7-39.5-109.1l16.6-5.2c4.9-1.4,8.7-4,11.4-7.8c2.8-3.8,4.2-8.1,4.2-13V578
	c0-1.4-0.3-2.4-1-3.1l-6.2-21.8c-1.4-4.2-4-7.6-7.8-10.4c-3.8-2.8-8.1-4.2-13-4.2h-2.1c-0.7,0.7-1.7,1-3.1,1l-11.4,5.2
	c-2.8-18.7-4.2-39.8-4.2-63.4c0-9,0.3-15.9,1-20.8v-18.7l17.7,3.1h2.1h2.1c4.9,0,9.4-1.6,13.5-4.7s6.6-7.4,7.3-13l3.1-20.8l1-2.1v-1
	c0-11.1-6.2-18.4-18.7-21.8l-18.7-5.2c10.4-47.1,24.6-86.3,42.6-117.5l22.9,12.5c4.2,1.4,7.3,2.1,9.4,2.1c9,0,15.6-3.8,19.8-11.4
	l10.4-21.8c1.4-4.2,2.1-7.3,2.1-9.4c0-9-3.8-15.2-11.4-18.7L803,199.6C815.5,180.2,831.4,159.7,850.8,138.3z M198,776.5
	c-13.9,24.9-31.2,50.2-52,75.9C100.3,806.7,65,754,40,694.4C13.7,634.1,0.5,569.3,0.5,500v-1v-4.2v-3.1C0.5,423.8,14,359,41.1,297.3
	c24.9-59.6,61-112.3,108.1-158c18.7,21.5,35,43,48.9,64.4l-19.8,9.4c-7.6,4.2-11.4,10.4-11.4,18.7c0,2.1,0.7,5.2,2.1,9.4l11.4,21.8
	c3.5,9,10,13.5,19.8,13.5c1.4,0,4.2-0.7,8.3-2.1l21.8-14.6c20.8,37.4,35.7,78.3,44.7,122.7l-19.8,2.1c-11.8,3.5-17.7,10.7-17.7,21.8
	v1v2.1l3.1,21.8c4.2,11.8,11.4,17.7,21.8,17.7l1-1h2.1l17.7-4.2c0,8.3,0.3,14.9,1,19.8v20.8c0,5.5-1,26-3.1,61.3l-12.5-3.1l-2.1-1
	h-3.1c-4.9,0-9.2,1.4-13,4.2s-6.4,6.6-7.8,11.4l-6.2,20.8c-0.7,0.7-1,1.7-1,3.1v3.1c0,4.9,1.4,9.2,4.2,13c2.8,3.8,6.6,6.4,11.4,7.8
	l16.6,9.4c-7.6,28.4-20.1,61.7-37.4,99.8l-11.4-9.4c-3.5-2.8-8-4.2-13.5-4.2c-6.2,0-11.8,2.4-16.6,7.3l-14.6,17.7
	c-2.8,3.5-4.2,8-4.2,13.5c0,6.2,2.4,11.8,7.3,16.6L198,776.5z"/>
</svg>
