<?xml version="1.0" encoding="utf-8"?>
<!-- Generator: Adobe Illustrator 23.0.1, SVG Export Plug-In . SVG Version: 6.00 Build 0)  -->
<svg version="1.1" id="Layer_1" xmlns="http://www.w3.org/2000/svg" xmlns:xlink="http://www.w3.org/1999/xlink" x="0px" y="0px"
	 viewBox="0 0 1000 1000" style="enable-background:new 0 0 1000 1000;" xml:space="preserve">
<path d="M527,786c-20,52.7-30,106.7-30,162v17c0.7,3.3,1,9,1,17v-2h1h1c61.3,0,119.3-10.7,174-32c52-20,100.7-49.7,146-89L610,650
	C576.7,686.7,549,732,527,786z M500,540L181,859c34.7,32,74,58,118,78s90.3,33,139,39c0.7-2.7,1-7,1-13v-15c0-65.3,11.7-127,35-185
	c24-59.3,55.7-110.7,95-154L500,540z M390,430c-43.3,39.3-94.7,71-154,95c-58,23.3-119.7,35-185,35H36c-3.3-0.7-8.7-1-16-1
	c15.3,100,55.3,186.7,120,260l319-320L390,430z M949,496c-56.7,0-111,10.3-163,31c-50,18.7-95.3,46-136,82h1l209,209
	c38.7-42.7,68.3-90.7,89-144c21.3-54.7,32-112.7,32-174v-1v-2h-16C961.7,496.3,956.3,496,949,496z M569,609v-1V609z M610,568
	c43.3-39.3,94.7-71,154-95c58-23.3,119.7-35,185-35c6.7,0,11.7,0.3,15,1h16c-15.3-100-55.3-186.7-120-260L541,499L610,568z M34,502
	h17c55.3,0,109.3-10,162-30c52-20.7,97.7-48.3,137-83h-1L140,180c-38,42.7-67.7,91-89,145c-21.3,54.7-32,112.3-32,173v2v1
	C25.7,501,30.7,501.3,34,502z M500,458l319-319c-34.7-32-74-58-118-78s-90.3-33-139-39c-0.7,2.7-1,7.3-1,14v14
	c0,65.3-11.7,127-35,185c-24,59.3-55.7,110.7-95,154L500,458z M431,389v1V389z M472,213c20.7-51.3,31-105.7,31-163
	c0-7.3-0.3-12.7-1-16V18h-2c-62,0-120.3,10.7-175,32c-50.7,19.3-99,49-145,89l210,209C424.7,310,452,265,472,213z"/>
</svg>
