<?xml version="1.0" encoding="utf-8"?>
<!-- Generator: Adobe Illustrator 23.0.1, SVG Export Plug-In . SVG Version: 6.00 Build 0)  -->
<svg version="1.1" id="Layer_1" xmlns="http://www.w3.org/2000/svg" xmlns:xlink="http://www.w3.org/1999/xlink" x="0px" y="0px"
	 viewBox="0 0 1000 1000" style="enable-background:new 0 0 1000 1000;" xml:space="preserve">
<path d="M620.7,234.5c-8.5,0-15.7-2.9-21.6-8.8c-5.9-5.9-8.8-13.1-8.8-21.6c0-26.8,6.7-51.9,20.1-75.1c13.4-23.2,31.7-41.6,55-55
	c23.2-13.4,48.6-20.1,76.1-20.1c26.8,0,51.9,6.7,75.1,20.1s41.6,31.7,55,55c13.4,23.2,20.1,48.3,20.1,75.1v279.7
	c0,7.9-2.9,14.7-8.8,20.6c-5.9,5.9-12.8,8.8-20.6,8.8c-8.5,0-15.7-2.9-21.6-8.8c-5.9-5.9-8.8-12.8-8.8-20.6V204.1
	c0-24.9-8.8-46.1-26.5-63.8c-17.7-17.7-38.9-26.5-63.8-26.5c-24.9,0-46.1,8.8-63.8,26.5c-17.7,17.7-26.5,38.9-26.5,63.8
	c0,8.5-2.9,15.7-8.8,21.6C636.4,231.6,629.2,234.5,620.7,234.5z M513.7,403.3c-3.9,0-7.2-1.3-9.8-3.9c-2.6-2.6-3.9-5.9-3.9-9.8
	c0-29.4,10.5-54.6,31.4-75.6c20.9-20.9,46.1-31.4,75.6-31.4h26.5c30.1,0,55.6,10.5,76.6,31.4s31.4,46.1,31.4,75.6
	c0,3.9-1.3,7.2-3.9,9.8c-2.6,2.6-5.9,3.9-9.8,3.9H513.7z M962.3,574.1c8.5,0,15.7,2.9,21.6,8.8c5.9,5.9,8.8,12.8,8.8,20.6
	c0,8.5-2.9,15.7-8.8,21.6c-5.9,5.9-13.1,8.8-21.6,8.8H37.7c-8.5,0-15.7-2.9-21.6-8.8c-5.9-5.9-8.8-13.1-8.8-21.6
	c0-7.9,2.9-14.7,8.8-20.6c5.9-5.9,13.1-8.8,21.6-8.8H962.3z M902.4,684c11.1,0,20.6,3.9,28.5,11.8c7.9,7.9,11.8,17.3,11.8,28.5
	c0,30.1-5.7,58.6-17.2,85.4c-11.5,26.8-27.3,50.4-47.6,70.7c-20.9,20.9-44.8,37.1-71.6,48.6c-26.8,11.5-55.3,17.2-85.4,17.2h-422
	c-29.4,0-57.9-5.9-85.4-17.7s-51-27.8-70.7-48.1c-20.3-20.3-36.2-43.8-47.6-70.7S78,754.4,78,724.3c0-11.1,3.9-20.6,11.8-28.5
	s17.3-11.8,28.5-11.8H902.4z"/>
</svg>
