<?xml version="1.0" encoding="utf-8"?>
<!-- Generator: Adobe Illustrator 23.0.1, SVG Export Plug-In . SVG Version: 6.00 Build 0)  -->
<svg version="1.1" id="Layer_1" xmlns="http://www.w3.org/2000/svg" xmlns:xlink="http://www.w3.org/1999/xlink" x="0px" y="0px"
	 viewBox="0 0 2273 2273" style="enable-background:new 0 0 2273 2273;" xml:space="preserve">
<path d="M2173,1250.5h-37v159c-0.7,42-11,80.2-31,114.5s-47.2,61.5-81.5,81.5c-34.3,20-72.5,30.3-114.5,31H227
	c-42-0.7-80.2-11-114.5-31S51,1558.3,31,1524s-30.3-72.5-31-114.5v-546c0.7-42,11-80.2,31-114.5s47.2-61.5,81.5-81.5
	s72.5-30.3,114.5-31h1682c42,0.7,80.2,11,114.5,31c34.3,20,61.5,47.2,81.5,81.5s30.3,72.5,31,114.5v159h91
	c11.3,0.7,21.7,5.5,31,14.5s14.3,19.5,15,31.5v136c-0.7,12-5.5,22.5-14.5,31.5s-19.5,13.8-31.5,14.5H2173z M2046,863.5
	c-1.3-38.7-15-70.8-41-96.5s-58-38.8-96-39.5H227c-38.7,0.7-70.8,13.8-96.5,39.5S91.7,824.8,91,863.5v546
	c0.7,38.7,13.8,70.8,39.5,96.5s57.8,38.8,96.5,39.5h1682c38-0.7,70-13.8,96-39.5s39.7-57.8,41-96.5V863.5z M227,1477.5
	c-19.3-0.7-35.3-7.3-48-20s-19.3-28.7-20-48v-546c0.7-19.3,7.3-35.3,20-48s28.7-19.3,48-20h1682c19.3,0.7,35.3,7.3,48,20
	s19.3,28.7,20,48v546c-0.7,19.3-7.3,35.3-20,48s-28.7,19.3-48,20H227z"/>
</svg>
