<svg xmlns="http://www.w3.org/2000/svg" viewBox="0 0 92.14 102.78"><title>bell</title><g id="Layer_2" data-name="Layer 2"><g id="Layer_1-2" data-name="Layer 1"><g id="Symbols"><g id="Regular-M"><path d="M7.37,83.25h77.4c4.59,0,7.37-2.39,7.37-5.91,0-4.88-5-9.27-9.18-13.62-3.22-3.37-4.1-10.3-4.49-15.92-.34-18.75-5.33-31.69-18.31-36.37C58.3,5.08,53.27,0,46,0S33.79,5.08,32,11.43C19,16.11,14,29.05,13.67,47.8c-.39,5.62-1.27,12.55-4.49,15.92C4.93,68.07,0,72.46,0,77.34,0,80.86,2.73,83.25,7.37,83.25ZM46,102.78c8.31,0,14.36-6,15-12.89H31.1C31.74,96.73,37.79,102.78,46,102.78Z"/></g></g></g></g></svg>