<?xml version="1.0" encoding="utf-8"?>
<!-- Generator: Adobe Illustrator 23.0.1, SVG Export Plug-In . SVG Version: 6.00 Build 0)  -->
<svg version="1.1" id="Layer_1" xmlns="http://www.w3.org/2000/svg" xmlns:xlink="http://www.w3.org/1999/xlink" x="0px" y="0px"
	 viewBox="0 0 1000 1000" style="enable-background:new 0 0 1000 1000;" xml:space="preserve">
<path d="M911,101c22.7,22,40.3,48,53,78s19,61.7,19,95s-6.2,64.8-18.5,94.5S934.7,424.3,912,447c-22.7,22.7-48.8,40.3-78.5,53
	c-29.7,12.7-61.2,19-94.5,19c-46,0-90-12.3-132-37c-48,27.3-86.7,65-116,113c25.3,39.3,38,83,38,131c0,33.3-6.2,64.8-18.5,94.5
	c-12.3,29.7-29.8,55.8-52.5,78.5c-23.3,22.7-49.8,40.3-79.5,53s-60.8,19-93.5,19c-33.3,0-64.8-6.3-94.5-19s-55.8-30.3-78.5-53
	c-22.7-22-40.3-48-53-78s-19-61.7-19-95c0-32.7,6-63,18-91c4.7-30.7,11.8-62,21.5-94s21.5-61.3,35.5-88c14-28.7,30.3-52.2,49-70.5
	s39-29.2,61-32.5c43.3-6,77-21.5,101-46.5s38.3-57.2,43-96.5c2.7-20,11-37.3,25-52s30.5-26.2,49.5-34.5S474,107,478,105
	c58.7-28,115.3-47.7,170-59c28.7-11.3,59-17,91-17c33.3,0,64.8,6.3,94.5,19S889,78.3,911,101z M869,404c16.7-16.7,29.8-36.3,39.5-59
	s14.5-46.7,14.5-72c0-24.7-4.8-48.3-14.5-71s-22.8-42.3-39.5-59s-36.3-29.8-59-39.5S763.7,89,739,89c-33.3,0-64,8.3-92,25
	s-50.3,39-67,67s-25,58.7-25,92c0,34,8.3,65,25,93s39,50.3,67,67c28,16.7,58.7,25,92,25c24.7,0,48.3-4.8,71-14.5
	C832.7,433.8,852.3,420.7,869,404z M416,857c16.7-16.7,29.8-36.3,39.5-59s14.5-46.3,14.5-71c0-25.3-4.8-49.3-14.5-72
	s-22.8-42.3-39.5-59s-36.3-29.8-59-39.5S310.3,542,285,542c-33.3,0-64,8.3-92,25s-50.3,39-67,67s-25,59-25,93c0,33.3,8.3,64,25,92
	s39,50.3,67,67s58.7,25,92,25c25.3,0,49.3-4.8,72-14.5S399.3,873.7,416,857z"/>
</svg>
