<?xml version="1.0" encoding="utf-8"?>
<!-- Generator: Adobe Illustrator 23.0.1, SVG Export Plug-In . SVG Version: 6.00 Build 0)  -->
<svg version="1.1" id="Layer_1" xmlns="http://www.w3.org/2000/svg" xmlns:xlink="http://www.w3.org/1999/xlink" x="0px" y="0px"
	 viewBox="0 0 714 714" style="enable-background:new 0 0 714 714;" xml:space="preserve">
<path d="M186.9,601.2l9.9-0.8l13.7,0.8c6.6,0.5,14.2,0.8,22.8,0.8v107.8h65.3V602.7c7.6,0.5,24.8,0.8,51.6,0.8v106.3h65.3V601.9
	l61.5-6.8c17.7-2.5,34.8-7.3,51.3-14.4c16.5-7.1,30.3-15.4,41.4-25.1c13.2-11.1,23.5-26.5,31.1-45.9c7.6-19.5,11.4-41.4,11.4-65.7
	c0-31.4-8.1-56.2-24.3-74.4c-16.2-18.2-39.7-31.1-70.6-38.7c37.5-19.2,56.2-50.1,56.2-92.7c0-47.1-17-79.7-50.9-98
	c-28.9-15.7-64.6-25.3-107.1-28.9V4.2h-65.3v104c-19.2,0-36.5,0.3-51.6,0.8V4.2h-65.3v107.1c-6.6,0.5-20.3,0.8-41,0.8l-90.4-0.8
	v69.9h47.1c21.3,0,33.9,9.6,38,28.9v292.4c-2,14.2-10.1,21.3-24.3,21.3h-47.1l-13.7,77.5H186.9z M299.3,185.7c2-1,4.6-1.5,7.6-1.5
	l9.1,0.8l12.2,0.8l10.6-0.8l9.1-0.8c2.5,0,7.8,0.5,15.9,1.5l25.8,3.8c7.6,1,15.7,3.3,24.3,6.8c8.6,3.5,15.2,7.6,19.7,12.2
	c12.2,11.1,18.2,25.3,18.2,42.5c0,6.6-1.3,13.7-3.8,21.3c-4.6,11.6-13.7,21-27.3,28.1c-8.6,4.6-22.8,8.6-42.5,12.2
	c-11.6,2-26.3,3-44,3h-34.9V185.7z M299.3,380.9c1-0.5,4.8-0.8,11.4-0.8h9.1l15.2,0.8l12.2-0.8c6.6-0.5,16.2-0.3,28.9,0.8
	s23.3,2.5,31.9,4.6c25.3,5.6,42.5,12.4,51.6,20.5c14.7,13.2,22,28.6,22,46.3c-0.5,9.1-1.8,16.6-3.8,22.4c-2,5.8-5.6,11.3-10.6,16.3
	c-10.6,10.6-22.8,17.7-36.5,21.3c-23.3,6.1-39.2,9.4-47.8,9.9l-25.1,1.5c-6.1,0.5-13.4,0.8-22,0.8h-36.5V380.9z"/>
</svg>
