<?xml version="1.0" encoding="utf-8"?>
<!-- Generator: Adobe Illustrator 23.0.1, SVG Export Plug-In . SVG Version: 6.00 Build 0)  -->
<svg version="1.1" id="Layer_1" xmlns="http://www.w3.org/2000/svg" xmlns:xlink="http://www.w3.org/1999/xlink" x="0px" y="0px"
	 viewBox="0 0 1000 1000" style="enable-background:new 0 0 1000 1000;" xml:space="preserve">
<path d="M526,710c-13.3-1.3-24.5-7-33.5-17S479,671,479,657v-3l1-2V93c0-18,4.7-32.3,14-43c9.3-10.7,20.3-16,33-16
	c8,0,15.7,2.7,23,8s13,13,17,23l235,560c3.3,7.3,5,16.3,5,27c0,16-4.3,29.7-13,41c-8.7,11.3-19.7,17-33,17H526z M242,710L242,710h-2
	c-7.3,0-13.5-2.5-18.5-7.5S214,691.3,214,684c0-6,1-10.3,3-13l146-254c5.3-9.3,14-14,26-14c7.3,0,13.8,2.5,19.5,7.5
	s8.8,11.2,9.5,18.5v255c0,7.3-2.8,13.5-8.5,18.5S397.3,710,390,710l0,0h-1H242z M940,761h1c11.3,0,21,4,29,12s12,17.7,12,29
	c0,12.7-5.3,23.7-16,33L807,957c-8.7,6-17,9-25,9l0,0h-1H127l0,0h-1c-7.3,0-14.2-1.8-20.5-5.5S94.3,952,91,946L23,823
	c-3.3-6-5-13-5-21c0-11.3,4-21,12-29s17.3-12,28-12h1H940z"/>
</svg>
