<?xml version="1.0" encoding="utf-8"?>
<!-- Generator: Adobe Illustrator 23.0.1, SVG Export Plug-In . SVG Version: 6.00 Build 0)  -->
<svg version="1.1" id="Layer_1" xmlns="http://www.w3.org/2000/svg" xmlns:xlink="http://www.w3.org/1999/xlink" x="0px" y="0px"
	 viewBox="0 0 1000 1000" style="enable-background:new 0 0 1000 1000;" xml:space="preserve">
<path d="M632,146l-143,11l-8-102v-2v-2c0-10.7,3.7-19.8,11-27.5s16.3-11.8,27-12.5l61-5h2h1c10.7,0,20,3.7,28,11s12.3,16.3,13,27
	L632,146z M194,253H31V151c0-11.3,3.8-21,11.5-29s17.2-12,28.5-12h82c11.3,0,21,4,29,12s12,17.7,12,29V253z M693,942v1v2
	c0,10.7-3.7,20-11,28s-16.3,12.3-27,13l-61,5h-2h-2c-10.7,0-19.8-3.7-27.5-11s-12.2-16.3-13.5-27l-53-694l144-11L693,942z M882,366
	l-161,27l-14-88l-1-2v-1c0-10,3.5-18.7,10.5-26s15.2-11.3,24.5-12l81-13c0.7-0.7,2.3-1,5-1h5c8.7,0,16.3,2.7,23,8s11,12,13,20
	L882,366z M440,356H256v-62c0-11.3,4-21,12-29s17.7-12,29-12h102c11.3,0,21,4,29,12s12,17.7,12,29V356z M194,356v594
	c0,11.3-4,21-12,29s-17.7,12-29,12H71c-11.3,0-20.8-4-28.5-12S31,961.3,31,950V356H194z M896,447l81,491v2v1c0,10-3.3,18.7-10,26
	s-15,11.3-25,12l-80,14h-4c-1.3,0.7-3.3,1-6,1c-8.7,0-16.3-2.7-23-8s-11-12.3-13-21l-81-491L896,447z M440,458v492
	c0,11.3-4,21-12,29s-17.7,12-29,12H297c-11.3,0-21-4-29-12s-12-17.7-12-29V458H440z"/>
</svg>
