<svg xmlns="http://www.w3.org/2000/svg" viewBox="0 0 99.85 85.16"><title>Regular-M</title><g id="Layer_2" data-name="Layer 2"><g id="Layer_1-2" data-name="Layer 1"><g id="Regular-M"><path d="M27.15,77.78a27.47,27.47,0,0,1,16,4.74,24.6,24.6,0,0,0,3.9,2V10.69C43.85,4.79,34.47,0,24.8,0,12.65,0,2.29,7,0,11.77V80.71c0,3.23,1.86,4.45,4.2,4.45a6.23,6.23,0,0,0,4.25-1.62C11.33,81,18.12,77.78,27.15,77.78Zm45.55,0c9.09,0,15.78,3.18,18.75,5.76a6.16,6.16,0,0,0,4.16,1.62c2.34,0,4.24-1.22,4.24-4.45V11.77C97.56,7,87.21,0,75.05,0,65.38,0,56,4.79,52.88,10.69V84.62a24.1,24.1,0,0,0,3.91-2.1A27.35,27.35,0,0,1,72.7,77.78Z"/></g></g></g></svg>