<?xml version="1.0" encoding="utf-8"?>
<!-- Generator: Adobe Illustrator 23.0.1, SVG Export Plug-In . SVG Version: 6.00 Build 0)  -->
<svg version="1.1" id="Layer_1" xmlns="http://www.w3.org/2000/svg" xmlns:xlink="http://www.w3.org/1999/xlink" x="0px" y="0px"
	 viewBox="0 0 804 804" style="enable-background:new 0 0 804 804;" xml:space="preserve">
<path d="M802,687.5c-42-14.7-86.3-22-133-22c-22,0-41.3,1.3-58,4c-65.3,9.3-125.3,33-180,71l-19,12v-614l17-11
	c54.7-38.7,115-62.7,181-72c16.7-2.7,36-4,58-4c47.3,0,92.7,7.3,136,22v615L802,687.5z M371,738.5c-54-36.7-113-59.7-177-69
	c-25.3-2.7-44.3-4-57-4c-44.7,0-88.7,7-132,21l-5,2v-615l6-2c43.3-13.3,87.3-20,132-20c12.7,0,31.7,1.3,57,4
	c63.3,9.3,121.7,32,175,68l22,15v614L371,738.5z"/>
</svg>
