<?xml version="1.0" encoding="utf-8"?>
<!-- Generator: Adobe Illustrator 23.0.1, SVG Export Plug-In . SVG Version: 6.00 Build 0)  -->
<svg version="1.1" id="Layer_1" xmlns="http://www.w3.org/2000/svg" xmlns:xlink="http://www.w3.org/1999/xlink" x="0px" y="0px"
	 viewBox="0 0 1000 1000" style="enable-background:new 0 0 1000 1000;" xml:space="preserve">
<path d="M942,910c8.7,0,16,3,22,9s9,13,9,21c0,8.7-3,16-9,22s-13.3,9-22,9H82c-8.7,0-16-3-22-9s-9-13.3-9-22V60c0-8.7,3-16,9-22
	s13.3-9,22-9s16,3,22,9s9,13.3,9,22v850H942z M385,192c-6,0-11,2-15,6s-6,9-6,15v635c0,5.3,2,10,6,14s9,6,15,6h102c5.3,0,10-2,14-6
	s6-8.7,6-14V213c0-6-2-11-6-15s-8.7-6-14-6H385z M797,192c-6,0-11,2-15,6s-6,9-6,15v635c0,5.3,2,10,6,14s9,6,15,6h102c6,0,11-2,15-6
	s6-8.7,6-14V213c0-6-2-11-6-15s-9-6-15-6H797z M178,377c-5.3,0-10,2-14,6s-6,8.7-6,14v451c0,5.3,2,10,6,14s8.7,6,14,6h103
	c5.3,0,10-2,14-6s6-8.7,6-14V397c0-5.3-2-10-6-14s-8.7-6-14-6H178z M591,377c-6,0-11,2-15,6s-6,8.7-6,14v451c0,5.3,2,10,6,14
	s9,6,15,6h102c6,0,11-2,15-6s6-8.7,6-14V397c0-5.3-2-10-6-14s-9-6-15-6H591z"/>
</svg>
