<?xml version="1.0" encoding="utf-8"?>
<!-- Generator: Adobe Illustrator 23.0.1, SVG Export Plug-In . SVG Version: 6.00 Build 0)  -->
<svg version="1.1" id="Layer_1" xmlns="http://www.w3.org/2000/svg" xmlns:xlink="http://www.w3.org/1999/xlink" x="0px" y="0px"
	 viewBox="0 0 1000 1000" style="enable-background:new 0 0 1000 1000;" xml:space="preserve">
<path d="M965,96c4,2.7,6,7.7,6,15c0,6-2,11-6,15l-45,45l-91-91l45-45c4-4,9-6,15-6c6.7,0,11.7,2,15,6L965,96z M889,201l-84,83
	c10,25.3,15,50.7,15,76c0,27.3-5.2,53.2-15.5,77.5c-10.3,24.3-24.8,45.8-43.5,64.5c-14,14.7-46.7,47.7-98,99L387,875
	c-43.3,42-73.3,72-90,90c-4,4-9,6-15,6c-6.7,0-11.7-2-15-6L35,733c-4-3.3-6-8.3-6-15c0-6,2-11,6-15c23.3-22.7,98.7-98.3,226-227
	c116-117.3,195.3-196.3,238-237c18.7-18.7,40.2-33.2,64.5-43.5S613.3,180,640,180s51.7,5,75,15l84-84L889,201z M636,544
	c8-9.3,12-19,12-29c0-12-4-22-12-30L520,370c-6.7-8-16.3-12-29-12c-11.3,0-21,4-29,12l-72,72c-8,8-12,17.7-12,29s4,21,12,29l116,116
	c7.3,8,17,12,29,12s21.3-4,28-12L636,544z M460,706c6-6,9-13.3,9-22c0-8-3-15-9-21L337,540c-6-6-13-9-21-9s-15,3-21,9s-9,13.3-9,22
	s2.7,15.7,8,21l123,123c6,6,13.3,9,22,9C447,715,454,712,460,706z"/>
</svg>
