<svg xmlns="http://www.w3.org/2000/svg" viewBox="0 0 107.57 93.41"><title>Regular-M</title><g id="Layer_2" data-name="Layer 2"><g id="Layer_1-2" data-name="Layer 1"><g id="Regular-M"><path d="M32.42,13.18c0-4,2-6.1,6.15-6.1H69c4.11,0,6.16,2.05,6.16,6.1v4.4H32.42Zm75.15,18.7c0-9.47-5-14.3-14.5-14.3H82.71V13.72C82.71,4.2,78,0,68.9,0H38.67C30.08,0,24.85,4.2,24.85,13.72v3.86H14.5c-9,0-14.5,4.83-14.5,14.3v12.6H107.57ZM14.5,93.41H93.07c9.47,0,14.5-4.79,14.5-14.31v-28H73.39V54c0,4-2.35,6.3-6.4,6.3H40.38C36.33,60.3,34,58,34,54V51.12H0v28C0,88.62,5,93.41,14.5,93.41Z"/></g></g></g></svg>