<?xml version="1.0" encoding="utf-8"?>
<!-- Generator: Adobe Illustrator 23.0.1, SVG Export Plug-In . SVG Version: 6.00 Build 0)  -->
<svg version="1.1" id="Layer_1" xmlns="http://www.w3.org/2000/svg" xmlns:xlink="http://www.w3.org/1999/xlink" x="0px" y="0px"
	 viewBox="0 0 1000 1000" style="enable-background:new 0 0 1000 1000;" xml:space="preserve">
<path d="M901,310.5c6,0,11,2,15,6s6,9,6,15v102c0,6-2,11-6,15s-9,6-15,6h-20v379c0,11.3-4,21-12,29s-17.7,12-29,12h-72v92
	c0,5.3-2,10-6,14s-8.7,6-14,6h-62c-5.3,0-10-2-14-6s-6-8.7-6-14v-92H358v92c0,5.3-2,10-6,14s-8.7,6-14,6h-62c-5.3,0-10-2-14-6
	s-6-8.7-6-14v-92h-72c-11.3,0-21-4-29-12s-12-17.7-12-29v-379h-20c-6,0-11-2-15-6s-6-9-6-15v-102c0-6,2-11,6-15s9-6,15-6h20v-256
	c0-11.3,4-21,12-29s17.7-12,29-12h656c11.3,0,21,4,29,12s12,17.7,12,29v256H901z M358,85.5c-8,0-15,3-21,9s-9,13.3-9,22s3,16,9,22
	s13,9,21,9h308c8,0,15-3,21-9s9-13.3,9-22s-3-16-9-22s-13-9-21-9H358z M819,280.5c0-22.7-8-42-24-58s-35.3-24-58-24H287
	c-22.7,0-42,8-58,24s-24,35.3-24,58v205c0,22,8,41,24,57s35.3,24,58,24h450c22.7,0,42-8,58-24s24-35,24-57V280.5z M328,812.5
	c22.7,0,42-8,58-24s24-35.3,24-58s-8-42-24-58s-35.3-24-58-24s-42,8-58,24s-24,35.3-24,58s8,42,24,58S305.3,812.5,328,812.5z
	 M696,812.5c22.7,0,42-8,58-24s24-35.3,24-58s-8-42-24-58s-35.3-24-58-24s-42,8-58,24s-24,35.3-24,58s8,42,24,58
	S673.3,812.5,696,812.5z"/>
</svg>
