<?xml version="1.0" encoding="utf-8"?>
<!-- Generator: Adobe Illustrator 23.0.1, SVG Export Plug-In . SVG Version: 6.00 Build 0)  -->
<svg version="1.1" id="Layer_1" xmlns="http://www.w3.org/2000/svg" xmlns:xlink="http://www.w3.org/1999/xlink" x="0px" y="0px"
	 viewBox="0 0 1000 1000" style="enable-background:new 0 0 1000 1000;" xml:space="preserve">
<path d="M551,136.5c0-22.7-5-42-15-58s-22-24-36-24s-26,8-36,24s-15,35.3-15,58s5,42,15,58s22,24,36,24s26-8,36-24
	S551,159.2,551,136.5z M149,406.5c-21.3-13.3-45.3-21.3-72-24l4-50c2-20.7,10.7-38.2,26-52.5s33.7-21.5,55-21.5h1h675l0,0
	c21.3,0,39.8,7.2,55.5,21.5s24.5,32.2,26.5,53.5l2,49c-27.3,3.3-50.3,11.3-69,24c-17.3,11.3-37,17-59,17s-41.3-5.7-58-17
	c-28.7-16-58.3-24-89-24c-34.7,0-64,8-88,24c-16.7,11.3-35.3,17-56,17h-1h-2h-1h-2c-21.3,0-39.7-5.7-55-17c-26.7-16-55.3-24-86-24
	h-1h-2h-1h-2c-32.7,0-61,8-85,24c-16.7,11.3-35.3,17-56,17h-1h-2h-1h-2c-20,0-38.3-5.7-55-17H149z M881,460.5
	c11.3-8,26.7-13.7,46-17l24,345v1v2c0,11.3-4,21-12,29s-17.7,12-29,12l0,0H90l0,0c-11.3,0-21-4-29-12s-12-17.7-12-29v-2v-1l24-345
	c18,3.3,32.7,8.7,44,16c26,16.7,54.7,25,86,25h2h1h2h1c32,0,60.3-8,85-24c16.7-11.3,35.3-17,56-17h2h1h2h1c18.7,0,37,5.3,55,16
	c26,16.7,54.7,25,86,25h2h1h2h1c31.3,0,59.7-8,85-24c16.7-11.3,35.3-17,56-17h1h2h1h1c18.7,0,37,5.3,55,16c28,16.7,57.7,25,89,25
	c32.7,0,62.3-8,89-24H881z M961,945.5c8.7,0,16-3,22-9s9-13.3,9-22s-3-16-9-22s-13.3-9-22-9H39c-8.7,0-16,3-22,9s-9,13.3-9,22
	s3,16,9,22s13.3,9,22,9H961z"/>
</svg>
