<?xml version="1.0" encoding="utf-8"?>
<!-- Generator: Adobe Illustrator 23.0.1, SVG Export Plug-In . SVG Version: 6.00 Build 0)  -->
<svg version="1.1" id="Layer_1" xmlns="http://www.w3.org/2000/svg" xmlns:xlink="http://www.w3.org/1999/xlink" x="0px" y="0px"
	 viewBox="0 0 1000 1000" style="enable-background:new 0 0 1000 1000;" xml:space="preserve">
<path d="M850,19c11.3,0,21,4,29,12s12,17.7,12,29v880c0,11.3-4,21-12,29s-17.7,12-29,12H174c-11.3,0-21-4-29-12s-12-17.7-12-29V60
	c0-11.3,4-21,12-29s17.7-12,29-12H850z M788,135c0-5.3-2-10-6-14s-8.7-6-14-6H256c-5.3,0-10,2-14,6s-6,8.7-6,14v103c0,5.3,2,10,6,14
	s8.7,6,14,6h512c5.3,0,10-2,14-6s6-8.7,6-14V135z M379,362c0-5.3-2-10-6-14s-9-6-15-6H256c-5.3,0-10,2-14,6s-6,8.7-6,14v103
	c0,5.3,2,10,6,14s8.7,6,14,6h102c6,0,11-2,15-6s6-8.7,6-14V362z M584,363c0-6-2-11-6-15s-9-6-15-6H461c-6,0-11,2-15,6s-6,9-6,15v102
	c0,5.3,2,10,6,14s9,6,15,6h102c6,0,11-2,15-6s6-8.7,6-14V363z M788,363c0-6-2-11-6-15s-8.7-6-14-6H666c-6,0-11,2-15,6s-6,9-6,15v102
	c0,6,2,11,6,15s9,6,15,6h102c5.3,0,10-2,14-6s6-9,6-15V363z M379,551c0-5.3-2-10-6-14s-9-6-15-6H256c-5.3,0-10,2-14,6s-6,8.7-6,14
	v103c0,5.3,2,10,6,14s8.7,6,14,6h102c6,0,11-2,15-6s6-8.7,6-14V551z M584,551c0-5.3-2-10-6-14s-9-6-15-6H461c-6,0-11,2-15,6
	s-6,8.7-6,14v103c0,5.3,2,10,6,14s9,6,15,6h102c6,0,11-2,15-6s6-8.7,6-14V551z M788,552c0-6-2-11-6-15s-8.7-6-14-6H666
	c-6,0-11,2-15,6s-6,9-6,15v102c0,5.3,2,10,6,14s9,6,15,6h102c5.3,0,10-2,14-6s6-8.7,6-14V552z M379,748c0-5.3-2-10-6-14s-9-6-15-6
	H256c-5.3,0-10,2-14,6s-6,8.7-6,14v103c0,5.3,2,10,6,14s8.7,6,14,6h102c6,0,11-2,15-6s6-8.7,6-14V748z M584,749c0-6-2-11-6-15
	s-9-6-15-6H461c-6,0-11,2-15,6s-6,9-6,15v102c0,6,2,11,6,15s9,6,15,6h102c6,0,11-2,15-6s6-9,6-15V749z M788,749c0-6-2-11-6-15
	s-8.7-6-14-6H666c-6,0-11,2-15,6s-6,9-6,15v102c0,6,2,11,6,15s9,6,15,6h102c5.3,0,10-2,14-6s6-9,6-15V749z"/>
</svg>
