<svg xmlns="http://www.w3.org/2000/svg" viewBox="0 0 97.31 89.89"><title>Regular-M</title><g id="Layer_2" data-name="Layer 2"><g id="Layer_1-2" data-name="Layer 1"><g id="Regular-M"><path d="M15.33,89.89H82c10.21,0,15.28-5.08,15.28-15.13V15.14C97.31,5.08,92.24,0,82,0H15.33C5.13,0,0,5,0,15.14V74.76C0,84.86,5.13,89.89,15.33,89.89ZM14.6,82c-4.35,0-6.74-2.29-6.74-6.83V29.15c0-4.49,2.39-6.84,6.74-6.84H82.67c4.34,0,6.78,2.35,6.78,6.84V75.2C89.45,79.74,87,82,82.67,82ZM39.11,39.84H42c1.71,0,2.3-.48,2.3-2.19V34.77c0-1.71-.59-2.25-2.3-2.25H39.11c-1.71,0-2.29.54-2.29,2.25v2.88C36.82,39.36,37.4,39.84,39.11,39.84Zm16.26,0H58.2c1.71,0,2.3-.48,2.3-2.19V34.77c0-1.71-.59-2.25-2.3-2.25H55.37c-1.76,0-2.29.54-2.29,2.25v2.88C53.08,39.36,53.61,39.84,55.37,39.84Zm16.21,0h2.88c1.71,0,2.25-.48,2.25-2.19V34.77c0-1.71-.54-2.25-2.25-2.25H71.58c-1.71,0-2.29.54-2.29,2.25v2.88C69.29,39.36,69.87,39.84,71.58,39.84Zm-48.68,16h2.88c1.71,0,2.25-.49,2.25-2.2V50.73c0-1.71-.54-2.19-2.25-2.19H22.9c-1.71,0-2.29.48-2.29,2.19v2.88C20.61,55.32,21.19,55.81,22.9,55.81Zm16.21,0H42c1.71,0,2.3-.49,2.3-2.2V50.73c0-1.71-.59-2.19-2.3-2.19H39.11c-1.71,0-2.29.48-2.29,2.19v2.88C36.82,55.32,37.4,55.81,39.11,55.81Zm16.26,0H58.2c1.71,0,2.3-.49,2.3-2.2V50.73c0-1.71-.59-2.19-2.3-2.19H55.37c-1.76,0-2.29.48-2.29,2.19v2.88C53.08,55.32,53.61,55.81,55.37,55.81Zm16.21,0h2.88c1.71,0,2.25-.49,2.25-2.2V50.73c0-1.71-.54-2.19-2.25-2.19H71.58c-1.71,0-2.29.48-2.29,2.19v2.88C69.29,55.32,69.87,55.81,71.58,55.81Zm-48.68,16h2.88c1.71,0,2.25-.54,2.25-2.25V66.7c0-1.71-.54-2.2-2.25-2.2H22.9c-1.71,0-2.29.49-2.29,2.2v2.88C20.61,71.29,21.19,71.83,22.9,71.83Zm16.21,0H42c1.71,0,2.3-.54,2.3-2.25V66.7c0-1.71-.59-2.2-2.3-2.2H39.11c-1.71,0-2.29.49-2.29,2.2v2.88C36.82,71.29,37.4,71.83,39.11,71.83Zm16.26,0H58.2c1.71,0,2.3-.54,2.3-2.25V66.7c0-1.71-.59-2.2-2.3-2.2H55.37c-1.76,0-2.29.49-2.29,2.2v2.88C53.08,71.29,53.61,71.83,55.37,71.83Z"/></g></g></g></svg>