<svg xmlns="http://www.w3.org/2000/svg" viewBox="0 0 114.75 93.12"><title>Regular-M</title><g id="Layer_2" data-name="Layer 2"><g id="Layer_1-2" data-name="Layer 1"><g id="Regular-M"><path d="M15.33,93.12H99.41c10.21,0,15.34-5.08,15.34-15.14V26.86q0-15.09-15.34-15.09H88c-3.81,0-5-.78-7.18-3.23l-4-4.39C74.46,1.46,72,0,66.94,0H47.46c-5,0-7.52,1.46-10,4.15L33.59,8.54c-2.14,2.4-3.37,3.23-7.17,3.23H15.33C5.13,11.77,0,16.8,0,26.86V78C0,88,5.13,93.12,15.33,93.12Zm42-15.63A26.71,26.71,0,1,1,84,50.78,26.57,26.57,0,0,1,57.37,77.49ZM92.48,38.87a6,6,0,1,1,6-6A6,6,0,0,1,92.48,38.87ZM57.37,70.07A19.29,19.29,0,1,0,38.13,50.78,19.27,19.27,0,0,0,57.37,70.07Z"/></g></g></g></svg>