<svg xmlns="http://www.w3.org/2000/svg" viewBox="0 0 32 32"><path d="M25 17.574a1.073 1.073 0 0 0-1.671-.894l-1.884 1.255a1 1 0 0 0-.445.832V19a1 1 0 0 0 1.385.923l2-.833a.997.997 0 0 0 .615-.924v-.592zM24.219 13l-.906-3.622a.992.992 0 0 0-.74-.732C21.221 8.351 18.982 8 16 8s-5.221.351-6.574.646a.992.992 0 0 0-.739.732L7.781 13h16.438zM11 18.767a1 1 0 0 0-.445-.832L8.671 16.68A1.073 1.073 0 0 0 7 17.574v.592c0 .406.241.768.615.924l2 .833A1.002 1.002 0 0 0 11 19v-.233zM28 13.5v1a.5.5 0 0 1-.146.353l-.854.854v4.269c0 .54-.293 1.042-.764 1.309C25.1 21.926 22.262 23 16 23c-6.262 0-9.1-1.074-10.235-1.714A1.51 1.51 0 0 1 5 19.976v-4.269l-.854-.854A.5.5 0 0 1 4 14.5v-1a.5.5 0 0 1 .5-.5h1.219l1.027-4.107a2.967 2.967 0 0 1 2.253-2.2C10.449 6.377 12.84 6 16 6s5.551.377 7 .693a2.967 2.967 0 0 1 2.254 2.2L26.281 13H27.5a.5.5 0 0 1 .5.5zM9.583 23.516a16.977 16.977 0 0 1-2.914-.737.499.499 0 0 0-.669.471V24c0 1.102.897 2 2 2a1.988 1.988 0 0 0 2-1.985.5.5 0 0 0-.417-.499zm16.205-.675a.499.499 0 0 1 .212.409V24c0 1.102-.897 2-2 2a1.988 1.988 0 0 1-2-1.985.5.5 0 0 1 .417-.499 16.977 16.977 0 0 0 2.914-.737.504.504 0 0 1 .457.062z"/></svg>