<svg xmlns="http://www.w3.org/2000/svg" viewBox="0 0 112.7 96"><title>Regular-M</title><g id="Layer_2" data-name="Layer 2"><g id="Layer_1-2" data-name="Layer 1"><g id="Regular-M"><path d="M0,3.66A3.72,3.72,0,0,0,3.61,7.37H20.12L27.93,61c1,6.93,4.69,11.28,11.77,11.28h57a3.67,3.67,0,0,0,0-7.33H40.53C37.74,64.94,36,63,35.6,60l-.79-5.13h62c7.13,0,10.79-4.39,11.81-11.37l3.91-25.83a14.86,14.86,0,0,0,.2-1.86c0-2.34-1.76-4-4.45-4H28.56l-1-6.21C27.1,1.9,25.73,0,20.75,0H3.61A3.71,3.71,0,0,0,0,3.66ZM35.6,88.09a7.93,7.93,0,1,0,7.95-7.91A7.85,7.85,0,0,0,35.6,88.09Zm45.65,0a8,8,0,1,0,8-7.91A7.89,7.89,0,0,0,81.25,88.09Z"/></g></g></g></svg>