<svg xmlns="http://www.w3.org/2000/svg" viewBox="0 0 99.61 99.61"><title>check</title><g id="Layer_2" data-name="Layer 2"><g id="Layer_1-2" data-name="Layer 1"><g id="Symbols"><g id="Regular-M"><path d="M49.8,99.61A50.15,50.15,0,0,0,99.61,49.8C99.61,22.61,77,0,49.76,0S0,22.61,0,49.8A50.18,50.18,0,0,0,49.8,99.61ZM43.12,74.85c-1.66,0-3-.73-4.35-2.39L24.66,55.08a5.33,5.33,0,0,1-1.17-3.18,4,4,0,0,1,4-4,4.39,4.39,0,0,1,3.71,2L42.87,65,65.58,28.61a4.14,4.14,0,0,1,3.51-2.24,3.92,3.92,0,0,1,4.2,3.76,6.88,6.88,0,0,1-1.22,3.22L47.22,72.46A4.77,4.77,0,0,1,43.12,74.85Z"/></g></g></g></g></svg>