<?xml version="1.0" encoding="utf-8"?>
<!-- Generator: Adobe Illustrator 23.0.1, SVG Export Plug-In . SVG Version: 6.00 Build 0)  -->
<svg version="1.1" id="Layer_1" xmlns="http://www.w3.org/2000/svg" xmlns:xlink="http://www.w3.org/1999/xlink" x="0px" y="0px"
	 viewBox="0 0 1000 1000" style="enable-background:new 0 0 1000 1000;" xml:space="preserve">
<path d="M654,85.5c8,0,15-3,21-9s9-13.3,9-22s-3-16-9-22s-13-9-21-9H346c-8,0-15,3-21,9s-9,13.3-9,22s3,16,9,22s13,9,21,9H654z
	 M923,904.5c4.7,8,7,15.7,7,23c0,13.3-4.8,24.8-14.5,34.5s-21.2,14.5-34.5,14.5l0,0H119l0,0c-13.3,0-24.8-4.8-34.5-14.5
	S70,940.8,70,927.5c0-6,2-13.7,6-23l258-441v-293c0-11.3,4-21,12-29s17.7-12,29-12h250c11.3,0,21,4,29,12s12,17.7,12,29v294l258,440
	H923z M652,600.5h2c0,0.7,0.3,1,1,1c6,0,11-2,15-6s6-9,6-15c0-5.3-2-10-6-14l-63-92v-254c0-8-2.7-14.7-8-20s-12-8-20-8H421
	c-8,0-14.7,2.7-20,8s-8,12-8,20v254l-63,93c-3.3,3.3-5,7.7-5,13s2,10,6,14s8.7,6,14,6h2H652z M393,851.5c22.7,0,42-8,58-24
	s24-35,24-57c0-22.7-8-42-24-58s-35.3-24-58-24s-42,8-58,24s-24,35.3-24,58c0,22,8,41,24,57S370.3,851.5,393,851.5z M575,896.5
	c14,0,26-5,36-15s15-22,15-36c0-14.7-5-26.8-15-36.5s-22-14.5-36-14.5s-26,4.8-36,14.5s-15,21.8-15,36.5c0,14,5,25.8,15,35.5
	S561,895.8,575,896.5z"/>
</svg>
