<svg xmlns="http://www.w3.org/2000/svg" viewBox="0 0 99.61 99.61"><title>chevron-down</title><g id="Layer_2" data-name="Layer 2"><g id="Layer_1-2" data-name="Layer 1"><g id="Symbols"><g id="Regular-M"><path d="M49.8,99.61A50.15,50.15,0,0,0,99.61,49.8C99.61,22.61,77,0,49.76,0S0,22.61,0,49.8A50.18,50.18,0,0,0,49.8,99.61ZM54.88,64.7c-3.17,3.37-7,3.37-10.15,0L24.61,43.31a3.86,3.86,0,0,1-.15-5.42,3.72,3.72,0,0,1,5.52-.1l19.82,21,19.88-21a3.66,3.66,0,0,1,5.47.1A3.86,3.86,0,0,1,75,43.31Z"/></g></g></g></g></svg>