<svg xmlns="http://www.w3.org/2000/svg" viewBox="0 0 99.61 99.61"><title>chevron-right</title><g id="Layer_2" data-name="Layer 2"><g id="Layer_1-2" data-name="Layer 1"><g id="Symbols"><g id="Regular-M"><path d="M49.8,99.61A50.15,50.15,0,0,0,99.61,49.8C99.61,22.61,77,0,49.76,0S0,22.61,0,49.8A50.18,50.18,0,0,0,49.8,99.61ZM39.11,75.2a3.82,3.82,0,0,1,0-5.47l21.1-19.88L39.11,30.08a3.84,3.84,0,0,1,0-5.52,3.91,3.91,0,0,1,5.47.15L66,44.82a7,7,0,0,1,0,10.11L44.63,75.05C43.16,76.37,40.48,76.56,39.11,75.2Z"/></g></g></g></g></svg>