<svg xmlns="http://www.w3.org/2000/svg" viewBox="0 0 99.61 99.61"><title>chevron-up</title><g id="Layer_2" data-name="Layer 2"><g id="Layer_1-2" data-name="Layer 1"><g id="Symbols"><g id="Regular-M"><path d="M49.8,99.61A50.15,50.15,0,0,0,99.61,49.8C99.61,22.61,77,0,49.76,0S0,22.61,0,49.8A50.18,50.18,0,0,0,49.8,99.61Zm5.08-64.55L75,56.4a3.86,3.86,0,0,1,.15,5.42,3.66,3.66,0,0,1-5.47.09l-19.88-21L30,61.91a3.71,3.71,0,0,1-5.52-.09,3.86,3.86,0,0,1,.15-5.42L44.73,35.06C47.9,31.64,51.71,31.64,54.88,35.06Z"/></g></g></g></g></svg>