<?xml version="1.0" encoding="utf-8"?>
<!-- Generator: Adobe Illustrator 23.0.1, SVG Export Plug-In . SVG Version: 6.00 Build 0)  -->
<svg version="1.1" id="Layer_1" xmlns="http://www.w3.org/2000/svg" xmlns:xlink="http://www.w3.org/1999/xlink" x="0px" y="0px"
	 viewBox="0 0 1000 1000" style="enable-background:new 0 0 1000 1000;" xml:space="preserve">
<path d="M935,488.5c10.7,8,16,18.7,16,32l0,0v431c0,11.3-4,21-12,29s-17.7,12-29,12H643c-11.3,0-21-4-29-12s-12-17.7-12-29v-267
	c0-11.3-4-21-12-29s-17.7-12-29-12H439c-11.3,0-21,4-29,12s-12,17.7-12,29v267c0,11.3-4,21-12,29s-17.7,12-29,12H90
	c-11.3,0-21-4-29-12s-12-17.7-12-29v-431l0,0c0-13.3,5.3-24,16-32l214-166c10.7-6.7,16-17.3,16-32v-77l0,0v-1c0-27.3,5.3-53.7,16-79
	s25.3-47.3,44-66c19.3-18.7,41.5-33.3,66.5-44s51.2-16,78.5-16c4.7,0,11.7,0.7,21,2c34,4,65.2,15.7,93.5,35s50.5,44,66.5,74
	s24,62.7,24,98v2v2v70c0,14.7,5.3,25.3,16,32L935,488.5z M602,295.5c8.7,0,16-3,22-9s9-13.3,9-22c0-8-3-15-9-21s-13.3-9-22-9h-71
	v-72c0-8.7-3-16-9-22s-13.3-9-22-9c-8.7,0-16,3-22,9s-9,13.3-9,22v72h-71c-8.7,0-16,3-22,9s-9,13-9,21c0,8.7,3,16,9,22s13.3,9,22,9
	h71v72c0,8.7,3,16,9,22s13.3,9,22,9c8.7,0,16-3,22-9s9-13.3,9-22v-72H602z"/>
</svg>
