<svg xmlns="http://www.w3.org/2000/svg" viewBox="0 0 102.05 124.07"><title>Regular-M</title><g id="Layer_2" data-name="Layer 2"><g id="Layer_1-2" data-name="Layer 1"><g id="Regular-M"><path d="M84.08,99.71h2.83q15.16,0,15.14-15.34v-69C102.05,5.13,97,0,86.91,0H39.79c-10,0-15.13,5.13-15.13,15.33v2.39H31c6.88,0,12.35,2,17.82,7.43L76.56,52.93c5.47,5.52,7.52,11.18,7.52,17.82ZM51.46,17.24a2.84,2.84,0,0,1-3.12-2.88v-1a2.81,2.81,0,0,1,3.12-2.88H75.24a2.82,2.82,0,0,1,3.13,2.88v1a2.84,2.84,0,0,1-3.13,2.88ZM15.14,124.07H62.3q15.09,0,15.09-15.33V69.43H42.09c-6.3,0-9.23-3-9.23-9.22V24.37H15.14C5.08,24.37,0,29.49,0,39.7v69C0,119,5,124.07,15.14,124.07ZM42,62.74H74.85c-.53-1.9-1.85-3.66-4-5.9L45.41,31A13.66,13.66,0,0,0,39.5,27v33.3A2.24,2.24,0,0,0,42,62.74Z"/></g></g></g></svg>