<?xml version="1.0" encoding="utf-8"?>
<!-- Generator: Adobe Illustrator 23.0.1, SVG Export Plug-In . SVG Version: 6.00 Build 0)  -->
<svg version="1.1" id="Layer_1" xmlns="http://www.w3.org/2000/svg" xmlns:xlink="http://www.w3.org/1999/xlink" x="0px" y="0px"
	 viewBox="0 0 1000 1000" style="enable-background:new 0 0 1000 1000;" xml:space="preserve">
<path d="M841.6,440.6c46.2,9.1,84,30.9,113.2,65.6c29.3,34.7,44.3,75.9,45.2,123.8c-1.7,55.3-20.6,101.1-56.9,137.4
	c-36.3,36.3-81.7,55.3-136.1,56.9H193.1c-54.5-1.7-99.8-20.6-136.1-56.9C20.6,731,1.7,685.2,0,630c0.8-48.7,16.3-90.3,46.4-125
	s68.7-56.1,115.7-64.4c-1.7-11.6-2.5-19.4-2.5-23.5c0.8-35.5,13-65,36.5-88.5s52.6-35.7,87.3-36.5c35.5,0,66,13.6,91.6,40.8
	c18.2-47.9,47.4-85.8,87.9-113.9s86.6-42.5,138.6-43.3c45.4,0.8,86.2,12,122.5,33.4s65,50.3,86,86.6c21,36.3,32,77.1,32.8,122.5
	C842.8,428.2,842.4,435.6,841.6,440.6z"/>
</svg>
