<svg xmlns="http://www.w3.org/2000/svg" viewBox="0 0 107.08 106.79"><title>crop</title><g id="Layer_2" data-name="Layer 2"><g id="Layer_1-2" data-name="Layer 1"><g id="Symbols"><g id="Regular-M"><path d="M38,83.3H75.73v19.39a3.93,3.93,0,1,0,7.86,0V83.3h19.58c2.4,0,3.91-1.37,3.91-3.66S105.57,76,103.17,76H83.59V37.84c0-9.76-4.68-14.35-14.55-14.35H31.35V4.1a3.81,3.81,0,0,0-4-4.1,3.79,3.79,0,0,0-3.9,4.1V23.49H3.86A3.51,3.51,0,0,0,0,27.15c0,2.34,1.51,3.66,3.86,3.66H23.49V69C23.49,78.71,28.17,83.3,38,83.3ZM38.67,76c-5,0-7.32-2.69-7.32-7.43V30.81H68.41c5,0,7.32,2.73,7.32,7.47V76Z"/></g></g></g></g></svg>