<svg xmlns="http://www.w3.org/2000/svg" viewBox="0 0 99.61 99.61"><title>cross</title><g id="Layer_2" data-name="Layer 2"><g id="Layer_1-2" data-name="Layer 1"><g id="Symbols"><g id="Regular-M"><path d="M49.8,99.61A50.15,50.15,0,0,0,99.61,49.8C99.61,22.61,77,0,49.76,0S0,22.61,0,49.8A50.18,50.18,0,0,0,49.8,99.61ZM32.28,71.48a4.14,4.14,0,0,1-4.11-4.15,3.8,3.8,0,0,1,1.22-2.83L44,49.85,29.39,35.21a3.74,3.74,0,0,1-1.22-2.84,4.09,4.09,0,0,1,4.11-4,3.74,3.74,0,0,1,2.83,1.22l14.65,14.6L64.5,29.49a3.72,3.72,0,0,1,2.83-1.27,4.1,4.1,0,0,1,4.11,4.1,3.55,3.55,0,0,1-1.23,2.84L55.57,49.85,70.17,64.4a4,4,0,0,1,1.22,2.93,4.11,4.11,0,0,1-7,2.93L49.76,55.62,35.21,70.26A4,4,0,0,1,32.28,71.48Z"/></g></g></g></g></svg>