<?xml version="1.0" encoding="utf-8"?>
<!-- Generator: Adobe Illustrator 23.0.1, SVG Export Plug-In . SVG Version: 6.00 Build 0)  -->
<svg version="1.1" id="Layer_1" xmlns="http://www.w3.org/2000/svg" xmlns:xlink="http://www.w3.org/1999/xlink" x="0px" y="0px"
	 viewBox="0 0 1000 1000" style="enable-background:new 0 0 1000 1000;" xml:space="preserve">
<path d="M879,284v612c-1.3,20.7-9.5,38.3-24.5,53s-33.2,22-54.5,22h-1h-2H203h-1h-2c-21.3,0-39.5-7.3-54.5-22s-23.2-32.3-24.5-53
	V104c1.3-20.7,9.5-38.3,24.5-53s33.2-22,54.5-22h2h1h389v225c0.7,8.7,3.8,15.8,9.5,21.5s12.8,8.5,21.5,8.5l0,0H879z M654,223V38
	l210,185H654z M162,500v328h676V500H162z M561,565c-18.7-4.7-34.7-7-48-7l0,0h-2c-15.3,0-30,2.7-44,8c-12.7,5.3-22.7,13-30,23
	c-7.3,9.3-11,20.7-11,34l0,0v1v1v1c0,12,3.7,22.7,11,32c4.7,7.3,12.3,13.3,23,18c10,4.7,23.3,9,40,13c12,3.3,22.3,7.3,31,12
	c6.7,2.7,10,8,10,16l0,0l0,0v1c0,5.3-2.3,9.7-7,13c-5.3,3.3-11.7,5-19,5l0,0h-2c-12-0.7-25.7-4-41-10c-10-4-22.7-11.7-38-23l-21,43
	c11.3,10,26.3,18.7,45,26c16,6.7,34.7,10,56,10h2c14.7,0,29-2.7,43-8c10.7-3.3,21-10.7,31-22c8-9.3,12-21,12-35v-1v-1v-1v-1
	c0-12.7-3.7-23.7-11-33c-8-8.7-15.7-15-23-19c-14.7-6-28.3-10.7-41-14l-16-6c-5.3-1.3-10.3-3.3-15-6c-6.7-4-10-9.3-10-16l0,0l0,0
	c0-2.7,0.7-5,2-7s2.7-3.3,4-4c5.3-3.3,11-5,17-5h1c12.7,1.3,24.3,3.7,35,7c14,4.7,25.7,10,35,16l21-43c-12-8-25.7-14-41-18H561z
	 M761,565c-17.3-4.7-33-7-47-7h-1h-1c-15.3,0-30,2.7-44,8c-12.7,5.3-22.7,13-30,23c-7.3,9.3-11,20.7-11,34l0,0v1v1v1
	c0,12,3.7,22.7,11,32c4,6.7,11.3,12.7,22,18c10.7,4,24,8.3,40,13c12.7,3.3,23.3,7.3,32,12c6.7,2.7,10,8,10,16l0,0l0,0v1
	c0,5.3-2.3,9.7-7,13c-5.3,3.3-11.7,5-19,5l0,0h-2c-12-0.7-25.7-4-41-10c-10-4-22.7-11.7-38-23l-22,43c18.7,13.3,34.3,22,47,26
	c16,6.7,34.3,10,55,10h1h1c14.7,0,29-2.7,43-8c10.7-3.3,21-10.7,31-22c8-10,12-21.7,12-35v-1c-0.7,0-1-0.3-1-1c0.7,0,1-0.3,1-1v-1
	c0-12.7-3.7-23.7-11-33c-8-9.3-16-15.7-24-19c-16-6.7-29.3-11.3-40-14l-16-6c-4.7-0.7-9.7-2.7-15-6c-6.7-2.7-10-8-10-16l0,0l0,0
	c0-6.7,2-10.3,6-11c5.3-3.3,10.7-5,16-5h2c12.7,1.3,24,3.7,34,7c14,4,26,9.3,36,16l21-43c-12-8-26-14-42-18H761z M364,570
	c-16-7.3-32.3-11-49-11c-20.7,0-40.3,5-59,15c-16.7,8.7-30.7,21.3-42,38c-10.7,18.7-16,37.3-16,56l0,0v1l0,0v1
	c0,21.3,5.3,40.3,16,57c10,18,23.3,31.3,40,40c18,10,37,15,57,15h2h1c16.7,0,33-3.7,49-11c14-6,27.7-15.7,41-29l-32-34
	c-6.7,6.7-15.3,13-26,19c-10.7,4.7-20.3,7-29,7h-1c-10,0-20.3-3-31-9c-8.7-4.7-16-12.3-22-23c-5.3-9.3-8-20-8-32v-1l0,0v-1
	c0-9.3,2.7-20,8-32c4.7-8.7,11.7-15.8,21-21.5s19.7-8.5,31-8.5l0,0h1l0,0c12,0,22.3,2.7,31,8c7.3,2.7,15.7,9.3,25,20l33-38
	c-10.7-10.7-24.3-19.7-41-27V570z"/>
</svg>
