<?xml version="1.0" encoding="utf-8"?>
<!-- Generator: Adobe Illustrator 23.0.1, SVG Export Plug-In . SVG Version: 6.00 Build 0)  -->
<svg version="1.1" id="Layer_1" xmlns="http://www.w3.org/2000/svg" xmlns:xlink="http://www.w3.org/1999/xlink" x="0px" y="0px"
	 viewBox="0 0 1000 1000" style="enable-background:new 0 0 1000 1000;" xml:space="preserve">
<path d="M530,446c-8.7,4.7-18.7,7-30,7c-12,0-21.7-2.3-29-7L130,262c-6-3.3-9-8.3-9-15c0-6,3-10.7,9-14L457,55
	c13.3-7.3,27.7-11,43-11c15.3,0,29.3,3.7,42,11l328,178c6,3.3,9,8,9,14c0,6.7-3,11.7-9,15L530,446z M436,512
	c8.7,4.7,15.5,11.3,20.5,20s7.5,18.3,7.5,29v378c0,4.7-2.7,9.7-8,15c-4,1.3-7,2-9,2c-4,0-6.7-0.7-8-2L121,772
	c-12.7-8-22.7-18.2-30-30.5S80,715.7,80,701V338c0-6.7,3-11.7,9-15c4-1.3,6.7-2,8-2c2,0,5,0.7,9,2L436,512z M564,512
	c-8.7,4.7-15.5,11.3-20.5,20s-7.5,18.3-7.5,29v378c0,4.7,2.7,9.7,8,15c4,1.3,7,2,9,2c4,0,6.7-0.7,8-2l318-182
	c12.7-8,22.7-18.2,30-30.5s11-25.8,11-40.5V338c0-6.7-3-11.7-9-15c-4-1.3-6.7-2-8-2c-2,0-5,0.7-9,2L564,512z"/>
</svg>
