<?xml version="1.0" encoding="utf-8"?>
<!-- Generator: Adobe Illustrator 23.0.1, SVG Export Plug-In . SVG Version: 6.00 Build 0)  -->
<svg version="1.1" id="Layer_1" xmlns="http://www.w3.org/2000/svg" xmlns:xlink="http://www.w3.org/1999/xlink" x="0px" y="0px"
	 viewBox="0 0 1152 1152" style="enable-background:new 0 0 1152 1152;" xml:space="preserve">
<path d="M73.1,114.8c-6.8,0-12.6,2.4-17.4,7.3s-7.3,10.7-7.3,17.4v509.6c0,33,6.2,63.9,18.6,92.8s30.2,54.9,53.4,78.2
	c22.5,22.5,48.4,39.9,77.6,52.3s60.4,18.6,93.4,18.6h290.2c33,0,64.3-6.2,93.9-18.6s55.7-29.8,78.2-52.3s39.9-48.4,52.3-77.6
	s18.6-60.4,18.6-93.4V139.5c0-6.8-2.4-12.6-7.3-17.4s-10.7-7.3-17.4-7.3H73.1z M1006.9,164.2c26.2,0,50.4,6.4,72.6,19.1
	c22.1,12.7,39.8,30.4,52.9,52.9s19.7,46.9,19.7,73.1v145.1c0,26.2-6.6,50.6-19.7,73.1s-30.8,40.3-52.9,53.4s-46.3,19.7-72.6,19.7
	h-73.1c-9.8,0-18.2-3.6-25.3-10.7s-10.7-15.9-10.7-26.4c0-9.8,3.6-18.2,10.7-25.3s15.6-10.7,25.3-10.7h73.1
	c19.5,0,36.4-7.1,50.6-21.4s21.4-31.5,21.4-51.8V309.4c0-20.2-7.1-37.5-21.4-51.8c-14.2-14.3-31.1-21.4-50.6-21.4h-73.1
	c-9.8,0-18.2-3.6-25.3-10.7c-7.1-7.1-10.7-15.6-10.7-25.3c0-10.5,3.6-19.1,10.7-25.9s15.6-10.1,25.3-10.1H1006.9z M36,964.1
	c-9.7,0-18.2,3.6-25.3,10.7S0,990.4,0,1000.1c0,10.5,3.6,19.3,10.7,26.4s15.6,10.7,25.3,10.7h801c9.8,0,18.2-3.6,25.3-10.7
	s10.7-15.9,10.7-26.4c0-9.8-3.6-18.2-10.7-25.3s-15.6-10.7-25.3-10.7H36z"/>
</svg>
