<?xml version="1.0" encoding="utf-8"?>
<!-- Generator: Adobe Illustrator 23.0.1, SVG Export Plug-In . SVG Version: 6.00 Build 0)  -->
<svg version="1.1" id="Layer_1" xmlns="http://www.w3.org/2000/svg" xmlns:xlink="http://www.w3.org/1999/xlink" x="0px" y="0px"
	 viewBox="0 0 1000 1000" style="enable-background:new 0 0 1000 1000;" xml:space="preserve">
<path d="M825.5,176.5c1.3,4,2,7.7,2,11c0,10-3,19.2-9,27.5s-13.3,14.2-22,17.5l-165,66v174l-9,55l-56,209l110,171
	c5.3,8.7,8,17.3,8,26c0,18-7.7,31.7-23,41c-8,4.7-16.7,7-26,7c-8,0-15.7-2-23-6s-13.3-9.3-18-16l-122-189c-4.7-9.3-7-18-7-26
	c0-2.7,0.3-4.7,1-6v-6l44-156l-82,166l-29,199c-2,11.3-7.5,20.8-16.5,28.5s-19.5,11.5-31.5,11.5l0,0h-8c-11.3-1.3-21-6.5-29-15.5
	s-12-19.5-12-31.5v-4c0-1.3,0.3-2.3,1-3l30-205c0-2,1-6,3-12l89-185l8-54l-1-153c-2,0-3.3-0.3-4-1c-1.3-0.7-3-1-5-1l-221-89
	c-9.3-3.3-16.7-9-22-17s-8-17-8-27c0-8.7,1-14.7,3-18c4-8.7,10-15.8,18-21.5s17-8.5,27-8.5c7.3,0,13.3,1.3,18,4l222,87h93l167-67
	l-20-81c-1.3-4-2-7.7-2-11c0-11.3,3.5-21.3,10.5-30s15.8-14.3,26.5-17c5.3-1.3,9.3-2,12-2c11.3,0,21.3,3.5,30,10.5
	s14.7,15.8,18,26.5L825.5,176.5z M581.5,111.5c0-22.7-8-42-24-58s-35.3-24-58-24c-22.7,0-42,8-58,24s-24,35.3-24,58s8,42,24,58
	s35.3,24,58,24c22.7,0,42-8,58-24S581.5,134.2,581.5,111.5z"/>
</svg>
