<?xml version="1.0" encoding="utf-8"?>
<!-- Generator: Adobe Illustrator 23.0.1, SVG Export Plug-In . SVG Version: 6.00 Build 0)  -->
<svg version="1.1" id="Layer_1" xmlns="http://www.w3.org/2000/svg" xmlns:xlink="http://www.w3.org/1999/xlink" x="0px" y="0px"
	 viewBox="0 0 1000 1000" style="enable-background:new 0 0 1000 1000;" xml:space="preserve">
<path d="M920,29c11.3,0,21,4,29,12s12,17.7,12,29v491c0,11.3-4,21-12,29s-17.7,12-29,12H674V377c0-11.3-4-21-12-29s-17.7-12-29-12
	H387V70c0-11.3,4-21,12-29s17.7-12,29-12H920z M525,208c14,0,26-5,36-15s15-22.3,15-37c0-14-5-26-15-36s-22-15-36-15s-26,5-36,15
	s-15,22-15,36c0,14.7,5,27,15,37S511,208,525,208z M823,208c14,0,26-5,36-15s15-22.3,15-37c0-14-5-26-15-36s-22-15-36-15
	c-14.7,0-27,5-37,15s-15,22-15,36c0,14.7,5,27,15,37S808.3,208,823,208z M571,398c11.3,0,21,4,29,12s12,17.7,12,29v491
	c0,11.3-4,21-12,29s-17.7,12-29,12H80c-11.3,0-21-4-29-12s-12-17.7-12-29V439c0-11.3,4-21,12-29s17.7-12,29-12H571z M823,526
	c14,0,26-5,36-15s15-22,15-36s-5-26-15-36s-22-15-36-15c-14.7,0-27,5-37,15s-15,22-15,36s5,26,15,36S808.3,526,823,526z M174,573
	L174,573c14,0,26-5,36-15s15-22,15-36s-5-26-15-36s-22-15-36-15s-26,5-36,15s-15,22-15,36s5,26,15,36S160,573,174,573z M478,573
	L478,573c14,0,25.8-5,35.5-15c9.7-10,14.8-22,15.5-36c0-14-5-26-15-36s-22-15-36-15c-14.7,0-27,5-37,15s-15,22-15,36
	c0,14.7,5,27,15,37s22.3,15,37,15V573z M326,725c14,0,26-5,36-15s15-22,15-36s-5-26-15-36s-22-15-36-15c-14.7,0-27,5-37,15
	s-15,22-15,36s5,26,15,36S311.3,725,326,725z M174,898c14,0,26-5,36-15s15-22,15-36s-5-26-15-36s-22-15-36-15s-26,5-36,15
	s-15,22-15,36s5,26,15,36S160,898,174,898z M478,898L478,898c14,0,26-4.8,36-14.5s15-21.5,15-35.5s-5-26-15-36s-22-15-36-15
	c-14.7,0-27,5-37,15s-15,22-15,36s5,26,15,36s22.3,15,37,15V898z"/>
</svg>
