<svg xmlns="http://www.w3.org/2000/svg" viewBox="0 0 82.13 104.69"><title>doc-rich</title><g id="Layer_2" data-name="Layer 2"><g id="Layer_1-2" data-name="Layer 1"><g id="Symbols"><g id="Regular-M"><path d="M15.14,104.69H67q15.17,0,15.14-15.29V15.33C82.13,5.18,77.1,0,67,0H15.14C5.08,0,0,5.18,0,15.33V89.4Q0,104.72,15.14,104.69Zm.34-7.86c-5,0-7.62-2.69-7.62-7.57V15.48c0-4.84,2.59-7.62,7.67-7.62H66.6c5.08,0,7.67,2.74,7.67,7.62V89.26c0,4.88-2.59,7.57-7.62,7.57ZM19,46.58c1.32,0,2.15-.68,2.59-2.34l1.66-4.84h9.18l1.76,4.84c.44,1.61,1.27,2.34,2.54,2.34a2.32,2.32,0,0,0,2.59-2.49,6.19,6.19,0,0,0-.3-1.61L31.79,22.61a3.85,3.85,0,0,0-4-3c-2,0-3.12,1-3.85,3L16.7,42.48a5.78,5.78,0,0,0-.29,1.61A2.33,2.33,0,0,0,19,46.58ZM47.9,28H62.3a3,3,0,0,0,0-6H47.9a3,3,0,1,0,0,6ZM24.37,35.35,27.69,25.1H28l3.37,10.25ZM47.9,45.07H62.3a3,3,0,0,0,0-6H47.9a3,3,0,1,0,0,6ZM15.63,85.45H19L25.49,79a4,4,0,0,1,2.88-1.23,4.49,4.49,0,0,1,3,1.23l4,3.66,10-8.89a5.1,5.1,0,0,1,3.42-1.42,4.39,4.39,0,0,1,3.37,1.42L61.87,85h3.41V61.62c0-4.3-2.19-6.49-6.49-6.49H22.22c-4.15,0-6.59,2.19-6.59,6.49ZM31.74,73.73a5.35,5.35,0,0,1-5.32-5.27,5.24,5.24,0,0,1,5.32-5.28,5.28,5.28,0,0,1,0,10.55Z"/></g></g></g></g></svg>