<svg xmlns="http://www.w3.org/2000/svg" viewBox="0 0 82.13 104.69"><title>doc-text</title><g id="Layer_2" data-name="Layer 2"><g id="Layer_1-2" data-name="Layer 1"><g id="Symbols"><g id="Regular-M"><path d="M15.14,104.69H67c10.11,0,15.14-5.13,15.14-15.29V45.07c0-6.3-.73-9-4.64-13L50.59,4.64C46.87.83,43.8,0,38.33,0H15.14C5.08,0,0,5.18,0,15.33V89.4Q0,104.72,15.14,104.69Zm.34-7.86c-5,0-7.62-2.69-7.62-7.57V15.48c0-4.84,2.59-7.62,7.67-7.62H37.26V36.23c0,6.15,3.07,9.18,9.18,9.18H74.27V89.26c0,4.88-2.59,7.57-7.67,7.57ZM47.31,38c-2,0-2.68-.78-2.68-2.74V9.38L72.75,38ZM59,58.84H22a3,3,0,1,0,0,6H59a3,3,0,0,0,0-6Zm0,17H22A3,3,0,0,0,18.9,79,2.93,2.93,0,0,0,22,81.88H59A2.88,2.88,0,0,0,62,79,3,3,0,0,0,59,75.88Z"/></g></g></g></g></svg>