<svg xmlns="http://www.w3.org/2000/svg" viewBox="0 0 82.13 104.69"><title>doc-text2</title><g id="Layer_2" data-name="Layer 2"><g id="Layer_1-2" data-name="Layer 1"><g id="Symbols"><g id="Regular-M"><path d="M15.14,104.69H67c10.11,0,15.14-5.13,15.14-15.29V45.07H46.78c-6.25,0-9.23-3-9.23-9.23V0H15.14C5.08,0,0,5.18,0,15.33V89.4Q0,104.72,15.14,104.69ZM46.92,38.38H81.54c-.29-2-1.71-4-4.05-6.35L50.59,4.64c-2.3-2.35-4.3-3.76-6.35-4.1v35.2A2.35,2.35,0,0,0,46.92,38.38ZM22.27,66.21a3.32,3.32,0,1,1,0-6.64H59.91a3.32,3.32,0,1,1,0,6.64Zm0,18.6a3.32,3.32,0,1,1,0-6.64H59.91a3.32,3.32,0,1,1,0,6.64Z"/></g></g></g></g></svg>