<?xml version="1.0" encoding="utf-8"?>
<!-- Generator: Adobe Illustrator 23.0.1, SVG Export Plug-In . SVG Version: 6.00 Build 0)  -->
<svg version="1.1" id="Layer_1" xmlns="http://www.w3.org/2000/svg" xmlns:xlink="http://www.w3.org/1999/xlink" x="0px" y="0px"
	 viewBox="0 0 1000 1000" style="enable-background:new 0 0 1000 1000;" xml:space="preserve">
<path d="M733.4,364.3c-13-43-24.7-86.4-35.2-130.4S680,153.3,674.8,124c-3.9-16.3-13.7-27-29.3-32.2C597.3,77.5,548.8,70.3,500,70.3
	c-50.8,0-100.3,7.5-148.4,22.5c-5.9,2-11.2,5.7-16.1,11.2s-8.3,11.9-10.3,19c-5.2,29.3-13,65.9-23.4,109.9s-22.1,87.4-35.2,130.4
	c-31.2,103.5-63.2,179.7-95.7,228.5c-2.6,2.6-3.9,6.2-3.9,10.7v1c3.3,79.4,23.4,136.4,60.5,170.9c31.9,28,69.3,42,112.3,42h6.8h5.9
	c41.7-1.3,80.1-7.5,115.2-18.6c2.6-0.7,5.2-2.8,7.8-6.3s4.2-7.3,4.9-11.2v-68.4c-0.7-7.8-4.6-13.7-11.7-17.6
	c-34.5-16.9-57.9-31.9-70.3-44.9c-11.1-11.1-16.6-22.5-16.6-34.2c0-9.1,4.1-17.4,12.2-24.9s20-12.5,35.6-15.1
	c24.7-4.6,47.9-6.8,69.3-6.8v-1h2.9v1c29.3,0,56.2,3.6,80.6,10.7s36.6,19.9,36.6,38.1c0,11.1-5.2,21.8-15.6,32.2
	c-13,13-36.8,28-71.3,44.9c-7.2,3.9-10.7,9.8-10.7,17.6v68.4h-1c0,4.6,1.5,8.6,4.4,12.2s6.7,6,11.2,7.3
	c31.9,10.4,69,16.3,111.3,17.6h1h5.9h5.9c42.3,0,80.1-14,113.3-42c37.1-35.2,57-92.1,59.6-170.9v-1c0-4.6-1.3-8.1-3.9-10.7
	C796.5,543.3,764.6,467.1,733.4,364.3z M991.2,346.7c-13-59.9-40.7-110.7-83-152.3S812.5,124,748,108.4l-2-1h-2
	c-5.2,0-9.8,2-13.7,5.9s-5.9,8.8-5.9,14.6v2v3.9c34.5,138,66.1,243.5,94.7,316.4c17.6,45.6,35.2,82.7,52.7,111.3
	c18.2,28.6,34.8,42.6,49.8,42c5.2,0,9.8-2,13.7-5.9c18.9-13.7,34.3-36.3,46.4-67.9s18.1-66.9,18.1-106
	C1000,398.4,997.1,372.7,991.2,346.7z M275.4,137.7v-2.9v-2.9c0-5.2-2-9.8-5.9-13.7s-8.5-5.9-13.7-5.9h-2h-2
	c-63.8,16.9-116.9,45.9-159.2,86.9c-43.6,43-71.6,93.8-84,152.3C2.9,377.6,0,403,0,427.7c0,39.1,6,74.4,18.1,106
	s27.5,54.5,46.4,68.8c3.9,2.6,8.5,4.6,13.7,5.9c15.6,0.7,32.2-13.7,49.8-43c36.5-59.2,71.3-147.1,104.5-263.7
	C250,238.6,264.3,183.9,275.4,137.7z M375,451.2c-13.7,0-25.4-4.9-35.2-14.6s-14.6-21.5-14.6-35.2s4.9-25.4,14.6-35.2
	s21.5-14.6,35.2-14.6s25.4,4.9,35.2,14.6s14.6,21.5,14.6,35.2s-4.9,25.4-14.6,35.2S388.7,451.2,375,451.2z M625,451.2
	c-13.7,0-25.4-4.9-35.2-14.6s-14.6-21.5-14.6-35.2s4.9-25.4,14.6-35.2s21.5-14.6,35.2-14.6s25.4,4.9,35.2,14.6s14.6,21.5,14.6,35.2
	s-4.9,25.4-14.6,35.2S638.7,451.2,625,451.2z M596.7,847.7c-34.5-3.9-65.4-11.1-92.8-21.5H500c-1.3,0-3.9,0.7-7.8,2
	c-31.2,10.4-59.9,18.6-85.9,24.4c-6.5,1.3-11.4,3.7-14.6,7.3s-4.9,7.6-4.9,12.2c0,5.2,2.3,10.1,6.8,14.6c28,24.7,60.9,39.1,98.6,43
	h6.8c42.3-2.6,78.8-19.2,109.4-49.8c2.6-3.3,3.9-7.5,3.9-12.7c0-4.6-1.5-8.8-4.4-12.7S601.2,848.3,596.7,847.7z"/>
</svg>
