<?xml version="1.0" encoding="utf-8"?>
<!-- Generator: Adobe Illustrator 23.0.1, SVG Export Plug-In . SVG Version: 6.00 Build 0)  -->
<svg version="1.1" id="Layer_1" xmlns="http://www.w3.org/2000/svg" xmlns:xlink="http://www.w3.org/1999/xlink" x="0px" y="0px"
	 viewBox="0 0 1000 1000" style="enable-background:new 0 0 1000 1000;" xml:space="preserve">
<path d="M67,61.5c-32,19.3-48,71-48,155c0,30,2.3,66,7,108l1,7c5.3,25.3,11.7,38,19,38c2.7,0,5.7-1.7,9-5l17-17l1-3
	c37.3-72,89-130,155-174l5-4c4.7-2.7,8.5-6.3,11.5-11s4.5-10,4.5-16c0-10.7-3.7-18.7-11-24h1c-58.7-41.3-105-62-139-62
	C86,53.5,75,56.2,67,61.5z M933,61.5c32,19.3,48,71,48,155c0,30-2.3,66-7,108l-2,7c-2,12-4.7,21.3-8,28s-6.7,10-10,10
	c-2,0-4.7-1.7-8-5l-18-17l-1-3c-36-69.3-87.7-127.3-155-174l-5-4c-4.7-2.7-8.5-6.3-11.5-11s-4.5-10-4.5-16c0-10.7,3.7-18.7,11-24h-1
	c58.7-41.3,105-62,139-62C914,53.5,925,56.2,933,61.5z M500,127.5c55.3,0,108,10.5,158,31.5s94,50.5,132,88.5
	c37.3,37.3,66.5,81,87.5,131s31.5,103,31.5,159c0,55.3-10.5,108-31.5,158s-50.2,93.7-87.5,131c-38,38-82,67.5-132,88.5
	s-102.7,31.5-158,31.5S392.2,936,342.5,915S249,864.5,211,826.5s-67.7-81.8-89-131.5c-21.3-49.7-32-102.2-32-157.5s10.7-108,32-158
	s51-94,89-132S292.8,180,342.5,159S444.7,127.5,500,127.5z M269,462.5c0,14,5,26,15,36s22.3,15,37,15c14,0,26-5,36-15s15-22,15-36
	s-5-26-15-36s-22-15-36-15c-14.7,0-27,5-37,15S269,448.5,269,462.5z M689,513.5c14.7,0,27-5,37-15s15-22,15-36s-5-26-15-36
	s-22.3-15-37-15c-14,0-26,5-36,15s-15,22-15,36s5,26,15,36S675,513.5,689,513.5z M650,716.5l11-2c7.3-1.3,11-6.7,11-16v-1
	c0-4.7-1.5-8.7-4.5-12s-6.8-5.3-11.5-6c-42-3.3-71.3-12.3-88-27c-18.7-16-30.3-28.3-35-37c25.3-13.3,43.3-25.3,54-36s15-21.7,13-33
	c-2-15.3-12.8-26.5-32.5-33.5S527,502.2,505,501.5c-18,1.3-37.3,4.7-58,10c-12.7,3.3-22.2,8.3-28.5,15s-9.5,14.3-9.5,23
	c0,10,4.3,20,13,30c11.3,11.3,29.3,23.3,54,36c-4,8.7-15.3,21-34,37c-18,14.7-47.7,23.7-89,27c-4.7,0.7-8.5,2.7-11.5,6
	s-4.5,7.3-4.5,12l0,0v1c1.3,10,5.3,15.3,12,16l11,2h1c14.7-0.7,34.7-4.3,60-11c19.3,27.3,47.3,42.7,84,46c17.3-1.3,33-6.2,47-14.5
	s26-18.8,36-31.5C613.3,712.2,634,715.8,650,716.5z"/>
</svg>
