<?xml version="1.0" encoding="utf-8"?>
<!-- Generator: Adobe Illustrator 23.0.1, SVG Export Plug-In . SVG Version: 6.00 Build 0)  -->
<svg version="1.1" id="Layer_1" xmlns="http://www.w3.org/2000/svg" xmlns:xlink="http://www.w3.org/1999/xlink" x="0px" y="0px"
	 viewBox="0 0 560 560" style="enable-background:new 0 0 560 560;" xml:space="preserve">
<path d="M298.7,46.9c24.5,0,47.9,4.1,70,12.3s40.8,20.4,56,36.8L379,140.6c-21.6-26.4-48.3-39.8-80.3-40.1v150l-1.1,1.1
	c21.6,5.6,40.1,11.4,55.8,17.6c15.6,6.1,29.2,13.7,40.7,22.6c13.8,10.4,24.2,23,31.2,37.6c7.1,14.7,10.6,32.8,10.6,54.4
	c0,18.2-3.6,35.1-10.9,50.7s-17.2,29.2-29.8,40.7c-12.3,11.2-26.9,20-43.8,26.5c-16.9,6.5-34.5,10.3-52.7,11.4v45.7h-34.6v-45.7
	c-61.3,0-108-20.4-140-61.3l49.1-44.1c9.3,16,22.1,28.3,38.5,37.1s33.8,13.7,52.4,14.8V302.9c-38.7-9.7-68.8-23.4-90.3-41.3
	c-26-21.2-39.2-50.9-39.6-89.2c0-17.5,3.6-33.7,10.9-48.8s17-28.2,29.3-39.3c11.9-10.8,25.6-19.4,41.3-25.9s31.8-10.3,48.5-11.4V1.2
	h34.6V46.9z M264.1,100.5c-21.2,3.7-37.9,11.6-50.2,23.7c-12.3,12.1-18.4,28.2-18.4,48.2c0,18.6,7.1,33.8,21.2,45.7
	c12.3,10.8,28.1,18.6,47.4,23.4V100.5z M298.7,459.5c21.6-2.2,39.6-10,54.1-23.4c14.9-13,22.3-30.3,22.3-51.9c0-19.7-8-35.9-24-48.5
	c-13.4-10-30.9-18-52.4-24V459.5z"/>
</svg>
