<?xml version="1.0" encoding="utf-8"?>
<!-- Generator: Adobe Illustrator 23.0.1, SVG Export Plug-In . SVG Version: 6.00 Build 0)  -->
<svg version="1.1" id="Layer_1" xmlns="http://www.w3.org/2000/svg" xmlns:xlink="http://www.w3.org/1999/xlink" x="0px" y="0px"
	 viewBox="0 0 1000 1000" style="enable-background:new 0 0 1000 1000;" xml:space="preserve">
<path d="M807,110c0-25.3-9-47-27-65s-39.7-27-65-27s-47,9-65,27s-27,39.7-27,65s9,47,27,65s39.7,27,65,27s47-9,65-27
	S807,135.3,807,110z M336,110c0-14-5-26-15-36s-22-15-36-15s-26,5-36,15s-15,22-15,36s5,26,15,36s22,15,36,15s26-5,36-15
	S336,124,336,110z M377,499c0-25.3-9-47-27-65s-39.7-27-65-27s-47,9-65,27s-27,39.7-27,65c0,25.3,9,47,27,65s39.7,27,65,27
	s47-9,65-27S377,524.3,377,499z M766,499c0-14-5-26-15-36s-22-15-36-15s-26,5-36,15s-15,22-15,36s5,26,15,36s22,15,36,15s26-5,36-15
	S766,513,766,499z M377,888c0-25.3-9-47-27-65s-39.7-27-65-27s-47,9-65,27s-27,39.7-27,65s9,47,27,65s39.7,27,65,27s47-9,65-27
	S377,913.3,377,888z M807,888c0-25.3-9-47-27-65s-39.7-27-65-27s-47,9-65,27s-27,39.7-27,65s9,47,27,65s39.7,27,65,27s47-9,65-27
	S807,913.3,807,888z"/>
</svg>
