<?xml version="1.0" encoding="utf-8"?>
<!-- Generator: Adobe Illustrator 23.0.1, SVG Export Plug-In . SVG Version: 6.00 Build 0)  -->
<svg version="1.1" id="Layer_1" xmlns="http://www.w3.org/2000/svg" xmlns:xlink="http://www.w3.org/1999/xlink" x="0px" y="0px"
	 viewBox="0 0 1000 1000" style="enable-background:new 0 0 1000 1000;" xml:space="preserve">
<path d="M548,28.5c20.7,0,38.3,7.3,53,22s22.3,32.7,23,54v75H452h-1c-31.3,0-58.2,11-80.5,33s-33.8,48.7-34.5,80v218
	c-38.7,1.3-74.8,10-108.5,26s-63.2,37.7-88.5,65c-4.7,6-7,12.7-7,20c0,8,3,15,9,21s13.3,9,22,9s16-3,22-9
	c18.7-20.7,41.2-37.3,67.5-50s54.2-19.7,83.5-21v116l0,0v1c0,30,4.7,61.3,14,94h-6h-8l0,0h-1c-38.7,0-75.3-7.3-110-22s-65-35-91-61
	c-26.7-26-47.3-56.2-62-90.5s-22.3-70.8-23-109.5v-396c0.7-20.7,8.3-38.3,23-53s32.7-22,54-22l0,0H548z M874,216.5L874,216.5
	c20.7,0,38.7,7.5,54,22.5s23,33.2,23,54.5v1v389c0,39.3-7.5,76.5-22.5,111.5s-35.8,65.8-62.5,92.5s-57.5,47.3-92.5,62
	s-71.8,22-110.5,22c-39.3,0-76.3-7.3-111-22s-65.3-35.3-92-62S412.5,830,397.5,795S375,722.8,375,683.5v-389l0,0v-1
	c0-21.3,7.5-39.5,22.5-54.5s33.2-22.5,54.5-22.5l0,0H874z M222,361.5c17.3,0,32-6,44-18s18-26.3,18-43c0-17.3-6-32-18-44
	s-26.7-18-44-18c-16.7,0-31,6-43,18s-18,26.7-18,44c0,16.7,6,31,18,43S205.3,361.5,222,361.5z M548,427.5c-17.3,0-32,5.8-44,17.5
	c-12,11.7-18,26.2-18,43.5c0,16.7,6,31,18,43s26.7,18,44,18c16.7,0,31-6,43-18s18-26.3,18-43c0-17.3-6-31.8-18-43.5
	C579,433.3,564.7,427.5,548,427.5z M778,427.5c-17.3,0-32,5.8-44,17.5c-12,11.7-18,26.2-18,43.5c0,16.7,6,31,18,43s26.7,18,44,18
	c16.7,0,31-6,43-18s18-26.3,18-43c0-17.3-6-31.8-18-43.5C809,433.3,794.7,427.5,778,427.5z M861,786.5c5.3-5.3,8-12.3,8-21
	s-3-16-9-22s-13.3-9-22-9s-16.7,3.7-24,11c-18,22-40.2,39.3-66.5,52s-54.2,19-83.5,19c-30,0-58-6.3-84-19s-48.3-30-67-52
	c-5.3-7.3-13-11-23-11c-8.7,0-16,3-22,9s-9,13.3-9,22s2.7,15.7,8,21c24,28.7,53,51.2,87,67.5s70.7,24.5,110,24.5
	c38.7,0,75.2-8.2,109.5-24.5S837,815.2,861,786.5z"/>
</svg>
