<?xml version="1.0" encoding="utf-8"?>
<!-- Generator: Adobe Illustrator 23.0.1, SVG Export Plug-In . SVG Version: 6.00 Build 0)  -->
<svg version="1.1" id="Layer_1" xmlns="http://www.w3.org/2000/svg" xmlns:xlink="http://www.w3.org/1999/xlink" x="0px" y="0px"
	 viewBox="0 0 1000 1000" style="enable-background:new 0 0 1000 1000;" xml:space="preserve">
<path d="M762.5,477c33.3,60.7,51.3,126,54,196c0,2,0.3,3.3,1,4v3c0,41.3-8.3,80.5-25,117.5s-39.7,69.2-69,96.5
	c-28.7,28-61.8,49.5-99.5,64.5S546.8,981,505.5,981h-3h-3h-4h-4c-42,0-81.7-7.8-119-23.5s-70.3-37.5-99-65.5
	c-28.7-26.7-51-58.5-67-95.5s-24-76.2-24-117.5v-3v-3c0-40.7,5.3-77.3,16-110s27.7-68.7,51-108s64.7-104.3,124-195
	c2-3.3,4.7-7.3,8-12s7-10,11-16c57.3-86,93.7-157,109-213v5c3.3,24.7,12.3,49.7,27,75c22.7,41.3,60,101.3,112,180
	c45.3,62.7,86.3,129.7,123,201L762.5,477z M754.5,673c0-2,0.3-3.3,1-4v-5c0-8.7-3-16-9-22s-13.3-9-22-9c-6.7,0-12.7,2.2-18,6.5
	s-9.3,10.2-12,17.5c-12.7,40-34,76-64,108c-32.7,36.7-72.3,61.3-119,74c-6.7,2-12.2,5.7-16.5,11s-6.5,11.7-6.5,19c0,8.7,3,16,9,22
	s13.3,9,22,9l0,0h1l10-2c57.3-16,106-46.3,146-91C711.2,770.3,737.2,725.7,754.5,673z"/>
</svg>
