<?xml version="1.0" encoding="utf-8"?>
<!-- Generator: Adobe Illustrator 23.0.1, SVG Export Plug-In . SVG Version: 6.00 Build 0)  -->
<svg version="1.1" id="Layer_1" xmlns="http://www.w3.org/2000/svg" xmlns:xlink="http://www.w3.org/1999/xlink" x="0px" y="0px"
	 viewBox="0 0 1000 1000" style="enable-background:new 0 0 1000 1000;" xml:space="preserve">
<path d="M594.5,120c-6-6-13.3-9-22-9c-7.3,0-14.7,2.7-22,8c-51.3,48.7-120.7,83.3-208,104c-60,14-120,20.3-180,19
	c32-60.7,78.3-109.7,139-147c62-37.3,128.3-56,199-56c72,0,137.3,18,196,54c60,37.3,106,84.7,138,142c-28.7,6-58.3,9-89,9
	c-71.3,0-133-17.7-185-53c5.3-3.3,11.3-7.8,18-13.5s11.7-10.2,15-13.5c6-6,9-13.7,9-23c0-8-2.7-14.7-8-20V120z M890.5,410
	c24,7.3,43.3,20.8,58,40.5c14.7,19.7,22,42.2,22,67.5v2v2v3v3c0,29.3-9.8,54.5-29.5,75.5S897.2,636,868.5,638l-5,2
	c-6,44-19.5,85.3-40.5,124s-47.8,72.7-80.5,102s-69.7,52.3-111,69s-85,25.3-131,26c-46-0.7-89.7-9.3-131-26s-78.3-39.7-111-69
	c-33.3-29.3-60.5-63.5-81.5-102.5s-34.5-80.8-40.5-125.5h-5c-28.7-2-52.8-13.5-72.5-34.5S29.5,557.7,29.5,529v-4v-2v-2v-2
	c0-26,7.7-49,23-69s35-33.7,59-41c2.7-36.7,10.3-71,23-103h27c50,0,100.3-5,151-15c72.7-13.3,136.3-34.7,191-64
	c33.3,25.3,69.8,44.8,109.5,58.5S693.8,306,736.5,306h5h4c46,0,84.7-5.7,116-17c16,38.7,25.3,79,28,121H890.5z M293.5,480
	c0,16.7,6,31,18,43s26.3,18,43,18c17.3,0,32-6,44-18s18-26.3,18-43c0-17.3-6-32-18-44s-26.7-18-44-18c-16.7,0-31,6-43,18
	S293.5,462.7,293.5,480z M639.5,541c17.3,0,32-6,44-18s18-26.3,18-43c0-17.3-6-32-18-44s-26.7-18-44-18c-16.7,0-31,6-43,18
	s-18,26.7-18,44c0,16.7,6,31,18,43S622.8,541,639.5,541z M649.5,778c4.7-2.7,8.5-6.3,11.5-11s4.5-10,4.5-16c0-8-3-15-9-21
	s-13.3-9-22-9c-7.3,0-12.3,1.3-15,4c-35.3,21.3-73.7,32-115,32c-42.7,0-82.3-11.7-119-35c-4-3.3-9.7-5-17-5c-8.7,0-16,3-22,9
	s-9,13-9,21c0,10.7,3.7,18.7,11,24c48.7,31.3,101,47,157,47C556.2,818,604.2,804.7,649.5,778z"/>
</svg>
