<?xml version="1.0" encoding="utf-8"?>
<!-- Generator: Adobe Illustrator 23.0.1, SVG Export Plug-In . SVG Version: 6.00 Build 0)  -->
<svg version="1.1" id="Layer_1" xmlns="http://www.w3.org/2000/svg" xmlns:xlink="http://www.w3.org/1999/xlink" x="0px" y="0px"
	 viewBox="0 0 4668 4668" style="enable-background:new 0 0 4668 4668;" xml:space="preserve">
<path d="M247.5,2765c-75-44-134.5-103.5-178.5-178.5S2,2427.3,0,2334c2-93.3,25-177.5,69-252.5S172.5,1947,247.5,1903
	s159.2-67,252.5-69c93.3,2,177.5,25,252.5,69S887,2006.5,931,2081.5s67,159.2,69,252.5c-2,93.3-25,177.5-69,252.5
	S827.5,2721,752.5,2765s-159.2,67-252.5,69C406.7,2832,322.5,2809,247.5,2765z M2080.5,2765c-75-44-134.5-103.5-178.5-178.5
	s-67-159.2-69-252.5c2-93.3,25-177.5,69-252.5s103.5-134.5,178.5-178.5s159.2-67,252.5-69c93.3,2,177.5,25,252.5,69
	s134.5,103.5,178.5,178.5s67,159.2,69,252.5c-2,93.3-25,177.5-69,252.5S2660.5,2721,2585.5,2765s-159.2,67-252.5,69
	C2239.7,2832,2155.5,2809,2080.5,2765z M3914.5,2765c-75-44-134.5-103.5-178.5-178.5s-67-159.2-69-252.5c2-93.3,25-177.5,69-252.5
	s103.5-134.5,178.5-178.5s159.2-67,252.5-69c93.3,2,177.5,25,252.5,69s134.5,103.5,178.5,178.5s67,159.2,69,252.5
	c-2,93.3-25,177.5-69,252.5S4494.5,2721,4419.5,2765s-159.2,67-252.5,69C4073.7,2832,3989.5,2809,3914.5,2765z"/>
</svg>
