<?xml version="1.0" encoding="utf-8"?>
<!-- Generator: Adobe Illustrator 23.0.1, SVG Export Plug-In . SVG Version: 6.00 Build 0)  -->
<svg version="1.1" id="Layer_1" xmlns="http://www.w3.org/2000/svg" xmlns:xlink="http://www.w3.org/1999/xlink" x="0px" y="0px"
	 viewBox="0 0 572 572" style="enable-background:new 0 0 572 572;" xml:space="preserve">
<path d="M83.4,362.1c-0.5,3.8,0.7,6.9,3.6,9.3c2.9,2.4,6,3.6,9.3,3.6h38c17.2,59.3,49,106.3,95.4,141c46.4,34.7,100.9,52,163.6,52
	c3.3-0.5,6.7-0.6,10-0.4c3.3,0.2,6.7,0.4,10,0.4c2.9,0,6.2-0.5,10-1.4c3.8-1.4,8.1-2.2,12.9-2.2c3.3,0,7.4-0.5,12.2-1.4l10-2.2
	l8.6-2.2l6.5-2.2l4.3-1.4h2.2c2.4-0.5,4.4-1.9,6.1-4.3s2.5-4.8,2.5-7.2c0-1.4-0.2-2.6-0.7-3.6l-13.6-63.9c-1-2.9-2.8-5.3-5.4-7.2
	c-2.6-1.9-5.4-2.9-8.3-2.9l-2.9,0.7l-2.2,1.4l-5,0.7l-7.2,2.2l-10,2.2l-25.1,2.9c-3.8,0.5-9.1,0.7-15.8,0.7c-33,0-63-9.2-90-27.6
	c-27-18.4-47-43.2-59.9-74.3h155c2.9,0,5.5-1,7.9-2.9s3.8-4.3,4.3-7.2l10-45.2c0.5-4.3-0.5-8-2.9-11.1c-2.4-3.1-5.7-4.7-10-4.7
	H223.3l-0.7-24.4l0.7-17.2h195.9c7.2,0,11.5-3.6,12.9-10.8l9.3-45.2c1.4-3.8,0.7-7.4-2.2-10.8c-2.9-3.3-6.5-5-10.8-5H241.2
	c13.9-30.1,34-53.6,60.3-70.3c26.3-16.7,56.4-25.1,90.4-25.1c1.4-0.5,5.3-0.5,11.5,0l11.5,0.7l10.8,1.4l15.8,2.9
	c1.4,0.5,3.1,0.7,5,0.7l1.4,0.7c2.9,1.4,5.9,1.2,9-0.7c3.1-1.9,5.1-4.5,6.1-7.9l17.2-63.9c1.4-3.8,1.1-7.1-1.1-9.7s-4.9-4.7-8.3-6.1
	C447.4,7.1,421.5,4,393.3,4c-39.7,0-77,7.8-111.9,23.3S216.3,64.8,191,93s-43.8,60.8-55.2,97.6H96.3c-3.8-0.5-6.9,0.7-9.3,3.6
	c-2.4,2.9-3.6,6-3.6,9.3v45.9c0,3.8,1.2,6.9,3.6,9.3c2.4,2.4,5.5,3.6,9.3,3.6h26.5l-0.7,20.1l0.7,21.5H96.3
	c-3.8,0.5-6.9,1.9-9.3,4.3c-2.4,2.4-3.6,5.3-3.6,8.6V362.1z"/>
</svg>
