<svg xmlns="http://www.w3.org/2000/svg" viewBox="0 0 101.92 101.26"><title>eyedropper</title><g id="Layer_2" data-name="Layer 2"><g id="Layer_1-2" data-name="Layer 1"><g id="Symbols"><g id="Regular-M"><path d="M76.56,51.21l1.37-1.52c2.39-2.49,2.54-5.42-.05-7.95l-1.46-1.42c7.47-6.69,15.77-7.62,20.89-12.84,7.28-7.33,4.94-17.58-.19-22.71a16.16,16.16,0,0,0-22.71-.19C69.14,9.66,68.26,18,61.57,25.48L60.16,24c-2.49-2.54-5.47-2.44-8-.05l-1.47,1.37c-3,2.88-2.44,5.42.1,8l2.1,2L16,72.3C.93,87.39,8.2,85.05,0,96.62l4.39,4.64c11.19-8.16,9.67-.15,25-15.43L66.46,49l2.09,2.1C71.14,53.65,73.73,54.19,76.56,51.21ZM37.94,64.15c-1.76-2-1.37-3.76.54-5.71L57.13,39.59l5.27,5.32L43.6,63.71C41.89,65.42,39.65,66,37.94,64.15Z"/></g></g></g></g></svg>