<svg xmlns="http://www.w3.org/2000/svg" viewBox="0 0 138.62 54.3"><title>eyeglasses</title><g id="Layer_2" data-name="Layer 2"><g id="Layer_1-2" data-name="Layer 1"><g id="Symbols"><g id="Regular-M"><path d="M35.94,54.3A27.26,27.26,0,0,0,63.09,27.59a18.26,18.26,0,0,1,6.2-1.08,18.57,18.57,0,0,1,6.25,1.08A27.18,27.18,0,0,0,129.74,30h5.76a2.8,2.8,0,0,0,3.12-3.12V25a2.78,2.78,0,0,0-3.12-3.12h-6.15a27.16,27.16,0,0,0-53-1.37,20.48,20.48,0,0,0-7.08-1.17,20,20,0,0,0-7,1.17,27.19,27.19,0,0,0-53,1.37H3.08C.88,21.88,0,23.14,0,25v1.86A2.79,2.79,0,0,0,3.08,30H8.89A27.21,27.21,0,0,0,35.94,54.3Zm0-7.33A19.83,19.83,0,1,1,55.76,27.15,19.81,19.81,0,0,1,35.94,47Zm66.75,0a19.83,19.83,0,1,1,19.82-19.82A19.75,19.75,0,0,1,102.69,47Z"/></g></g></g></g></svg>