<svg xmlns="http://www.w3.org/2000/svg" viewBox="0 0 116.21 89.89"><title>Regular-M</title><g id="Layer_2" data-name="Layer 2"><g id="Layer_1-2" data-name="Layer 1"><g id="Regular-M"><path d="M14.11,89.89h88q14.13,0,14.11-13.91V13.92Q116.21,0,102.1,0h-88C4.74,0,0,4.64,0,13.92V76C0,85.25,4.74,89.89,14.11,89.89Zm.1-7.86c-4.1,0-6.35-2.15-6.35-6.44V14.31c0-4.3,2.25-6.45,6.35-6.45H102c4.1,0,6.35,2.15,6.35,6.45V75.59c0,4.29-2.25,6.44-6.35,6.44Zm.19-62.84a2,2,0,0,0,2.1,1.95h4.59a2,2,0,0,0,2.05-1.95v-4.1a2,2,0,0,0-2.05-2.15H16.5a2,2,0,0,0-2.1,2.15Zm78.67,0a2,2,0,0,0,2.1,1.95h4.59a2,2,0,0,0,2-1.95v-4.1a2,2,0,0,0-2-2.15H95.17a2,2,0,0,0-2.1,2.15ZM30.22,39a2.18,2.18,0,0,0,2.4,2.35h51A2.2,2.2,0,0,0,86,39V15.53a2.2,2.2,0,0,0-2.4-2.35h-51a2.18,2.18,0,0,0-2.4,2.35ZM14.4,33.11a2,2,0,0,0,2.1,2h4.59a2,2,0,0,0,2.05-2V29a2,2,0,0,0-2.05-2.1H16.5A2,2,0,0,0,14.4,29Zm78.67,0a2,2,0,0,0,2.1,2h4.59a2,2,0,0,0,2-2V29a2,2,0,0,0-2-2.1H95.17a2,2,0,0,0-2.1,2.1Zm-78.67,14a2,2,0,0,0,2.1,2h4.59a2,2,0,0,0,2.05-2V42.92a2,2,0,0,0-2.05-2.1H16.5a2,2,0,0,0-2.1,2.1Zm78.67,0a2,2,0,0,0,2.1,2h4.59a2,2,0,0,0,2-2V42.92a2,2,0,0,0-2-2.1H95.17a2,2,0,0,0-2.1,2.1ZM30.22,74.32a2.15,2.15,0,0,0,2.4,2.34h51A2.17,2.17,0,0,0,86,74.32V51a2.16,2.16,0,0,0-2.4-2.3h-51a2.14,2.14,0,0,0-2.4,2.3ZM14.4,61a2,2,0,0,0,2.1,2h4.59a2,2,0,0,0,2.05-2V56.88a2,2,0,0,0-2.05-2.14H16.5a2,2,0,0,0-2.1,2.14Zm78.67,0a2,2,0,0,0,2.1,2h4.59a2,2,0,0,0,2-2V56.88a2,2,0,0,0-2-2.14H95.17a2,2,0,0,0-2.1,2.14ZM14.4,74.9a2,2,0,0,0,2.1,2h4.59a2,2,0,0,0,2.05-2V70.75a2,2,0,0,0-2.05-2H16.5a1.94,1.94,0,0,0-2.1,2Zm78.67,0a2,2,0,0,0,2.1,2h4.59a2,2,0,0,0,2-2V70.75a2,2,0,0,0-2-2H95.17a1.94,1.94,0,0,0-2.1,2Z"/></g></g></g></svg>