<svg xmlns="http://www.w3.org/2000/svg" viewBox="0 0 32 32"><path d="M25 8.75a.25.25 0 0 1-.25.25h-2.5a.25.25 0 0 1-.25-.25v-1.5a.25.25 0 0 1 .25-.25h2.5a.25.25 0 0 1 .25.25v1.5zm0 4a.25.25 0 0 1-.25.25h-2.5a.25.25 0 0 1-.25-.25v-1.5a.25.25 0 0 1 .25-.25h2.5a.25.25 0 0 1 .25.25v1.5zm0 4a.25.25 0 0 1-.25.25h-2.5a.25.25 0 0 1-.25-.25v-1.5a.25.25 0 0 1 .25-.25h2.5a.25.25 0 0 1 .25.25v1.5zm0 4a.25.25 0 0 1-.25.25h-2.5a.25.25 0 0 1-.25-.25v-1.5a.25.25 0 0 1 .25-.25h2.5a.25.25 0 0 1 .25.25v1.5zm0 4a.25.25 0 0 1-.25.25h-2.5a.25.25 0 0 1-.25-.25v-1.5a.25.25 0 0 1 .25-.25h2.5a.25.25 0 0 1 .25.25v1.5zm-4-10a.25.25 0 0 1-.25.25h-9.5a.25.25 0 0 1-.25-.25v-7.5a.25.25 0 0 1 .25-.25h9.5a.25.25 0 0 1 .25.25v7.5zm0 10a.25.25 0 0 1-.25.25h-9.5a.25.25 0 0 1-.25-.25v-7.5a.25.25 0 0 1 .25-.25h9.5a.25.25 0 0 1 .25.25v7.5zm-11-16a.25.25 0 0 1-.25.25h-2.5A.25.25 0 0 1 7 8.75v-1.5A.25.25 0 0 1 7.25 7h2.5a.25.25 0 0 1 .25.25v1.5zm0 4a.25.25 0 0 1-.25.25h-2.5a.25.25 0 0 1-.25-.25v-1.5a.25.25 0 0 1 .25-.25h2.5a.25.25 0 0 1 .25.25v1.5zm0 4a.25.25 0 0 1-.25.25h-2.5a.25.25 0 0 1-.25-.25v-1.5a.25.25 0 0 1 .25-.25h2.5a.25.25 0 0 1 .25.25v1.5zm0 4a.25.25 0 0 1-.25.25h-2.5a.25.25 0 0 1-.25-.25v-1.5a.25.25 0 0 1 .25-.25h2.5a.25.25 0 0 1 .25.25v1.5zm0 4a.25.25 0 0 1-.25.25h-2.5a.25.25 0 0 1-.25-.25v-1.5a.25.25 0 0 1 .25-.25h2.5a.25.25 0 0 1 .25.25v1.5zM25.5 5h-19C5.673 5 5 5.673 5 6.5v19c0 .827.673 1.5 1.5 1.5h19c.827 0 1.5-.673 1.5-1.5v-19c0-.827-.673-1.5-1.5-1.5z"/></svg>