<?xml version="1.0" encoding="utf-8"?>
<!-- Generator: Adobe Illustrator 23.0.1, SVG Export Plug-In . SVG Version: 6.00 Build 0)  -->
<svg version="1.1" id="Layer_1" xmlns="http://www.w3.org/2000/svg" xmlns:xlink="http://www.w3.org/1999/xlink" x="0px" y="0px"
	 viewBox="0 0 1000 1000" style="enable-background:new 0 0 1000 1000;" xml:space="preserve">
<path d="M554,161.5c42.1-28.5,88.2-50.6,138.1-66.1c50.6-15.6,103.4-23.3,158.5-23.3c51.2,0,100.5,6.8,147.8,20.4v1v1
	c0,79.1-16.5,155.9-49.6,230.5c-31.8,69.4-77.2,130.6-136.2,183.8c-5.2,48.6-19.8,93.9-43.8,135.7c-24,41.8-55.1,77.6-93.4,107.5
	L652.2,605c-60.3,24.6-125.5,37-195.5,37c-25.3,0-43.1-1-53.5-2.9v3.9v2.9c0,57.1-12.6,110.2-37.9,159.5
	c-25.9,50.6-59.7,91.4-101.1,122.5l-44.7-240.2L1.6,579.8c29.2-23.3,61.9-41.2,98.2-53.5c36.3-12.3,73.9-18.5,112.8-18.5
	c35.7,0,70.3,4.2,104.1,12.6c14.3-82.3,46.7-158.2,97.3-227.6l-131.3-64.2c29.8-23.3,62.7-41.2,98.7-53.5
	c36-12.3,73.8-18.5,113.3-18.5C518.6,156.7,538.4,158.3,554,161.5z M807.8,278.3c16.2-13,24.3-29.5,24.3-49.6
	c0-13.6-4.2-26.3-12.6-37.9c-5.8-7.8-13.1-13.9-21.9-18.5c-8.8-4.5-18.3-6.8-28.7-6.8c-13,0-25.3,4.2-37,12.6
	c-7.8,5.8-13.9,13.1-18.5,21.9c-4.5,8.8-6.8,18.3-6.8,28.7c0,13.6,4.2,26.3,12.6,37.9c5.8,7.8,13.1,13.9,21.9,18.5
	c8.8,4.5,18.3,6.8,28.7,6.8c13.6,0,26.3-4.2,37.9-12.6V278.3z"/>
</svg>
