<svg xmlns="http://www.w3.org/2000/svg" viewBox="0 0 86.72 95.8"><title>flag</title><g id="Layer_2" data-name="Layer 2"><g id="Layer_1-2" data-name="Layer 1"><g id="Regular-M"><path d="M3.71,95.8a3.67,3.67,0,0,0,3.71-3.66V65a33.39,33.39,0,0,1,13-2.29c18.07,0,29.39,8.83,46.58,8.83,7.62,0,10.45-.83,14.16-2.49a8.61,8.61,0,0,0,5.57-8.54V10.94c0-2.64-2.25-4.15-5.08-4.15-2.39,0-6.88,2.05-15.28,2.05C49.17,8.84,37.89,0,19.78,0,12.16,0,9.28.83,5.57,2.49A8.59,8.59,0,0,0,0,11V92.14A3.73,3.73,0,0,0,3.71,95.8Z"/></g></g></g></svg>