<?xml version="1.0" encoding="utf-8"?>
<!-- Generator: Adobe Illustrator 23.0.1, SVG Export Plug-In . SVG Version: 6.00 Build 0)  -->
<svg version="1.1" id="Layer_1" xmlns="http://www.w3.org/2000/svg" xmlns:xlink="http://www.w3.org/1999/xlink" x="0px" y="0px"
	 viewBox="0 0 1000 1000" style="enable-background:new 0 0 1000 1000;" xml:space="preserve">
<path d="M330.4,234.4c0.7,4.4,1.1,11,1.1,19.8c0,35.1-7.1,67.3-21.4,96.6c-14.3,29.3-34.9,61.5-62,96.6
	c-21.2,26.3-40.2,54.5-57.1,84.5c-26.3,44.6-39.5,92.6-39.5,143.8c0,2.2,1.1,16.5,3.3,42.8c6.6,46.8,22.7,88.9,48.3,126.2
	c25.6,37.3,57.4,68.4,95.5,93.3c29.3,19,60.5,33.3,93.8,42.8S459.2,995,492.9,995c19,0,33.3-0.7,42.8-2.2
	c41.7-6.6,80.9-19.9,117.4-40.1c36.6-20.1,69.1-45.5,97.7-76.3c28.5-30.7,51.2-65.3,68-103.7s26.7-79.2,29.6-122.4v-12.1V624
	c0-65.9-17.2-126.6-51.6-182.2c-4.4,54.9-12.8,98.4-25.2,130.6c-12.4,32.2-36.2,58.5-71.3,79c15.4-49.8,23-97.3,23-142.7
	c0-24.1-1.5-45.4-4.4-63.7c-9.5-64.4-32.6-128.4-69.1-192.1c-38-67.3-80.5-121.1-127.3-161.3C469.1,47.8,406.5,18.9,334.8,5
	c37.3,43.9,66,89.3,86.2,136.1s30.2,91.5,30.2,133.9c0,68.8-23,121.5-69.1,158c0.7-8,1.1-19.8,1.1-35.1c0-32.9-3.8-62.7-11.5-89.4
	C363.9,281.8,350.2,257.1,330.4,234.4z"/>
</svg>
