<?xml version="1.0" encoding="utf-8"?>
<!-- Generator: Adobe Illustrator 23.0.1, SVG Export Plug-In . SVG Version: 6.00 Build 0)  -->
<svg version="1.1" id="Layer_1" xmlns="http://www.w3.org/2000/svg" xmlns:xlink="http://www.w3.org/1999/xlink" x="0px" y="0px"
	 viewBox="0 0 1000 1000" style="enable-background:new 0 0 1000 1000;" xml:space="preserve">
<path d="M500,40c-44,1.3-80.5,16.7-109.5,46s-44.2,65.7-45.5,109c0,17.3,2.7,34,8,50c-14-16.7-31-29.5-51-38.5S260.3,193,237,193
	c-43.3,1.3-79.7,16.5-109,45.5S83.3,304,82,348c0.7,38,12.7,70.8,36,98.5s53.3,45.5,90,53.5c-36.7,8-66.7,25.8-90,53.5
	S82.7,614,82,652c1.3,44,16.7,80.5,46,109.5s65.7,44.2,109,45.5c23.3,0,45-4.5,65-13.5s37-21.8,51-38.5c-5.3,16-8,32.7-8,50
	c1.3,43.3,16.5,79.7,45.5,109S456,958.7,500,960c44-1.3,80.5-16.7,109.5-46s44.2-65.7,45.5-109c0-17.3-2.7-34-8-50
	c14,16,31,28.7,51,38s41.7,14,65,14c43.3-1.3,79.7-16.5,109-45.5S916.7,696,918,652c-0.7-38-12.7-70.8-36-98.5S828.7,508,792,500
	c36.7-8,66.7-25.8,90-53.5s35.3-60.5,36-98.5c-1.3-44-16.7-80.5-46-109.5s-65.7-44.2-109-45.5c-23.3,0-45,4.5-65,13.5
	s-37,21.8-51,38.5c5.3-16,8-32.7,8-50c-1.3-43.3-16.5-79.7-45.5-109S544,41.3,500,40z M238,141c28.7,4,53.7,14.7,75,32
	c-1.3-10.7-2-18.3-2-23c0-20,4-39.3,12-58l-70-22L238,141z M677,92c8,18.7,12,38,12,58c0,4.7-0.7,12.3-2,23c21.3-17.3,46.7-28,76-32
	l-16-71L677,92z M500,336c46.7,1.3,85.3,17.3,116,48s46.7,69.3,48,116c-1.3,46.7-17.3,85.3-48,116c-30.7,30.7-69.3,46.7-116,48
	c-46.7-1.3-85.3-17.3-116-48c-30.7-30.7-46.7-69.3-48-116c1.3-46.7,17.3-85.3,48-116S453.3,337.3,500,336z M58,549
	c16.7-22.7,38.7-39,66-49c-27.3-11.3-49.3-27.7-66-49L4,500L58,549z M942,451c-16.7,21.3-38.7,37.7-66,49c27.3,10,49.3,26.3,66,49
	l54-49L942,451z M323,908c-8-18.7-12-38-12-58c0-4.7,0.7-12.3,2-23c-21.3,17.3-46.3,28-75,32l15,71L323,908z M763,859
	c-29.3-4-54.7-14.7-76-32c1.3,10.7,2,18.3,2,23c0,20-4,39.3-12,58l70,22L763,859z"/>
</svg>
