<?xml version="1.0" encoding="utf-8"?>
<!-- Generator: Adobe Illustrator 23.0.1, SVG Export Plug-In . SVG Version: 6.00 Build 0)  -->
<svg version="1.1" id="Layer_1" xmlns="http://www.w3.org/2000/svg" xmlns:xlink="http://www.w3.org/1999/xlink" x="0px" y="0px"
	 viewBox="0 0 1000 1000" style="enable-background:new 0 0 1000 1000;" xml:space="preserve">
<path d="M949.4,6.7c12.1,0,22.5,4.3,31,12.8c8.6,8.6,12.8,18.9,12.8,31v898.8c0,12.1-4.3,22.5-12.8,31c-8.6,8.6-18.9,12.8-31,12.8
	H50.6c-12.1,0-22.5-4.3-31-12.8c-8.6-8.6-12.8-18.9-12.8-31V50.6c0-12.1,4.3-22.5,12.8-31s18.9-12.8,31-12.8H949.4z M749.3,372.7
	c9.3,0,13.9-2.1,13.9-6.4c-11.4-52.1-16.1-95.6-13.9-130.5c-72.8,9.3-140.2,13.9-202.2,13.9c-9.3,0-16.1-0.4-20.3-1.1h-18.2H485
	c-5.7,0.7-14.3,1.1-25.7,1.1c-64.9,0-125.9-3.9-183-11.8c-10.7,42.8-23.9,85.6-39.6,128.4c0,5,4.3,7.5,12.8,7.5l0,0h1.1
	c4.3,0,6.8-2.1,7.5-6.4c8.6-27.8,26.8-50.6,54.6-68.5c27.8-17.8,58.9-26.8,93.1-26.8h1.1h1.1h26.8h3.2h2.1c7.8,0,14.6,1.8,20.3,5.4
	c4.3,5,6.4,11.4,6.4,19.3v1.1v2.1v378.8c0,2.1,0.4,3.6,1.1,4.3v3.2c0,16.4-5.4,29.2-16.1,38.5c-21.4,11.4-41.7,17.5-61,18.2
	c-4.3,0-6.4,3.2-6.4,9.6c0,7.1,2.1,10.7,6.4,10.7c9.3,0,28.9-0.7,58.9-2.1c30-1.4,48.5-2.1,55.6-2.1c6.4,0,24.6,0.7,54.6,2.1
	c30,1.4,49.6,2.1,58.9,2.1c4.3,0,6.4-3.6,6.4-10.7c0-7.1-2.5-10.7-7.5-10.7c-17.1-1.4-32.5-4.6-46-9.6c-10.7-3.6-17.8-8.9-21.4-16.1
	c-5-11.4-7.5-21.8-7.5-31v-3.2v-2.1V299.9v-2.1v-2.1c0-6.4,2.1-12.5,6.4-18.2c7.8-4.3,15-6.4,21.4-6.4h2.1h2.1h34.2h5.4h5.4
	c28.5,0,54.2,7.5,77,22.5c22.1,17.8,37.1,42.8,44.9,74.9c0.7,2.9,2.9,4.3,6.4,4.3H749.3z"/>
</svg>
