<?xml version="1.0" encoding="utf-8"?>
<!-- Generator: Adobe Illustrator 23.0.1, SVG Export Plug-In . SVG Version: 6.00 Build 0)  -->
<svg version="1.1" id="Layer_1" xmlns="http://www.w3.org/2000/svg" xmlns:xlink="http://www.w3.org/1999/xlink" x="0px" y="0px"
	 viewBox="0 0 1000 1000" style="enable-background:new 0 0 1000 1000;" xml:space="preserve">
<path d="M356.1,157.1c-9.4,0-17.3-3.2-23.8-9.7s-9.7-14.4-9.7-23.8s3.2-17.3,9.7-23.8s14.4-9.7,23.8-9.7h21.6V68.4
	c0-9.4,3.2-17.3,9.7-23.8s14.4-9.7,23.8-9.7c9.4,0,17.3,3.2,23.8,9.7s9.7,14.4,9.7,23.8V90h21.6c9.4,0,17.3,3.2,23.8,9.7
	s9.7,14.4,9.7,23.8s-3.2,17.3-9.7,23.8s-14.4,9.7-23.8,9.7h-21.6v21.6c0,9.4-3.2,17.3-9.7,23.8s-14.4,9.7-23.8,9.7
	c-9.4,0-17.3-3.2-23.8-9.7s-9.7-14.4-9.7-23.8v-21.6H356.1z M633.1,289.1c-9.4,0-17.3-3.2-23.8-9.7c-6.5-6.5-9.7-14.1-9.7-22.7
	c0-9.4,3.2-17.3,9.7-23.8c6.5-6.5,14.4-9.7,23.8-9.7h33.5v-33.5c0-8.7,3.2-16.2,9.7-22.7c6.5-6.5,14.1-9.7,22.7-9.7
	c9.4,0,17.3,3.2,23.8,9.7c6.5,6.5,9.7,14.1,9.7,22.7v33.5h33.5c8.7,0,16.2,3.2,22.7,9.7c6.5,6.5,9.7,14.4,9.7,23.8
	c0,8.7-3.2,16.2-9.7,22.7c-6.5,6.5-14.1,9.7-22.7,9.7h-33.5v33.5c0,9.4-3.2,17.3-9.7,23.8c-6.5,6.5-14.4,9.7-23.8,9.7
	c-8.7,0-16.2-3.2-22.7-9.7c-6.5-6.5-9.7-14.4-9.7-23.8v-33.5H633.1z M100.8,333.4c-8.7,0-16.2-3.2-22.7-9.7s-9.7-14.1-9.7-22.7
	c0-9.4,3.2-17.3,9.7-23.8s14.1-9.7,22.7-9.7h33.5v-33.5c0-8.7,3.2-16.2,9.7-22.7s14.4-9.7,23.8-9.7s17.3,3.2,23.8,9.7
	c6.5,6.5,9.7,14.1,9.7,22.7v33.5h32.5c9.4,0,17.3,3.2,23.8,9.7c6.5,6.5,9.7,14.4,9.7,23.8c0,8.7-3.2,16.2-9.7,22.7
	c-6.5,6.5-14.4,9.7-23.8,9.7h-32.5v33.5c0,9.4-3.2,17.3-9.7,23.8c-6.5,6.5-14.4,9.7-23.8,9.7s-17.3-3.2-23.8-9.7s-9.7-14.4-9.7-23.8
	v-33.5H100.8z M85.7,829.9L85.7,829.9h-1.1c-10.8,0-20-3.8-27.6-11.4c-7.6-7.6-11.4-16.4-11.4-26.5v-2.2l1.1-4.3
	c5.8-50.5,19.5-98.3,41.1-143.3S138,557,173.3,521.6c34.6-34.6,74.3-63.1,119-85.5C337,413.8,385,399,436.2,391.8
	c-1.4-5.8-2.2-11.5-2.2-17.3c0-18,6.5-33.5,19.5-46.5s28.5-19.5,46.5-19.5c18,0,33.5,6.5,46.5,19.5s19.5,28.5,19.5,46.5v8.7v8.7
	c50.5,6.5,97.9,20.9,142.3,43.3c44.4,22.4,84.2,51.2,119.5,86.5c34.6,35.3,62.7,75.7,84.4,121.2c21.6,45.4,35.7,93.8,42.2,145v2.2
	v2.2c0,10.1-3.8,18.9-11.4,26.5c-7.6,7.6-16.8,11.4-27.6,11.4l0,0h-1.1H85.7z M954.4,899.2c9.4,0,17.3,3.2,23.8,9.7
	c6.5,6.5,9.7,14.1,9.7,22.7c0,9.4-3.2,17.3-9.7,23.8c-6.5,6.5-14.4,9.7-23.8,9.7H45.6c-9.4,0-17.3-3.2-23.8-9.7
	c-6.5-6.5-9.7-14.4-9.7-23.8c0-8.7,3.2-16.2,9.7-22.7c6.5-6.5,14.4-9.7,23.8-9.7H954.4z"/>
</svg>
