<?xml version="1.0" encoding="utf-8"?>
<!-- Generator: Adobe Illustrator 23.0.1, SVG Export Plug-In . SVG Version: 6.00 Build 0)  -->
<svg version="1.1" id="Layer_1" xmlns="http://www.w3.org/2000/svg" xmlns:xlink="http://www.w3.org/1999/xlink" x="0px" y="0px"
	 viewBox="0 0 1000 1000" style="enable-background:new 0 0 1000 1000;" xml:space="preserve">
<path d="M648.1,574.8c-7.8-1.3-14.7-4.9-20.5-10.8c-5.9-5.9-9.4-13-10.8-21.5c-7.2-41.1-10.8-89.3-10.8-144.7
	c0-77.5,5.2-134.9,15.6-172c15.6-54.7,33.6-100.5,53.8-137.3c20.2-36.8,41.4-62.4,63.5-76.7C752,3.9,764.4,0,776.1,0
	C810,0,841.6,28.3,871,85c19.6,38.4,29.3,91.6,29.3,159.3c0,31.9-2,64.2-5.9,96.8c-5.9,46.3-15.2,91.2-27.9,134.9
	c-12.7,43.7-26.2,79.5-40.6,107.5c-3.9,5.9-9.1,10.8-15.6,14.7c-6.5,3.9-13.4,5.9-20.5,5.9h-4.9c-2.6,0-4.2-0.3-4.9-1L648.1,574.8z
	 M439.9,716.5c13-8.5,19.6-20.2,19.6-35.2v-2v-2c-3.9-42.4-14.7-95.1-32.3-158.4c-18.2-60.6-37.1-107.9-56.7-141.7
	c-33.9-56.7-66.8-100.4-98.7-131s-60.9-45.9-87-45.9c-19.6,0-36.3,9-50.3,26.9s-24.3,44.8-30.8,80.6c-2.6,16.9-3.9,30.6-3.9,41.1
	c0,59.3,17.3,129,51.8,209.2c18.2,43,38.8,83.6,61.6,121.7s44.3,67.9,64.5,89.4c8.5,8.5,17.9,12.7,28.3,12.7
	c7.2,0,13.4-1.6,18.6-4.9L439.9,716.5z M784.9,696c5.2,0.7,9.6,2.8,13.2,6.4c3.6,3.6,5.4,8,5.4,13.2c0,3.3-0.7,5.5-2,6.8
	c-13.7,38.4-29.8,71.2-48.4,98.2s-38.9,40.6-61.1,40.6c-13.7,0-27-5.2-40.1-15.6c-22.2-17.6-39.1-65.8-50.8-144.7v-2v-2
	c0-5.2,2-9.8,5.9-13.7c3.9-3.9,8.5-5.9,13.7-5.9h2h1L784.9,696z M345.1,866.1c-8.5,3.9-12.7,10.1-12.7,18.6c0,4.6,1.3,8.5,3.9,11.7
	c49.5,69.1,91.2,103.6,125.1,103.6c17.6,0,32.6-8.5,45-25.4c9.8-13.7,14.7-38.4,14.7-74.3c0-23.5-2-49.2-5.9-77.2
	c-3.9-11.1-10.8-16.6-20.5-16.6h-3.9c-1.3,0-2.3,0.3-2.9,1L345.1,866.1z"/>
</svg>
