<?xml version="1.0" encoding="utf-8"?>
<!-- Generator: Adobe Illustrator 23.0.1, SVG Export Plug-In . SVG Version: 6.00 Build 0)  -->
<svg version="1.1" id="Layer_1" xmlns="http://www.w3.org/2000/svg" xmlns:xlink="http://www.w3.org/1999/xlink" x="0px" y="0px"
	 viewBox="0 0 1000 1000" style="enable-background:new 0 0 1000 1000;" xml:space="preserve">
<path d="M226,478V277c86.7-46,178-69,274-69s187.3,23,274,69v201h-56v-44c0-4-1.5-7.3-4.5-10s-6.2-4-9.5-4s-6.5,1.3-9.5,4
	s-4.5,6-4.5,10v44h-74v-44c-0.7-8.7-5.3-13-14-13s-13.3,4.3-14,13v44h-74v-44c-0.7-8.7-5.3-13-14-13s-13.3,4.3-14,13v44h-74v-44
	c-0.7-8.7-5.3-13-14-13s-13.3,4.3-14,13v44h-74v-44c-0.7-8.7-5.3-13-14-13s-13.3,4.3-14,13v44H226z M0,497
	c43.3-73.3,100-135,170-185v369C100.7,632.3,44,571,0,497z M1000,497c-44,74-100.7,135.3-170,184V312
	C900.7,361.3,957.3,423,1000,497z M774,506v210c-86.7,46-178,69-274,69s-187.3-23-274-69V506h56v45c0.7,8.7,5.3,13,14,13
	s13.3-4.3,14-13v-45h74v45c0.7,8.7,5.3,13,14,13s13.3-4.3,14-13v-45h74v45c0.7,8.7,5.3,13,14,13s13.3-4.3,14-13v-45h74v45
	c0.7,8.7,5.3,13,14,13s13.3-4.3,14-13v-45h74v45c0.7,8.7,5.3,13,14,13s13.3-4.3,14-13v-45H774z"/>
</svg>
