<?xml version="1.0" encoding="utf-8"?>
<!-- Generator: Adobe Illustrator 23.0.1, SVG Export Plug-In . SVG Version: 6.00 Build 0)  -->
<svg version="1.1" id="Layer_1" xmlns="http://www.w3.org/2000/svg" xmlns:xlink="http://www.w3.org/1999/xlink" x="0px" y="0px"
	 viewBox="0 0 1000 1000" style="enable-background:new 0 0 1000 1000;" xml:space="preserve">
<path d="M377,951c22.7,0,42-8,58-24s24-35.3,24-58V623c0-22.7-8-42-24-58s-35.3-24-58-24H131c-22.7,0-42,8-58,24s-24,35.3-24,58v246
	c0,22.7,8,42,24,58s35.3,24,58,24H377z M869,951c22.7,0,42-8,58-24s24-35.3,24-58V623c0-22.7-8-42-24-58s-35.3-24-58-24H623
	c-22.7,0-42,8-58,24s-24,35.3-24,58v246c0,22.7,8,42,24,58s35.3,24,58,24H869z M377,459c22.7,0,42-8,58-24s24-35.3,24-58V131
	c0-22.7-8-42-24-58s-35.3-24-58-24H131c-22.7,0-42,8-58,24s-24,35.3-24,58v246c0,22.7,8,42,24,58s35.3,24,58,24H377z M869,459
	c22.7,0,42-8,58-24s24-35.3,24-58V131c0-22.7-8-42-24-58s-35.3-24-58-24H623c-22.7,0-42,8-58,24s-24,35.3-24,58v246
	c0,22.7,8,42,24,58s35.3,24,58,24H869z"/>
</svg>
