<?xml version="1.0" encoding="utf-8"?>
<!-- Generator: Adobe Illustrator 23.0.1, SVG Export Plug-In . SVG Version: 6.00 Build 0)  -->
<svg version="1.1" id="Layer_1" xmlns="http://www.w3.org/2000/svg" xmlns:xlink="http://www.w3.org/1999/xlink" x="0px" y="0px"
	 viewBox="0 0 1000 1000" style="enable-background:new 0 0 1000 1000;" xml:space="preserve">
<path d="M965.6,467.5l-2.9-9.8l-3.9-8.8c-0.7-0.7-1-1.6-1-2.9l-1-1l-2.9-7.9l-2.9-5.9v-2l-1-2l-3.9-7.9c-1.3-2-2.6-4.9-3.9-8.8
	c-0.7,0-1-0.3-1-1l-2-2l-2.9-5.9l-3.9-5.9c-1.3-1.3-2-2.9-2-4.9c-0.7-0.7-3.6-5.2-8.8-13.8l-10.8-12.8l-2.9-3.9l-3.9-4.9l-3.9-3.9
	l-2-2c-0.7,0-1-0.3-1-1c-0.7-2-2.3-4.3-4.9-6.9c-1.3-0.7-3.3-2.3-5.9-4.9l-3.9-2c-0.7,0-1.6-1-2.9-2.9c-2.6-2.6-4.6-4.3-5.9-4.9
	l-2.9-3.9c-2.6-1.3-4.3-2.6-4.9-3.9l-5.9-3.9l-1-1h-1l-11.8-7.9l-3.9-2l-9.8-5.9l-2-1c-1.3,0-2.3-0.3-2.9-1
	c-3.9-3.3-7.9-5.2-11.8-5.9c-0.7-0.7-1.6-1-2.9-1l-2-1l-8.8-2.9l-2-1c-2,0-3.3-0.3-3.9-1l-9.8-3.9l-3.9-1h-2.9l-3.9-2
	c-2.6,0-4.6-0.3-5.9-1H766c-1.3,0-3.3-0.7-5.9-2h-3.9h-1c-1.3,0-2.3-0.3-2.9-1h-2.9c-5.2-1.3-9.5-2-12.8-2h-1l-5.9-2h-1h-2.9
	c-2,0-3.3-0.3-3.9-1h-41.3h-1h-2c-0.7,0.7-2,1-3.9,1h-1l-5.9,2c-3.3,0-7.5,0.7-12.8,2c-40,6.6-78.7,20.6-116,42.3
	c-4.6-24.3-15.7-48.2-33.4-71.8c9.8-5.2,24.3-11.1,43.3-17.7c19.7-5.9,48.8-10.8,87.5-14.7c62.3-7.2,101.9-43.6,119-109.1
	c5.2-22.9,7.9-42.3,7.9-58c0-10.5-0.3-19-1-25.6s-1-10.5-1-11.8c-43.3,22.9-91.8,38.3-145.5,46.2c-39.3,5.2-71.8,22.3-97.3,51.1
	c-25.6,28.8-38.3,62.6-38.3,101.3v4.9c0,2.6,0.3,4.6,1,5.9c-26.9-26.9-59-48.2-96.4-63.9l-5.9-2h-3.9c-8.5,0-15.7,2.9-21.6,8.8
	s-8.8,12.8-8.8,20.6c0,6.6,1.6,12.3,4.9,17.2c3.3,4.9,7.5,8.7,12.8,11.3c45.2,19,80.6,48.8,106.2,89.5
	c-50.5-26.9-103.6-40.3-159.3-40.3c-62.9,0-120.6,16.4-173.1,49.2C98,327.9,69.2,362.5,48.2,410S16.7,510.2,16.7,567.8
	c0,43.3,5.6,83.9,16.7,121.9c15.1,54.4,40.6,104.1,76.7,149s83.6,81.3,142.6,109.1s128.8,43.1,209.4,45.7h17.7
	c98.3,0.7,183.2-15.1,254.7-47.2S862.7,871,904.6,816.6c26.2-34.1,45.9-71,59-110.6c13.1-39.7,19.7-80.5,19.7-122.4
	C983.3,543.6,977.4,504.9,965.6,467.5z"/>
</svg>
