<?xml version="1.0" encoding="utf-8"?>
<!-- Generator: Adobe Illustrator 23.0.1, SVG Export Plug-In . SVG Version: 6.00 Build 0)  -->
<svg version="1.1" id="Layer_1" xmlns="http://www.w3.org/2000/svg" xmlns:xlink="http://www.w3.org/1999/xlink" x="0px" y="0px"
	 viewBox="0 0 1000 1000" style="enable-background:new 0 0 1000 1000;" xml:space="preserve">
<path d="M747.5,376.5h2h2c30.7,0,59.7,5.7,87,17s51.7,27,73,47c20.7,20,37.2,43.7,49.5,71c12.3,27.3,19.2,56,20.5,86v2v3
	c0,30.7-5.7,59.7-17,87c-11.3,27.3-27.3,51.3-48,72c-21.3,21.3-45.7,37.8-73,49.5s-56.3,17.5-87,17.5c-32,0-62.2-6.2-90.5-18.5
	s-52.8-29.8-73.5-52.5c-6.7-8-15.7-12-27-12h-131c-10.7,0-20.3,4.3-29,13c-20.7,21.3-45,38.2-73,50.5s-57.7,18.5-89,18.5
	c-30.7,0-59.7-5.8-87-17.5s-51.3-28.2-72-49.5c-20.7-20.7-36.8-44.7-48.5-72c-11.7-27.3-17.5-56.3-17.5-87c0-30,5.8-58.8,17.5-86.5
	c11.7-27.7,27.8-51.8,48.5-72.5c20.7-20.7,44.7-36.8,72-48.5s56.3-17.5,87-17.5l0,0h225v-174c0-8.7,3-16,9-22s13.3-9,22-9
	c8.7,0,16,3,22,9s9,13.3,9,22v174H747.5z M325.5,632.5c11.3,0,21-4,29-12s12-17.7,12-29s-4-21-12-29s-17.7-12-29-12h-51v-51
	c0-11.3-4-21-12-29s-17.7-12-29-12c-11.3,0-21,4-29,12s-12,17.7-12,29v51h-51c-11.3,0-21,4-29,12s-12,17.7-12,29s4,21,12,29
	s17.7,12,29,12h51v51c0,11.3,4,21,12,29s17.7,12,29,12c11.3,0,21-4,29-12s12-17.7,12-29v-51H325.5z M765.5,479.5c-11.3,0-21,4-29,12
	s-12,17.3-12,28c0,11.3,4,21,12,29s17.7,12,29,12s21-4,29-12s12-17.7,12-29c0-10.7-4-20-12-28S776.8,479.5,765.5,479.5z
	 M683.5,642.5c11.3,0,21-4,29-12s12-17.7,12-29s-4-21-12-29s-17.7-12-29-12s-21,4-29,12s-12,17.7-12,29s4,21,12,29
	S672.2,642.5,683.5,642.5z M847.5,642.5c11.3,0,21-4,29-12s12-17.7,12-29s-4-21-12-29s-17.7-12-29-12s-21,4-29,12s-12,17.7-12,29
	s4,21,12,29S836.2,642.5,847.5,642.5z M765.5,724.5c11.3,0,21-4,29-12s12-17.7,12-29c0-11.3-4-21-12-29s-17.7-12-29-12s-21,4-29,12
	s-12,17.7-12,29c0,11.3,4,21,12,29S754.2,724.5,765.5,724.5z"/>
</svg>
