<?xml version="1.0" encoding="utf-8"?>
<!-- Generator: Adobe Illustrator 23.0.1, SVG Export Plug-In . SVG Version: 6.00 Build 0)  -->
<svg version="1.1" id="Layer_1" xmlns="http://www.w3.org/2000/svg" xmlns:xlink="http://www.w3.org/1999/xlink" x="0px" y="0px"
	 viewBox="0 0 1000 1000" style="enable-background:new 0 0 1000 1000;" xml:space="preserve">
<path d="M843,198.5c8.7,0,16,3,22,9s9,13,9,21v349c0,31.3-11.8,59.3-35.5,84s-52.8,40-87.5,46v115c0,11.3-4,21-12,29s-17.7,12-29,12
	H239c-11.3,0-21-4-29-12s-12-17.7-12-29v-758c0-11.3,4-21,12-29s17.7-12,29-12h471c11.3,0,21,4,29,12s12,17.7,12,29v579
	c16.7-3.3,30.5-11.2,41.5-23.5s17.5-26.8,19.5-43.5v-348c0-8,3-15,9-21S834.3,198.5,843,198.5z M702,177.5c0-11.3-4-21-12-29
	s-17.7-12-29-12H293c-11.3,0-21,4-29,12s-12,17.7-12,29v226c0,11.3,4,21,12,29s17.7,12,29,12l61-1c12.7-14,27.8-25.7,45.5-35
	s36.5-15.3,56.5-18c0-1.3,1-5,3-11l62-123c2-5.3,5.5-9.7,10.5-13s10.8-5,17.5-5c8,0,15,3,21,9s9,13,9,21c0,6-1.3,11.3-4,16l-53,110
	c33.3,8.7,60,25,80,49h59c11.3,0,21-4,29-12s12-17.7,12-29V177.5z M792,914.5c8.7,0,16,3,22,9s9,13.3,9,22s-3,16-9,22s-13.3,9-22,9
	H157c-8.7,0-16-3-22-9s-9-13.3-9-22s3-16,9-22s13.3-9,22-9H792z"/>
</svg>
