<svg xmlns="http://www.w3.org/2000/svg" viewBox="0 0 109.96 108.38"><title>gear</title><g id="Layer_2" data-name="Layer 2"><g id="Layer_1-2" data-name="Layer 1"><g id="Regular-M"><path d="M55,101.75c1.27,0,2.49-.15,3.81-.25l2.78,5.38a2.72,2.72,0,0,0,3,1.46,2.75,2.75,0,0,0,2.25-2.44l.83-5.91a45.34,45.34,0,0,0,7.13-2.59l4.39,4a2.65,2.65,0,0,0,3.32.39,2.72,2.72,0,0,0,1.27-3l-1.22-5.86A42.46,42.46,0,0,0,88.38,88l5.42,2.29a2.7,2.7,0,0,0,3.32-.88,2.49,2.49,0,0,0,.19-3.22l-3.17-5.08a42.47,42.47,0,0,0,3.76-6.59l6,.29A2.67,2.67,0,0,0,106.64,73a2.77,2.77,0,0,0-1-3.18L101,66.1a44.59,44.59,0,0,0,1.36-7.52L108,56.83a2.78,2.78,0,0,0,0-5.33l-5.62-1.8A44.92,44.92,0,0,0,101,42.23l4.68-3.76a2.73,2.73,0,0,0-1.75-4.93l-6,.24a42.94,42.94,0,0,0-3.76-6.59l3.17-5.08a2.55,2.55,0,0,0-.19-3.17,2.64,2.64,0,0,0-3.32-.88l-5.42,2.19a51.78,51.78,0,0,0-5.86-4.78l1.22-5.81a2.76,2.76,0,0,0-1.27-3.08A2.61,2.61,0,0,0,79.15,7l-4.39,3.86a50.77,50.77,0,0,0-7.13-2.54L66.8,2.43A2.75,2.75,0,0,0,64.5,0a2.65,2.65,0,0,0-2.93,1.42L58.79,6.83c-1.32-.1-2.54-.2-3.81-.2s-2.49.1-3.81.2L48.34,1.46A2.65,2.65,0,0,0,45.41,0a2.65,2.65,0,0,0-2.25,2.39l-.87,5.86a60.09,60.09,0,0,0-7.13,2.59L30.76,7a2.61,2.61,0,0,0-3.32-.44,2.76,2.76,0,0,0-1.27,3.08l1.22,5.81a56.62,56.62,0,0,0-5.86,4.78l-5.42-2.19a2.58,2.58,0,0,0-3.27.88,2.43,2.43,0,0,0-.24,3.12l3.17,5.13A48.57,48.57,0,0,0,12,33.78l-6-.24a2.74,2.74,0,0,0-2.78,1.85,2.6,2.6,0,0,0,1,3.08l4.69,3.76A35.87,35.87,0,0,0,7.67,49.7L2,51.5A2.58,2.58,0,0,0,0,54.14a2.67,2.67,0,0,0,2,2.69l5.72,1.8A35.87,35.87,0,0,0,8.94,66.1L4.25,69.81a2.92,2.92,0,0,0-1,3.18,2.74,2.74,0,0,0,2.78,1.85l6-.29a48,48,0,0,0,3.76,6.59L12.6,86.22a2.56,2.56,0,0,0,.24,3.22,2.64,2.64,0,0,0,3.27.88L21.53,88a45.65,45.65,0,0,0,5.86,4.83l-1.22,5.86a2.72,2.72,0,0,0,1.27,3,2.65,2.65,0,0,0,3.32-.39l4.4-4A46.46,46.46,0,0,0,42.29,100l.87,5.91a2.74,2.74,0,0,0,5.18,1l2.83-5.38C52.44,101.6,53.66,101.75,55,101.75ZM67.24,51.06c-2.25-6.15-6.79-9.52-12.36-9.52a15.91,15.91,0,0,0-3.42.44l-14-23.92a39.48,39.48,0,0,1,17.53-4c21.29,0,38,16.17,39.55,37ZM15.33,54.19A40.09,40.09,0,0,1,31.84,21.43L46,45.5a12.36,12.36,0,0,0-3.91,8.89c0,3.07,1.17,5.9,3.86,8.74L31.54,86.76A40.08,40.08,0,0,1,15.33,54.19ZM49,54.34a6,6,0,1,1,6,5.95A6,6,0,0,1,49,54.34Zm6,40a40.2,40.2,0,0,1-17.87-4.15L51.46,66.69a13.23,13.23,0,0,0,3.42.49c5.62,0,10.16-3.47,12.36-9.77H94.48C92.92,78.16,76.27,94.33,55,94.33Z"/></g></g></g></svg>