<svg xmlns="http://www.w3.org/2000/svg" viewBox="0 0 93.9 103.22"><title>gift</title><g id="Layer_2" data-name="Layer 2"><g id="Layer_1-2" data-name="Layer 1"><g id="Symbols"><g id="Regular-M"><path d="M42.63,52.73V26.86H35.35C27.29,26.86,23,21.63,23,16.55c0-5.27,3.95-8.4,9.18-8.4,6,0,10.69,4.64,10.69,12.41v6.3H51v-6.3c0-7.77,4.68-12.41,10.69-12.41,5.22,0,9.13,3.13,9.13,8.4,0,5.08-4.4,10.31-12.31,10.31H51.27V52.73H85.69c5.33,0,8.21-2,8.21-7.27V34.13c0-5.17-2.88-7.27-8.21-7.27H74.27a14.1,14.1,0,0,0,4.88-10.65C79.15,6.79,71.63,0,62.21,0A15.69,15.69,0,0,0,46.92,10.84,15.62,15.62,0,0,0,31.69,0C22.22,0,14.75,6.79,14.75,16.21a14.14,14.14,0,0,0,4.78,10.65H8.2c-5,0-8.2,2.1-8.2,7.27V45.46c0,5.22,2.93,7.27,8.2,7.27Zm0,50.49V58H7V90.82c0,8.15,4.79,12.4,12.94,12.4ZM51.27,58v45.26H74c8.16,0,12.94-4.25,12.94-12.4V58Z"/></g></g></g></g></svg>