<svg xmlns="http://www.w3.org/2000/svg" viewBox="0 0 96.97 96.97"><title>Regular-M</title><g id="Layer_2" data-name="Layer 2"><g id="Layer_1-2" data-name="Layer 1"><g id="Regular-M"><path d="M48.54,97A48.78,48.78,0,0,0,97,48.49C97,22,75,0,48.49,0A48.86,48.86,0,0,0,0,48.49C0,75,22,97,48.54,97ZM34.47,23.19c2.88-7.27,6.89-12.5,11.23-14.11V24.32A71.35,71.35,0,0,1,34.47,23.19ZM51.32,9.08c4.3,1.61,8.3,6.84,11.18,14.11a70.7,70.7,0,0,1-11.18,1.13Zm10.25,1.37a40.06,40.06,0,0,1,14,8.25,40.71,40.71,0,0,1-7.47,3.13A39.61,39.61,0,0,0,61.57,10.45ZM21.44,18.7a40.79,40.79,0,0,1,14-8.25,40.55,40.55,0,0,0-6.49,11.38A40.13,40.13,0,0,1,21.44,18.7Zm51.27,27A75.39,75.39,0,0,0,69.82,27a41.29,41.29,0,0,0,9.62-4.2,39.61,39.61,0,0,1,9.13,22.85Zm-64.26,0A39.89,39.89,0,0,1,17.53,22.8,42.44,42.44,0,0,0,27.15,27a77.32,77.32,0,0,0-2.88,18.65Zm42.87,0V29.93a76.33,76.33,0,0,0,12.94-1.51,72.7,72.7,0,0,1,2.68,17.23ZM30,45.65a75.34,75.34,0,0,1,2.68-17.23,76.45,76.45,0,0,0,13,1.51V45.65ZM8.4,51.27H24.27a74.59,74.59,0,0,0,2.88,18.94,41.14,41.14,0,0,0-9.47,4.16A40.51,40.51,0,0,1,8.4,51.27Zm21.63,0H45.7v16a71.7,71.7,0,0,0-13,1.51A72.35,72.35,0,0,1,30,51.27Zm21.29,16v-16H66.94A72.35,72.35,0,0,1,64.26,68.8,71.56,71.56,0,0,0,51.32,67.29Zm18.5,2.92a75,75,0,0,0,2.89-18.94H88.62a40,40,0,0,1-9.23,23.1A45.2,45.2,0,0,0,69.82,70.21ZM34.47,74A72.6,72.6,0,0,1,45.7,72.9V88.13C41.36,86.52,37.35,81.3,34.47,74ZM51.32,72.9A71.94,71.94,0,0,1,62.5,74c-2.88,7.28-6.88,12.5-11.18,14.11ZM21.63,78.42a38.38,38.38,0,0,1,7.28-3,41.51,41.51,0,0,0,6.25,11.08A39.07,39.07,0,0,1,21.63,78.42Zm46.44-3a37.76,37.76,0,0,1,7.37,3.08,40.24,40.24,0,0,1-13.67,8A41,41,0,0,0,68.07,75.39Z"/></g></g></g></svg>