<?xml version="1.0" encoding="utf-8"?>
<!-- Generator: Adobe Illustrator 23.0.1, SVG Export Plug-In . SVG Version: 6.00 Build 0)  -->
<svg version="1.1" id="Layer_1" xmlns="http://www.w3.org/2000/svg" xmlns:xlink="http://www.w3.org/1999/xlink" x="0px" y="0px"
	 viewBox="0 0 1000 1000" style="enable-background:new 0 0 1000 1000;" xml:space="preserve">
<path d="M983.4,323L541.8,175.2c-7.1-2.6-14.9-3.9-23.3-3.9c-8.4,0-15.6,1.3-21.4,3.9L69.1,323c-9.7,4.5-14.6,11.7-14.6,21.4
	c0,3.9,1.5,7.8,4.4,11.7s6.3,6.8,10.2,8.8l14.6,4.9v153.7c0,5.2,1.9,9.7,5.8,13.6c3.9,3.9,8.4,5.8,13.6,5.8h3.9
	c5.2,0,9.7-1.9,13.6-5.8c3.9-3.9,5.8-8.4,5.8-13.6V384.3l370.6,128.4h-1c7.1,2.6,14.6,3.9,22.4,3.9c9.1,0,16.5-1.3,22.4-3.9
	l442.5-147.8c4.5-1.3,8.1-3.9,10.7-7.8c2.6-3.9,3.9-8.1,3.9-12.6C998,334.7,993.1,327.5,983.4,323z M798.6,490.3h-2.9
	c-1.3,0-2.3,0.3-2.9,1l-260.6,99.2c-5.8,2.6-12.6,3.9-20.4,3.9c-7.8,0-14.6-1.3-20.4-3.9L247.1,490.3c-1.3,0-2.3-0.3-2.9-1h-2.9
	c-5.8,0-10.7,1.9-14.6,5.8c-3.9,3.9-5.8,8.8-5.8,14.6v1v1.9V783v1.9v1c0,11.7,3.6,21.4,10.7,29.2s16.5,12.3,28.2,13.6h520.3
	c11.7-1.3,21.1-5.8,28.2-13.6c7.1-7.8,10.7-17.5,10.7-29.2v-1V783V512.6v-1.9v-1c0-5.2-1.9-9.7-5.8-13.6
	C809.3,492.2,804.4,490.3,798.6,490.3z M125.6,648.8c0-9.7-3.1-18.2-9.2-25.3c-6.2-7.1-14.1-11.7-23.8-13.6c-1.3,0-2.3-0.3-2.9-1
	h-3.9c-8.4,0-16,2.4-22.9,7.3c-6.8,4.9-11.5,11.2-14.1,19l-41.8,106C3.7,747.7,2,755.8,2,765.5c0,15.6,4.7,29,14.1,40.4
	c9.4,11.3,21.9,18.6,37.4,21.9h4.9c1.3,0.6,3.2,1,5.8,1c17.5,0,32.4-6.2,44.7-18.5c12.3-12.3,18.5-27.2,18.5-44.7v-1l-1.9-114.8
	V648.8z"/>
</svg>
