<svg xmlns="http://www.w3.org/2000/svg" viewBox="0 0 104.3 74.85"><title>grid</title><g id="Layer_2" data-name="Layer 2"><g id="Layer_1-2" data-name="Layer 1"><g id="Symbols"><g id="Regular-M"><path d="M4.2,16.5h8.1c3.13,0,4.25-1.12,4.25-4.2V4.2c0-3.08-1.12-4.2-4.25-4.2H4.2C1.12,0,0,1.12,0,4.2v8.1C0,15.38,1.12,16.5,4.2,16.5Zm29.2,0h8.1c3.08,0,4.2-1.12,4.2-4.2V4.2c0-3.08-1.12-4.2-4.2-4.2H33.4c-3.13,0-4.25,1.12-4.25,4.2v8.1C29.15,15.38,30.27,16.5,33.4,16.5Zm29.15,0h8.1c3.08,0,4.2-1.12,4.2-4.2V4.2c0-3.08-1.12-4.2-4.2-4.2h-8.1c-3.08,0-4.2,1.12-4.2,4.2v8.1C58.35,15.38,59.47,16.5,62.55,16.5Zm29.15,0h8.1c3.13,0,4.25-1.12,4.25-4.2V4.2c0-3.08-1.12-4.2-4.25-4.2H91.7c-3.08,0-4.2,1.12-4.2,4.2v8.1C87.5,15.38,88.62,16.5,91.7,16.5ZM4.44,45.7h8.11c3.12,0,4.25-1.12,4.25-4.24V33.35c0-3.08-1.13-4.2-4.25-4.2H4.44c-3.07,0-4.2,1.12-4.2,4.2v8.11C.24,44.58,1.37,45.7,4.44,45.7Zm29.2,0h8.11c3.07,0,4.2-1.12,4.2-4.24V33.35c0-3.08-1.13-4.2-4.2-4.2H33.64c-3.12,0-4.25,1.12-4.25,4.2v8.11C29.39,44.58,30.52,45.7,33.64,45.7Zm29.15,0H70.9c3.07,0,4.2-1.12,4.2-4.24V33.35c0-3.08-1.13-4.2-4.2-4.2H62.79c-3.07,0-4.2,1.12-4.2,4.2v8.11C58.59,44.58,59.72,45.7,62.79,45.7Zm29.2,0h8.06c3.12,0,4.25-1.12,4.25-4.24V33.35c0-3.08-1.13-4.2-4.25-4.2H92c-3.12,0-4.25,1.12-4.25,4.2v8.11C87.74,44.58,88.87,45.7,92,45.7ZM4.44,74.85h8.11c3.12,0,4.25-1.12,4.25-4.2v-8.1c0-3.13-1.13-4.25-4.25-4.25H4.44c-3.07,0-4.2,1.12-4.2,4.25v8.1C.24,73.73,1.37,74.85,4.44,74.85Zm29.2,0h8.11c3.07,0,4.2-1.12,4.2-4.2v-8.1c0-3.13-1.13-4.25-4.2-4.25H33.64c-3.12,0-4.25,1.12-4.25,4.25v8.1C29.39,73.73,30.52,74.85,33.64,74.85Zm29.15,0H70.9c3.07,0,4.2-1.12,4.2-4.2v-8.1c0-3.13-1.13-4.25-4.2-4.25H62.79c-3.07,0-4.2,1.12-4.2,4.25v8.1C58.59,73.73,59.72,74.85,62.79,74.85Zm29.2,0h8.06c3.12,0,4.25-1.12,4.25-4.2v-8.1c0-3.13-1.13-4.25-4.25-4.25H92c-3.12,0-4.25,1.12-4.25,4.25v8.1C87.74,73.73,88.87,74.85,92,74.85Z"/></g></g></g></g></svg>