<?xml version="1.0" encoding="utf-8"?>
<!-- Generator: Adobe Illustrator 23.0.1, SVG Export Plug-In . SVG Version: 6.00 Build 0)  -->
<svg version="1.1" id="Layer_1" xmlns="http://www.w3.org/2000/svg" xmlns:xlink="http://www.w3.org/1999/xlink" x="0px" y="0px"
	 viewBox="0 0 1054 1054" style="enable-background:new 0 0 1054 1054;" xml:space="preserve">
<path d="M1041,447c9.3-10.7,14-21.7,14-33s-4.7-21.7-14-31l-17-19c-7.3-8.7-17-13-29-13c-10.7,0-19,3-25,9c-16,0-32-7-48-21
	c-12-17.3-18-36-18-56c0-14-0.8-25.5-2.5-34.5S896.7,232,892,226l-32-32l-52-52c-18.7-26.7-60.7-56.3-126-89
	c-36-17.3-80.3-26-133-26c-50,0-110.3,7.7-181,23l1,37c4-2,32.7,2,86,12s107.3,39.3,162,88c3.3,1.3,8.3,9.7,15,25c2,4.7,3,9.7,3,15
	c0,12-5.3,24.3-16,37l-15,16l-19,19l118,116l14-14c8-8.7,14.3-15,19-19c8.7-8.7,20.7-13,36-13c24.7,0,48.3,11,71,33
	c8,8,14.2,16.2,18.5,24.5s6.5,15.8,6.5,22.5c0,8.7-2.7,14.3-8,17c-2.7,5.3-4,9.7-4,13c0,5.3,1.5,11.2,4.5,17.5s7.2,12.2,12.5,17.5
	l19,20c9.3,8.7,20.3,13,33,13c11.3,0,21.3-4.3,30-13L1041,447z M17,860C5,873.3-1,887.7-1,903c0,16.7,6,31,18,43l62,63
	c13.3,12,28,18,44,18s30-6,42-18l511-565L562,326L17,860z"/>
</svg>
