<?xml version="1.0" encoding="utf-8"?>
<!-- Generator: Adobe Illustrator 23.0.1, SVG Export Plug-In . SVG Version: 6.00 Build 0)  -->
<svg version="1.1" id="Layer_1" xmlns="http://www.w3.org/2000/svg" xmlns:xlink="http://www.w3.org/1999/xlink" x="0px" y="0px"
	 viewBox="0 0 1000 1000" style="enable-background:new 0 0 1000 1000;" xml:space="preserve">
<path d="M437,115c-4-4-6-8.7-6-14c0-6,2-11,6-15l50-50c4-4,8.7-6,14-6h3l2,1l160,37c12,3.3,21.7,8.7,29,16l263,263
	c8,8,12,17.7,12,29s-4,21-12,29l-87,87c-8,8-17.7,12-29,12c-10,0-19.7-4-29-12L437,115z M82,970L82,970c14,0,26-5,36-15l496-497
	c8-8,12-18.7,12-32c0-14-5-26-15-36s-22-15-36-15c-12.7,0-23.7,3.7-33,11L45,883c-10,10-15,22-15,36s5,26,15,36S67.3,970,82,970
	L82,970z"/>
</svg>
