<?xml version="1.0" encoding="utf-8"?>
<!-- Generator: Adobe Illustrator 23.0.1, SVG Export Plug-In . SVG Version: 6.00 Build 0)  -->
<svg version="1.1" id="Layer_1" xmlns="http://www.w3.org/2000/svg" xmlns:xlink="http://www.w3.org/1999/xlink" x="0px" y="0px"
	 viewBox="0 0 1000 1000" style="enable-background:new 0 0 1000 1000;" xml:space="preserve">
<path d="M797,361.5c8.7,0,16-3,22-9s9-13.3,9-22c-0.7-42.7-9.5-83.3-26.5-122s-40.2-72.7-69.5-102S668.3,54.3,629,38
	s-80.7-24.5-124-24.5h-2h-3h-2h-3c-43.3,0-84.3,8.2-123,24.5s-73,39.2-103,68.5S215.5,170,198.5,209s-25.8,79.8-26.5,122.5
	c0,8,3,15,9,21s13.3,9,22,9s16-3,22-9s9-13.3,9-22c0.7-34.7,7.8-67.7,21.5-99c13.7-31.3,32.8-58.7,57.5-82
	c24-23.3,51.7-41.5,83-54.5s64.3-19.5,99-19.5h3h2h3h2c34.7,0,67.7,6.5,99,19.5s59.3,31.2,84,54.5c24,23.3,42.8,50.7,56.5,82
	s20.8,64.7,21.5,100c0,8,3,15,9,21S788.3,361.5,797,361.5z M971,933.5c0,2,0.3,3.3,1,4v5c0,12-4.3,22.3-13,31s-19,13-31,13l0,0h-1
	H73h-1c-12,0-22.3-4.3-31-13s-13-19-13-31c0-2,0.3-3.3,1-4v-4l93-486c2-10,7-18.3,15-25s17.3-10,28-10h670c10.7,0,20,3.3,28,10
	s13,15,15,25l93,486V933.5z M500,688.5L500,688.5c19.3,0,36-6.8,50-20.5s21.3-30.5,22-50.5v-1c0-20-7-37-21-51s-31-21-51-21
	s-37,7-51,21s-21,31-21,51s7,37,21,51S480,688.5,500,688.5z"/>
</svg>
