<svg xmlns="http://www.w3.org/2000/svg" viewBox="0 0 78.66 104.1"><title>hand</title><g id="Layer_2" data-name="Layer 2"><g id="Layer_1-2" data-name="Layer 1"><g id="Symbols"><g id="Regular-M"><path d="M0,69.24C0,93.31,13.33,104.1,31.93,104.1c11.82,0,20.61-3.9,27.64-11.33,9.77-10.3,13-26,14.84-32.13,1.52-4.88,4.25-11,4.25-14.3,0-2.1-2.78-4-4.64-4-4.2,0-5.81,1.91-8.25,7.18-2.73,5.81-6,16.65-8.69,16.65-1.51,0-2-2.73-2-7.81V11.28a4.61,4.61,0,0,0-4.88-4.93,4.65,4.65,0,0,0-4.89,4.93V49.85a35.93,35.93,0,0,0-5.32-1.07V4.88A4.6,4.6,0,0,0,35.06,0a4.6,4.6,0,0,0-4.88,4.88V48.44a49.35,49.35,0,0,0-5.33.58V8.64A4.67,4.67,0,0,0,20,3.71a4.67,4.67,0,0,0-4.88,4.93V51.76a34.06,34.06,0,0,0-5.32,2.73V23.83c0-2.59-1.52-4.93-4.79-4.93a4.67,4.67,0,0,0-5,4.93Z"/></g></g></g></g></svg>