<?xml version="1.0" encoding="utf-8"?>
<!-- Generator: Adobe Illustrator 23.0.1, SVG Export Plug-In . SVG Version: 6.00 Build 0)  -->
<svg version="1.1" id="Layer_1" xmlns="http://www.w3.org/2000/svg" xmlns:xlink="http://www.w3.org/1999/xlink" x="0px" y="0px"
	 viewBox="0 0 1000 1000" style="enable-background:new 0 0 1000 1000;" xml:space="preserve">
<path d="M975.9,92.4c4.1,9.9,6.2,18.6,6.2,26.1c0,14.1-5,26.9-14.9,38.5L160.8,962.2c-10.8,10.8-23.2,16.2-37.3,16.2
	c-14.9,0-27.5-5.2-37.9-15.5s-15.5-23-15.5-37.9c0-4.1,0.8-8.7,2.5-13.7L213,317.3c-29-18.2-59.2-27.8-90.7-28.6h-2.5h-2.5
	c-29,0-53.4-11.2-73.3-33.5c-17.4-21.5-26.1-48.9-26.1-82c0-9.9,1.7-26.5,5-49.7c5-34,22.4-60.5,52.2-79.5
	c25.7-14.9,52.2-22.4,79.5-22.4s53.8,7.5,79.5,22.4c18.2,11.6,27.3,26.9,27.3,46c0,14.9-5.2,27.5-15.5,37.9s-23,15.5-37.9,15.5
	c-9.9,0-18.2-2.1-24.9-6.2c-9.9-5.8-19.5-8.7-28.6-8.7c-9.1,0-17,2.1-23.6,6.2c-2.5,2.5-3.7,4.6-3.7,6.2l-2.5,13.7
	c-0.8,2.5-1.2,6.6-1.2,12.4c0,4.1,0.8,9.5,2.5,16.2c27.3,0.8,53.8,5.6,79.5,14.3s48.9,20.5,69.6,35.4L916.3,67.6
	c2.5,0,4.6-0.4,6.2-1.2h7.5C949,66.4,964.3,75.1,975.9,92.4z M318.6,331L217.9,754.7l536.8-535.5L318.6,331z"/>
</svg>
