<?xml version="1.0" encoding="utf-8"?>
<!-- Generator: Adobe Illustrator 23.0.1, SVG Export Plug-In . SVG Version: 6.00 Build 0)  -->
<svg version="1.1" id="Layer_1" xmlns="http://www.w3.org/2000/svg" xmlns:xlink="http://www.w3.org/1999/xlink" x="0px" y="0px"
	 viewBox="0 0 1000 1000" style="enable-background:new 0 0 1000 1000;" xml:space="preserve">
<path d="M766,29c22.7,0,42,8,58,24s24,35.3,24,58v778c0,22.7-8,42-24,58s-35.3,24-58,24H234c-22.7,0-42-8-58-24s-24-35.3-24-58V111
	c0-22.7,8-42,24-58s35.3-24,58-24H766z M736,203L736,203c14,0,26-5,36-15s15-22,15-36v-1c0-14.7-5-27-15-37s-22-15-36-15
	c-14.7,0-27,5-37,15s-15,22.3-15,37c0,14,5,26,15,36s22.3,15,37,15V203z M213,152c0,14,5,26,15,36s22,15,36,15c14.7,0,27-5,37-15
	s15-22,15-36s-5-26-15-36s-22.3-15-37-15c-14,0-26,5-36,15S213,138,213,152z M454,761c14,2.7,30,4,48,4c36.7,0,71.5-7,104.5-21
	s61.8-33.3,86.5-58c24.7-24.7,44-53.5,58-86.5s21-67.8,21-104.5s-7-71.7-21-105s-33.3-62.3-58-87c-25.3-24.7-54.3-44-87-58
	s-67.3-21-104-21s-71.5,7-104.5,21s-61.8,33.3-86.5,58c-25.3,25.3-45,54.5-59,87.5s-21,67.8-21,104.5c0,40.7,8.7,79,26,115
	s41.3,67,72,93l134-97c2.7-2.7,6.3-4,11-4c4,0,7.7,1.7,11,5s5,7,5,11v3l-1,2L454,761z M736,919c14,0,26-5,36-15s15-22.3,15-37
	c0-14-5-26-15-36s-22-15-36-15c-14.7,0-27,5-37,15s-15,22-15,36c0,14.7,5,27,15,37S721.3,919,736,919z"/>
</svg>
