<svg xmlns="http://www.w3.org/2000/svg" viewBox="0 0 100.98 93.85"><title>headphones</title><g id="Layer_2" data-name="Layer 2"><g id="Layer_1-2" data-name="Layer 1"><g id="Regular-M"><path d="M3.66,74.51H6.3a1.13,1.13,0,0,0,1.22-1.22V45.75c0-23.14,17.43-38.18,43-38.18s43,15,43,38.18V73.29a1.13,1.13,0,0,0,1.22,1.22h2.63A3.4,3.4,0,0,0,101,71.14V44C101,18,80.52,0,52.15,0H48.83C20.46,0,0,18,0,44V71.14A3.36,3.36,0,0,0,3.66,74.51ZM17.72,93.85h4.59c6,0,9.33-3.18,9.33-8.79V64c0-5.61-3.37-8.78-9.33-8.78H17.72c-3.32,0-5.12,1.75-5.12,5V88.87C12.6,92.14,14.4,93.85,17.72,93.85Zm61,0H83.3c3.32,0,5.18-1.71,5.18-5V60.16c0-3.23-1.86-5-5.18-5H78.71c-6,0-9.33,3.17-9.33,8.78v21.1C69.38,90.67,72.75,93.85,78.71,93.85Z"/></g></g></g></svg>