<?xml version="1.0" encoding="utf-8"?>
<!-- Generator: Adobe Illustrator 23.0.1, SVG Export Plug-In . SVG Version: 6.00 Build 0)  -->
<svg version="1.1" id="Layer_1" xmlns="http://www.w3.org/2000/svg" xmlns:xlink="http://www.w3.org/1999/xlink" x="0px" y="0px"
	 viewBox="0 0 1000 1000" style="enable-background:new 0 0 1000 1000;" xml:space="preserve">
<path d="M532.9,171.9c-22,0-40.8-7.8-56.4-23.3c-15.6-15.6-23.3-34.3-23.3-56.4s7.8-40.8,23.3-56.4c15.6-15.6,34.3-23.3,56.4-23.3
	s40.8,7.8,56.4,23.3s23.3,34.3,23.3,56.4s-7.8,40.8-23.3,56.4S555,171.9,532.9,171.9z M721.5,279.8c7.8,0,14.6,2.9,20.4,8.7
	c5.8,5.8,8.7,12.6,8.7,20.4v1l-18.5,635.7c0,8.4-2.9,15.4-8.7,20.9c-5.8,5.5-13,8.3-21.4,8.3l0,0c-7.8,0-14.6-2.9-20.4-8.7
	c-5.8-5.8-8.7-13-8.7-21.4l0,0l13.6-465.6h-5.8L562.1,448c-6.5-1.3-12-4.2-16.5-8.7s-7.8-9.7-9.7-15.6l-7.8-34l-8.7,42.8L634,923.3
	c0.6,1.3,1,3.2,1,5.8v5.8l0,0v1c0,14.3-4.9,26.2-14.6,36s-21.7,14.9-36,15.6c-12.3-0.6-23-4.7-32.1-12.2s-14.9-16.7-17.5-27.7
	l-82.6-369.4l-88.5,371.3c-3.2,10.4-9.2,19-18,25.8c-8.7,6.8-19,10.2-30.6,10.2c-14.3,0-26.2-4.9-36-14.6s-14.6-21.7-14.6-36v-1
	v-2.9v-1.9v-3.9v-1.9L351.2,551l-92.3-19.4c-5.2-1.3-9.6-4.1-13.1-8.3c-3.6-4.2-5.3-8.9-5.3-14.1v-2.9v-1l58.3-259.5
	c1.3-4.5,3.9-8.4,7.8-11.7c3.9-3.2,8.4-4.9,13.6-4.9h3.9l1.9,1l92.3,19.4h1.9l1.9,1c5.2-14.3,14.1-25.9,26.7-35
	c12.6-9.1,26.7-13.6,42.3-13.6l0,0h1c18.1,0,34.2,6,48.1,18c13.9,12,22.2,27.1,24.8,45.2l28.2,116.6l94.3,24.3l2.9-97.2
	c0.6-8.4,3.9-15.4,9.7-20.9s12.6-8.3,20.4-8.3H721.5z"/>
</svg>
