<svg xmlns="http://www.w3.org/2000/svg" viewBox="0 0 62.94 89.89"><title>hourglass</title><g id="Layer_2" data-name="Layer 2"><g id="Layer_1-2" data-name="Layer 1"><g id="Regular-M"><path d="M7.52,89.89H54.93c5,0,8-2.73,8-8V80.62C63,67.14,48.58,56.2,42.33,50.24c-1.75-1.66-2.68-3.17-2.68-5.37s.88-3.66,2.68-5.37c6.25-6,20.61-16.31,20.61-30.32V8c0-5.28-3-8-8-8H7.52C2.69,0,0,2.73,0,7.57V9.18c0,14,14.36,24.27,20.61,30.32,1.8,1.71,2.68,3.18,2.68,5.37s-.88,3.71-2.68,5.37C14.36,56.2,0,67.14,0,80.62v1.7C0,87.16,2.69,89.89,7.52,89.89ZM12.6,83.2c-2.3,0-3-2.58-.78-4.29L28.56,66.46A1.66,1.66,0,0,0,29.39,65V41.5c0-2.63-.58-4-2.39-5.51-2.83-2.35-8-6.06-10.5-9.43-1-1.36-.83-2.49.39-2.49H46c1.23,0,1.32,1.13.35,2.49C44,29.93,38.72,33.64,35.94,36c-1.91,1.56-2.4,2.88-2.4,5.51V65a1.69,1.69,0,0,0,.83,1.47l16.7,12.45c2.3,1.71,1.57,4.29-.78,4.29Z"/></g></g></g></svg>