<svg xmlns="http://www.w3.org/2000/svg" viewBox="0 0 114.06 102.69"><title>Regular-M</title><g id="Layer_2" data-name="Layer 2"><g id="Layer_1-2" data-name="Layer 1"><g id="Regular-M"><path d="M25,102.69H89.11c6.94,0,11-3.91,11-10.8V47.31l6.3,5.77a4.92,4.92,0,0,0,3.51,1.66c2.3,0,4.15-1.42,4.15-3.76a4.12,4.12,0,0,0-1.46-3.23L95.65,32.28V3.52A3.3,3.3,0,0,0,92.14,0h-6.4a3.32,3.32,0,0,0-3.56,3.52V20L62.89,2.44a8.26,8.26,0,0,0-11.72,0L1.46,47.75A4.15,4.15,0,0,0,0,51c0,2.34,1.86,3.76,4.15,3.76a5,5,0,0,0,3.52-1.66L14,47.36V91.89C14,98.78,18,102.69,25,102.69ZM71.09,62.4a3.45,3.45,0,0,0-3.71-3.66H46.68a3.49,3.49,0,0,0-3.76,3.66V94.82H26.66c-3.12,0-4.83-1.7-4.83-4.88V40.19L55.32,9.67a2.32,2.32,0,0,1,3.47,0L92.24,40.19V89.94c0,3.18-1.71,4.88-4.84,4.88H71.09Z"/></g></g></g></svg>