<svg xmlns="http://www.w3.org/2000/svg" viewBox="0 0 86.67 105.42"><title>in</title><g id="Layer_2" data-name="Layer 2"><g id="Layer_1-2" data-name="Layer 1"><g id="Symbols"><g id="Regular-M"><path d="M39.45,30.52a3.89,3.89,0,0,1,7.77,0V3.81A3.94,3.94,0,0,0,43.31,0a3.89,3.89,0,0,0-3.86,3.81Zm7.91-3.13V56l-.29,6.93,3-3.22,7.42-7.86A3.7,3.7,0,0,1,64,54.15a3.64,3.64,0,0,1-1.22,2.69L46.24,72.75a3.86,3.86,0,0,1-5.81,0L23.93,56.84a3.64,3.64,0,0,1-1.22-2.69,3.51,3.51,0,0,1,3.66-3.56,3.67,3.67,0,0,1,2.78,1.22l7.37,7.86,3.13,3.27-.34-7V27.39h-24C5.13,27.39,0,32.47,0,42.53V90.28c0,10.06,5.13,15.14,15.33,15.14h56c10.2,0,15.33-5.08,15.33-15.14V42.53c0-10.06-5.13-15.14-15.33-15.14Z"/></g></g></g></g></svg>