<?xml version="1.0" encoding="utf-8"?>
<!-- Generator: Adobe Illustrator 23.0.1, SVG Export Plug-In . SVG Version: 6.00 Build 0)  -->
<svg version="1.1" id="Layer_1" xmlns="http://www.w3.org/2000/svg" xmlns:xlink="http://www.w3.org/1999/xlink" x="0px" y="0px"
	 viewBox="0 0 1000 1000" style="enable-background:new 0 0 1000 1000;" xml:space="preserve">
<path d="M758,264c32,0,62.3,6,91,18s54,29,76,51s39,47.3,51,76c12,28.7,18,59,18,91s-6,62.3-18,91s-29,54-51,76s-47.3,39-76,51
	s-59,18-91,18c-52.7-2-101.5-15.2-146.5-39.5c-45-24.3-82.5-57.2-112.5-98.5c-28.7,41.3-65.5,74.2-110.5,98.5
	c-45,24.3-93.8,37.5-146.5,39.5c-32,0-62.3-6-91-18s-54-29-76-51s-39-47.3-51-76S6,532,6,500s6-62.3,18-91c12-28.7,29-54,51-76
	s47.3-39,76-51s59-18,91-18c52.7,2,101.5,15.2,146.5,39.5S471,360.7,501,402c28.7-41.3,65.5-74.2,110.5-98.5S705.3,266,758,264z
	 M242,633c25.3,0,52.7-6.7,82-20s54-30.3,74-51s30-41.3,30-62c0-20.7-10-41.3-30-62c-20-20.7-44.7-37.7-74-51s-56.7-20-82-20
	c-24,0-46.2,6-66.5,18S139,413.2,127,433.5c-12,20.3-18,42.5-18,66.5s6,46.2,18,66.5s28.2,36.5,48.5,48.5S218,633,242,633z M758,633
	c24,0,46.2-6,66.5-18s36.5-28.2,48.5-48.5s18-42.5,18-66.5s-6-46.2-18-66.5c-12-20.3-28.2-36.5-48.5-48.5S782,367,758,367
	c-25.3,0-52.7,6.7-82,20s-54,30.3-74,51c-20,20.7-30,41.3-30,62c0,20.7,10,41.3,30,62s44.7,37.7,74,51S732.7,633,758,633z"/>
</svg>
