<svg xmlns="http://www.w3.org/2000/svg" viewBox="0 0 99.61 99.61"><title>info</title><g id="Layer_2" data-name="Layer 2"><g id="Layer_1-2" data-name="Layer 1"><g id="Symbols"><g id="Regular-M"><path d="M49.8,99.61A50.15,50.15,0,0,0,99.61,49.8C99.61,22.61,77,0,49.76,0S0,22.61,0,49.8A50.18,50.18,0,0,0,49.8,99.61Zm-.43-67.19a6.37,6.37,0,1,1,6.34-6.35A6.33,6.33,0,0,1,49.37,32.42ZM41.26,76.66a3.4,3.4,0,0,1-3.56-3.42,3.46,3.46,0,0,1,3.56-3.42h6.05V47.41H42.09A3.4,3.4,0,0,1,38.53,44a3.46,3.46,0,0,1,3.56-3.41h9.18c2.49,0,3.81,1.75,3.81,4.39V69.82h6.05a3.47,3.47,0,0,1,3.57,3.42,3.41,3.41,0,0,1-3.57,3.42Z"/></g></g></g></g></svg>