<?xml version="1.0" encoding="utf-8"?>
<!-- Generator: Adobe Illustrator 23.0.1, SVG Export Plug-In . SVG Version: 6.00 Build 0)  -->
<svg version="1.1" id="Layer_1" xmlns="http://www.w3.org/2000/svg" xmlns:xlink="http://www.w3.org/1999/xlink" x="0px" y="0px"
	 viewBox="0 0 1000 1000" style="enable-background:new 0 0 1000 1000;" xml:space="preserve">
<path d="M688.2,664.3L688.2,664.3c11.3,0,20.9,4,28.9,12c8,8,12,17.6,12,28.9v202.2c0,11.3-4,20.9-12,28.9c-8,8-17.6,12-28.9,12H238
	c-10,0-18.6-3-25.9-9c-7.3-6-12-13.6-13.9-22.9c-0.7-1.3-1.3-2.8-2-4.5s-1.3-3.5-2-5.5L36.9,242c-0.7-0.7-1-2.3-1-5v-5
	c0-9.3,3-17.8,9-25.4s13.3-12.5,21.9-14.4h2l-18.9-79.7c-1.3-6.6-2-12.3-2-16.9c0-16.6,5.1-31.4,15.4-44.3s23.4-21.4,39.3-25.4
	L201.2,2c9.3-1.3,15.3-2,17.9-2c16.6,0,31.4,5.1,44.3,15.4c12.9,10.3,21.1,23.4,24.4,39.3l19.9,79.7l5-2c2,0,3.7-0.3,5-1h5
	c9.3,0,17.6,3,24.9,9s12.3,13.6,14.9,22.9l117.5,501H688.2z M128.5,178.3L248,149.4l-19.9-80.7c0-3.3-1.3-5.3-4-6c-1.3-1.3-3-2-5-2
	h-1h-2l-98.6,24.9c-6,1.3-9,4.6-9,10v1v2L128.5,178.3z M814.7,747c0.7,0,5-1,12.9-3l114.5-53.8c6-2,10.6-5.5,13.9-10.5
	c3.3-5,5-10.8,5-17.4c0-8.6-3-15.9-9-21.9c-6-6-13.3-9-21.9-9c-4.6,0-9.3,1.3-13.9,4l-114.5,52.8c-5.3,2.7-9.6,6.5-12.9,11.5
	c-3.3,5-5,10.5-5,16.4c0,8.6,3,15.9,9,21.9C798.8,744,806.1,747,814.7,747z M933.3,846.6c8.6,0,15.9-3,21.9-9c6-6,9-13.3,9-21.9
	s-3-15.9-9-21.9c-6-6-13.3-9-21.9-9H810.8c-8.6,0-15.9,3-21.9,9c-6,6-9,13.3-9,21.9s3,15.9,9,21.9c6,6,13.3,9,21.9,9H933.3z
	 M929.3,1000c8.6-0.7,15.9-3.8,21.9-9.5c6-5.6,9-12.8,9-21.4c0-6-1.7-11.5-5-16.4c-3.3-5-7.6-8.8-12.9-11.5l-114.5-52.8
	c-2.7-2-6.6-3-12-3c-8.6,0-15.9,3-21.9,9s-9,13.3-9,21.9c0,12.6,5.6,21.6,16.9,26.9L916.3,997C924.3,999,928.6,1000,929.3,1000z"/>
</svg>
