<?xml version="1.0" encoding="utf-8"?>
<!-- Generator: Adobe Illustrator 23.0.1, SVG Export Plug-In . SVG Version: 6.00 Build 0)  -->
<svg version="1.1" id="Layer_1" xmlns="http://www.w3.org/2000/svg" xmlns:xlink="http://www.w3.org/1999/xlink" x="0px" y="0px"
	 viewBox="0 0 1000 1000" style="enable-background:new 0 0 1000 1000;" xml:space="preserve">
<path d="M532,61c33.3,0,65,5.5,95,16.5s57,26.5,81,46.5s44.5,43.7,61.5,71s29.2,57,36.5,89c-35.3-12-72-18-110-18
	c-61.3,0-117,15.3-167,46c-56-35.3-116.3-53-181-53c-19.3,0-47,3-83,9c7.3-30,19.3-57.7,36-83s37-47.3,61-66s50.5-33,79.5-43
	S500.7,61,532,61z M254,337c28-10.7,59.3-16,94-16c46,0,87.3,9.7,124,29c-29.3,26.7-53.5,57.5-72.5,92.5S368,514.7,362,554
	c-32.7-24.7-58.5-56.2-77.5-94.5S256,380.3,256,337l0,0H254z M808,351c-2,43.3-13.5,83.3-34.5,120s-49.2,67-84.5,91
	c-4.7-41.3-16.3-80-35-116s-43.3-67.3-74-94c38-17.3,76.7-26,116-26s76.7,8,112,24V351z M66,603L66,603c0-49.3,11.7-94.8,35-136.5
	s55-74.8,95-99.5c4,52.7,21,102.7,51,150c28,44.7,65.3,81.7,112,111c3.3,44.7,15,86.5,35,125.5s46.7,72.8,80,101.5
	c-38,20.7-80.3,31-127,31c-38,0-74.2-7.3-108.5-22S174,829,148,803s-46.2-56.2-60.5-90.5S66,642,66,604V603z M527,385
	c31.3,26,56.2,57.2,74.5,93.5S630,553.7,632,595c-32.7,12.7-66,19-100,19c-40,0-77.3-8.3-112-25c2-40.7,12.5-78.7,31.5-114
	S495.7,409.7,527,385z M972,603L972,603c0,38-7,73.7-21,107s-33.7,62.7-59,88s-54.8,45.2-88.5,59.5S734.3,879,697,879
	c-40.7,0-78.7-8-114-24c30-28,54.5-60.7,73.5-98s31.2-78,36.5-122c46.7-26,85.3-60.3,116-103s50.3-91.3,59-146
	c32.7,26,58.2,57.8,76.5,95.5S972,559.7,972,603L972,603z M526,821c-25.3-20-46.8-44-64.5-72S431,690.3,423,657c36,12,72,18,108,18
	c30,0,61-4,93-12c-14.7,64-47,116.7-97,158H526z"/>
</svg>
