<?xml version="1.0" encoding="utf-8"?>
<!-- Generator: Adobe Illustrator 23.0.1, SVG Export Plug-In . SVG Version: 6.00 Build 0)  -->
<svg version="1.1" id="Layer_1" xmlns="http://www.w3.org/2000/svg" xmlns:xlink="http://www.w3.org/1999/xlink" x="0px" y="0px"
	 viewBox="0 0 1000 1000" style="enable-background:new 0 0 1000 1000;" xml:space="preserve">
<path d="M850,121.5c32.7,28.7,58.2,63.5,76.5,104.5S954,310.5,954,356.5c0,42.7-8.2,83.3-24.5,122s-39.2,72.7-68.5,102
	s-63.3,52.2-102,68.5s-79.3,24.5-122,24.5c-23.3,0-48.7-3-76-9c-1.3,0-2.3-0.3-3-1h-3c-5.3,0-10,2-14,6l-43,44
	c-4.7,3.3-8.7,5.3-12,6l-79,11c-4.7,0.7-8.7,2.5-12,5.5s-5.3,6.8-6,11.5l-10,71c-0.7,4.7-2.7,8.7-6,12s-7,5.3-11,6l-71,10
	c-4.7,0.7-8.7,2.7-12,6s-5.3,7-6,11l-10,70c-0.7,4.7-2.7,8.7-6,12s-7.7,5.3-13,6l-153,10h-2h-2c-11.3,0-21-4-29-12s-12-17.7-12-29
	v-2v-1l10-147c0.7-15.3,6.7-28.7,18-40l256-256c4-4,6-9,6-15v-3c-0.7-0.7-1-0.7-1,0c-10.7-31.3-16-65-16-101
	c0-42.7,8.2-83.3,24.5-122s39.2-72.7,68.5-102S475.3,79.3,514,63s79.3-24.5,122-24.5c40.7,0,79.3,7.2,116,21.5s69.3,34.5,98,60.5
	V121.5z M781,312.5c16-15.3,24-34.7,24-58c0-22-7.7-41.3-23-58c-16.7-15.3-36-23-58-23c-22.7,0-42,8-58,24s-24,35-24,57
	c0,22.7,8,42,24,58s35.3,24,58,24s42-8,58-24H781z"/>
</svg>
