<svg xmlns="http://www.w3.org/2000/svg" viewBox="0 0 138.57 77.15"><title>Regular-M</title><g id="Layer_2" data-name="Layer 2"><g id="Layer_1-2" data-name="Layer 1"><g id="Regular-M"><path d="M15.33,77.15H123.24c10.21,0,15.33-5.08,15.33-15.09V15.14C138.57,5.08,133.45,0,123.24,0H15.33C5.08,0,0,5.08,0,15.14V62.06C0,72.12,5.08,77.15,15.33,77.15Zm.1-7.86c-4.88,0-7.57-2.59-7.57-7.67v-46c0-5.08,2.69-7.72,7.57-7.72H123.14c4.84,0,7.57,2.64,7.57,7.72v46c0,5.08-2.73,7.67-7.57,7.67Zm99.12-42.68h3.52a1.79,1.79,0,0,0,2.05-2.05V21.09A1.82,1.82,0,0,0,118.07,19h-3.52a1.81,1.81,0,0,0-2,2.05v3.47A1.79,1.79,0,0,0,114.55,26.61Zm-15.67,0h3.46c1.42,0,2-.63,2-2.05V21.09a1.79,1.79,0,0,0-2-2.05H98.88a1.79,1.79,0,0,0-2,2.05v3.47C96.83,26,97.46,26.61,98.88,26.61Zm-15.73,0h3.52a1.79,1.79,0,0,0,2-2.05V21.09a1.81,1.81,0,0,0-2-2.05H83.15a1.82,1.82,0,0,0-2.05,2.05v3.47A1.79,1.79,0,0,0,83.15,26.61Zm-15.72,0H71a1.79,1.79,0,0,0,2-2.05V21.09A1.82,1.82,0,0,0,71,19H67.43a1.81,1.81,0,0,0-2.05,2.05v3.47A1.79,1.79,0,0,0,67.43,26.61Zm-15.67,0h3.46c1.42,0,2.06-.63,2.06-2.05V21.09A1.8,1.8,0,0,0,55.22,19H51.76a1.79,1.79,0,0,0-2,2.05v3.47C49.71,26,50.34,26.61,51.76,26.61ZM36,26.61h3.51a1.79,1.79,0,0,0,2.05-2.05V21.09A1.81,1.81,0,0,0,39.55,19H36A1.82,1.82,0,0,0,34,21.09v3.47A1.8,1.8,0,0,0,36,26.61Zm-15.73,0h3.52a1.79,1.79,0,0,0,2.05-2.05V21.09A1.81,1.81,0,0,0,23.83,19H20.31a1.82,1.82,0,0,0-2,2.05v3.47A1.79,1.79,0,0,0,20.31,26.61ZM51.76,42.33h3.46a1.8,1.8,0,0,0,2.06-2V36.82c0-1.42-.64-2-2.06-2H51.76c-1.42,0-2,.63-2,2v3.46A1.79,1.79,0,0,0,51.76,42.33Zm15.67,0H71a1.81,1.81,0,0,0,2-2V36.82a1.79,1.79,0,0,0-2-2H67.43a1.79,1.79,0,0,0-2.05,2v3.46A1.81,1.81,0,0,0,67.43,42.33Zm15.72,0h3.52a1.81,1.81,0,0,0,2-2V36.82a1.79,1.79,0,0,0-2-2H83.15a1.79,1.79,0,0,0-2.05,2v3.46A1.81,1.81,0,0,0,83.15,42.33Zm15.73,0h3.46a1.79,1.79,0,0,0,2-2V36.82c0-1.42-.63-2-2-2H98.88c-1.42,0-2,.63-2,2v3.46A1.79,1.79,0,0,0,98.88,42.33ZM36,42.33h3.51a1.81,1.81,0,0,0,2.05-2V36.82a1.79,1.79,0,0,0-2.05-2H36a1.8,1.8,0,0,0-2.06,2v3.46A1.82,1.82,0,0,0,36,42.33Zm78.51,0h3.52a1.81,1.81,0,0,0,2.05-2V36.82a1.79,1.79,0,0,0-2.05-2h-3.52a1.79,1.79,0,0,0-2,2v3.46A1.81,1.81,0,0,0,114.55,42.33Zm-94.24,0h3.52a1.81,1.81,0,0,0,2.05-2V36.82a1.79,1.79,0,0,0-2.05-2H20.31a1.79,1.79,0,0,0-2,2v3.46A1.81,1.81,0,0,0,20.31,42.33ZM36,58.06h66.3a1.79,1.79,0,0,0,2-2.05V52.49a1.79,1.79,0,0,0-2-2.05H36A1.82,1.82,0,0,0,34,52.49V56A1.82,1.82,0,0,0,36,58.06Zm78.51,0h3.52A1.82,1.82,0,0,0,120.12,56V52.49a1.81,1.81,0,0,0-2.05-2.05h-3.52a1.81,1.81,0,0,0-2,2.05V56A1.81,1.81,0,0,0,114.55,58.06Zm-94.24,0h3.52A1.81,1.81,0,0,0,25.88,56V52.49a1.81,1.81,0,0,0-2.05-2.05H20.31a1.81,1.81,0,0,0-2,2.05V56A1.82,1.82,0,0,0,20.31,58.06Z"/></g></g></g></svg>