<?xml version="1.0" encoding="utf-8"?>
<!-- Generator: Adobe Illustrator 23.0.1, SVG Export Plug-In . SVG Version: 6.00 Build 0)  -->
<svg version="1.1" id="Layer_1" xmlns="http://www.w3.org/2000/svg" xmlns:xlink="http://www.w3.org/1999/xlink" x="0px" y="0px"
	 viewBox="0 0 1071 1071" style="enable-background:new 0 0 1071 1071;" xml:space="preserve">
<path d="M0,786c0,19.3,7,36,21,50s30.7,21,50,21h929c19.3,0,36-7,50-21s21-30.7,21-50V286c-0.7-20-7.7-37-21-51s-30-21-50-21H71
	c-19.3,0-36,7-50,21S0,266,0,286V786z M1000,286v500H71V286H1000z M143,420c0,6,3,9,9,9h53c6,0,9-3,9-9v-54c0-6-3-9-9-9h-53
	c-6,0-9,3-9,9V420z M286,420c0,6,3,9,9,9h53c6,0,9-3,9-9v-54c0-6-3-9-9-9h-53c-6,0-9,3-9,9V420z M429,420c0,6,3,9,9,9h53
	c6,0,9-3,9-9v-54c0-6-3-9-9-9h-53c-6,0-9,3-9,9V420z M571,420c0,6,3,9,9,9h54c6,0,9-3,9-9v-54c0-6-3-9-9-9h-54c-6,0-9,3-9,9V420z
	 M714,420c0,6,3,9,9,9h54c6,0,9-3,9-9v-54c0-6-3-9-9-9h-54c-6,0-9,3-9,9V420z M786,562c0,6,3,9,9,9h125c6,0,9-3,9-9V366c0-6-3-9-9-9
	h-54c-6,0-9,3-9,9v134h-62c-6,0-9,3-9,9V562z M143,562c0,6,3,9,9,9h125c6,0,9-3,9-9v-53c0-6-3-9-9-9H152c-6,0-9,3-9,9V562z M357,562
	c0,6,3,9,9,9h54c6,0,9-3,9-9v-53c0-6-3-9-9-9h-54c-6,0-9,3-9,9V562z M500,562c0,6,3,9,9,9h54c5.3,0,8-3,8-9v-53c0-6-2.7-9-8-9h-54
	c-6,0-9,3-9,9V562z M643,562c0,6,3,9,9,9h53c6,0,9-3,9-9v-53c0-6-3-9-9-9h-53c-6,0-9,3-9,9V562z M143,705c0,6,3,9,9,9h53
	c6,0,9-3,9-9v-53c0-6-3-9-9-9h-53c-6,0-9,3-9,9V705z M286,705c0,6,3,9,9,9h482c6,0,9-3,9-9v-53c0-6-3-9-9-9H295c-6,0-9,3-9,9V705z
	 M857,705c0,6,3,9,9,9h54c6,0,9-3,9-9v-53c0-6-3-9-9-9h-54c-6,0-9,3-9,9V705z"/>
</svg>
