<?xml version="1.0" encoding="utf-8"?>
<!-- Generator: Adobe Illustrator 23.0.1, SVG Export Plug-In . SVG Version: 6.00 Build 0)  -->
<svg version="1.1" id="Layer_1" xmlns="http://www.w3.org/2000/svg" xmlns:xlink="http://www.w3.org/1999/xlink" x="0px" y="0px"
	 viewBox="0 0 1000 1000" style="enable-background:new 0 0 1000 1000;" xml:space="preserve">
<path d="M926.5,451c7.3,6,13.2,13.5,17.5,22.5s6.5,18.5,6.5,28.5c0,13.3-3.7,25.7-11,37l-37,64c-6,8.7-13.8,15.5-23.5,20.5
	s-20.2,7.5-31.5,7.5c-14,0-26-3.7-36-11l-81-52l-52,16c-10,3.3-21.7,5-35,5c-24,0-47.3-7-70-21l-25,44c-4,6.7-6,14-6,22
	c0,26,21,56,63,90c48.7,39.3,84.7,73.8,108,103.5s40,64.8,50,105.5c0,2,0.3,3.3,1,4v5c0,10.7-3.8,19.8-11.5,27.5
	S735.8,981,724.5,981l0,0h-595l0,0c-8,0-15.5-2.3-22.5-7s-11.8-11-14.5-19C79.2,917.7,68.7,876.7,61,832s-11.5-90.7-11.5-138
	c0-63.3,7-122,21-176c21.3-84,59.8-158,115.5-222s130.8-111.3,225.5-142c12-32.7,29-61.5,51-86.5s51-41.2,87-48.5h1h2
	c4.7,0,8.7,1.7,12,5s5,7.3,5,12l0,0l-14,105l127,59c22,12,36.3,29.7,43,53l12,42L926.5,451z M669.5,330c2.7-2.7,4-6.3,4-11
	c0-6-2.7-13-8-21s-13-15.7-23-23c-17.3-13.3-34-20-50-20c-14,0-21,5.3-21,16c0,6.7,2.8,14.2,8.5,22.5s13.2,15.8,22.5,22.5
	c18.7,13.3,35.3,20,50,20C659.8,336,665.5,334,669.5,330z"/>
</svg>
