<?xml version="1.0" encoding="utf-8"?>
<!-- Generator: Adobe Illustrator 23.0.1, SVG Export Plug-In . SVG Version: 6.00 Build 0)  -->
<svg version="1.1" id="Layer_1" xmlns="http://www.w3.org/2000/svg" xmlns:xlink="http://www.w3.org/1999/xlink" x="0px" y="0px"
	 viewBox="0 0 1000 1000" style="enable-background:new 0 0 1000 1000;" xml:space="preserve">
<path d="M901.1,711c0,7.3-2.4,13.4-7.1,18.1c-4.8,4.8-10.8,7.1-18.1,7.1H157.1c-7.3,0-13.4-2.4-18.1-7.1c-4.8-4.8-7.1-10.8-7.1-18.1
	V245.1c0-7.3,2.4-13.4,7.1-18.1c4.8-4.8,10.8-7.1,18.1-7.1h718.7c7.3,0,13.4,2.4,18.1,7.1c4.8,4.8,7.1,10.8,7.1,18.1V711z
	 M175.8,274.7v406.6h670.3V274.7H175.8z M1000,725.3c-44.7-5.9-211.4-8.8-500-8.8s-455.3,2.9-500,8.8v25.3
	c0.7,6.6,6.8,13.2,18.1,19.8c11.4,6.6,21.8,9.9,31.3,9.9h923.1c8.8,0,15.6-2.9,20.3-8.8c4.8-5.9,7.1-12.8,7.1-20.9V725.3z"/>
</svg>
