<svg xmlns="http://www.w3.org/2000/svg" viewBox="0 0 105.27 89.6"><title>left</title><g id="Layer_2" data-name="Layer 2"><g id="Layer_1-2" data-name="Layer 1"><g id="Symbols"><g id="Regular-M"><path d="M47.75,89.6a5.57,5.57,0,0,0,5.72-5.71V65.23h1.41C73.78,65.23,85.74,70,94.24,86a6.18,6.18,0,0,0,6,3.61c2.64,0,5-2.34,5-6.54,0-36.09-15.28-58.6-50.39-58.6H53.47V6a5.83,5.83,0,0,0-5.81-6C45.21,0,43.75,1.22,41,3.52l-38.53,36A7.41,7.41,0,0,0,0,44.82a7.39,7.39,0,0,0,2.49,5.23L41,86.43C43.46,88.53,45.31,89.6,47.75,89.6Z"/></g></g></g></g></svg>