<?xml version="1.0" encoding="utf-8"?>
<!-- Generator: Adobe Illustrator 23.0.1, SVG Export Plug-In . SVG Version: 6.00 Build 0)  -->
<svg version="1.1" id="Layer_1" xmlns="http://www.w3.org/2000/svg" xmlns:xlink="http://www.w3.org/1999/xlink" x="0px" y="0px"
	 viewBox="0 0 1000 1000" style="enable-background:new 0 0 1000 1000;" xml:space="preserve">
<path d="M500,19c65.3,0,127.2,12.3,185.5,37S795.3,115.3,840,160s79.3,96.2,104,154.5s37,120.2,37,185.5s-12.3,127.3-37,186
	c-24.7,58.7-59,110-103,154c-44.7,44.7-96.3,79.3-155,104s-120.7,37-186,37s-127.3-12.3-186-37s-110-59.3-154-104
	c-44.7-44-79.3-95.3-104-154c-24.7-58.7-37-120.7-37-186s12.3-127.3,37-186s59.3-110.3,104-155c44-44,95.3-78.3,154-103
	S434.7,19,500,19z M716,140c-68-40-139.7-60-215-60c-84,0-159.3,22.3-226,67l103,152c38.7-22.7,79.3-34,122-34c38,0,74.3,8.7,109,26
	l105-152L716,140z M853,727c44.7-67.3,67-142.7,67-226c0-80.7-21.3-154.7-64-222L704,383c20.7,36,31,75,31,117
	c0,43.3-11,83.3-33,120L853,727z M139,286c-39.3,66.7-59,138-59,214c0,39.3,5.2,77.5,15.5,114.5S121,685.3,141,716l152-103
	c-19.3-33.3-29-71-29-113c0-38,8.7-73.7,26-107L138,288L139,286z M326,500c0,31.3,7.8,60.3,23.5,87s36.8,47.8,63.5,63.5
	s55.7,23.5,87,23.5s60.3-7.8,87-23.5s47.8-36.8,63.5-63.5s23.5-55.7,23.5-87s-7.8-60.3-23.5-87c-15.7-26.7-36.8-47.8-63.5-63.5
	S531.3,326,500,326s-60.3,7.8-87,23.5s-47.8,36.8-63.5,63.5C333.8,439.7,326,468.7,326,500z M275,854c70,44,145,66,225,66
	c76.7,0,147-19.3,211-58L607,710c-34.7,17.3-70.3,26-107,26c-43.3,0-82.7-10.7-118-32L277,855L275,854z"/>
</svg>
