<?xml version="1.0" encoding="utf-8"?>
<!-- Generator: Adobe Illustrator 23.0.1, SVG Export Plug-In . SVG Version: 6.00 Build 0)  -->
<svg version="1.1" id="Layer_1" xmlns="http://www.w3.org/2000/svg" xmlns:xlink="http://www.w3.org/1999/xlink" x="0px" y="0px"
	 viewBox="0 0 1000 1000" style="enable-background:new 0 0 1000 1000;" xml:space="preserve">
<path d="M813,334.5c0,50-9.3,94-28,132c-28.7,60-72,121.7-130,185c-22,25.3-35.3,47.3-40,66c-3.3,8.7-9.7,13.7-19,15H416
	c-8.7-1.3-14.7-6.3-18-15c-6-17.3-20-37.3-42-60c-22-22-45-48-69-78c-29.3-34.7-52.8-70.7-70.5-108s-27.5-78.7-29.5-124v-6v-6
	c0-42.7,8-83,24-121s38.7-71.7,68-101c28.7-28.7,62-51,100-67s78.3-24,121-24s83,8,121,24s71.7,38.3,101,67
	c28.7,29.3,51,62.8,67,100.5S813,291.8,813,334.5z M422,793.5c-8.7,0-16,3-22,9s-9,13.3-9,22s3,16,9,22s13.3,9,22,9h164
	c8.7,0,16-3,22-9s9-13.3,9-22s-3-16-9-22s-13.3-9-22-9H422z M422,916.5c-8.7,0-16,3-22,9s-9,13.3-9,22c0,8,3,15,9,21s13.3,9,22,9
	h164c8.7,0,16-3,22-9s9-13,9-21c0-8.7-3-16-9-22s-13.3-9-22-9H422z"/>
</svg>
