<svg xmlns="http://www.w3.org/2000/svg" viewBox="0 0 103.55 103.78"><title>link</title><g id="Layer_2" data-name="Layer 2"><g id="Layer_1-2" data-name="Layer 1"><g id="Symbols"><g id="Regular-M"><path d="M51.17,72l6.49-6.59C51.21,64.92,47,63,43.84,59.8c-8.54-8.55-8.49-20.66-.05-29.11L59.71,14.78c8.55-8.5,20.56-8.55,29.1,0s8.45,20.6,0,29.05L79.24,53.4a18.26,18.26,0,0,1,1.17,9.91L94.77,49c11.67-11.72,11.77-28.28,0-40.14S66.25-2.9,54.53,8.82L37.88,25.52c-11.71,11.72-11.81,28.32,0,40.14C41,68.73,44.92,70.93,51.17,72Zm1.22-40.23-6.5,6.59c6.45.54,10.65,2.44,13.82,5.62,8.55,8.54,8.5,20.65,0,29.1L43.79,89c-8.49,8.49-20.51,8.54-29,0s-8.5-20.6,0-29.1l9.57-9.57a17.75,17.75,0,0,1-1.17-9.91L8.78,54.77C-2.89,66.49-3,83.09,8.83,94.9S37.3,106.67,49,95l16.7-16.75c11.72-11.72,11.81-28.32,0-40.13C62.54,35,58.64,32.84,52.39,31.77Z"/></g></g></g></g></svg>