<svg xmlns="http://www.w3.org/2000/svg" viewBox="0 0 98.39 71.34"><title>list</title><g id="Layer_2" data-name="Layer 2"><g id="Layer_1-2" data-name="Layer 1"><g id="Symbols"><g id="Regular-M"><path d="M6.15,12.26A6.13,6.13,0,1,0,6.15,0a6.13,6.13,0,1,0,0,12.26Zm21.58-2.2h66.7a3.93,3.93,0,1,0,0-7.86H27.73a3.88,3.88,0,0,0-3.95,4A3.87,3.87,0,0,0,27.73,10.06ZM6.15,41.8A6.16,6.16,0,1,0,0,35.64,6.13,6.13,0,0,0,6.15,41.8Zm21.58-2.2h66.7a3.94,3.94,0,0,0,4-4,3.9,3.9,0,0,0-4-3.9H27.73a3.87,3.87,0,0,0-3.95,3.9A3.91,3.91,0,0,0,27.73,39.6ZM6.15,71.34A6.16,6.16,0,1,0,0,65.19,6.16,6.16,0,0,0,6.15,71.34Zm21.58-2.25h66.7a3.93,3.93,0,1,0,0-7.86H27.73a3.93,3.93,0,1,0,0,7.86Z"/></g></g></g></g></svg>