<?xml version="1.0" encoding="utf-8"?>
<!-- Generator: Adobe Illustrator 23.0.1, SVG Export Plug-In . SVG Version: 6.00 Build 0)  -->
<svg version="1.1" id="Layer_1" xmlns="http://www.w3.org/2000/svg" xmlns:xlink="http://www.w3.org/1999/xlink" x="0px" y="0px"
	 viewBox="0 0 875 875" style="enable-background:new 0 0 875 875;" xml:space="preserve">
<path d="M351,109c1.3,29.7,11.8,54.3,31.4,74c19.7,19.7,43.7,29.5,72.1,29.5c29,0,53.7-10.2,74-30.5c20.3-20.3,30.5-45.3,30.5-75
	c0-27.7-10.5-51.6-31.4-71.6c-21-20-45.3-30-73-30S402.6,15.7,381.9,36C361.3,56.3,351,80.7,351,109z M117.8,212.6
	c1.3,27.7,11,50.5,29,68.2c18.1,17.7,40.6,26.6,67.7,26.6c26.4,0,48.7-9.7,66.8-29c18.1-19.3,27.1-41.9,27.1-67.7
	c0-24.5-9.5-46.1-28.5-64.8s-40.8-28.1-65.3-28.1c-26.4,0-49.2,9.2-68.2,27.6S117.8,186.1,117.8,212.6z M653.8,212.6
	c1.3,12.3,5.5,22.6,12.6,31c7.1,8.4,16.4,12.6,28.1,12.6c14.2,0,25.3-4,33.4-12.1c8.1-8.1,12.1-19.2,12.1-33.4
	c0-12.3-4.5-22.3-13.5-30S706.7,169,694.4,169c-11,0-20.5,4.4-28.5,13.1C657.8,190.8,653.8,200.9,653.8,212.6z M23,454.4
	c-1.3,23.2,6.9,43.4,24.7,60.5c17.7,17.1,38.2,25.6,61.4,25.6c22.6,0,42.7-8.4,60.5-25.2c17.7-16.8,26.6-36.4,26.6-59
	c0-24.5-8.5-45.3-25.6-62.4c-17.1-17.1-37.6-25.6-61.4-25.6s-44.2,8.4-61,25.2S23,430.6,23,454.4z M748.6,454.4
	c1.3,14.8,6.6,27.3,16,37.2c9.4,10,21.4,15,36.3,15c15.5,0,27.9-5.3,37.2-16c9.4-10.6,14-23.4,14-38.2c0-13.5-5.2-25.3-15.5-35.3
	c-10.3-10-22.3-15-35.8-15c-14.2,0-26.4,5.2-36.8,15.5S748.6,440.2,748.6,454.4z M135.2,696.3c0,21.3,7.6,39.5,22.7,54.7
	c15.2,15.2,33.4,22.7,54.7,22.7c20.6,0,38.9-7.4,54.7-22.3c15.8-14.8,23.7-32.6,23.7-53.2c0-22.6-7.4-41.4-22.3-56.6
	c-14.8-15.2-33.2-22.7-55.1-22.7c-21.3,0-39.7,7.6-55.1,22.7S135.2,675,135.2,696.3z M636.4,696.3c1.3,18.7,7.6,33.4,18.9,44
	c11.3,10.6,26.6,16,46,16c16.1,0,29.5-6.3,40.2-18.9c10.6-12.6,16-26.9,16-43.1c0-15.5-6-29.2-17.9-41.1
	c-11.9-11.9-25.6-17.9-41.1-17.9c-17.4,0-32.1,5.8-44,17.4S636.4,678.9,636.4,696.3z M385.8,799.8c1.3,20.6,8.4,37.4,21.3,50.3
	c12.9,12.9,29.3,19.3,49.3,19.3c19.3,0,35.5-7.1,48.4-21.3c12.9-14.2,19.3-31,19.3-50.3c0-18.1-6.9-33.7-20.8-46.9
	c-13.9-13.2-30.2-19.8-48.9-19.8s-34.8,6.8-48.4,20.3C392.6,765,385.8,781.1,385.8,799.8z"/>
</svg>
