<svg xmlns="http://www.w3.org/2000/svg" viewBox="0 0 107.81 110.55"><title>Regular-M</title><g id="Layer_2" data-name="Layer 2"><g id="Layer_1-2" data-name="Layer 1"><g id="Regular-M"><path d="M1.12,102.54l31.5-31.06L6.2,45.8c-1-1.07-1-2.29,0-3.08L48,10.4c2.54-2,3.9-2.93,5.91-2.93s3.32,1,5.9,2.93l41.8,32.32a1.92,1.92,0,0,1,0,3.08L75.34,71.48l31.35,31c.73-1.37,1.12-3.71,1.12-7V45.9c0-5.18-.88-7.77-4.49-10.74L64,4.64C60.35,1.81,57.52,0,53.91,0S47.46,1.81,43.85,4.64L4.44,35.16C.93,38.09,0,40.72,0,45.9V95.41C0,98.83.39,101.17,1.12,102.54Zm12.75,8H92.48c4.83,0,8.2-.88,10-2.64L60,65.92c-2.15-2.15-4-3.08-6-3.08s-3.9.93-6,3.08L5.22,108.15C6.88,109.77,9.77,110.55,13.87,110.55Z"/></g></g></g></svg>