<svg xmlns="http://www.w3.org/2000/svg" viewBox="0 0 107.81 84.13"><title>Regular-M</title><g id="Layer_2" data-name="Layer 2"><g id="Layer_1-2" data-name="Layer 1"><g id="Regular-M"><path d="M54,47.71c2,0,3.86-.93,6-3.08l42.48-42C100.68.83,97.31,0,92.48,0H13.87c-4.1,0-7,.78-8.6,2.39L48,44.63C50.1,46.73,52,47.71,54,47.71ZM1.22,76.27,35.74,42.14,1.12,8C.39,9.38,0,11.72,0,15.09V69C0,72.46.39,74.9,1.22,76.27Zm105.42,0c.78-1.42,1.17-3.81,1.17-7.23V15.09c0-3.27-.39-5.62-1.07-6.94l-34.52,34ZM15.33,84.13H93.94c4.11,0,6.94-.78,8.55-2.34L67.29,46.92,64.06,50.2c-3.37,3.22-6.54,4.68-10.06,4.68s-6.73-1.46-10-4.68l-3.28-3.28L5.57,81.74C7.42,83.35,10.64,84.13,15.33,84.13Z"/></g></g></g></svg>