<?xml version="1.0" encoding="utf-8"?>
<!-- Generator: Adobe Illustrator 23.0.1, SVG Export Plug-In . SVG Version: 6.00 Build 0)  -->
<svg version="1.1" id="Layer_1" xmlns="http://www.w3.org/2000/svg" xmlns:xlink="http://www.w3.org/1999/xlink" x="0px" y="0px"
	 viewBox="0 0 1000 1000" style="enable-background:new 0 0 1000 1000;" xml:space="preserve">
<path d="M459.2,416.8c11,11,24.6,16.5,40.8,16.5c16.2,0,29.8-5.5,40.8-16.5L922.1,48.7c4.4-3.7,6.6-8.4,6.6-14.3
	c0-5.1-2-9.7-6.1-13.8c-4-4-8.6-6.1-13.8-6.1H91.1l0,0c-5.1,0-9.7,2-13.8,6.1s-6.1,8.6-6.1,13.8c0,5.9,1.8,10.7,5.5,14.3
	L459.2,416.8z M687.3,906.1c10.3,0.7,19.1,4.8,26.4,12.1c7.3,7.3,11,16.5,11,27.6c0,10.3-3.5,19.1-10.5,26.4s-16,11.8-27,13.2H319.3
	c-10.3-1.5-18.9-5.9-25.9-13.2s-10.5-16.2-10.5-26.4c0-11,3.5-20.2,10.5-27.6s15.6-11.4,25.9-12.1h145.5V562.3
	c0-11,3.9-20.4,11.6-28.1c7.7-7.7,17.1-11.6,28.1-11.6c10.3,0,19.3,3.9,27,11.6c7.7,7.7,11.6,17.1,11.6,28.1v343.8H687.3z"/>
</svg>
