<?xml version="1.0" encoding="utf-8"?>
<!-- Generator: Adobe Illustrator 23.0.1, SVG Export Plug-In . SVG Version: 6.00 Build 0)  -->
<svg version="1.1" id="Layer_1" xmlns="http://www.w3.org/2000/svg" xmlns:xlink="http://www.w3.org/1999/xlink" x="0px" y="0px"
	 viewBox="0 0 1000 1000" style="enable-background:new 0 0 1000 1000;" xml:space="preserve">
<path d="M990.1,50c2.9,16.8,4.4,35.9,4.4,57.1c0,30.7-4,62.2-12.1,94.4C967,258.5,948.5,306.6,927,345.8
	c-21.6,39.1-48.5,65.3-80.7,78.5c-35.9,13.9-53.8,19-53.8,15.4c-16.8,0.7-40.2,1.1-70.2,1.1c-57.8,0-100.2-2.9-127.3-8.8
	c-33.7-8-64.4-27.8-92.2-59.3c-24.9,25.6-52.5,43.7-82.9,54.3c-30.4,10.6-63.5,15.9-99.3,15.9c-25.6,0-57.1-2.6-94.4-7.7
	c-27.8-2.9-54-11-78.5-24.1c-24.5-13.2-45.9-30-64.2-50.5v588.3c0,9.5-3.3,17.6-9.9,24.1c-6.6,6.6-14.6,9.9-24.1,9.9
	c-8.8,0-16.5-3.3-23-9.9s-9.9-14.6-9.9-24.1v-742c-7.3-32.2-11-66.6-11-103.2C5.5,78.9,6.6,61,8.8,50c0-12.4,6.2-23.4,18.7-32.9h2.2
	h2.2c12.4,0,23.4,4,32.9,12.1c20.5,22,44.8,39,73,51s57.6,18.1,88.4,18.1c5.9,0,14.6-0.7,26.3-2.2c51.2-2.2,97.3,4.4,138.3,19.8
	S468,157.9,499.5,196c52.7-65.1,124.8-97.7,216.2-97.7c14.6,0,25.6,0.4,32.9,1.1c11.7,1.5,20.9,2.2,27.4,2.2
	c30.7,0,60.2-6,88.4-18.1c28.2-12.1,52.5-29.1,73-51c8-8,17.6-12.1,28.5-12.1h3.3l2.2,1.1c5.1,2.9,9.3,7,12.6,12.1
	C987.3,38.7,989.3,44.1,990.1,50z M837.5,280.5c8-8,12.1-17.6,12.1-28.5c0-7.3-2.2-14.3-6.6-20.9c-4.4-6.6-9.9-11.3-16.5-14.3
	c-16.1-10.2-38.8-15.4-68-15.4c-27.8,0-55.2,4.6-82.3,13.7s-46.8,21-59.3,35.7c-8,8-12.1,17.6-12.1,28.5c0,7.3,2.2,14.3,6.6,20.9
	s10.2,11.3,17.6,14.3c16.1,9.5,38.4,14.3,67,14.3c28.5,0,56.3-4.6,83.4-13.7s46.5-21,58.2-35.7V280.5z M349.1,320
	c8-2.2,16.8-6.6,26.3-13.2c10.2-8,15.4-16.1,15.4-24.1c0-6.6-2.9-13.9-8.8-22l-15.4-24.1c-11.7-8.8-22.3-14.6-31.8-17.6
	c-26.3-13.2-55.6-19.8-87.8-19.8c-11.7,0-20.5,0.4-26.3,1.1c-20.5,2.2-37.7,9.1-51.6,20.9c-11,8.8-16.5,17.2-16.5,25.2
	c0,5.1,2.9,11.7,8.8,19.8c5.9,6.6,11.7,15,17.6,25.2c0.7,2.2,2.2,3.7,4.4,4.4c0.7,0.7,1.6,1.1,2.7,1.1c1.1,0,2,0.4,2.7,1.1v-1.1
	l12.1,6.6c29.3,15.4,60.7,23,94.4,23C315.1,326.6,333,324.4,349.1,320z"/>
</svg>
