<?xml version="1.0" encoding="utf-8"?>
<!-- Generator: Adobe Illustrator 23.0.1, SVG Export Plug-In . SVG Version: 6.00 Build 0)  -->
<svg version="1.1" id="Layer_1" xmlns="http://www.w3.org/2000/svg" xmlns:xlink="http://www.w3.org/1999/xlink" x="0px" y="0px"
	 viewBox="0 0 1000 1000" style="enable-background:new 0 0 1000 1000;" xml:space="preserve">
<path d="M831.5,250.6c9.7,8.4,14.5,18.7,14.5,30.9l0,0v1v672.7c0,11-3.9,20.3-11.6,28c-7.7,7.7-17.1,11.6-28,11.6H193.6
	c-11,0-20.3-3.9-28-11.6c-7.7-7.7-11.6-17.1-11.6-28V282.5v-1c0-12.2,4.8-22.6,14.5-30.9L330.9,155c5.2-3.9,7.7-8.7,7.7-14.5
	c0-4.5-1.6-8.4-4.8-11.6c-3.2-3.2-7.1-4.8-11.6-4.8c-5.8,0-10.6-1.9-14.5-5.8c-3.9-3.9-5.8-8.7-5.8-14.5V24.5
	c0-5.2,1.9-9.7,5.8-13.5c3.9-3.9,8.7-5.8,14.5-5.8h355.7c5.8,0,10.6,1.9,14.5,5.8c3.9,3.9,5.8,8.4,5.8,13.5v79.3
	c0,5.8-1.9,10.6-5.8,14.5c-3.9,3.9-8.7,5.8-14.5,5.8c-4.5,0-8.4,1.6-11.6,4.8c-3.2,3.2-4.8,7.1-4.8,11.6c0,6.4,2.9,11.3,8.7,14.5
	L831.5,250.6z M500,796.7c32.2,0,62.8-6.1,91.8-18.4c29-12.2,54.4-29.3,76.4-51.2c21.9-21.9,39-47.4,51.2-76.4
	c12.2-29,18.4-59.6,18.4-91.8c0-31.6-6.1-61.9-18.4-90.8s-29.3-54.8-51.2-77.3c-21.9-21.9-47.4-38.8-76.4-50.7
	c-29-11.9-59.6-17.9-91.8-17.9s-62.7,6-91.3,17.9s-54,28.8-75.9,50.7c-21.9,21.9-39.1,47.5-51.7,76.8
	c-12.6,29.3-18.8,59.8-18.8,91.3c0,32.2,6.3,62.8,18.8,91.8c12.6,29,29.8,54.4,51.7,76.4c21.3,21.9,46.4,39,75.4,51.2
	C437.2,790.6,467.8,796.7,500,796.7z M628.5,530c8.4,0,15.5,2.9,21.3,8.7c5.8,5.8,8.7,12.6,8.7,20.3c0,8.4-2.9,15.5-8.7,21.3
	c-5.8,5.8-12.9,8.7-21.3,8.7H530v99.5c0,7.7-2.9,14.5-8.7,20.3s-12.9,8.7-21.3,8.7c-8.4,0-15.5-2.9-21.3-8.7s-8.7-12.6-8.7-20.3
	v-99.5h-98.6c-8.4,0-15.5-2.9-21.3-8.7s-8.7-12.9-8.7-21.3c0-7.7,2.9-14.5,8.7-20.3s12.9-8.7,21.3-8.7H470v-99.5
	c0-7.7,2.9-14.5,8.7-20.3c5.8-5.8,12.9-8.7,21.3-8.7c8.4,0,15.5,2.9,21.3,8.7c5.8,5.8,8.7,12.6,8.7,20.3V530H628.5z"/>
</svg>
