<?xml version="1.0" encoding="utf-8"?>
<!-- Generator: Adobe Illustrator 23.0.1, SVG Export Plug-In . SVG Version: 6.00 Build 0)  -->
<svg version="1.1" id="Layer_1" xmlns="http://www.w3.org/2000/svg" xmlns:xlink="http://www.w3.org/1999/xlink" x="0px" y="0px"
	 viewBox="0 0 1203 1203" style="enable-background:new 0 0 1203 1203;" xml:space="preserve">
<path d="M487,866.2c90.7-1.3,172.7-18.7,246-52s131.3-78.8,174-136.5c42.6-57.6,64.9-121.9,67-193c0-0.3,0-0.6,0-1
	c-2.1-71.1-24.4-135.5-67-193c-42.7-57.7-100.7-103.3-174-137s-155.3-51.2-246-52.5c-90.7,1.3-172.7,18.8-246,52.5
	S109.7,233,67,290.7S2,412.9,0,484.2c0.7,64.7,19.5,124.2,56.5,178.5c35.4,51.9,83.8,95.6,145.1,130.8c5.1,3,7.9,8.8,6.8,14.6
	c-8.8,45.8-34.7,91.5-77.7,136.9c-9.1,9.6-0.9,25.3,12.2,23.3c16.5-2.5,38.2-6.2,65.1-11.2c62.8-11.6,120.8-43.1,174.1-94.3
	c3.1-3,7.4-4.3,11.6-3.7C426.5,863.9,457.7,866.2,487,866.2z M1036.5,973.2c-1.1-5.8,1.6-11.7,6.7-14.7
	c48.1-27.9,86.1-62.5,114.2-103.8c29.7-43.7,44.8-91.5,45.5-143.5c-0.7-53.3-17.2-102.7-49.5-148c-27.9-39.2-64.5-71.9-109.6-98.1
	c-9.5-5.5-21.3,1.7-20.9,12.6v0c0,0.3,0,0.7,0,1c-2.1,76.5-25.8,145.8-71,208C906.7,749,845.2,799,767.5,836.7
	c-68.9,33.4-145.6,53.6-230,60.5c-12.4,1-17.4,16.6-7.8,24.6c32,26.6,68.7,48.1,110.3,64.4c52.6,20.7,110,31.3,172.6,32
	c0.3,0,0.6,0,0.9,0c27.1-1.2,51.4-3.3,73-6.1c4.1-0.5,8.2,0.8,11.3,3.6c44.5,41.3,90.6,66.1,138.2,74.5c17.4,3.2,32.1,5.7,44,7.5
	c12.9,2,21.3-13.4,12.5-23.1C1061.5,1040.5,1042.9,1006.7,1036.5,973.2z"/>
</svg>
