<?xml version="1.0" encoding="utf-8"?>
<!-- Generator: Adobe Illustrator 23.0.1, SVG Export Plug-In . SVG Version: 6.00 Build 0)  -->
<svg version="1.1" id="Layer_1" xmlns="http://www.w3.org/2000/svg" xmlns:xlink="http://www.w3.org/1999/xlink" x="0px" y="0px"
	 viewBox="0 0 1121 1121" style="enable-background:new 0 0 1121 1121;" xml:space="preserve">
<path d="M560,60.2c104.7,2,199,22.3,283,61s150.5,91,199.5,157c48.9,65.8,74.7,139.6,77.5,221.3c0,0.4,0,0.9,0,1.3
	c-2.8,81.7-28.6,155.5-77.5,221.3c-49,66-115.5,118.3-199.5,157s-178.3,59-283,61c-36.4,0-71.7-2.6-105.8-7.7
	c-5.2-0.8-10.4,0.9-14.2,4.5c-62.9,59.3-129.5,95-200,107.3c-29.5,5.3-53.6,9.3-72.3,12.1c-16,2.4-25.9-16.7-14.9-28.6
	c46.9-50.3,75.8-101.4,86.9-153.2c1.5-7.2-1.9-14.6-8.3-18.3C161.2,816,105.7,765.9,65,706.2c-42.7-62.7-64.3-131.4-65-206
	c2.7-82,28.5-156,77.5-222S193,159.8,277,121.2S455.3,62.2,560,60.2z"/>
</svg>
