<?xml version="1.0" encoding="utf-8"?>
<!-- Generator: Adobe Illustrator 23.0.1, SVG Export Plug-In . SVG Version: 6.00 Build 0)  -->
<svg version="1.1" id="Layer_1" xmlns="http://www.w3.org/2000/svg" xmlns:xlink="http://www.w3.org/1999/xlink" x="0px" y="0px"
	 viewBox="0 0 1000 1000" style="enable-background:new 0 0 1000 1000;" xml:space="preserve">
<path d="M747,54.5c-6-6-9-13.3-9-22s3-16,9-22s13-9,21-9c10.7,0,18.3,3.3,23,10l130,130c6.7,4.7,10,12.3,10,23c0,8-3,15-9,21
	s-13.3,9-22,9s-16-3-22-9L747,54.5z M961,937.5c8.7,0,16,3,22,9s9,13,9,21c0,8.7-3,16-9,22s-13.3,9-22,9H39c-8.7,0-16-3-22-9
	s-9-13.3-9-22c0-8,3-15,9-21s13.3-9,22-9h174v-123h-71c-8.7,0-16-3-22-9s-9-13.3-9-22s3-16,9-22s13.3-9,22-9h204c8.7,0,16,3,22,9
	s9,13.3,9,22s-3,16-9,22s-13.3,9-22,9h-71v123h247c30.7-4,59.5-13,86.5-27s50.8-32,71.5-54s36.7-47.2,48-75.5s17.3-58.2,18-89.5
	c0-44-11-84.7-33-122s-51.3-67-88-89l-102,102c-9.3,8-19,12-29,12s-19.7-4-29-12l-30-28l-14,15c-9.3,8-19,12-29,12
	c-11.3,0-21-4-29-12s-12-17.7-12-29c0-12.7,4-22.3,12-29l14-15l-28-29c-8-8-12-17.7-12-29c0-11.3,4-21,12-29l304-304
	c8-8,17.7-12,29-12c12.7,0,22.3,4,29,12l117,116c8,8,12,17.7,12,29c0,10-4,19.7-12,29l-157,157c42,28.7,75.2,65.3,99.5,110
	s36.5,93,36.5,145c0,49.3-11,95.3-33,138s-52,78.7-90,108H961z"/>
</svg>
