<svg xmlns="http://www.w3.org/2000/svg" viewBox="0 0 69.87 104"><title>microphone</title><g id="Layer_2" data-name="Layer 2"><g id="Layer_1-2" data-name="Layer 1"><g id="Symbols"><g id="Regular-M"><path d="M35,68c9.72,0,16.26-7.28,16.26-17.68V17.68C51.22,7.23,44.68,0,35,0S18.65,7.23,18.65,17.68V50.34C18.65,60.74,25.2,68,35,68ZM0,51.12C0,70.26,12.65,83.69,31.25,85.25V96.63H13.13a3.71,3.71,0,0,0-3.71,3.71A3.67,3.67,0,0,0,13.13,104H56.74a3.67,3.67,0,0,0,3.71-3.66,3.71,3.71,0,0,0-3.71-3.71H38.62V85.25c18.66-1.56,31.25-15,31.25-34.13V41.21a3.62,3.62,0,0,0-3.66-3.66,3.67,3.67,0,0,0-3.71,3.66v9.62C62.5,67.48,51.66,78.52,35,78.52S7.37,67.48,7.37,50.83V41.21a3.64,3.64,0,0,0-3.71-3.66A3.62,3.62,0,0,0,0,41.21Z"/></g></g></g></g></svg>