<svg xmlns="http://www.w3.org/2000/svg" viewBox="0 0 96.34 96.87"><title>Regular-M</title><g id="Layer_2" data-name="Layer 2"><g id="Layer_1-2" data-name="Layer 1"><g id="Regular-M"><path d="M75.54,65.43c-26.42,0-43.31-16.55-43.31-43,0-5.47,1.31-13.28,3.07-17.33a6.27,6.27,0,0,0,.54-2.3A2.77,2.77,0,0,0,33,0a9.31,9.31,0,0,0-2.78.54C12.11,7.76,0,27.2,0,47.66,0,76.37,21.87,96.87,50.49,96.87c21,0,39.26-12.74,45.31-28.66a8.32,8.32,0,0,0,.54-2.73,3,3,0,0,0-2.88-3,6.73,6.73,0,0,0-2.1.44A54.68,54.68,0,0,1,75.54,65.43Z"/></g></g></g></svg>