<?xml version="1.0" encoding="utf-8"?>
<!-- Generator: Adobe Illustrator 23.0.1, SVG Export Plug-In . SVG Version: 6.00 Build 0)  -->
<svg version="1.1" id="Layer_1" xmlns="http://www.w3.org/2000/svg" xmlns:xlink="http://www.w3.org/1999/xlink" x="0px" y="0px"
	 viewBox="0 0 1000 1000" style="enable-background:new 0 0 1000 1000;" xml:space="preserve">
<path d="M815,433.9L815,433.9c33.3,0,63.6,8.2,91,24.5c27.4,16.3,49.2,38.2,65.6,65.6s24.5,57.4,24.5,90c0,33.3-8,63.8-24,91.5
	s-37.8,49.6-65.6,65.6s-58.2,24-91.5,24c-32.6,0-62.6-8.2-90-24.5c-27.4-16.3-49.2-38.2-65.6-65.6c-16.3-27.4-24.5-57.7-24.5-91
	c0-22.2,3.9-42.4,11.7-60.7c-29.4,13.7-60,20.5-92,20.5h-1h-1c-28.7,0-55.1-4.7-79.2-14.2s-43.4-22.3-57.7-38.6
	c-14.3-16.3-21.5-34.2-21.5-53.8c0-13,2.3-24.1,6.8-33.3c-24.1,13-52.2,33.9-84.1,62.6c29.4,33.3,44,72.4,44,117.4
	c0,32.6-8.2,62.6-24.5,90c-16.3,27.4-38.2,49.2-65.6,65.6c-27.4,16.3-57.7,24.5-91,24.5c-32.6,0-62.6-8.2-90-24.5
	c-27.4-16.3-49.2-38.2-65.6-65.6S0,646.5,0,613.9c0-33.3,8.2-63.6,24.5-91s38.2-49.2,65.6-65.6c27.4-16.3,57.4-24.5,90-24.5
	c31.3,0,61.6,8.2,91,24.5c35.9-35.2,77-64.6,123.3-88.1c56.1-28,116.4-42.1,181-42.1c3.9,0,20.5,1,49.9,2.9l-42.1-75.3h-66.5
	c-7.8,0-14.7-2.9-20.5-8.8c-5.9-5.9-8.8-12.7-8.8-20.5c0-8.5,2.9-15.7,8.8-21.5s12.7-8.8,20.5-8.8h80.2c11.1,0,19.2,4.2,24.5,12.7
	c3.9,2.6,7.2,5.9,9.8,9.8l126.2,227c17.6-6.5,36.9-9.8,57.7-9.8V433.9z M788.6,362.4c-18.3-7.8-36.9-18.3-55.8-31.3
	c-18.9-13-27.4-26.4-25.4-40.1c1.3-7.2,7.8-14.2,19.6-21c11.7-6.8,24.6-12.6,38.6-17.1s24-7.2,29.8-7.8h3.9h2.9h2.9h2l-9.8,120.3
	c-0.7-0.7-1.5-1-2.4-1s-1.8-0.3-2.4-1C791.8,362.8,790.5,362.4,788.6,362.4z M123.3,362.4c-4.6-2.6-8.3-6.2-11.3-10.8
	c-2.9-4.6-4.4-9.8-4.4-15.7c0-8.5,2.9-15.7,8.8-21.5s12.7-8.8,20.5-8.8c3.3,0,6.8,0.7,10.8,2c24.1,10.4,52.2,16.3,84.1,17.6
	c32,0,62.9-5.9,92.9-17.6c5.2-1.3,9.1-2,11.7-2c8.5,0,15.7,2.9,21.5,8.8s8.8,12.7,8.8,20.5c0,5.9-1.6,11.4-4.9,16.6
	c-3.3,5.2-7.2,8.8-11.7,10.8c-35.9,14.3-75.3,22.2-118.4,23.5c-40.4-1.3-76.3-9.1-107.6-23.5H123.3z M180,733.3
	c33.3,0,61.6-11.7,85.1-35.2c23.5-23.5,35.2-51.9,35.2-85.1c0-28-8.5-52.5-25.4-73.4l-16.6,19.6l-8.8,10.8
	c-5.2,7.2-13,10.8-23.5,10.8c-7.8,0-14.7-2.9-20.5-8.8c-5.9-5.9-8.8-13-8.8-21.5c0-2,0.7-4.9,2-8.8c2-4.6,5.5-10.4,10.8-17.6
	l19.6-20.5c-16.3-7.2-32.6-10.8-48.9-10.8c-33.3,0-61.6,11.7-85.1,35.2c-23.5,23.5-35.2,51.9-35.2,85.1c0,33.3,11.7,61.6,35.2,85.1
	C118.4,721.5,146.8,733.3,180,733.3L180,733.3z M815,735.2L815,735.2c33.3,0,61.6-11.7,85.1-35.2c23.5-23.5,35.2-51.9,35.2-85.1
	c0-33.3-11.7-61.6-35.2-85.1c-23.5-23.5-51.9-35.2-85.1-35.2c-2,0-10.8,1-26.4,2.9l57.7,102.7c3.3,4.6,4.9,9.8,4.9,15.7
	c0,8.5-2.9,15.7-8.8,21.5c-5.9,5.9-13,8.8-21.5,8.8c-5.9,0-11.3-1.5-16.1-4.4c-4.9-2.9-8.3-7-10.3-12.2l-59.7-103.7
	c-12.4,11.7-22,25.3-28.9,40.6c-6.8,15.3-10.3,31.5-10.3,48.4c0,33.3,11.7,61.6,35.2,85.1C754.3,723.5,782.4,735.2,815,735.2z"/>
</svg>
