<?xml version="1.0" encoding="utf-8"?>
<!-- Generator: Adobe Illustrator 23.0.1, SVG Export Plug-In . SVG Version: 6.00 Build 0)  -->
<svg version="1.1" id="Layer_1" xmlns="http://www.w3.org/2000/svg" xmlns:xlink="http://www.w3.org/1999/xlink" x="0px" y="0px"
	 viewBox="0 0 1000 1000" style="enable-background:new 0 0 1000 1000;" xml:space="preserve">
<path d="M892.3,745.3l-1-90.1V571c0-37.2,0.3-65.3,1-84.2v-83.3v-90.1v-90.1v-90.1c0-39.8-0.3-69.9-1-90.1c0-15-2.4-26-7.3-32.8
	S870.7,0,859,0c-3.3,0-8.8,0.7-16.7,2c-24.8,4.6-62,12.1-111.7,22.5l-19.6,3.9c-24.8,5.2-55.8,11.4-93,18.6L391.8,93
	c-16.3,3.9-28.1,8-35.3,12.2c-7.2,4.2-12.1,10.4-14.7,18.6s-3.9,20.7-3.9,37.7v131.2v132.2v131.2v132.2c-1.3,20.9-4.6,34.6-9.8,41.1
	c-3.9,4.6-11.4,9-22.5,13.2s-25.3,8.3-42.6,12.2c-17.3,3.9-28.9,6.5-34.8,7.8c-20.2,4.6-39.8,11.4-58.8,20.6
	c-19.6,8.5-34.8,22-45.5,40.6s-16.2,38.7-16.2,60.2c0,15,2.9,29.7,8.8,44.1c5.9,14.4,14.4,26.8,25.5,37.2
	c23.5,22.9,51.6,34.3,84.2,34.3c20.2,0,47-5.6,80.3-16.7c52.9-17.6,81.9-59.4,87.2-125.4c0.7-5.2,1-13.1,1-23.5V811V701.3V591.6
	V481.9c-0.7-24.2-1-60.7-1-109.7c0-17,3.1-29.5,9.3-37.7c6.2-8.2,17.5-13.9,33.8-17.1c61.4-11.1,120.8-22.9,178.3-35.3l89.1-17.6
	c39.2-7.8,68.9-14,89.1-18.6c5.2-1.3,11.8-2,19.6-2c9.1,0,15.3,2.8,18.6,8.3s4.9,15.5,4.9,29.9v78.4v78.4v78.4v78.4
	c0,15-3.4,26.6-10.3,34.8c-6.9,8.2-17.8,13.9-32.8,17.1l-63.7,14.7c-21.5,4.6-42.1,11.4-61.7,20.6c-19.6,7.8-34.8,21.1-45.5,39.7
	c-10.8,18.6-16.2,39.3-16.2,62.2c0,7.8,0.3,14,1,18.6c3.3,22.9,13.9,43.4,31.8,61.7c18,18.3,38.4,28.7,61.2,31.3
	c5.9,0.7,14.7,1,26.4,1c45.7,0,84.7-12.1,117-36.2C876.1,836.8,892.3,798.2,892.3,745.3z"/>
</svg>
