<?xml version="1.0" encoding="utf-8"?>
<!-- Generator: Adobe Illustrator 23.0.1, SVG Export Plug-In . SVG Version: 6.00 Build 0)  -->
<svg version="1.1" id="Layer_1" xmlns="http://www.w3.org/2000/svg" xmlns:xlink="http://www.w3.org/1999/xlink" x="0px" y="0px"
	 viewBox="0 0 1000 1000" style="enable-background:new 0 0 1000 1000;" xml:space="preserve">
<path d="M989,162.5c6,6,9,13,9,21c0,8.7-3,16-9,22s-13.3,9-22,9s-15.7-2.7-21-8l-51-51l-108,109l115,116c6.7,6.7,10,14,10,22
	c0,8.7-3,16-9,22s-13.3,9-22,9s-16.3-3.3-23-10l-43-43l-434,434c-30,28-64,42-102,42c-30,0-55.7-7.7-77-23l-147,148
	c-6,6-13.7,9-23,9c-8,0-15-3-21-9s-9-13-9-21c0-9.3,3-17,9-23l148-147c-15.3-21.3-23-47.3-23-78c0-39.3,14-73,42-101l85-85l56,55
	c6,6,13,9,21,9c8.7,0,16-3,22-9s9-13.3,9-22s-3-16-9-22l-55-55l43-43l55,55c9.3,6.7,17,10,23,10c8.7,0,16-3,22-9s9-13.3,9-22
	c0-6-3.3-13.7-10-23l-55-55l43-43l55,55c4.7,6.7,12.3,10,23,10c8,0,15-3,21-9s9-13.3,9-22s-3-16-9-22l-55-55l131-133l-43-43
	c-5.3-5.3-8-12.3-8-21s3-16,9-22s13-9,21-9c7.3,0,14.3,2.7,21,8l130,131l109-108l-51-51c-5.3-6.7-8-13.7-8-21c0-8.7,3-16,9-22
	s13.3-9,22-9c8,0,15,3,21,9L989,162.5z"/>
</svg>
