<?xml version="1.0" encoding="utf-8"?>
<!-- Generator: Adobe Illustrator 23.0.1, SVG Export Plug-In . SVG Version: 6.00 Build 0)  -->
<svg version="1.1" id="Layer_1" xmlns="http://www.w3.org/2000/svg" xmlns:xlink="http://www.w3.org/1999/xlink" x="0px" y="0px"
	 viewBox="0 0 1000 1000" style="enable-background:new 0 0 1000 1000;" xml:space="preserve">
<path d="M784.3,651.1c-20.8,0-40.5-4.2-59.3-12.6c-18.8-8.4-35.3-19.7-49.6-34L357.5,800.6c5.2,16.9,7.8,33.4,7.8,49.6
	c0,27.2-6.6,52.3-19.9,75.3S314,966.6,291,979.9c-23,13.3-48.1,19.9-75.3,19.9s-52.3-6.6-75.3-19.9c-23-13.3-41.1-31.4-54.4-54.4
	s-19.9-48.1-19.9-75.3s6.6-52.3,19.9-75.3s31.4-41.1,54.4-54.4c23-13.3,48.1-19.9,75.3-19.9c21.4,0,41.8,4.2,61.2,12.6
	c19.5,8.5,36,20.5,49.6,36l317.8-196.3c-6.5-14.9-9.7-32.4-9.7-52.5c0-20.7,3.2-38.9,9.7-54.4l-311-199.2
	c-14.3,17.5-31.6,31.1-52,40.8s-41.9,14.6-64.6,14.6c-27.2,0-52.3-6.8-75.3-20.4s-41.3-31.9-54.9-54.9c-13.6-23-20.4-48.1-20.4-75.3
	c0-27.9,6.8-53.3,20.4-76.3c13.6-23,31.9-41.3,54.9-54.9S189.5,0,216.7,0S269,6.8,292,20.4s41.3,31.9,55,54.9
	c13.6,23,20.4,48.4,20.4,76.3c0,16.9-2.3,31.1-6.8,42.8l316.8,203.1c13.6-14.2,29.6-25.4,48.1-33.5s38.1-12.1,58.8-12.1
	c27.2,0,52.3,6.6,75.3,19.9s41.1,31.4,54.4,54.4c13.3,23,19.9,48.1,19.9,75.3s-6.6,52.3-19.9,75.3c-13.3,23-31.4,41.1-54.4,54.4
	C836.6,644.5,811.5,651.1,784.3,651.1L784.3,651.1L784.3,651.1z"/>
</svg>
