<?xml version="1.0" encoding="utf-8"?>
<!-- Generator: Adobe Illustrator 23.0.1, SVG Export Plug-In . SVG Version: 6.00 Build 0)  -->
<svg version="1.1" id="Layer_1" xmlns="http://www.w3.org/2000/svg" xmlns:xlink="http://www.w3.org/1999/xlink" x="0px" y="0px"
	 viewBox="0 0 1000 1000" style="enable-background:new 0 0 1000 1000;" xml:space="preserve">
<path d="M975.3,877.7c5.8,1.9,10.5,5.5,14,10.6s5.3,10.9,5.3,17.4c0,8.4-2.9,15.3-8.7,20.8s-12.9,8.5-21.3,9.2H35.3
	c-8.4-0.6-15.5-3.7-21.3-9.2s-8.7-12.4-8.7-20.8c0-6.4,1.9-12.2,5.8-17.4s8.4-8.7,13.5-10.6V243c0-5.8,1.9-10.6,5.8-14.5
	c3.9-3.9,8.7-5.8,14.5-5.8h177.8c5.8,0,10.6,1.9,14.5,5.8c3.9,3.9,5.8,8.7,5.8,14.5v632.8H302V84.6c0-5.8,1.9-10.6,5.8-14.5
	s8.7-5.8,14.5-5.8h355.5c5.8,0,10.6,1.9,14.5,5.8c3.9,3.9,5.8,8.7,5.8,14.5v791.2H757V243c0-5.8,1.9-10.6,5.8-14.5
	c3.9-3.9,8.7-5.8,14.5-5.8H955c5.8,0,10.6,1.9,14.5,5.8c3.9,3.9,5.8,8.7,5.8,14.5V877.7z M460.4,203.4v-79.2h-98.5v79.2H460.4z
	 M638.1,203.4v-79.2h-98.5v79.2H638.1z M183.1,361.9v-79.2H84.6v79.2H183.1z M915.4,361.9v-79.2h-98.5v79.2H915.4z M460.4,480.7
	v-79.2h-98.5v79.2H460.4z M638.1,480.7v-79.2h-98.5v79.2H638.1z M183.1,579.2V500H84.6v79.2H183.1z M915.4,579.2V500h-98.5v79.2
	H915.4z M460.4,757v-79.2h-98.5V757H460.4z M638.1,757v-79.2h-98.5V757H638.1z M183.1,796.6v-79.2H84.6v79.2H183.1z M915.4,796.6
	v-79.2h-98.5v79.2H915.4z"/>
</svg>
