<svg xmlns="http://www.w3.org/2000/svg" viewBox="0 0 86.67 110.21"><title>Symbols</title><g id="Layer_2" data-name="Layer 2"><g id="Layer_1-2" data-name="Layer 1"><g id="Symbols"><g id="Regular-M"><path d="M43.36,36a3.89,3.89,0,0,0,3.86-3.81V18l-.3-7.33,3.28,3.47,7.42,7.91a3.56,3.56,0,0,0,2.63,1.17,3.42,3.42,0,0,0,2.4-6L46.14,1.32a3.64,3.64,0,0,0-5.61,0L24,17.24a3.45,3.45,0,0,0-1.17,2.54,3.37,3.37,0,0,0,3.52,3.46,3.67,3.67,0,0,0,2.68-1.17l7.42-7.91,3.28-3.47L39.45,18V32.23A3.94,3.94,0,0,0,43.36,36Zm-28,74.17h56c10.2,0,15.33-5.08,15.33-15.14V47.31c0-10.05-5.13-15.13-15.33-15.13h-23v36a5,5,0,0,1-10,0v-36h-23C5.13,32.18,0,37.26,0,47.31V95.07C0,105.13,5.13,110.21,15.33,110.21Z"/></g></g></g></g></svg>