<?xml version="1.0" encoding="utf-8"?>
<!-- Generator: Adobe Illustrator 23.0.1, SVG Export Plug-In . SVG Version: 6.00 Build 0)  -->
<svg version="1.1" id="Layer_1" xmlns="http://www.w3.org/2000/svg" xmlns:xlink="http://www.w3.org/1999/xlink" x="0px" y="0px"
	 viewBox="0 0 1000 1000" style="enable-background:new 0 0 1000 1000;" xml:space="preserve">
<path d="M920,29c11.3,0,21,4,29,12s12,17.7,12,29v778c0,11.3-4,21-12,29s-17.7,12-29,12h-92v62c0,5.3-2,10-6,14s-9,6-15,6h-61
	c-6,0-11-2-15-6s-6-8.7-6-14v-62H275v62c0,5.3-2,10-6,14s-9,6-15,6h-61c-6,0-11-2-15-6s-6-8.7-6-14v-62H80c-11.3,0-21-4-29-12
	s-12-17.7-12-29V70c0-11.3,4-21,12-29s17.7-12,29-12H920z M193,147c-17.3,0-32,6-44,18s-18,26.3-18,43c0,17.3,6,32,18,44
	s26.7,18,44,18c16.7,0,31-6,43-18s18-26.7,18-44c0-16.7-6-31-18-43S209.7,147,193,147z M398,147c-17.3,0-32,6-44,18s-18,26.3-18,43
	c0,17.3,6,32,18,44s26.7,18,44,18c16.7,0,31-6,43-18s18-26.7,18-44c0-16.7-6-31-18-43S414.7,147,398,147z M602,147
	c-16.7,0-31,6-43,18s-18,26.3-18,43c0,17.3,6,32,18,44s26.3,18,43,18c17.3,0,32-6,44-18s18-26.7,18-44c0-16.7-6-31-18-43
	S619.3,147,602,147z M807,270c17.3,0,32-6,44-18s18-26.7,18-44c0-16.7-6-31-18-43s-26.7-18-44-18c-16.7,0-31,6-43,18s-18,26.3-18,43
	c0,17.3,6,32,18,44S790.3,270,807,270z M869,398c0-11.3-4-21-12-29s-17.7-12-29-12H172c-11.3,0-21,4-29,12s-12,17.7-12,29v348
	c0,11.3,4,21,12,29s17.7,12,29,12h656c11.3,0,21-4,29-12s12-17.7,12-29V398z M705,490c8.7,0,16-3,22-9s9-13.3,9-22s-3-16-9-22
	s-13.3-9-22-9H295c-8.7,0-16,3-22,9s-9,13.3-9,22s3,16,9,22s13.3,9,22,9H705z"/>
</svg>
