<svg xmlns="http://www.w3.org/2000/svg" viewBox="0 0 104.38 114.11"><title>paintbrush</title><g id="Layer_2" data-name="Layer 2"><g id="Layer_1-2" data-name="Layer 1"><g id="Regular-M"><path d="M33.85,46.48,66.47,79.09c3.66,3.67,7.47,3.08,10.88-.34l24.22-24.12c3.42-3.42,4-7.23.3-10.89l-4.94-4.88C91.12,44,74.82,55.66,72.28,53.12c-.83-.83-.15-1.56.34-2,5.32-5.52,12.55-14.31,13.43-23.15L60.36,2.19c-3-3-7.52-3-10,.54-4.93,7-4.78,18.65-16.5,32.61C30.63,39.25,30.09,42.72,33.85,46.48ZM5,109.17c6.45,6.35,14.55,6.55,20.31.78,4.49-4.49,9.28-16.55,12.55-22.16l13.62,13.62c3.91,3.9,8.26,4,11.92.34l3.12-3.12c3.67-3.67,3.57-8-.34-11.92L27.55,48c-4-4-8.2-4.05-12-.29l-3.08,3.07c-3.71,3.71-3.61,8,.29,11.92L26.43,76.31C20.86,79.58,8.75,84.37,4.21,88.86-1.7,94.72-1.36,102.87,5,109.17Zm6.64-6.88a4.19,4.19,0,0,1,0-6,4.25,4.25,0,0,1,6,0,4.19,4.19,0,0,1,0,6A4.12,4.12,0,0,1,11.68,102.29Z"/></g></g></g></svg>