<svg xmlns="http://www.w3.org/2000/svg" viewBox="0 0 102.3 102.29"><title>Regular-M</title><g id="Layer_2" data-name="Layer 2"><g id="Layer_1-2" data-name="Layer 1"><g id="Regular-M"><path d="M61.13,102.29c3.52,0,6-3,7.82-7.71l32-83.54a16.93,16.93,0,0,0,1.37-5.91A4.75,4.75,0,0,0,97.17,0a16.93,16.93,0,0,0-5.91,1.37l-84,32.17C3.17,35.11,0,37.6,0,41.16c0,4.49,3.42,6,8.11,7.42l26.36,8c3.13,1,4.84.88,7-1.07L95,5.47a1.38,1.38,0,0,1,1.91,0,1.29,1.29,0,0,1,0,1.86L46.92,61c-1.85,2-2,3.66-1.07,6.93l7.76,25.78C55.08,98.68,56.59,102.29,61.13,102.29Z"/></g></g></g></svg>