<svg xmlns="http://www.w3.org/2000/svg" viewBox="0 0 93.07 104.63"><title>paperclip</title><g id="Layer_2" data-name="Layer 2"><g id="Layer_1-2" data-name="Layer 1"><g id="Symbols"><g id="Regular-M"><path d="M79.58,54.58,43.69,90.47c-9.33,9.37-21.87,8.44-29.88.34s-9-20.46.34-29.84l49-48.92C68.74,6.43,77,5.65,82.36,11s4.54,13.63-1,19.24L33.49,78.06a4.69,4.69,0,0,1-7,.1,4.81,4.81,0,0,1,.05-7L60,37.78a3.46,3.46,0,1,0-4.88-4.88L21.57,66.44a12,12,0,0,0-.39,17c4.79,4.78,12,4.68,17-.35l48.05-48C95.4,25.92,95,13.9,87.05,6c-7.76-7.77-20-8.35-29.1.78L8.73,56C-3.33,68.05-2.4,85.29,8.49,96.18S36.61,108,48.67,95.94L84.8,59.8a3.82,3.82,0,0,0,0-5.32A3.6,3.6,0,0,0,79.58,54.58Z"/></g></g></g></g></svg>