<?xml version="1.0" encoding="utf-8"?>
<!-- Generator: Adobe Illustrator 23.0.1, SVG Export Plug-In . SVG Version: 6.00 Build 0)  -->
<svg version="1.1" id="Layer_1" xmlns="http://www.w3.org/2000/svg" xmlns:xlink="http://www.w3.org/1999/xlink" x="0px" y="0px"
	 viewBox="0 0 1000 1000" style="enable-background:new 0 0 1000 1000;" xml:space="preserve">
<path d="M920,39c11.3,0,21,4,29,12s12,17.7,12,29v840c0,11.3-4,21-12,29s-17.7,12-29,12H80c-11.3,0-21-4-29-12s-12-17.7-12-29V80
	c0-11.3,4-21,12-29s17.7-12,29-12H920z M643,501c13.3-14,23.7-30.3,31-49c7.3-18.7,11-38.3,11-59v-5c-0.7-0.7-1-2-1-4v-4v-3
	c0-20.7-4-40.3-12-59s-19.3-35-34-49c-34-30.7-83.7-46-149-46h-2h-2c-46.7,0-89.3,3.7-128,11v542h68l-1-220c16,4,32.3,6,49,6
	c2,0,3.3-0.3,4-1h4c34,0,65-5.2,93-15.5S625,520.3,643,501z M490,280c38.7,0,69.3,9.2,92,27.5s34,44.8,34,79.5
	c0,37.3-11.8,66.3-35.5,87s-56.2,30.7-97.5,30c-0.7,0.7-1.7,1-3,1h-4c-18,0-35-2-51-6l-1-213c19.3-4,38.7-6,58-6h4H490z"/>
</svg>
