<?xml version="1.0" encoding="utf-8"?>
<!-- Generator: Adobe Illustrator 23.0.1, SVG Export Plug-In . SVG Version: 6.00 Build 0)  -->
<svg version="1.1" id="Layer_1" xmlns="http://www.w3.org/2000/svg" xmlns:xlink="http://www.w3.org/1999/xlink" x="0px" y="0px"
	 viewBox="0 0 1000 1000" style="enable-background:new 0 0 1000 1000;" xml:space="preserve">
<path d="M448,193c0-30-5-57.5-15-82.5S409.3,65.7,392,51s-36-22-56-22c-20.7,0-39.7,7.3-57,22s-31,34.5-41,59.5S223,163,223,193
	s5,57.5,15,82.5s23.7,44.8,41,59.5s36.3,22,57,22c20,0,38.7-7.3,56-22s31-34.5,41-59.5S448,223,448,193z M776,193
	c0-30-5-57.5-15-82.5S737.3,65.7,720,51s-36.3-22-57-22c-20,0-38.7,7.3-56,22s-31,34.5-41,59.5S551,163,551,193s5,57.5,15,82.5
	s23.7,44.8,41,59.5s36,22,56,22c20.7,0,39.7-7.3,57-22s31-34.5,41-59.5S776,223,776,193z M200,401c-5.3-37.3-18.7-68.5-40-93.5
	S115,270,89,270c-26.7,0-48.3,12.5-65,37.5S-1,363.3-1,400c0,13.3,0.7,23.7,2,31c5.3,37.3,18.7,68.5,40,93.5S86,562,112,562
	c26.7,0,48.3-12.5,65-37.5s25-55.8,25-92.5C202,418.7,201.3,408.3,200,401z M911,270c-26,0-49.7,12.5-71,37.5s-34.7,56.2-40,93.5
	c-1.3,7.3-2,17.7-2,31c0,36.7,8.5,67.5,25.5,92.5S862,562,888,562s49.7-12.5,71-37.5s34.7-56.2,40-93.5c1.3-7.3,2-17.7,2-31
	c0-36.7-8.3-67.5-25-92.5S937.7,270,911,270z M490,398c34.7,0,73.5,13,116.5,39s83.8,59.3,122.5,100c38,40,69.2,81.8,93.5,125.5
	C846.8,706.2,859,744,859,776c0,26.7-5,51.8-15,75.5S820,896,802,914s-38.8,32-62.5,42s-48.8,15-75.5,15s-51.7-5-75-15
	c-31.3-14-64.3-21-99-21c-32.7,0-64.7,6.7-96,20c-23.3,10.7-49.3,16-78,16c-26,0-50.8-5-74.5-15S197,932,179,914
	c-18-17.3-32-38-42-62s-15-49-15-75v-1c0-31.3,12.3-68.8,37-112.5c24.7-43.7,56-85.8,94-126.5c38.7-40.7,79.3-74,122-100
	S456,398,490,398z"/>
</svg>
