<?xml version="1.0" encoding="utf-8"?>
<!-- Generator: Adobe Illustrator 23.0.1, SVG Export Plug-In . SVG Version: 6.00 Build 0)  -->
<svg version="1.1" id="Layer_1" xmlns="http://www.w3.org/2000/svg" xmlns:xlink="http://www.w3.org/1999/xlink" x="0px" y="0px"
	 viewBox="0 0 1000 1000" style="enable-background:new 0 0 1000 1000;" xml:space="preserve">
<path d="M638.6,284.9c0-24.9-6.1-47.8-18.2-68.8c-12.1-21-28.7-37.8-49.7-50.2c-21-12.4-44-18.6-68.8-18.6
	c-24.9,0-47.8,6.2-68.8,18.6c-21,12.4-37.8,29.2-50.2,50.2c-12.4,21-18.6,44-18.6,68.8s6.2,47.8,18.6,68.8
	c12.4,21,29.2,37.6,50.2,49.7c21,12.1,44,18.2,68.8,18.2c24.9,0,47.8-6.1,68.8-18.2c21-12.1,37.6-28.7,49.7-49.7
	C632.6,332.7,638.6,309.8,638.6,284.9z M312.6,421.6c0-30-10.5-55.4-31.5-76.5s-46.5-31.5-76.5-31.5c-29.3,0-54.5,10.5-75.5,31.5
	s-31.5,46.5-31.5,76.5s10.5,55.4,31.5,76.5c21,21,46.2,31.5,75.5,31.5c30,0,55.4-10.5,76.5-31.5
	C302.1,477.1,312.6,451.6,312.6,421.6z M902.5,421.6c0-30-10.5-55.4-31.5-76.5s-46.2-31.5-75.5-31.5c-30,0-55.4,10.5-76.5,31.5
	s-31.5,46.5-31.5,76.5s10.5,55.4,31.5,76.5c21,21,46.5,31.5,76.5,31.5c29.3,0,54.5-10.5,75.5-31.5
	C891.9,477.1,902.5,451.6,902.5,421.6z M795.4,558.3c26.1,0,51.1,5.1,75,15.3s45.1,24.2,63.6,42.1c17.8,18.5,31.9,39.7,42.1,63.6
	c10.2,23.9,15.3,48.9,15.3,75v98.5H8.6v-98.5c0-26.1,5.3-51.3,15.8-75.5c10.5-24.2,24.7-45.2,42.5-63.1s38.7-31.7,62.6-41.6
	s48.9-14.8,75-14.8c40.8,0,78.1,11.2,111.8,33.5c13.4-38.9,37.1-70.4,71.2-94.6c34.1-24.2,72.2-36.3,114.2-36.3
	c42.1,0,79.8,12.1,113.3,36.3c33.5,24.2,56.9,55.8,70.3,94.6C718.6,569.8,755.2,558.3,795.4,558.3z"/>
</svg>
