<?xml version="1.0" encoding="utf-8"?>
<!-- Generator: Adobe Illustrator 23.0.1, SVG Export Plug-In . SVG Version: 6.00 Build 0)  -->
<svg version="1.1" id="Layer_1" xmlns="http://www.w3.org/2000/svg" xmlns:xlink="http://www.w3.org/1999/xlink" x="0px" y="0px"
	 viewBox="0 0 1000 1000" style="enable-background:new 0 0 1000 1000;" xml:space="preserve">
<path d="M586,126.5c-0.7-24-9-44.2-25-60.5s-36.3-24.5-61-24.5c-24.7,0-45,8.2-61,24.5s-24,36.5-24,60.5c0,24.7,8,45,24,61
	s36.3,24,61,24c24.7,0,45-8,61-24S585.3,151.2,586,126.5z M612,396.5l57,562h-61l-108-335l-108,335h-60l56-562l-225-83l-1-52h676
	l-1,52L612,396.5z"/>
</svg>
