<svg xmlns="http://www.w3.org/2000/svg" viewBox="0 0 90.53 90.67"><title>Regular-M</title><g id="Layer_2" data-name="Layer 2"><g id="Layer_1-2" data-name="Layer 1"><g id="Regular-M"><path d="M24.8,65.67c14.12,14.12,31.25,25,45.27,25a21.05,21.05,0,0,0,16.26-7.08A14.74,14.74,0,0,0,90.53,74a7.64,7.64,0,0,0-3.23-6.44l-15-10.65c-2.29-1.56-4.19-2.34-6-2.34-2.2,0-4.2,1.27-6.45,3.47l-3.46,3.41a2.65,2.65,0,0,1-1.86.79,4.62,4.62,0,0,1-2-.54c-3-1.61-8.21-6.06-13-10.84s-9.23-10-10.79-13a4.73,4.73,0,0,1-.54-2A2.5,2.5,0,0,1,29,34.13l3.47-3.56c2.15-2.25,3.47-4.2,3.47-6.45,0-1.76-.83-3.66-2.44-6L23,3.37A8,8,0,0,0,16.26,0,13.73,13.73,0,0,0,6.84,4.25,21.83,21.83,0,0,0,0,20.61C0,34.62,10.69,51.61,24.8,65.67Z"/></g></g></g></svg>