<svg xmlns="http://www.w3.org/2000/svg" viewBox="0 0 115.14 89.89"><title>Regular-M</title><g id="Layer_2" data-name="Layer 2"><g id="Layer_1-2" data-name="Layer 1"><g id="Regular-M"><path d="M15.33,89.89H99.8c10.26,0,15.34-5.08,15.34-15.13V15.14C115.14,5.08,110.06,0,99.8,0H15.33C5.13,0,0,5,0,15.14V74.76C0,84.86,5.13,89.89,15.33,89.89ZM36.62,46.14a12.06,12.06,0,1,1,12-12.06A12.09,12.09,0,0,1,36.62,46.14ZM15.43,82c-4.74,0-7.57-2.83-7.57-7.62v-3l15-13.09a10.29,10.29,0,0,1,6.64-2.88,10.38,10.38,0,0,1,7,3l9.33,8.4L69.19,46.14A11.51,11.51,0,0,1,77.05,43a11.32,11.32,0,0,1,7.76,3.17L107.28,67v7.52c0,4.69-2.89,7.52-7.52,7.52Z"/></g></g></g></svg>