<?xml version="1.0" encoding="utf-8"?>
<!-- Generator: Adobe Illustrator 23.0.1, SVG Export Plug-In . SVG Version: 6.00 Build 0)  -->
<svg version="1.1" id="Layer_1" xmlns="http://www.w3.org/2000/svg" xmlns:xlink="http://www.w3.org/1999/xlink" x="0px" y="0px"
	 viewBox="0 0 1000 1000" style="enable-background:new 0 0 1000 1000;" xml:space="preserve">
<path d="M500,19c65.3,0,127.3,12.3,186,37s110.3,59,155,103c44,44.7,78.3,96.3,103,155s37,120.7,37,186s-12.3,127.3-37,186
	c-24.7,58.7-59,110-103,154c-44.7,44.7-96.3,79.3-155,104s-120.7,37-186,37s-127.3-12.3-186-37s-110-59.3-154-104
	c-44.7-44-79.3-95.3-104-154c-24.7-58.7-37-120.7-37-186s12.3-127.3,37-186s59.3-110.3,104-155c44-44,95.3-78.3,154-103
	S434.7,19,500,19z M756,341c8.7,0,16-3,22-9s9-13,9-21c0-8.7-3-16-9-22s-13.3-9-22-9H285c-21.3,0-38.7,4.7-52,14
	c-13.3,9.3-20,21.7-20,37l0,0c0,8.7,3,16,9,22s13.3,9,22,9c6.7,0,12.5-1.8,17.5-5.5s8.5-8.2,10.5-13.5c5.3-1.3,9.7-2,13-2h92
	c-0.7,124.7-15.3,207.7-44,249c-27.3,40-42,61-44,63c-4,2.7-7.3,6.3-10,11s-4,9.7-4,15c0,8.7,3,16,9,22s13,9,21,9
	c7.3,0,12.7-1.3,16-4l24-20c11.3-10.7,24.3-30,39-58c36-72,54.3-167.7,55-287h155c-11.3,50.7-18.3,105.3-21,164c-0.7,9.3-1,23-1,41
	c0,58.7,8.3,101.7,25,129c6,12,15,22.2,27,30.5s25.3,13.2,40,14.5h2c20,0,36.5-5.5,49.5-16.5S740,680.7,750,668c4-5.3,6-11.3,6-18
	c0-8-3-15-9-21s-13.3-9-22-9c-11.3,0-19.7,4.3-25,13c-4.7,6-10.5,11.8-17.5,17.5S670,659,666,659c-2,0-4.5-1.5-7.5-4.5
	s-5.8-6.8-8.5-11.5c-11.3-20-17-52.7-17-98c0-16,0.3-28.3,1-37c3.3-58,11-113.7,23-167H756z"/>
</svg>
