<?xml version="1.0" encoding="utf-8"?>
<!-- Generator: Adobe Illustrator 23.0.1, SVG Export Plug-In . SVG Version: 6.00 Build 0)  -->
<svg version="1.1" id="Layer_1" xmlns="http://www.w3.org/2000/svg" xmlns:xlink="http://www.w3.org/1999/xlink" x="0px" y="0px"
	 viewBox="0 0 1000 1000" style="enable-background:new 0 0 1000 1000;" xml:space="preserve">
<path d="M442,65.5c14-14,30.3-24.8,49-32.5c18.7-7.7,38-11.5,58-11.5c27.3,0,52.8,6.8,76.5,20.5s42.3,32.3,56,56
	s20.5,49.5,20.5,77.5c0,20-3.8,39.3-11.5,58s-18.2,35-31.5,49l-376,376c-14,13.3-30.3,23.8-49,31.5c-18.7,7.7-38,11.5-58,11.5
	c-28,0-53.8-6.8-77.5-20.5c-23.7-13.7-42.3-32.3-56-56S22,575.8,22,548.5c0-20,3.8-39.3,11.5-58s18.5-35,32.5-49L442,65.5z
	 M341,933.5c-14-14-25-30.2-33-48.5s-12-38.2-12-59.5c0-42.7,15-79,45-109l376-376c14-13.3,30.3-23.8,49-31.5s38-11.5,58-11.5
	c28,0,53.8,6.8,77.5,20.5s42.3,32.3,56,56s20.5,49.2,20.5,76.5c0,20-3.8,39.3-11.5,58c-7.7,18.7-18.5,35-32.5,49l-376,376
	c-30,30-66.3,45-109,45c-20,0-39.5-4-58.5-12S355,947.5,341,933.5z M275,318.5l-166,167c-19.3,16-29,38.3-29,67c0,25.3,9,47,27,65
	s39.7,27,65,27c13.3,0,25.8-2.7,37.5-8s21.5-12.3,29.5-21l167-167L275,318.5z M725,680.5l166-167c19.3-16,29-38.3,29-67
	c0-25.3-9-47-27-65s-39.7-27-65-27c-13.3,0-25.8,2.7-37.5,8s-21.5,12.3-29.5,21l-167,167L725,680.5z"/>
</svg>
