<?xml version="1.0" encoding="utf-8"?>
<!-- Generator: Adobe Illustrator 23.0.1, SVG Export Plug-In . SVG Version: 6.00 Build 0)  -->
<svg version="1.1" id="Layer_1" xmlns="http://www.w3.org/2000/svg" xmlns:xlink="http://www.w3.org/1999/xlink" x="0px" y="0px"
	 viewBox="0 0 1000 1000" style="enable-background:new 0 0 1000 1000;" xml:space="preserve">
<path d="M927,73c48.7,50.7,73,109,73,175c0,67.3-24.3,126.3-73,177L425,927c-50.7,48.7-109.3,73-176,73s-125.3-24.3-176-73
	C24.3,876.3,0,817.7,0,751s24.3-125.3,73-176L576,73c23.3-24,50.2-42.2,80.5-54.5S718.7,0,752,0c32.7,0,64.2,6.2,94.5,18.5
	S903.7,49,927,73z M874,371c33.3-35.3,50-76,50-122c0-45.3-16.7-86.3-50-123c-34.7-33.3-75.7-50-123-50c-46.7,0-87.3,16.7-122,50
	L378,378l244,244L874,371z"/>
</svg>
