<svg xmlns="http://www.w3.org/2000/svg" viewBox="0 0 92.72 107.23"><title>pin</title><g id="Layer_2" data-name="Layer 2"><g id="Layer_1-2" data-name="Layer 1"><g id="Symbols"><g id="Regular-M"><path d="M46.39,89.36c2,0,4.49-7.82,4.49-22.27V36.23a18.34,18.34,0,1,0-9,0V67.09C41.85,81.49,44.38,89.36,46.39,89.36ZM41.11,19.43a6.44,6.44,0,0,1-6.25-6.34,6.28,6.28,0,0,1,12.55,0A6.39,6.39,0,0,1,41.11,19.43Zm5.28,87.8c29.44,0,46.33-10.16,46.33-20.9,0-12.89-20.45-20.75-33.88-20.9v7.13c9.42.15,24,5.27,24,12.6,0,8.39-15.48,14.35-36.47,14.35S9.91,93.65,9.91,85.16c0-7.33,14.55-12.45,24-12.6V65.43C20.46,65.58,0,73.44,0,86.33,0,97.07,16.94,107.23,46.39,107.23Z"/></g></g></g></g></svg>