<svg xmlns="http://www.w3.org/2000/svg" viewBox="0 0 95.17 97.46"><title>pinch</title><g id="Layer_2" data-name="Layer 2"><g id="Layer_1-2" data-name="Layer 1"><g id="Symbols"><g id="Regular-M"><path d="M8.79,43.8h27.1c5,0,7.86-2.93,7.86-7.91v-27A4.43,4.43,0,0,0,39.26,4.3a4.36,4.36,0,0,0-4.45,4.54v4.1l1,17L23,16.45,8,1.32A4.24,4.24,0,0,0,4.83,0,4.53,4.53,0,0,0,0,4.59,4.77,4.77,0,0,0,1.37,8l15,15L29.93,35.84l-17-1H8.79a4.47,4.47,0,1,0,0,8.94ZM55.62,93.36a4.33,4.33,0,0,0,4.44-4.54V84.18l-1-17L71.92,80.71,87.26,96.14a4.16,4.16,0,0,0,3.12,1.32,4.52,4.52,0,0,0,4.79-4.59,4.72,4.72,0,0,0-1.32-3.37L78.47,74.12,64.89,61.28l17.09,1h4.64a4.45,4.45,0,1,0,0-8.89H59c-5,0-7.86,2.88-7.86,7.86V88.82A4.38,4.38,0,0,0,55.62,93.36Z"/></g></g></g></g></svg>