<svg xmlns="http://www.w3.org/2000/svg" viewBox="0 0 99.61 99.61"><title>plus</title><g id="Layer_2" data-name="Layer 2"><g id="Layer_1-2" data-name="Layer 1"><g id="Symbols"><g id="Regular-M"><path d="M49.8,99.61A50.15,50.15,0,0,0,99.61,49.8C99.61,22.61,77,0,49.76,0S0,22.61,0,49.8A50.18,50.18,0,0,0,49.8,99.61Zm-.09-25.49c-2.79,0-4.25-2-4.25-4.83V54.1h-16c-2.88,0-4.88-1.51-4.88-4.2s1.9-4.34,4.88-4.34h16V29.39c0-2.83,1.46-4.83,4.25-4.83s4.34,1.9,4.34,4.83V45.56H70.12c3,0,4.83,1.56,4.83,4.34s-2,4.2-4.83,4.2H54.05V69.29C54.05,72.22,52.44,74.12,49.71,74.12Z"/></g></g></g></g></svg>