<svg xmlns="http://www.w3.org/2000/svg" viewBox="0 0 32 32"><path d="M16 18.5c-1.378 0-2.5.594-2.5 2 0 .854.435 4.002.579 5.754C14.173 27.384 14.73 28 16 28c1.271 0 1.828-.615 1.921-1.745.145-1.745.579-4.883.579-5.755 0-1.438-1.122-2-2.5-2m0-6a2.503 2.503 0 0 0-2.5 2.5c0 1.379 1.122 2.5 2.5 2.5s2.5-1.121 2.5-2.5-1.122-2.5-2.5-2.5m4.034 7.012a1 1 0 0 0 1.408-.136A6.892 6.892 0 0 0 23 15c0-3.86-3.14-7-7-7s-7 3.14-7 7c0 1.595.556 3.154 1.565 4.392a.999.999 0 1 0 1.55-1.264A4.966 4.966 0 0 1 11 15c0-2.757 2.243-5 5-5s5 2.243 5 5a4.822 4.822 0 0 1-1.102 3.104 1 1 0 0 0 .136 1.408M27 15c0 4.053-2.208 7.749-5.769 9.665a.996.996 0 0 1-1.541-.835v-.01c0-.371.205-.711.533-.884A8.955 8.955 0 0 0 25 15c0-4.962-4.038-9-9-9s-9 4.038-9 9a8.972 8.972 0 0 0 4.769 7.937 1 1 0 1 1-.938 1.766A10.966 10.966 0 0 1 5 15C5 8.935 9.935 4 16 4s11 4.935 11 11"/></svg>