<?xml version="1.0" encoding="utf-8"?>
<!-- Generator: Adobe Illustrator 23.0.1, SVG Export Plug-In . SVG Version: 6.00 Build 0)  -->
<svg version="1.1" id="Layer_1" xmlns="http://www.w3.org/2000/svg" xmlns:xlink="http://www.w3.org/1999/xlink" x="0px" y="0px"
	 viewBox="0 0 1000 1000" style="enable-background:new 0 0 1000 1000;" xml:space="preserve">
<path d="M597.9,104.5c0-27-9.6-50.2-28.9-69.5S526.5,6.1,499.5,6.1s-50.2,9.6-69.5,28.9s-28.9,42.4-28.9,69.5
	c0,27.7,9.6,51.1,28.9,70.4s42.4,28.9,69.5,28.9s50.2-9.6,69.5-28.9S597.9,132.1,597.9,104.5z M351,441.2c-5.1,0-9.6-1.9-13.5-5.8
	c-3.9-3.9-5.8-8.7-5.8-14.5v-79.1c0-27,9.6-50.2,28.9-69.5s42.4-28.9,69.5-28.9H569c27,0,50.2,9.6,69.5,28.9s28.9,42.4,28.9,69.5
	v79.1c0,5.8-1.9,10.6-5.8,14.5c-3.9,3.9-8.4,5.8-13.5,5.8H351z M758.1,470.1c10.9,0.6,20.1,4.8,27.5,12.5c7.4,7.7,11.1,16.7,11.1,27
	c0,7.1-1.6,13.2-4.8,18.3l-47.3,98.4c-7.7,14.1-19,21.5-33.8,22.2H288.3c-7.1-0.6-13.7-2.9-19.8-6.8s-10.8-9-14-15.4L207.2,528
	c-2.6-4.5-3.9-10.6-3.9-18.3c0-10.3,3.7-19.3,11.1-27c7.4-7.7,16.2-11.9,26.5-12.5H758.1z M407.9,914.8L407.9,914.8
	c-9,0-17-3.1-24.1-9.2c-7.1-6.1-11.3-13.7-12.5-22.7l-29.9-157.2v-5.8c-0.6-0.6-1-2.3-1-4.8c0-10.3,3.5-19.1,10.6-26.5
	s15.8-11.1,26-11.1h1h243.1c10.3,0,19,3.7,26,11.1s10.6,16.2,10.6,26.5v4.8c-0.6,1.3-1,2.9-1,4.8L626.9,883
	c-1.3,9-5.3,16.6-12.1,22.7c-6.8,6.1-14.6,9.2-23.6,9.2H407.9z M680.9,960.2c3.2,4.5,4.8,9.3,4.8,14.5c0,5.1-1.8,9.6-5.3,13.5
	s-8.2,5.8-14,5.8H330.7c-5.8,0-10.5-1.9-14-5.8s-5.3-8.4-5.3-13.5c0-5.1,1.6-10,4.8-14.5l20.3-19.3c3.9-3.9,8.4-5.8,13.5-5.8h298.1
	c5.8,0,10.6,1.9,14.5,5.8L680.9,960.2z"/>
</svg>
