<?xml version="1.0" encoding="utf-8"?>
<!-- Generator: Adobe Illustrator 23.0.1, SVG Export Plug-In . SVG Version: 6.00 Build 0)  -->
<svg version="1.1" id="Layer_1" xmlns="http://www.w3.org/2000/svg" xmlns:xlink="http://www.w3.org/1999/xlink" x="0px" y="0px"
	 viewBox="0 0 1000 1000" style="enable-background:new 0 0 1000 1000;" xml:space="preserve">
<path d="M207,928V827c38.7-14.7,72-39.8,100-75.5S349.7,676,351,632c0.7-16.7,0-35-2-55H222V449h100c-6-30-9.7-65.7-11-107
	c2-83.3,28.8-148.8,80.5-196.5S513.3,73.3,602,72c33.3,0.7,63,3.8,89,9.5s47,12.8,63,21.5l-31,147c-26-15.3-63-23.3-111-24
	c-45.3,1.3-76.7,14-94,38c-18,24.7-27,56-27,94c0,24.7,4.3,55,13,91h186v128H529c3.3,78.7-22,143.3-76,194v2h340v155H207z"/>
</svg>
