<svg xmlns="http://www.w3.org/2000/svg" viewBox="0 0 97.07 101.12"><title>power</title><g id="Layer_2" data-name="Layer 2"><g id="Layer_1-2" data-name="Layer 1"><g id="Symbols"><g id="Regular-M"><path d="M48.54,52.15a3.87,3.87,0,0,0,4-4.15V4.15a3.94,3.94,0,1,0-7.86,0V48A3.84,3.84,0,0,0,48.54,52.15Zm0,49c26.51,0,48.53-22,48.53-48.48a48.28,48.28,0,0,0-16.7-36.38,4,4,0,1,0-5.22,6.15,40.19,40.19,0,1,1-53.23,0c4.64-4.05-1.22-9.76-5.22-6.15A48.28,48.28,0,0,0,0,52.64C0,79.15,22,101.12,48.54,101.12Z"/></g></g></g></g></svg>