<svg xmlns="http://www.w3.org/2000/svg" viewBox="0 0 109.72 104.83"><title>Regular-M</title><g id="Layer_2" data-name="Layer 2"><g id="Layer_1-2" data-name="Layer 1"><g id="Regular-M"><path d="M19.34,11.28h71v-.83C90.38,3.22,84.77,0,76.86,0h-44C25.29,0,19.34,3.22,19.34,10.45ZM14.5,86.18h3.42v9.38c0,6.49,3.12,9.27,9.33,9.27H82.47c6.15,0,9.33-2.78,9.33-9.27V86.18h3.37c9.52,0,14.55-4.78,14.55-14.3V32.13c0-9.52-5-14.36-14.55-14.36H14.5c-9,0-14.5,4.84-14.5,14.36V71.88C0,81.4,5,86.18,14.5,86.18ZM29.69,97.51c-2.64,0-3.91-1.27-3.91-3.91V55.37c0-2.59,1.27-3.86,3.91-3.86H80.08c2.59,0,3.86,1.27,3.86,3.86V93.6c0,2.64-1.27,3.91-3.86,3.91Zm8.49-28.42H71.63a3,3,0,0,0,0-6H38.18a3,3,0,1,0,0,6Zm0,17H71.63a2.89,2.89,0,0,0,3-2.93,3,3,0,0,0-3-3.07H38.18a3,3,0,0,0-3.07,3.07A2.94,2.94,0,0,0,38.18,86.13Z"/></g></g></g></svg>