<?xml version="1.0" encoding="utf-8"?>
<!-- Generator: Adobe Illustrator 23.0.1, SVG Export Plug-In . SVG Version: 6.00 Build 0)  -->
<svg version="1.1" id="Layer_1" xmlns="http://www.w3.org/2000/svg" xmlns:xlink="http://www.w3.org/1999/xlink" x="0px" y="0px"
	 viewBox="0 0 1073 1073" style="enable-background:new 0 0 1073 1073;" xml:space="preserve">
<path d="M947.4,516.2c-28.7,7-52.7,22.5-72.1,46.5s-29.1,51.2-29.1,81.4c0,35.7,12.6,66.1,37.8,91.3c25.2,25.2,55.6,38.2,91.3,38.9
	h1.2c29.5,0,55.8-9.3,79.1-27.9l4.7-2.3l2.3-1.2c3.1,0,5.6,1.2,7.6,3.5c1.9,2.3,2.9,4.7,2.9,7l0,0v1.2v269.7
	c0,13.2-4.7,24.4-14,33.7c-9.3,9.3-20.5,14-33.7,14h-272c-3.1,0-5.6-1-7.6-2.9c-1.9-1.9-2.9-4.5-2.9-7.6v-3.5l1.2-2.3
	c14.7-20.9,22.1-44.6,22.1-70.9c0-35.7-12.8-66.3-38.4-91.8c-25.6-25.6-56.2-38.4-91.8-38.4s-66.1,12.8-91.3,38.4
	c-25.2,25.6-37.8,56.2-37.8,91.8c0,27.1,7,50.8,20.9,70.9c1.6,1.6,2.3,3.5,2.3,5.8c0,3.1-1.2,5.6-3.5,7.6c-2.3,1.9-4.7,2.9-7,2.9
	H268.5c-13.2,0-24.4-4.7-33.7-14c-9.3-9.3-14-20.5-14-33.7V771.9v-1.2c0-3.1-1.4-5.8-4.1-8.1s-5.6-3.5-8.7-3.5h-3.5l-2.3,1.2
	c-20.2,14-44.2,20.9-72.1,20.9c-35.7,0-66.3-12.6-91.8-37.8C12.8,718.2,0,687.4,0,651c0-35.7,12.8-66.3,38.4-91.8
	s56.2-38.4,91.8-38.4c26.4,0,50,7.4,70.9,22.1c4.7,1.6,7.4,2.3,8.1,2.3c3.1,0,5.8-1.2,8.1-3.5s3.5-5.4,3.5-9.3V262.7
	c0-13.2,4.7-24.4,14-33.7c9.3-9.3,20.5-14,33.7-14h259.2l0,0c3.1,0,5.8-1.2,8.1-3.5c2.3-2.3,3.5-5.4,3.5-9.3v-3.5l-1.2-2.3
	c-11.6-20.9-17.4-43-17.4-66.3c0-35.7,12.6-66.1,37.8-91.3c25.2-25.2,55.6-37.8,91.3-37.8c35.7,0,66.1,12.6,91.3,37.8
	c25.2,25.2,37.8,55.6,37.8,91.3c0,23.3-5.8,45.3-17.4,66.3c-1.5,1.6-2.3,3.5-2.3,5.8c0,3.9,1.4,7,4.1,9.3c2.7,2.3,5.6,3.5,8.7,3.5
	l0,0h253.4c13.2,0,24.4,4.7,33.7,14c9.3,9.3,14,20.5,14,33.7v269.7l0,0v1.2c0,2.3-1,4.7-2.9,7c-1.9,2.3-4.5,3.5-7.6,3.5
	c-2.3,0-4.7-1.2-7-3.5c-23.3-18.6-50-27.9-80.2-27.9c-1.5,0-10.5,1.2-26.7,3.5H947.4z"/>
</svg>
