<svg xmlns="http://www.w3.org/2000/svg" viewBox="0 0 89.89 89.89"><title>QR</title><g id="Layer_2" data-name="Layer 2"><g id="Layer_1-2" data-name="Layer 1"><g id="Symbols"><g id="Regular-M"><path d="M58.35,40.92H80.57c6.2,0,9.32-3.13,9.32-9.57V9.52C89.89,3.08,86.77,0,80.57,0H58.35C52.1,0,49,3.08,49,9.52V31.35C49,37.79,52.1,40.92,58.35,40.92Zm-49,0H31.59c6.2,0,9.33-3.13,9.33-9.57V9.52C40.92,3.08,37.79,0,31.59,0H9.33C3.12,0,0,3.08,0,9.52V31.35C0,37.79,3.12,40.92,9.33,40.92ZM9.42,34c-1.71,0-2.54-.88-2.54-2.68V9.52c0-1.76.83-2.64,2.54-2.64h22A2.32,2.32,0,0,1,34,9.52V31.35c0,1.8-.88,2.68-2.58,2.68Zm49,0c-1.76,0-2.59-.88-2.59-2.68V9.52c0-1.76.83-2.64,2.59-2.64h22c1.71,0,2.54.88,2.54,2.64V31.35c0,1.8-.83,2.68-2.54,2.68ZM16.26,25.59h8.35c.68,0,1-.3,1-1.13v-8.1c0-.78-.3-1.08-1-1.08H16.26c-.73,0-1,.3-1,1.08v8.1C15.28,25.29,15.53,25.59,16.26,25.59Zm49.27,0h8.35c.73,0,1-.3,1-1.13v-8.1c0-.78-.29-1.08-1-1.08H65.53c-.69,0-.93.3-.93,1.08v8.1C64.6,25.29,64.84,25.59,65.53,25.59ZM9.33,89.89H31.59c6.2,0,9.33-3.07,9.33-9.52V58.5c0-6.4-3.13-9.53-9.33-9.53H9.33C3.12,49,0,52.1,0,58.5V80.37C0,86.82,3.12,89.89,9.33,89.89Zm43-28.27h8.35c.69,0,1-.29,1-1.12V52.39c0-.78-.29-1.07-1-1.07H52.29c-.73,0-1,.29-1,1.07V60.5C51.32,61.33,51.56,61.62,52.29,61.62Zm25.93,0h8.35c.69,0,1-.29,1-1.12V52.39c0-.78-.29-1.07-1-1.07H78.22c-.73,0-1,.29-1,1.07V60.5C77.25,61.33,77.49,61.62,78.22,61.62ZM9.42,83c-1.71,0-2.54-.88-2.54-2.64V58.54c0-1.8.83-2.68,2.54-2.68h22c1.7,0,2.58.88,2.58,2.68V80.37A2.32,2.32,0,0,1,31.45,83Zm6.84-8.4h8.35c.68,0,1-.29,1-1.17V65.38c0-.78-.3-1.07-1-1.07H16.26c-.73,0-1,.29-1,1.07v8.06C15.28,74.32,15.53,74.61,16.26,74.61Zm49.12,0h8.35c.68,0,1-.29,1-1.17V65.38c0-.78-.3-1.07-1-1.07H65.38c-.73,0-1,.29-1,1.07v8.06C64.4,74.32,64.65,74.61,65.38,74.61ZM52.29,87.55h8.35c.69,0,1-.29,1-1.12V78.32c0-.78-.29-1.07-1-1.07H52.29c-.73,0-1,.29-1,1.07v8.11C51.32,87.26,51.56,87.55,52.29,87.55Zm25.93,0h8.35c.69,0,1-.29,1-1.12V78.32c0-.78-.29-1.07-1-1.07H78.22c-.73,0-1,.29-1,1.07v8.11C77.25,87.26,77.49,87.55,78.22,87.55Z"/></g></g></g></g></svg>