<svg xmlns="http://www.w3.org/2000/svg" viewBox="0 0 99.61 99.61"><title>question</title><g id="Layer_2" data-name="Layer 2"><g id="Layer_1-2" data-name="Layer 1"><g id="Symbols"><g id="Regular-M"><path d="M49.8,99.61A50.15,50.15,0,0,0,99.61,49.8C99.61,22.61,77,0,49.76,0S0,22.61,0,49.8A50.18,50.18,0,0,0,49.8,99.61ZM48.88,60.4c-2.64,0-4.1-1.37-4.1-4v-.69c0-5,2.73-7.76,6.39-10.3,4.54-3.08,6.69-4.83,6.69-8.35,0-3.86-3-6.49-7.71-6.49a8.36,8.36,0,0,0-7.57,4.49c-1.66,1.95-2.1,3.47-5,3.47A3.44,3.44,0,0,1,34,35a9,9,0,0,1,.39-2.54c1.32-4.74,7.23-8.84,16-8.84s16.31,4.54,16.31,13c0,6.15-3.57,9.08-8.5,12.45-3.56,2.39-5.27,4.15-5.27,7v.64C53,58.79,51.46,60.4,48.88,60.4ZM49,75.1a5.28,5.28,0,1,1,0-10.55A5.28,5.28,0,1,1,49,75.1Z"/></g></g></g></g></svg>