<svg xmlns="http://www.w3.org/2000/svg" viewBox="0 0 107.62 101.32"><title>quote</title><g id="Layer_2" data-name="Layer 2"><g id="Layer_1-2" data-name="Layer 1"><g id="Symbols"><g id="Regular-M"><path d="M29,101.32c1.91,0,3.32-1,5.62-3.13L52.25,82.08l33,0c14.55.05,22.37-8.06,22.37-22.36V22.36C107.62,8.06,99.8,0,85.25,0H22.36C7.81,0,0,8,0,22.36V59.77C0,74.12,7.81,82.13,22.36,82.08h2.3V96.29C24.66,99.32,26.22,101.32,29,101.32ZM30.22,38c0-5.91,4.55-10,10.45-10,6.45,0,10.79,5.12,10.79,11.81,0,12.55-10.05,18.51-15,18.51A2.34,2.34,0,0,1,34,56.05c0-1.17.49-1.95,2.4-2.49a14,14,0,0,0,8.79-7.47h-.44c-1.27,1.62-3.32,2-5.37,2C33.79,48.05,30.22,43.65,30.22,38Zm26.66,0c0-5.91,4.55-10,10.45-10,6.45,0,10.8,5.12,10.8,11.81,0,12.55-10.06,18.51-15,18.51a2.34,2.34,0,0,1-2.45-2.3c0-1.17.49-1.95,2.4-2.49a14,14,0,0,0,8.79-7.47h-.44c-1.27,1.62-3.32,2-5.37,2C60.45,48.05,56.88,43.65,56.88,38Z"/></g></g></g></g></svg>