<svg xmlns="http://www.w3.org/2000/svg" viewBox="0 0 76.07 95.44"><title>radio</title><g id="Layer_2" data-name="Layer 2"><g id="Layer_1-2" data-name="Layer 1"><g id="Symbols"><g id="Regular-M"><path d="M51.76,94.13a4.06,4.06,0,0,0,6.05-.1A66.68,66.68,0,0,0,76.07,47.74c0-17.82-6.59-34.28-18.26-46.34a4.06,4.06,0,0,0-6.05-.09c-1.52,1.71-1.17,4.1.58,5.95,10.21,10.5,15.78,24.81,15.78,40.48A57.81,57.81,0,0,1,52.34,88.17C50.59,90,50.24,92.47,51.76,94.13Zm-14.11-13c1.56,1.81,4.29,1.81,6.2-.24A48.6,48.6,0,0,0,56.49,47.74,48.27,48.27,0,0,0,43.85,14.59c-1.91-2.1-4.64-2.1-6.2-.25s-1.08,4.06.68,6.06A39.83,39.83,0,0,1,48.54,47.74,40.51,40.51,0,0,1,38.33,75.09C36.57,77.09,36.08,79.33,37.65,81.14ZM24,67.22a4,4,0,0,0,6.25-.34A30.43,30.43,0,0,0,37,47.74,30.34,30.34,0,0,0,30.22,28.6,4,4,0,0,0,24,28.26c-1.56,1.76-.87,3.91.64,6.05A21.54,21.54,0,0,1,29,47.74a21.22,21.22,0,0,1-4.39,13.43C23.1,63.27,22.41,65.47,24,67.22ZM7.18,54.68a7.21,7.21,0,0,0,7.13-7.13,7.11,7.11,0,0,0-7.13-7.13,7.13,7.13,0,1,0,0,14.26Z"/></g></g></g></g></svg>