<svg xmlns="http://www.w3.org/2000/svg" viewBox="0 0 110.5 111.86"><title>Regular-M</title><g id="Layer_2" data-name="Layer 2"><g id="Layer_1-2" data-name="Layer 1"><g id="Regular-M"><path d="M22.46,73h60.6c15.52,0,27.44-11.72,27.44-26.71,0-15.19-12.5-26.56-29-26.42C75.2,7.28,63.72,0,50.2,0A35,35,0,0,0,15.62,32.42,20.61,20.61,0,0,0,0,52.59C0,64.7,9.08,73,22.46,73ZM62.6,96.39,69,85.4a2.89,2.89,0,0,0-1-4.05,2.84,2.84,0,0,0-4.05,1.12l-6.4,11.08a2.84,2.84,0,0,0,1.07,4A3,3,0,0,0,62.6,96.39Zm11.33,14,14.45-25a2.91,2.91,0,1,0-5-2.93L69,107.32a3,3,0,0,0,1.08,4.11A2.79,2.79,0,0,0,73.93,110.35ZM23.73,96.44l6.35-11a2.8,2.8,0,0,0-1-4A2.86,2.86,0,0,0,25,82.52L18.6,93.6a2.79,2.79,0,0,0,1.13,4A2.88,2.88,0,0,0,23.73,96.44Zm11.38,14,14.4-25a2.87,2.87,0,0,0-1-4,2.93,2.93,0,0,0-4.06,1.07l-14.3,24.9a3,3,0,0,0,1,4.1A2.82,2.82,0,0,0,35.11,110.4Z"/></g></g></g></svg>