<svg xmlns="http://www.w3.org/2000/svg" viewBox="0 0 106.01 105.96"><title>rays</title><g id="Layer_2" data-name="Layer 2"><g id="Layer_1-2" data-name="Layer 1"><g id="Symbols"><g id="Regular-M"><path d="M57.28,4.25a4.28,4.28,0,0,0-8.55,0v15a4.28,4.28,0,1,0,8.55,0ZM25.78,31.84a4.25,4.25,0,0,0,6-6L21.19,15.19a4.23,4.23,0,1,0-6,6Zm47.9-5.52a4.24,4.24,0,0,0,0,6,4.39,4.39,0,0,0,6.06,0L90.33,21.68a4.25,4.25,0,0,0-6-6.06Zm28,30.91a4.25,4.25,0,1,0,0-8.5h-15a4.25,4.25,0,0,0,0,8.5ZM4.25,48.73a4.25,4.25,0,0,0,0,8.5H19.38a4.25,4.25,0,1,0,0-8.5Zm75.49,24.9a4.41,4.41,0,0,0-6.06,0,4.25,4.25,0,0,0,0,6L84.37,90.33a4.38,4.38,0,0,0,6,0,4.3,4.3,0,0,0,0-6ZM15.62,84.28a4.37,4.37,0,0,0,0,6,4.44,4.44,0,0,0,6,0L32.28,79.69a4.23,4.23,0,0,0-6-6Zm41.66,2.39a4.28,4.28,0,1,0-8.55,0v15a4.28,4.28,0,0,0,8.55,0Z"/></g></g></g></g></svg>