<?xml version="1.0" encoding="utf-8"?>
<!-- Generator: Adobe Illustrator 23.0.1, SVG Export Plug-In . SVG Version: 6.00 Build 0)  -->
<svg version="1.1" id="Layer_1" xmlns="http://www.w3.org/2000/svg" xmlns:xlink="http://www.w3.org/1999/xlink" x="0px" y="0px"
	 viewBox="0 0 1000 1000" style="enable-background:new 0 0 1000 1000;" xml:space="preserve">
<path d="M718.6,330.2L522,313.6c-7.2-1.3-10.8-4.9-10.8-10.8v-1v-1c0-4.6,1.6-7.5,4.9-8.8l37.2-18.6L503.4,161
	c-25.4-58-51.2-98.5-77.3-121.3C405.9,26,385.1,15.9,363.5,9.4H613c52.8,0,88,18.9,105.7,56.7l40.1,85.1l44-21.5c2,0,3.8-0.3,5.4-1
	c1.6-0.7,2.8-1.3,3.4-2c5.2,0,7.8,3.6,7.8,10.8c0,5.2-1.6,11.7-4.9,19.6L718.6,330.2z M342,376.2L164.9,235.3l92.9-137.9
	c5.2-7.2,12.1-12.9,20.5-17.1s17.3-6.4,26.4-6.4h5.9c0.7,0.7,2.3,1,4.9,1c47,3.3,88.4,56.4,124.2,159.5L342,376.2z M683.4,437.8
	L885,337.1l76.3,147.7c3.9,7.8,5.9,16.6,5.9,26.4c0,13-4.2,25.4-12.7,37.2c-17.6,32.6-60.3,48.9-128.2,48.9c-22.2,0-44-1.3-65.5-3.9
	l-78.3-155.5H683.4z M238.3,401.6l91,180c3.3,6.5,2.3,12.1-2.9,16.6c-1.3,1.3-3.3,2-5.9,2c-2,0-3.6-0.7-4.9-2l-35.2-22.5
	l-63.6,102.7c-28.7,39.1-48.3,83.8-58.7,134v3.9v4.9c0,17.6,2.9,38.2,8.8,61.6l-134-218.2c-16.3-27.4-24.5-52.2-24.5-74.3
	c0-17.6,4.9-34.2,14.7-49.9L71,460.3l-40.1-26.4l-6.8-5.9l-2-1c-2.6-3.9-0.7-7.8,5.9-11.7c4.6-3.3,10.4-5.5,17.6-6.8l192.7-8.8
	V401.6z M558.2,811.5L658,636.4c2.6-4.6,5.9-6.8,9.8-6.8c2,0,3.6,0.3,4.9,1c4.6,1.3,6.8,4.6,6.8,9.8l0,0v42.1l119.3,2
	c63.9,2,110.9-4.2,140.9-18.6c15.7-9.8,32.9-24.5,51.8-44L881,852.6c-23.5,48.9-55.8,73.4-96.8,73.4h-91v49.9v2c-0.7,0.7-1,2-1,3.9
	l1,2v2.9c-2,4.6-6.5,5.2-13.7,2c-6.5-3.9-11.1-8.2-13.7-12.7L557.2,811.5H558.2z M303.9,698.1c-43,64.6-64.6,116.4-64.6,155.5
	c0,15.7,3.6,29.7,10.8,42.1c15.7,24.1,32.9,36.2,51.8,36.2l180-3.9V697.1L303.9,698.1z"/>
</svg>
