<svg xmlns="http://www.w3.org/2000/svg" viewBox="0 0 105.27 89.6"><title>right</title><g id="Layer_2" data-name="Layer 2"><g id="Layer_1-2" data-name="Layer 1"><g id="Symbols"><g id="Regular-M"><path d="M57.52,89.6c2.39,0,4.25-1.07,6.74-3.17l38.52-36.38a7.39,7.39,0,0,0,2.49-5.23,7.41,7.41,0,0,0-2.49-5.27l-38.52-36C61.47,1.22,60,0,57.62,0a5.83,5.83,0,0,0-5.81,6V24.46H50.39C15.28,24.46,0,47,0,83.06c0,4.2,2.39,6.54,5,6.54A6.11,6.11,0,0,0,11,86c8.54-16,20.5-20.76,39.4-20.76h1.42V83.89A5.57,5.57,0,0,0,57.52,89.6Z"/></g></g></g></g></svg>