<?xml version="1.0" encoding="utf-8"?>
<!-- Generator: Adobe Illustrator 23.0.1, SVG Export Plug-In . SVG Version: 6.00 Build 0)  -->
<svg version="1.1" id="Layer_1" xmlns="http://www.w3.org/2000/svg" xmlns:xlink="http://www.w3.org/1999/xlink" x="0px" y="0px"
	 viewBox="0 0 1000 1000" style="enable-background:new 0 0 1000 1000;" xml:space="preserve">
<path d="M957.5,2.5c11.3,1.3,21,6.5,29,15.5s12,19.5,12,31.5v4v3c-18,137.3-56,255-114,353c-48.7,82.7-110.3,151.7-185,207l3,45v2v4
	c0,32-11.3,59.3-34,82l-70,70c-1.3,1.3-3.3,2-6,2c-4,0-6-1.3-6-4l-42-114c-31.3,12.7-65.7,23.3-103,32l-19,4l-161-162l5-23
	c8-34.7,17.7-66,29-94l-112-47c-3.3-1.3-5-3.7-5-7c0-1.3,1-3,3-5l69-70c22.7-22.7,50-34,82-34h3h3l45,3c57.3-76,126.3-137.7,207-185
	c100.7-60,218.3-97.7,353-113c0.7-0.7,2-1,4-1h3h4h3V2.5z M618.5,236.5c-20,20-30,44.3-30,73c0,28,10,52,30,72s44,30,72,30
	c28.7,0,53-10,73-30s30-44,30-72c0-28.7-10-53-30-73s-44.3-30-73-30C662.5,206.5,638.5,216.5,618.5,236.5z M32.5,828.5L32.5,828.5
	c8.7,0,16-3,22-9l164-164c6-6,9-13,9-21c0-8.7-3-16-9-22s-13.3-9-22-9s-16,3-22,9l-164,164c-6,6-9,13.3-9,22c0,8,3,15,9,21
	S23.8,828.5,32.5,828.5L32.5,828.5z M45.5,985.5h1c8,0,15-3,21-9l235-237c8-7.3,12-15.3,12-24s-3-16-9-22s-13.3-9-22-9
	c-4.7,0-9.2,1.2-13.5,3.5s-7.8,5.2-10.5,8.5l-236,236c-5.3,5.3-8,12.7-8,22c0,8.7,2.8,16,8.5,22S36.8,985.5,45.5,985.5z
	 M202.5,998.5L202.5,998.5c8.7,0,16-3,22-9l164-164c6-6,9-13.3,9-22s-3-16-9-22s-13.3-9-22-9s-16,3-22,9l-164,164c-6,6-9,13.3-9,22
	s3,16,9,22S193.8,998.5,202.5,998.5L202.5,998.5z"/>
</svg>
