<?xml version="1.0" encoding="utf-8"?>
<!-- Generator: Adobe Illustrator 23.0.1, SVG Export Plug-In . SVG Version: 6.00 Build 0)  -->
<svg version="1.1" id="Layer_1" xmlns="http://www.w3.org/2000/svg" xmlns:xlink="http://www.w3.org/1999/xlink" x="0px" y="0px"
	 viewBox="0 0 1000 1000" style="enable-background:new 0 0 1000 1000;" xml:space="preserve">
<path d="M778,182c-22.7,0-42-8-58-24s-24-35.3-24-58s8-42,24-58s35.3-24,58-24s42,8,58,24s24,35.3,24,58s-8,42-24,58
	S800.7,182,778,182z M935,366h2h1c12,0,22.5,4.3,31.5,13s13.5,19.3,13.5,32l0,0v1c0,12.7-4.5,23.5-13.5,32.5S949.7,458,937,458h-1
	H791l0,0h-1c-8,0-15.3-1.8-22-5.5s-12-8.5-16-14.5l-50-74l-97,162l118,96c10.7,9.3,16,20.7,16,34c0,3.3-0.3,6-1,8l-2,8L634,950
	c-3.3,8.7-9,15.8-17,21.5s-17,8.5-27,8.5l0,0h-1h-2c-4,0-8.7-0.7-14-2c-9.3-2.7-16.8-8-22.5-16s-8.5-17-8.5-27c0-7.3,1-12.7,3-16
	l87-238L468,572L352,709c-9.3,10.7-20,16.3-32,17L93,745h-4h-1c-12,0-22.5-4-31.5-12S42.3,715.3,41,704v-2v-1
	c0-12,4.2-22.5,12.5-31.5S72,655.7,84,655l207-17l44-59l194-263l49-67l-120-30L308,319c-8.7,5.3-17.7,8-27,8c-8,0-15.5-1.8-22.5-5.5
	S246,313,242,307c-5.3-8.7-8-17.3-8-26c0-16,6.7-29,20-39l168-114c8.7-5.3,17.7-8,27-8c2.7,0,6.7,0.7,12,2l34,8l74,20l75,20l35,9
	c1.3,1.3,3,2,5,2l2,1l2,2c0.7,0.7,1.7,1,3,1l1,2c1.3,1.3,2.7,2,4,2l3,2l2,3c0,0.7,0.7,1.7,2,3l1,2l112,167H935z"/>
</svg>
