<svg xmlns="http://www.w3.org/2000/svg" viewBox="0 0 125.15 95.12"><title>scissors</title><g id="Layer_2" data-name="Layer 2"><g id="Layer_1-2" data-name="Layer 1"><g id="Symbols"><g id="Regular-M"><path d="M19.63,39.55c9.13,0,10.59-3.76,14.65-3.76a6,6,0,0,1,2.83.78L45.36,41a22.07,22.07,0,0,1,2.49,1.46h.29c1.13-4.1,3-6.74,6.06-8.69v-.29L43.12,27.54c-3.47-1.86-3.76-3.37-3.76-7.72A19.68,19.68,0,1,0,0,19.82,19.62,19.62,0,0,0,19.63,39.55Zm0-8A11.71,11.71,0,0,1,8,19.82a11.7,11.7,0,1,1,23.39,0A11.78,11.78,0,0,1,19.63,31.59Zm0,63.53A19.7,19.7,0,0,0,39.36,75.29c0-4.05.19-5.66,3.17-7.27l82.62-43.9c-2-7.32-10-8.59-22.12-4.25l-41.7,15c-5.86,2.1-8.4,5-10,10.4l-1,3.57c-.73,2.54-1.85,3.81-5.71,5.76l-7.57,4a5.47,5.47,0,0,1-2.83.83c-4.1,0-5.57-3.8-14.65-3.8a19.75,19.75,0,0,0,0,39.5ZM62.4,49A4.08,4.08,0,1,1,66.6,45,4.1,4.1,0,0,1,62.4,49ZM103,75.39c12.25,4.54,20.11,3.08,22.12-4.44L85.4,50,65.23,60.55v.58ZM19.63,87.11A11.77,11.77,0,1,1,31.4,75.29,11.66,11.66,0,0,1,19.63,87.11Z"/></g></g></g></g></svg>