<?xml version="1.0" encoding="utf-8"?>
<!-- Generator: Adobe Illustrator 23.0.1, SVG Export Plug-In . SVG Version: 6.00 Build 0)  -->
<svg version="1.1" id="Layer_1" xmlns="http://www.w3.org/2000/svg" xmlns:xlink="http://www.w3.org/1999/xlink" x="0px" y="0px"
	 viewBox="0 0 1000 1000" style="enable-background:new 0 0 1000 1000;" xml:space="preserve">
<path d="M889,49.5c11.3,0,21,4,29,12s12,17.7,12,29v102c0,11.3-4,21-12,29s-17.7,12-29,12H111c-11.3,0-21-4-29-12s-12-17.7-12-29
	v-102c0-11.3,4-21,12-29s17.7-12,29-12H889z M162,192.5c14,0,26-5,36-15s15-22,15-36s-5-26-15-36s-22-15-36-15s-26,5-36,15
	s-15,22-15,36s5,26,15,36S148,192.5,162,192.5z M305,192.5c14.7,0,27-5,37-15s15-22,15-36s-5-26-15-36s-22.3-15-37-15
	c-14,0-26,5-36,15s-15,22-15,36s5,26,15,36S291,192.5,305,192.5z M449,192.5c14,0,26-5,36-15s15-22,15-36s-5-26-15-36s-22-15-36-15
	s-26,5-36,15s-15,22-15,36s5,26,15,36S435,192.5,449,192.5z M889,274.5c11.3,0,21,4,29,12s12,17.7,12,29v102c0,11.3-4,21-12,29
	s-17.7,12-29,12H111c-11.3,0-21-4-29-12s-12-17.7-12-29v-102c0-11.3,4-21,12-29s17.7-12,29-12H889z M162,417.5c14,0,26-5,36-15
	s15-22,15-36s-5-26-15-36s-22-15-36-15s-26,5-36,15s-15,22-15,36s5,26,15,36S148,417.5,162,417.5z M305,417.5c14.7,0,27-5,37-15
	s15-22,15-36s-5-26-15-36s-22.3-15-37-15c-14,0-26,5-36,15s-15,22-15,36s5,26,15,36S291,417.5,305,417.5z M449,417.5
	c14,0,26-5,36-15s15-22,15-36s-5-26-15-36s-22-15-36-15s-26,5-36,15s-15,22-15,36s5,26,15,36S435,417.5,449,417.5z M889,499.5
	c11.3,0,21,4,29,12s12,17.7,12,29v103c0,11.3-4,21-12,29s-17.7,12-29,12H531v87c12.7,4.7,23.8,11.8,33.5,21.5s16.8,20.8,21.5,33.5
	h231c8.7,0,16,3,22,9s9,13.3,9,22s-3,16-9,22s-13.3,9-22,9l-231,1c-6,18-16.8,32.7-32.5,44s-33.5,17-53.5,17s-37.8-5.8-53.5-17.5
	S420,906.5,414,888.5H183c-8.7,0-16-3-22-9s-9-13.3-9-22s3-16,9-22s13.3-9,22-9h231c4.7-12.7,11.8-23.8,21.5-33.5
	s20.8-16.8,33.5-21.5v-87H111c-11.3,0-21-4-29-12s-12-17.7-12-29v-103c0-11.3,4-21,12-29s17.7-12,29-12H889z M162,643.5
	c14,0,26-5,36-15s15-22,15-36c0-14.7-5-27-15-37s-22-15-36-15s-26,5-36,15s-15,22.3-15,37c0,14,5,26,15,36S148,643.5,162,643.5z
	 M305,643.5c14.7,0,27-5,37-15s15-22,15-36c0-14.7-5-27-15-37s-22.3-15-37-15c-14,0-26,5-36,15s-15,22.3-15,37c0,14,5,26,15,36
	S291,643.5,305,643.5z M449,643.5c14,0,26-5,36-15s15-22,15-36c0-14.7-5-27-15-37s-22-15-36-15s-26,5-36,15s-15,22.3-15,37
	c0,14,5,26,15,36S435,643.5,449,643.5z M500,888.5c8.7,0,16-3,22-9s9-13,9-21c0-8.7-3-16-9-22s-13.3-9-22-9c-8.7,0-16,3-22,9
	s-9,13.3-9,22c0,8,3,15,9,21S491.3,888.5,500,888.5z"/>
</svg>
