<?xml version="1.0" encoding="utf-8"?>
<!-- Generator: Adobe Illustrator 23.0.1, SVG Export Plug-In . SVG Version: 6.00 Build 0)  -->
<svg version="1.1" id="Layer_1" xmlns="http://www.w3.org/2000/svg" xmlns:xlink="http://www.w3.org/1999/xlink" x="0px" y="0px"
	 viewBox="0 0 1000 1000" style="enable-background:new 0 0 1000 1000;" xml:space="preserve">
<path d="M848,56.5c22.7,0,42,8,58,24s24,35.3,24,58v150H70v-150c0-22.7,8-42,24-58s35.3-24,58-24H848z M216,248.5c17.3,0,32-6,44-18
	s18-26.3,18-43c0-17.3-6-32-18-44s-26.7-18-44-18c-16.7,0-31,6-43,18s-18,26.7-18,44c0,16.7,6,31,18,43S199.3,248.5,216,248.5z
	 M423,248.5c16.7,0,31-6,43-18s18-26.3,18-43c0-17.3-6-32-18-44s-26.3-18-43-18c-17.3,0-32,6-44,18s-18,26.7-18,44
	c0,16.7,6,31,18,43S405.7,248.5,423,248.5z M930,554.5H70v-205h860V554.5z M216,517.5c17.3,0,32-6,44-18s18-26.3,18-43
	c0-17.3-6-32-18-44s-26.7-18-44-18c-16.7,0-31,6-43,18s-18,26.7-18,44c0,16.7,6,31,18,43S199.3,517.5,216,517.5z M930,616.5v157
	c0,22.7-8,42-24,58s-35.3,24-58,24h-42v58c0,8-3,15-9,21s-13.3,9-22,9c-8,0-15-3-21-9s-9-13-9-21v-58H255v58c0,8-3,15-9,21
	s-13,9-21,9c-8.7,0-16-3-22-9s-9-13-9-21v-58h-42c-22.7,0-42-8-58-24s-24-35.3-24-58v-157H930z M216,786.5c17.3,0,32-6,44-18
	s18-26.7,18-44c0-16.7-6-31-18-43s-26.7-18-44-18c-16.7,0-31,6-43,18s-18,26.3-18,43c0,17.3,6,32,18,44S199.3,786.5,216,786.5z
	 M423,786.5c16.7,0,31-6,43-18s18-26.7,18-44c0-16.7-6-31-18-43s-26.3-18-43-18c-17.3,0-32,6-44,18s-18,26.3-18,43
	c0,17.3,6,32,18,44S405.7,786.5,423,786.5z"/>
</svg>
