<?xml version="1.0" encoding="utf-8"?>
<!-- Generator: Adobe Illustrator 23.0.1, SVG Export Plug-In . SVG Version: 6.00 Build 0)  -->
<svg version="1.1" id="Layer_1" xmlns="http://www.w3.org/2000/svg" xmlns:xlink="http://www.w3.org/1999/xlink" x="0px" y="0px"
	 viewBox="0 0 1000 1000" style="enable-background:new 0 0 1000 1000;" xml:space="preserve">
<path d="M951.5,175.5c5.3,2,9.8,5.7,13.5,11s5.5,11.3,5.5,18c0,8.7-3,16-9,22s-13,9-21,9c-3.3,0-6.5-0.7-9.5-2s-4.8-2-5.5-2
	c-22-12.7-45.3-19-70-19s-46.3,5.3-65,16l97,97c12,12,21.2,25.5,27.5,40.5s9.5,30.5,9.5,46.5c0,33.3-12.3,62.3-37,87l-93,94
	l-420-420l93-94c24-24,53-36,87-36c17.3,0,33.5,3.2,48.5,9.5s27.8,15.2,38.5,26.5l104,105c33.3-22,70-33,110-33
	C889.5,151.5,921.5,159.5,951.5,175.5z M793.5,695.5c5.3,6.7,8,13.7,8,21c0,8.7-3,16-9,22s-13.3,9-22,9c-8,0-15-3-21-9l-521-521
	c-6-6-9-13.3-9-22c0-8,3-15,9-21s13.3-9,22-9c8,0,15,3,21,9L793.5,695.5z M88.5,758.5c-8.7,0-16-3-22-9s-9-13.3-9-22s3-16,9-22
	l255-257c6-6,13.3-9,22-9c8,0,15,3,21,9s9,13.3,9,22c0,10.7-3,18-9,22l-255,257C103.5,755.5,96.5,758.5,88.5,758.5L88.5,758.5z
	 M450.5,533.5c6,6,9,13.3,9,22c0,8.7-2.7,15.7-8,21l-369,370c-4.7,6.7-12,10-22,10c-8.7,0-16-3.2-22-9.5s-9-13.5-9-21.5
	c0-8.7,3-16,9-22l368-370c8.7-6,16-9,22-9C437.2,524.5,444.5,527.5,450.5,533.5z M491.5,618.5c6-6,13.3-9,22-9s16,3,22,9
	s9,13.3,9,22c0,8-3,15-9,21l-255,257c-6,6-13.3,9-22,9s-16-3-22-9s-9-13-9-21c0-8.7,3-16,9-22L491.5,618.5z"/>
</svg>
