<?xml version="1.0" encoding="utf-8"?>
<!-- Generator: Adobe Illustrator 23.0.1, SVG Export Plug-In . SVG Version: 6.00 Build 0)  -->
<svg version="1.1" id="Layer_1" xmlns="http://www.w3.org/2000/svg" xmlns:xlink="http://www.w3.org/1999/xlink" x="0px" y="0px"
	 viewBox="0 0 1000 1000" style="enable-background:new 0 0 1000 1000;" xml:space="preserve">
<path d="M890,39h1c10,0,18.8,3.5,26.5,10.5S929.7,65,931,75v164c-0.7,10.7-4.8,19.5-12.5,26.5S901.7,276,891,276l0,0h-1H277l0,0h-1
	c-11.3,0-20.7-3.3-28-10l-102-80c-4-2.7-7.3-6.3-10-11s-4-9.7-4-15c0-10,4.7-19,14-27l102-83c8.7-7.3,18.3-11,29-11l0,0H890z
	 M918,425c9.3,7.3,14,16.3,14,27s-4.3,19.7-13,27l-102,83c-7.3,6.7-17,10-29,10l0,0H175l0,0h-1c-10.7,0-19.8-3.5-27.5-10.5
	S134.7,546,134,536V372c0.7-10,4.8-18.5,12.5-25.5S163.3,336,174,336h1h612h1c9.3,0,18.7,3,28,9L918,425z M512,633c14,0,26,5,36,15
	s15,22.3,15,37v225c0,14-5,26-15,36s-22,15-36,15s-26-5-36-15s-15-22-15-36V685c0-14.7,5-27,15-37S498,633,512,633z"/>
</svg>
