<?xml version="1.0" encoding="utf-8"?>
<!-- Generator: Adobe Illustrator 23.0.1, SVG Export Plug-In . SVG Version: 6.00 Build 0)  -->
<svg version="1.1" id="Layer_1" xmlns="http://www.w3.org/2000/svg" xmlns:xlink="http://www.w3.org/1999/xlink" x="0px" y="0px"
	 viewBox="0 0 1000 1000" style="enable-background:new 0 0 1000 1000;" xml:space="preserve">
<path d="M528,172c-21.3-1.3-39.5-9.8-54.5-25.5S450.7,112,450,90c0.7-22.7,9-41.8,25-57.5S510.7,8.7,534,8c22,1.3,40.7,9.8,56,25.5
	S613,68,613,90c0,22.7-8,42-24,58s-35.3,24-58,24h-1h-1H528z M244,915c-8-4-14.3-9.7-19-17s-7-15.3-7-24c0-7.3,1.3-13.3,4-18
	l136-324l-82-18c-5.3-1.3-9.8-4.2-13.5-8.5S257,496,257,490v-2v-2l59-266c3.3-11.3,11-17,23-17h4h2l95,21c3.3,0.7,5,1,5,1l4,2
	c4.7-8,11.2-14.3,19.5-19s17.5-7,27.5-7c9.3,0,16.3,1.3,21,4l327,180c6,3.3,10.7,8,14,14s5,12,5,18c0,6.7-1.7,12.7-5,18
	c-4,8-11.7,14-23,18l-94,449c-1.3,4.7-3.8,8.5-7.5,11.5s-7.8,4.5-12.5,4.5l0,0h-1h-4c-4.7-0.7-8.7-2.8-12-6.5s-5-8.2-5-13.5
	c0-1.3,0.3-2.3,1-3v-2l95-449L554,343l-43,168l125,125c9.3,10.7,14,22.3,14,35l0,0v199c0,13.3-4.8,24.8-14.5,34.5S614.3,919,601,919
	s-24.7-4.8-34-14.5s-14-21.2-14-34.5V695l-119-96L303,893c-3.3,8-8.7,14.5-16,19.5s-15.3,7.5-24,7.5C255.7,920,249.3,918.3,244,915z
	 M946,858c8,0,15,3,21,9s9,13.3,9,22c0,28.7-10,53-30,73s-44,30-72,30H55c-8.7,0-16-3-22-9s-9-13.3-9-22s3-16,9-22s13.3-9,22-9h819
	c11.3,0,21-4,29-12s12-17.7,12-29c0-8.7,3-16,9-22S937.3,858,946,858z"/>
</svg>
