<svg xmlns="http://www.w3.org/2000/svg" viewBox="0 0 134.47 76.71"><title>skip-forwards</title><g id="Layer_2" data-name="Layer 2"><g id="Layer_1-2" data-name="Layer 1"><g id="Symbols"><g id="Regular-M"><path d="M7,76.71a10.52,10.52,0,0,0,5.62-1.81L62.4,45.61c2.69-1.57,4.15-3.32,4.69-5.38V68.36c0,5.42,3.22,8.35,7,8.35a10.52,10.52,0,0,0,5.62-1.81l49.8-29.29c3.42-2.06,4.93-4.45,4.93-7.28s-1.51-5.18-4.93-7.23L79.74,1.81A10.43,10.43,0,0,0,74.12,0c-3.81,0-7,2.93-7,8.35V36.47c-.54-2-2-3.8-4.69-5.37L12.65,1.81A10.56,10.56,0,0,0,7,0C3.22,0,0,2.93,0,8.35v60C0,73.78,3.22,76.71,7,76.71Z"/></g></g></g></g></svg>