<?xml version="1.0" encoding="utf-8"?>
<!-- Generator: Adobe Illustrator 23.0.1, SVG Export Plug-In . SVG Version: 6.00 Build 0)  -->
<svg version="1.1" id="Layer_1" xmlns="http://www.w3.org/2000/svg" xmlns:xlink="http://www.w3.org/1999/xlink" x="0px" y="0px"
	 viewBox="0 0 1000 1000" style="enable-background:new 0 0 1000 1000;" xml:space="preserve">
<path d="M944,686c24.7-58.7,37-120.7,37-186s-12.3-127.3-37-186s-59-110-103-154c-44.7-44.7-96.3-79.3-155-104S565.3,19,500,19
	S372.7,31.3,314,56s-110,59.3-154,104c-44.7,44-79.3,95.3-104,154S19,434.7,19,500s12.3,127.3,37,186s59.3,110.3,104,155
	c44,44,95.3,78.3,154,103s120.7,37,186,37s127.3-12.3,186-37s110.3-59,155-103C885,796.3,919.3,744.7,944,686z M705,621
	c0,8.7-3,16-9,22s-13.3,9-22,9c-6.7,0-12.7-1.7-18-5L494,529c-9.3-7.3-14-16.7-14-28v118c0,8.7-3.2,16.2-9.5,22.5S456.7,651,448,651
	c-6,0-11.7-1.7-17-5l-77-57l-86-61c-9.3-8-14-17.7-14-29s4.7-21,14-29l163-118c5.3-3.3,11-5,17-5c8.7,0,16.2,3,22.5,9
	s9.5,13.3,9.5,22v2v1v109c2-8,6.7-14.7,14-20l162-118c5.3-3.3,11.3-5,18-5c8.7,0,16,3,22,9s9,13.3,9,22v2v1v237v2V621z M480,500v-10
	c-0.7,2-1,4.7-1,8L480,500z"/>
</svg>
