<svg xmlns="http://www.w3.org/2000/svg" viewBox="0 0 98.39 83.15"><title>slider</title><g id="Layer_2" data-name="Layer 2"><g id="Layer_1-2" data-name="Layer 1"><g id="Symbols"><g id="Regular-M"><path d="M66.7,23.49a11.81,11.81,0,0,0,11-7.77h16.9a3.9,3.9,0,0,0,3.76-4,3.86,3.86,0,0,0-3.76-3.91H77.73a11.7,11.7,0,0,0-22.11,0H3.91A3.86,3.86,0,0,0,0,11.77a3.9,3.9,0,0,0,3.91,4H55.66A11.79,11.79,0,0,0,66.7,23.49Zm0-6A5.67,5.67,0,0,1,61,11.72a5.71,5.71,0,1,1,11.42,0A5.67,5.67,0,0,1,66.7,17.48Zm-63,20.17a3.94,3.94,0,0,0,0,7.86H21.19a11.71,11.71,0,0,0,22.12,0H94.43a3.93,3.93,0,1,0,0-7.86H43.26a11.72,11.72,0,0,0-22.07,0Zm28.52,9.66a5.71,5.71,0,1,1,0-11.42,5.71,5.71,0,0,1,0,11.42ZM66.7,83.15a11.73,11.73,0,0,0,11-7.81h16.9a3.86,3.86,0,0,0,3.76-3.9,3.91,3.91,0,0,0-3.76-4H77.73a11.73,11.73,0,0,0-22.07,0H3.91a3.9,3.9,0,0,0-3.91,4,3.86,3.86,0,0,0,3.91,3.9H55.62A11.85,11.85,0,0,0,66.7,83.15Zm0-6A5.66,5.66,0,0,1,61,71.44a5.71,5.71,0,1,1,11.42,0A5.66,5.66,0,0,1,66.7,77.15Z"/></g></g></g></g></svg>