<svg xmlns="http://www.w3.org/2000/svg" viewBox="0 0 99.61 99.61"><title>smiley</title><g id="Layer_2" data-name="Layer 2"><g id="Layer_1-2" data-name="Layer 1"><g id="Symbols"><g id="Regular-M"><path d="M49.8,99.61A50.15,50.15,0,0,0,99.61,49.8C99.61,22.61,77,0,49.76,0S0,22.61,0,49.8A50.18,50.18,0,0,0,49.8,99.61Zm0-8.3A41.51,41.51,0,1,1,91.31,49.8,41.31,41.31,0,0,1,49.8,91.31ZM35.64,45.36c2.89,0,5.28-2.54,5.28-6.1s-2.39-6.11-5.28-6.11-5.22,2.54-5.22,6.11S32.76,45.36,35.64,45.36Zm28.52,0c2.88,0,5.27-2.54,5.27-6.1S67,33.15,64.16,33.15s-5.22,2.54-5.22,6.11S61.33,45.36,64.16,45.36Zm-14.36,28C61.62,73.34,69,65,69,61.82c0-.64-.49-.93-1-.54-3.52,3-9.57,5.91-18.17,5.91S35,64.06,31.64,61.33c-.54-.44-1-.15-1,.49C30.66,65,38,73.34,49.8,73.34Z"/></g></g></g></g></svg>