<svg xmlns="http://www.w3.org/2000/svg" viewBox="0 0 72.34 82.52"><title>Regular-M</title><g id="Layer_2" data-name="Layer 2"><g id="Layer_1-2" data-name="Layer 1"><g id="Regular-M"><path d="M14.9,69.53a2.76,2.76,0,0,0,2.59-3l0-11.08,4.49-2.59,12.21-8-.83,14.59v5.18L23.64,70a2.73,2.73,0,0,0-1.32,3.76c.88,1.51,2.44,1.71,4,.83l7-4v8.83a2.89,2.89,0,1,0,5.76,0V70.61l7,4c1.51.88,3.08.68,3.91-.78A2.72,2.72,0,0,0,48.69,70l-9.62-5.47V59.37l-.88-14.59,12.21,8,4.54,2.59-.1,11.13a2.76,2.76,0,0,0,2.59,3c1.76,0,2.68-1.32,2.68-3l0-8,7.67,4.44a2.77,2.77,0,0,0,4-1,2.82,2.82,0,0,0-1.17-4L63,53.42l7-4.05c1.51-.88,2.14-2.35,1.26-3.81a2.69,2.69,0,0,0-3.9-.78l-9.62,5.61L53.28,47.8l-13-6.54,13.09-6.54,4.49-2.64,9.57,5.62a2.71,2.71,0,0,0,3.9-.74c.88-1.51.25-3-1.26-3.85l-7-4.06,7.67-4.39a2.9,2.9,0,1,0-2.88-5l-7.67,4.44,0-8.1c0-1.71-.92-3-2.63-3a2.72,2.72,0,0,0-2.64,3l.1,11.13L50.4,29.69l-12.21,8,.88-14.6V17.92l9.62-5.47A2.67,2.67,0,0,0,50,8.69c-.83-1.51-2.4-1.71-3.91-.83l-7,4V3a2.77,2.77,0,0,0-2.93-3,2.74,2.74,0,0,0-2.83,3v8.84l-7-4c-1.52-.83-3.08-.68-4,.83a2.73,2.73,0,0,0,1.32,3.76l9.67,5.47V23.1l.83,14.64-12.21-8-4.54-2.64L17.49,16a2.72,2.72,0,0,0-2.59-3c-1.76,0-2.69,1.27-2.69,3l-.1,8L4.5,19.63a2.82,2.82,0,0,0-4,1,2.81,2.81,0,0,0,1.17,4.05l7.61,4.39L2.3,33.11C.79,34,.15,35.4,1,37c.68,1.27,2.39,1.66,4,.74l9.57-5.57L19,34.72l13.09,6.54-13,6.54-4.54,2.59L4.94,44.78a2.64,2.64,0,0,0-3.86.73c-.88,1.56-.29,3,1.22,3.86l7,4.05L1.62,57.86a2.81,2.81,0,0,0-1.17,4,2.82,2.82,0,0,0,4.05,1l7.66-4.44.05,8C12.21,68.21,13.09,69.53,14.9,69.53Z"/></g></g></g></svg>