<?xml version="1.0" encoding="utf-8"?>
<!-- Generator: Adobe Illustrator 23.0.1, SVG Export Plug-In . SVG Version: 6.00 Build 0)  -->
<svg version="1.1" id="Layer_1" xmlns="http://www.w3.org/2000/svg" xmlns:xlink="http://www.w3.org/1999/xlink" x="0px" y="0px"
	 viewBox="0 0 1000 1000" style="enable-background:new 0 0 1000 1000;" xml:space="preserve">
<path d="M757.1,362.1l-179.6,88.3l118.7,105c11.1,9.2,16.7,21.6,16.7,37.3v1v2l0,0v1v1v1l-27.5,222.7c-3.3,13.7-9.8,24.2-19.6,31.4
	l161.9,63.8c8.5,3.3,16.4,4.9,23.5,4.9c9.8,0,18.6-2,26.5-5.9c20.3-9.2,34.7-24.9,43.2-47.1c2.6-5.2,6.4-9.5,11.3-12.8
	c4.9-3.3,10.3-4.9,16.2-4.9c8.5,0,15.7,2.9,21.6,8.8c5.9,5.9,8.8,13.1,8.8,21.6c0,2-0.7,5.6-2,10.8c-15.7,37.3-40.6,63.8-74.6,79.5
	c-16.4,7.2-33.7,10.8-52,10.8l0,0c-14.4,0-29.1-2.9-44.2-8.8L85.9,687.9c-23.5-10.5-42.7-26.8-57.4-49.1S6.5,592.1,6.5,565.2
	c0-19.6,3.9-37.6,11.8-54c2-5.2,5.4-9.5,10.3-12.8c4.9-3.3,10.6-4.9,17.2-4.9c8.5,0,15.7,2.9,21.6,8.8c5.9,5.9,8.8,13.1,8.8,21.6
	c0,2.6-0.7,5.9-2,9.8c-4.6,8.5-6.9,19-6.9,31.4c0,15,3.8,28.5,11.3,40.2c7.5,11.8,17.5,20.6,29.9,26.5l80.5,32.4v-2v-2
	c0.7-9.8,3.8-18.8,9.3-27c5.6-8.2,12.6-14.2,21.1-18.2l152.1-66.7l-1-149.1c2-13.7,6.7-26,14.2-36.8c7.5-10.8,17.2-19.5,28.9-26
	l163.9-83.4L477.4,214c-6.5-2.6-11.8-6.5-15.7-11.8L376.4,79.6c-4.6-7.8-6.9-15.4-6.9-22.6l1-2v-2c0.7-9.8,4.9-18.2,12.8-25
	s16.7-10.3,26.5-10.3h3.9h2c10.5,0.7,20,6.5,28.5,17.7l84.4,119.7l186.4,65.7c8.5,3.9,17.3,9.8,26.5,17.7l238.4,218.8
	c7.8,7.2,12.4,17,13.7,29.4c0,11.1-3.9,20.6-11.8,28.5c-7.8,7.8-17.3,11.8-28.5,11.8h-1c-11.1,0-20.6-3.9-28.5-11.8L757.1,362.1z
	 M892.5,138.4c0-22.2-7.8-41.2-23.5-56.9S834.3,58,812,58c-22.2,0-41.2,7.8-56.9,23.5c-15.7,15.7-23.5,34.7-23.5,56.9
	s7.8,41.2,23.5,56.9c15.7,15.7,34.7,23.5,56.9,23.5c22.2,0,41.2-7.8,56.9-23.5S892.5,160.7,892.5,138.4z M476.5,498.5v93.2
	c-3.3,15.7-11.8,27.1-25.5,34.3l-167.8,74.6l298.3,119.7v-2.9v-2v-2v-2v-2v-1L605,613.3L476.5,498.5z"/>
</svg>
