<?xml version="1.0" encoding="utf-8"?>
<!-- Generator: Adobe Illustrator 23.0.1, SVG Export Plug-In . SVG Version: 6.00 Build 0)  -->
<svg version="1.1" id="Layer_1" xmlns="http://www.w3.org/2000/svg" xmlns:xlink="http://www.w3.org/1999/xlink" x="0px" y="0px"
	 viewBox="0 0 1000 1000" style="enable-background:new 0 0 1000 1000;" xml:space="preserve">
<path d="M400,259L299,79l9-21c61.3-26,125.3-39,192-39s129.7,12.7,189,38l12,22L600,259H400z M247,470l-228-2
	c4.7-76,27-147.3,67-214c38.7-64.7,89.7-117.7,153-159l109,194L247,470z M652,289L763,96c64.7,43.3,115.3,96,152,158
	c39.3,66,61.3,138,66,216H753L652,289z M600,320l98,174L594,680H406L302,494l98-174H600z M348,711L247,892l-29-1
	c-51.3-36-93-80.7-125-134c-34.7-54.7-57.3-113-68-175l28-52h194L348,711z M947,531l28,54c-10.7,60.7-33.3,118.3-68,173
	c-34,53.3-76,97.7-126,133h-28L652,711l101-181L947,531z M593,741l105,186l-6,15c-61.3,26-125.3,39-192,39s-129.7-12.7-189-38l-9-16
	l104-186H593z"/>
</svg>
