<?xml version="1.0" encoding="utf-8"?>
<!-- Generator: Adobe Illustrator 23.0.1, SVG Export Plug-In . SVG Version: 6.00 Build 0)  -->
<svg version="1.1" id="Layer_1" xmlns="http://www.w3.org/2000/svg" xmlns:xlink="http://www.w3.org/1999/xlink" x="0px" y="0px"
	 viewBox="0 0 1000 1000" style="enable-background:new 0 0 1000 1000;" xml:space="preserve">
<path d="M613,121c0-31.3-11-58-33-80S531.3,8,500,8s-58,11-80,33s-33,48.7-33,80s11,58,33,80s48.7,33,80,33s58-11,80-33
	S613,152.3,613,121z M940,633c8.7,0,16,3,22,9s9,13.3,9,22s-3,16-9,22s-13.3,9-22,9H60c-8.7,0-16-3-22-9s-9-13.3-9-22s3-16,9-22
	s13.3-9,22-9h288V379v-2v-2v-2l-1-2c-29.3-4.7-57-13.8-83-27.5s-49.3-30.8-70-51.5c-38-42-57.7-86.7-59-134l-2-73
	c1.3-10,5.8-18.3,13.5-25s16.8-10,27.5-10c11.3,0,21,4,29,12s12,17.7,12,29v3v3l1,49c1.3,33.3,14.7,63.7,40,91c36,39.3,94,59,174,59
	c12,0,21-0.3,27-1h2h3h2h2h61c2,0,11,1,27,3c94,13.3,170.3,57,229,131c23.3,29.3,42,60.7,56,94s23.3,64.3,28,93c0.7,0.7,1,2,1,4v5v4
	c0,2-0.3,3.3-1,4H940z M652,418v1v1v213l136,1v-2c-0.7-0.7-1-1.7-1-3l-6-26c-4-16.7-11-35.3-21-56C733.3,489.7,697.3,446.7,652,418z
	 M869,746c10.7,0,20,4.8,28,14.5s12,20.8,12,33.5c0,6.7-1.7,14.3-5,23l-61,148c-2.7,7.3-7.3,13.5-14,18.5s-14.3,7.8-23,8.5H194
	c-8.7-0.7-16.5-3.5-23.5-8.5S158.7,972,156,964L94,817c-2.7-6-4-13.3-4-22c0-13.3,3.8-24.8,11.5-34.5S119,746,131,746H869z"/>
</svg>
