<?xml version="1.0" encoding="utf-8"?>
<!-- Generator: Adobe Illustrator 23.0.1, SVG Export Plug-In . SVG Version: 6.00 Build 0)  -->
<svg version="1.1" id="Layer_1" xmlns="http://www.w3.org/2000/svg" xmlns:xlink="http://www.w3.org/1999/xlink" x="0px" y="0px"
	 viewBox="0 0 1000 1000" style="enable-background:new 0 0 1000 1000;" xml:space="preserve">
<path d="M71.4,214c2,26,21.3,50,58,72c36,22,87.7,39.3,155,52c67.3,12.7,139.3,19,216,19c76,0,147.3-6.3,214-19
	c66.7-12.7,119-30,157-52s57-46,57-72v-71c2-26-17-50-57-72c-40.7-22-93.3-39.3-158-52S577.8,0,500.4,0S351.6,6.3,285.9,19
	S168.1,49,129.4,71s-58,46-58,72V214z M71.4,429c2,26.7,21.3,50.3,58,71c37.3,20.7,89.3,37.8,156,51.5s136,20.5,208,20.5
	c77.3,0,150.2-6.5,218.5-19.5S833.4,522,871.4,500s57-45.7,57-71v-95c-43.3,30.7-102.8,54.2-178.5,70.5S591.1,429,500.4,429
	s-174.2-8.2-250.5-24.5S114.1,364.7,71.4,334V429z M71.4,643c2,26.7,21.3,50.3,58,71c37.3,20.7,89.3,37.8,156,51.5
	s136,20.5,208,20.5c77.3,0,150.2-6.5,218.5-19.5S833.4,736,871.4,714s57-45.7,57-71v-95c-43.3,30.7-102.8,54.2-178.5,70.5
	S591.1,643,500.4,643s-174.2-8.2-250.5-24.5S114.1,578.7,71.4,548V643z M71.4,857c2,26,21.3,50,58,72c36,22,87.7,39.3,155,52
	s139.3,19,216,19c76,0,147.3-6.3,214-19s119-30,157-52s57-46,57-72v-95c-43.3,30.7-102.8,54.2-178.5,70.5S591.1,857,500.4,857
	s-174.2-8.2-250.5-24.5S114.1,792.7,71.4,762V857z"/>
</svg>
