<?xml version="1.0" encoding="utf-8"?>
<!-- Generator: Adobe Illustrator 23.0.1, SVG Export Plug-In . SVG Version: 6.00 Build 0)  -->
<svg version="1.1" id="Layer_1" xmlns="http://www.w3.org/2000/svg" xmlns:xlink="http://www.w3.org/1999/xlink" x="0px" y="0px"
	 viewBox="0 0 1000 1000" style="enable-background:new 0 0 1000 1000;" xml:space="preserve">
<path d="M884.5,24c8,0,15,3,21,9s9,13.3,9,22v882l0,0c0,10.7-3.7,19.8-11,27.5s-16.7,11.5-28,11.5h-700c-10.7,0-19.8-3.8-27.5-11.5
	s-11.5-16.8-11.5-27.5l0,0V635h-20c-8.7,0-16-3-22-9s-9-13.3-9-22c0-8,3-15,9-21s13.3-9,22-9h166h6c0.7,0.7,2,1,4,1v-77h-21
	c-8,0-15-3-21-9s-9-13.3-9-22s3-16,9-22s13-9,21-9h167c2.7,0,6,0.7,10,2v-78h-21c-8,0-15-3-21-9s-9-13-9-21c0-8.7,3-16,9-22
	s13-9,21-9h167h5c0.7,0.7,2.3,1,5,1v-77h-21c-8.7,0-16-3-22-9s-9-13.3-9-22s3-16,9-22s13.3-9,22-9h166c1.3,0,4.7,0.7,10,2V85h-19
	c-8,0-15-3-21-9s-9-13-9-21c0-8.7,3-16,9-22s13-9,21-9H884.5z"/>
</svg>
