<?xml version="1.0" encoding="utf-8"?>
<!-- Generator: Adobe Illustrator 23.0.1, SVG Export Plug-In . SVG Version: 6.00 Build 0)  -->
<svg version="1.1" id="Layer_1" xmlns="http://www.w3.org/2000/svg" xmlns:xlink="http://www.w3.org/1999/xlink" x="0px" y="0px"
	 viewBox="0 0 1067 1067" style="enable-background:new 0 0 1067 1067;" xml:space="preserve">
<path d="M837,1041.5c6.7,0,13.7-2,21-6c10.7-8.7,16-19.3,16-32c0-2-0.7-5.7-2-11l-109-333l289-206c10-8,15-18.3,15-31
	c0-2.7-0.7-6.7-2-12c-2-8-6.5-14.3-13.5-19s-14.5-7-22.5-7H678l-108-333c-2.7-8-7.3-14.5-14-19.5s-14.3-7.5-23-7.5
	c-8,0-15.3,2.5-22,7.5c-6.7,5-11.3,11.5-14,19.5l-108,333H38c-8,0-15.5,2.5-22.5,7.5S3.7,403.2,1,410.5c-0.7,2.7-1,6.3-1,11
	c0,12,5,22.7,15,32l284,206l-109,333c-1.3,5.3-2,9.3-2,12c0,3.3,0.7,7,2,11c2,8,6.3,14.5,13,19.5s14,7.5,22,7.5c8.7,0,16.3-2.3,23-7
	l283-206l283,205C823.3,1039.2,831,1041.5,837,1041.5z"/>
</svg>
