<svg xmlns="http://www.w3.org/2000/svg" viewBox="0 0 83.15 91.46"><title>star-of-life</title><g id="Layer_2" data-name="Layer 2"><g id="Layer_1-2" data-name="Layer 1"><g id="Symbols"><g id="Regular-M"><path d="M49.07,84.67V58.5l22.51,13a9.25,9.25,0,0,0,4.3,1.62c1.9,0,3.27-1.37,5.17-4.15l.35-.54a8.5,8.5,0,0,0,1.75-4.49c0-2-1.46-3.52-4.24-5.08L55.57,45.36,78.86,32.62c2.78-1.52,4.1-3,4.1-5A9.86,9.86,0,0,0,81.4,23.1L81,22.51c-1.66-2.93-3.13-4.2-5-4.2a10,10,0,0,0-4.45,1.56l-22.46,13V6.79c0-5.33-1.8-6.79-7.22-6.79h-.64c-5.42,0-7.27,1.46-7.27,6.79V32.91l-22.47-13a9.59,9.59,0,0,0-4.63-1.66c-2,0-3.57,1.27-5,4.3l-.25.54A11.8,11.8,0,0,0,.24,27.73c0,2,1.18,3.32,4,4.94L27.49,45.36,4.1,58.84c-2.73,1.56-4.1,3-4.1,5a9.59,9.59,0,0,0,1.71,4.64L2,68.9C3.56,71.78,5.08,73.14,7,73.14a9.7,9.7,0,0,0,4.4-1.66l22.51-13V84.67c0,5.32,1.85,6.79,7.27,6.79h.64C47.27,91.46,49.07,90,49.07,84.67Z"/></g></g></g></g></svg>