<?xml version="1.0" encoding="utf-8"?>
<!-- Generator: Adobe Illustrator 23.0.1, SVG Export Plug-In . SVG Version: 6.00 Build 0)  -->
<svg version="1.1" id="Layer_1" xmlns="http://www.w3.org/2000/svg" xmlns:xlink="http://www.w3.org/1999/xlink" x="0px" y="0px"
	 viewBox="0 0 1000 1000" style="enable-background:new 0 0 1000 1000;" xml:space="preserve">
<path d="M1002,412c0,33.3-9.8,63.3-29.5,90c-19.7,26.7-44.8,45.3-75.5,56c-4.7,52-12.3,96-23,132c-18.7,61.3-47,111.3-85,150
	c-62.7,66.7-147,100-253,100s-190.3-33.3-253-100c-37.3-38.7-65.7-88.3-85-149c-12-38.7-20.3-82.7-25-132c-33.3-8-63.2-22.7-89.5-44
	c-26.3-21.3-47.2-47.3-62.5-78s-23-63.7-23-99V144c0-21.3,7.2-39.8,21.5-55.5S51.3,63.7,72,61c1.3-0.7,3.3-1,6-1h5l0,0h50
	c14,0,26,5,36,15s15,22,15,36s-5,26-15,36s-22,15-36,15h-32v176c0,22,5.7,42.7,17,62c11.3,19.3,26.5,34.7,45.5,46s39.8,17,62.5,17
	c22,0,42.5-5.7,61.5-17s34.2-26.7,45.5-46c11.3-19.3,17-40,17-62V162h-32c-14,0-26-5-36-15s-15-22-15-36s5-26,15-36s22-15,36-15h50
	l0,0h6c2,0,3.7,0.3,5,1c20.7,2.7,38.2,11.8,52.5,27.5S453,122.7,453,144v194c0,53.3-16.7,100.5-50,141.5S327.7,547,277,559
	c2.7,36.7,10,74,22,112s31.3,71,58,99c44,45.3,103.7,68,179,68c76,0,135.7-22.7,179-68c26.7-28.7,45.8-62.3,57.5-101
	c11.7-38.7,18.5-76,20.5-112c-30-10.7-54.3-29.2-73-55.5c-18.7-26.3-28-56.2-28-89.5c0-28,7-53.8,21-77.5s32.8-42.5,56.5-56.5
	s49.5-21,77.5-21s53.8,7,77.5,21s42.5,32.8,56.5,56.5S1002,384,1002,412L1002,412z M847,464c14.7,0,27-5.2,37-15.5s15-22.5,15-36.5
	l0,0c0-14.7-5-27.2-15-37.5S861.7,359,847,359s-27.2,5.2-37.5,15.5S794,397.3,794,412c0,14.7,5.2,27,15.5,37S832.3,464,847,464
	L847,464z"/>
</svg>
