<svg xmlns="http://www.w3.org/2000/svg" viewBox="0 0 99.61 109.47"><title>stopwatch</title><g id="Layer_2" data-name="Layer 2"><g id="Layer_1-2" data-name="Layer 1"><g id="Regular-M"><path d="M49.8,109.47a50.14,50.14,0,0,0,49.81-49.8A49.26,49.26,0,0,0,89.06,29.3l3.81-3.86a5.86,5.86,0,0,0,1.76-4,4.94,4.94,0,0,0-5-4.93,5.3,5.3,0,0,0-4,1.61l-3.72,3.67A49.56,49.56,0,0,0,55,10.16V5.37A5.29,5.29,0,0,0,49.76,0a5.36,5.36,0,0,0-5.23,5.37v4.79A50.18,50.18,0,0,0,0,59.67C0,86.91,22.61,109.47,49.8,109.47Zm0-41.89a7.83,7.83,0,0,1-7.86-7.86,8,8,0,0,1,4.45-7.13V28.37A3.31,3.31,0,0,1,49.76,25a3.35,3.35,0,0,1,3.41,3.37V52.64A7.84,7.84,0,0,1,49.8,67.58Z"/></g></g></g></svg>