<?xml version="1.0" encoding="utf-8"?>
<!-- Generator: Adobe Illustrator 23.0.1, SVG Export Plug-In . SVG Version: 6.00 Build 0)  -->
<svg version="1.1" id="Layer_1" xmlns="http://www.w3.org/2000/svg" xmlns:xlink="http://www.w3.org/1999/xlink" x="0px" y="0px"
	 viewBox="0 0 1000 1000" style="enable-background:new 0 0 1000 1000;" xml:space="preserve">
<path d="M952,224.5v1v1c0,23.3-10,43.2-30,59.5s-44.3,24.5-73,24.5c-26,0-48.7-7.7-68-23c-19.3,14.7-42.3,22-69,22s-49.3-7.3-68-22
	c-19.3,14.7-42.3,22-69,22s-49.3-7.3-68-22c-19.3,14.7-42.3,22-69,22c-27.3,0-50.3-7.3-69-22c-19.3,15.3-42.3,23-69,23
	s-49.7-7.7-69-23c-17.3,15.3-38.7,23-64,23l0,0h-1h-2h-3c-23.3,0-43.7-8-61-24s-26.7-35.7-28-59v-2v-1v-1v-1v-5c0-2,0.3-3.3,1-4
	c1.3-8,3.3-14.3,6-19l44-141c4-8.7,10.2-15.8,18.5-21.5s17.5-8.5,27.5-8.5h2h2h678h2h2c10.7,0,20,2.8,28,8.5s14,13.2,18,22.5l47,149
	l2,4c0,2.7,0.3,4.7,1,6c0.7,0.7,1,2,1,4v5v1V224.5z M866,556.5c12.7,1.3,23.3,6.7,32,16s13,20.7,13,34v7c-0.7,2-1,4.3-1,7l-46,205
	c-2,10.7-7.2,19.5-15.5,26.5s-18.2,10.8-29.5,11.5H205c-11.3,0-21.2-3.7-29.5-11s-13.5-16.7-15.5-28l-46-204c-1.3-5.3-2-10-2-14
	c0-13.3,4.5-24.7,13.5-34s20.2-14.7,33.5-16h20l-36-157v-4v-3c0-8.7,3-16,9-22s13.3-9,22-9c7.3,0,13.8,2.3,19.5,7s9.5,10.3,11.5,17
	l37,171h540l37-171c2-6.7,5.8-12.3,11.5-17s12.2-7,19.5-7c8.7,0,16,3,22,9s9,13.3,9,22v3v4l-36,157H866z M922,976.5c8,0,15-3,21-9
	s9-13.3,9-22s-3-16-9-22s-13-9-21-9H102c-8,0-15,3-21,9s-9,13.3-9,22s3,16,9,22s13,9,21,9H922z"/>
</svg>
