<svg xmlns="http://www.w3.org/2000/svg" viewBox="0 0 105.71 105.96"><title>Regular-M</title><g id="Layer_2" data-name="Layer 2"><g id="Layer_1-2" data-name="Layer 1"><g id="Regular-M"><path d="M57.13,4.25a4.28,4.28,0,0,0-8.55,0V14.5a4.28,4.28,0,0,0,8.55,0ZM77,22.85a4.34,4.34,0,0,0,0,6,4.26,4.26,0,0,0,6.06,0l7.27-7.28a4.24,4.24,0,1,0-6-6Zm-54.29,6a4.24,4.24,0,0,0,6,0,4.3,4.3,0,0,0,.05-6l-7.27-7.32a4.26,4.26,0,0,0-6.06,6Zm30.17-.78A24.93,24.93,0,1,0,77.69,53,25.07,25.07,0,0,0,52.83,28.08Zm48.59,29.15a4.25,4.25,0,1,0,0-8.5H91.21a4.25,4.25,0,0,0,0,8.5ZM4.25,48.73a4.25,4.25,0,0,0,0,8.5h10.2a4.25,4.25,0,1,0,0-8.5ZM83,77.15a4.25,4.25,0,0,0-6,6l7.38,7.33a4.25,4.25,0,0,0,6-6.06ZM15.38,84.37a4.27,4.27,0,1,0,6,6.06l7.27-7.28a4.28,4.28,0,0,0,.05-6,4.39,4.39,0,0,0-6.05,0Zm41.75,7.09a4.28,4.28,0,0,0-8.55,0v10.25a4.28,4.28,0,0,0,8.55,0Z"/></g></g></g></svg>