<?xml version="1.0" encoding="utf-8"?>
<!-- Generator: Adobe Illustrator 23.0.1, SVG Export Plug-In . SVG Version: 6.00 Build 0)  -->
<svg version="1.1" id="Layer_1" xmlns="http://www.w3.org/2000/svg" xmlns:xlink="http://www.w3.org/1999/xlink" x="0px" y="0px"
	 viewBox="0 0 1000 1000" style="enable-background:new 0 0 1000 1000;" xml:space="preserve">
<path d="M887.5,219.6c0-33.9-12-62.7-35.9-86.7s-52.8-35.9-86.7-35.9s-62.7,12-86.7,35.9c-23.9,23.9-35.9,52.8-35.9,86.7
	s12,62.7,35.9,86.7c23.9,23.9,52.8,35.9,86.7,35.9s62.7-12,86.7-35.9S887.5,253.5,887.5,219.6z M157.4,436.8
	c-2.7,2.7-7,6.8-12.9,12.5c-6,5.6-12.1,10.8-18.4,15.4c-6.3,4.6-13.1,7-20.4,7c-8.6,0-17.6-4.6-26.9-13.9c-7.3-7.3-11-15.6-11-24.9
	c0-8,2.8-15.8,8.5-23.4c5.6-7.6,13.4-16.1,23.4-25.4c35.9-37.2,63.1-64.7,81.7-82.7c27.9-27.2,55.4-54.8,82.7-82.7
	c10-13.3,22.9-19.9,38.8-19.9c12,0,22.2,3.7,30.9,11l113.5,69.7l113.5,69.7c50.5,31.9,88.3,55.4,113.5,70.7l111.6,70.7
	c12.6,6.6,22.1,12.9,28.4,18.9c6.3,6,8.5,14.3,6.5,24.9c-3.3,11.3-10,19.3-19.9,23.9c-10,4.6-21.6,7-34.9,7H652.4H539.8H429.3H319.7
	c-13.3-1.3-24.9-3.7-34.9-7c-8-2.7-14.8-7.8-20.4-15.4s-8.5-15.4-8.5-23.4c0-7.3,2.3-13.3,7-17.9c9.3-8,17.3-15.9,23.9-23.9
	l29.9-30.9l15.9-15.9c7.3-7.3,14.6-15.1,21.9-23.4c7.3-8.3,13.3-17.1,17.9-26.4c1.3-2,2-5.3,2-10c0-11.3-6-22.6-17.9-33.9
	c-12-11.3-25.2-19.3-39.8-23.9c-2-0.7-5.3-1-10-1c-13.3,0-26.7,5.6-40.3,16.9c-13.6,11.3-31.7,28.9-54.3,52.8
	C194.2,400.6,176,418.8,157.4,436.8z M30.9,698.7c-8.6,0-15.9-3-21.9-9s-9-12.9-9-20.9c0-8.6,3-15.9,9-21.9s13.3-9,21.9-9h2h2
	c33.9,0,63.1,8,87.6,23.9c17.3,11.3,37.5,16.9,60.8,16.9h2h2h2h1c23.2,0,43.2-5.6,59.8-16.9c28.6-15.9,58.4-23.9,89.6-23.9h2h2h2h2
	c33.2,0,62.4,8,87.6,23.9c19.3,11.3,39.8,16.9,61.8,16.9h2h1h2h1c23.2,0,43.2-5.6,59.8-16.9c28.6-15.9,58.4-23.9,89.6-23.9h2h2h2h2
	c33.2,0,62.4,7.6,87.6,22.9c18.6,12,40.2,17.9,64.7,17.9s45.5-5.6,62.7-16.9c28.6-15.9,58.4-23.9,89.6-23.9h2h2c8.6,0,15.9,3,21.9,9
	c6,6,9,13.3,9,21.9c0,8-3,14.9-9,20.9c-6,6-13.3,9-21.9,9h-1h-2c-23.2,0-43.2,5.6-59.8,16.9c-29.9,15.9-61.1,23.9-93.6,23.9
	c-35.9,0-66.4-7.6-91.6-22.9c-18.6-12-39.2-17.9-61.8-17.9h-1h-2h-1h-2c-23.2,0-43.2,5.6-59.8,16.9c-28.6,15.9-58.4,23.9-89.6,23.9
	h-2h-2h-2h-2c-33.9,0-63.1-7.6-87.6-22.9c-18.6-12-39.2-17.9-61.8-17.9h-1h-2h-2h-1c-23.2,0-43.5,5.6-60.8,16.9
	c-26.6,15.9-56.1,23.9-88.6,23.9h-2h-2h-2h-2c-33.9,0-63.1-7.6-87.6-22.9c-19.3-12-39.8-17.9-61.8-17.9h-1H30.9z M969.1,801.3
	c8.6,0,15.9,3,21.9,9c6,6,9,12.9,9,20.9c0,8.6-3,15.9-9,21.9c-6,6-13.3,9-21.9,9h-1h-2c-23.2,0-43.2,5.6-59.8,16.9
	c-29.9,15.9-61.1,23.9-93.6,23.9c-35.9,0-66.4-8-91.6-23.9c-19.3-11.3-39.8-16.9-61.8-16.9h-1h-2h-1h-2c-23.2,0-43.2,5.6-59.8,16.9
	c-28.6,15.9-58.4,23.9-89.6,23.9h-2h-2h-2h-2c-34.5,0-63.7-8-87.6-23.9c-19.3-11.3-39.8-16.9-61.8-16.9h-1h-2h-2h-1
	c-23.2,0-43.5,5.6-60.8,16.9c-26.6,15.9-56.1,23.9-88.6,23.9h-2h-2h-2h-2c-34.5,0-63.7-8-87.6-23.9c-19.3-11.3-39.8-16.9-61.8-16.9
	h-1h-2c-8.6,0-15.9-3-21.9-9s-9-13.3-9-21.9c0-8,3-14.9,9-20.9s13.3-9,21.9-9h2h2c33.2,0,62.4,7.6,87.6,22.9
	c16.6,12,36.9,17.9,60.8,17.9h2h2h2h1c23.2,0,43.2-5.6,59.8-16.9c27.2-15.9,57.1-23.9,89.6-23.9h2h2h2h2c33.2,0,62.4,7.6,87.6,22.9
	c19.3,12,39.8,17.9,61.8,17.9h2h1h2h1c23.2,0,43.2-5.6,59.8-16.9c27.2-15.9,57.1-23.9,89.6-23.9h2h2h2h2c33.2,0,62.4,7.6,87.6,22.9
	c18.6,12,40.2,17.9,64.7,17.9s45.5-5.6,62.7-16.9c27.2-15.9,57.1-23.9,89.6-23.9h2H969.1z"/>
</svg>
