<?xml version="1.0" encoding="utf-8"?>
<!-- Generator: Adobe Illustrator 23.0.1, SVG Export Plug-In . SVG Version: 6.00 Build 0)  -->
<svg version="1.1" id="Layer_1" xmlns="http://www.w3.org/2000/svg" xmlns:xlink="http://www.w3.org/1999/xlink" x="0px" y="0px"
	 viewBox="0 0 32 32" style="enable-background:new 0 0 32 32;" xml:space="preserve">
<path d="M29.9,15.2c-0.1-0.2-0.3-0.3-0.4-0.3l-2.6,0c-0.1-1-0.3-1.9-0.6-2.9C24.7,7.9,20.6,5,16,5c-3.3,0-6.4,1.5-8.4,4
	c-0.4,0.4-0.3,1,0.1,1.4c0.4,0.4,1,0.3,1.4-0.1c0,0,0,0,0-0.1C10.8,8.2,13.3,7,16,7c3.7,0,7.1,2.3,8.4,5.8c0.3,0.7,0.4,1.4,0.5,2.2
	l-2.4,0c-0.3,0-0.5,0.2-0.5,0.5c0,0.1,0,0.2,0.1,0.3l3.5,5c0.1,0.1,0.2,0.2,0.4,0.2c0.2,0,0.3-0.1,0.4-0.2l3.5-5
	C30,15.6,30,15.4,29.9,15.2 M24.5,23c-2.1,2.5-5.2,4-8.4,4c-1.9,0-3.8-0.5-5.5-1.5c-2.2-1.3-3.9-3.2-4.8-5.7C5.4,18.9,5.2,18,5.1,17
	l-2.6,0C2.2,17,2,16.8,2,16.5c0-0.1,0-0.2,0.1-0.3l3.5-5c0.2-0.2,0.5-0.3,0.7-0.1c0.1,0,0.1,0.1,0.1,0.1l3.5,5
	c0.1,0.2,0.1,0.4,0,0.5C9.9,16.9,9.7,17,9.5,17l-2.4,0c0.1,0.7,0.2,1.5,0.5,2.2C8.9,22.7,12.3,25,16,25c2.7,0,5.2-1.2,6.9-3.2
	c0.3-0.4,1-0.5,1.4-0.1c0,0,0,0,0,0C24.8,22,24.8,22.6,24.5,23C24.5,23,24.5,23,24.5,23"/>
</svg>
