<?xml version="1.0" encoding="utf-8"?>
<!-- Generator: Adobe Illustrator 23.0.1, SVG Export Plug-In . SVG Version: 6.00 Build 0)  -->
<svg version="1.1" id="Layer_1" xmlns="http://www.w3.org/2000/svg" xmlns:xlink="http://www.w3.org/1999/xlink" x="0px" y="0px"
	 viewBox="0 0 1000 1000" style="enable-background:new 0 0 1000 1000;" xml:space="preserve">
<path d="M223,39c-9.3,0-18.7,3.3-28,10L19,197c-7.3,7.3-11,16-11,26c0,9.3,2.3,16.3,7,21l96,128c5.3,8.7,13.7,13,25,13
	c8.7,0,15.7-2.7,21-8c6-4.7,12.7-7,20-7c8.7,0,16.2,3.2,22.5,9.5s9.5,13.8,9.5,22.5l0,0v1v524l0,0v1c0,8.7,3.2,16.2,9.5,22.5
	s13.8,9.8,22.5,10.5h519c8.7-0.7,16.2-4.2,22.5-10.5s9.5-13.8,9.5-22.5v-1V403v-1c0-8.7,3.2-16.2,9.5-22.5s13.8-9.5,22.5-9.5
	c7.3,0,14,2.3,20,7s12.7,7,20,7c10.7,0,19-4,25-12l95-128c5.3-5.3,8-12.3,8-21c0-9.3-4-18-12-26L805,49c-9.3-6.7-18.7-10-28-10H676
	c-8,0-15.2,2.7-21.5,8S644.3,59.3,643,68c-5.3,34.7-21.5,64-48.5,88S536,192.3,500,193c-36-0.7-67.5-12.8-94.5-36.5
	S362.3,103,357,67c-1.3-8-5.2-14.7-11.5-20S332,39,324,39H223z"/>
</svg>
