<?xml version="1.0" encoding="utf-8"?>
<!-- Generator: Adobe Illustrator 23.0.1, SVG Export Plug-In . SVG Version: 6.00 Build 0)  -->
<svg version="1.1" id="Layer_1" xmlns="http://www.w3.org/2000/svg" xmlns:xlink="http://www.w3.org/1999/xlink" x="0px" y="0px"
	 viewBox="0 0 1000 1000" style="enable-background:new 0 0 1000 1000;" xml:space="preserve">
<path d="M314,944c-58.7-24.7-110-59-154-103c-44.7-44.7-79.3-96.3-104-155S19,565.3,19,500s12.3-127.3,37-186s59.3-110,104-154
	c44-44.7,95.3-79.3,154-104s120.7-37,186-37s127.3,12.3,186,37s110.3,59.3,155,104c44,44,78.3,95.3,103,154s37,120.7,37,186
	s-12.3,127.3-37,186s-59,110.3-103,155c-44.7,44-96.3,78.3-155,103s-120.7,37-186,37S372.7,968.7,314,944z M377.5,207.5
	c-38.3,16.3-72.2,39.2-101.5,68.5s-52.2,63.2-68.5,101.5S183,456.7,183,500s8.2,84.3,24.5,123s39.2,72.7,68.5,102s63.2,52,101.5,68
	s79.2,24,122.5,24s84.3-8,123-24s72.7-38.7,102-68s52-63.3,68-102s24-79.7,24-123s-8-84.2-24-122.5s-38.7-72.2-68-101.5
	s-63.3-52.2-102-68.5S543.3,183,500,183S415.8,191.2,377.5,207.5z M615,433.5c-12-20.3-28.2-36.5-48.5-48.5S524,367,500,367
	s-46.2,6-66.5,18S397,413.2,385,433.5S367,476,367,500s6,46.2,18,66.5c12,20.3,28.2,36.5,48.5,48.5s42.5,18,66.5,18s46.2-6,66.5-18
	s36.5-28.2,48.5-48.5c12-20.3,18-42.5,18-66.5S627,453.8,615,433.5z"/>
</svg>
