<?xml version="1.0" encoding="utf-8"?>
<!-- Generator: Adobe Illustrator 23.0.1, SVG Export Plug-In . SVG Version: 6.00 Build 0)  -->
<svg version="1.1" id="Layer_1" xmlns="http://www.w3.org/2000/svg" xmlns:xlink="http://www.w3.org/1999/xlink" x="0px" y="0px"
	 viewBox="0 0 1000 1000" style="enable-background:new 0 0 1000 1000;" xml:space="preserve">
<path d="M533,25c-12.7,58-35.3,114-68,168c-32,52-71.3,97.3-118,136s-96.7,69-150,91c-55.3,23.3-114.7,38.7-178,46
	c4.7-61.3,20.2-119.3,46.5-174S127,189.3,171,148c44-40.7,94-72.3,150-95s115.3-34,178-34h3h2c8,0,18,0.7,30,2L533,25z M981,474
	c-66.7,6.7-130,23.7-190,51c-60,27.3-114.3,63.3-163,108s-90.3,96.3-125,155s-60.3,121.7-77,189c-54.7-8.7-106-26-154-52
	s-90.3-59-127-99c-36.7-40.7-65.7-86.2-87-136.5C36.7,639.2,24.7,586,22,530c65.3-6.7,130.7-24,196-52c60-25.3,116-60,168-104
	c52.7-44,97-94.7,133-152c36-58,62.7-122,80-192c51.3,10.7,99.7,29.3,145,56s85.3,59.7,120,99s62,83.7,82,133S977.7,419.3,981,474z
	 M488,981c15.3-59.3,38.5-114.8,69.5-166.5S625.7,717.3,669,678c44-40,92.3-72.3,145-97s107.7-40.3,165-47
	c-4.7,62-20.2,120.2-46.5,174.5C906.2,762.8,871.3,810.3,828,851c-44,41.3-94.2,73.3-150.5,96S561.7,981,499,981H488z"/>
</svg>
