<svg xmlns="http://www.w3.org/2000/svg" viewBox="0 0 107.62 101.32"><title>Regular-M</title><g id="Layer_2" data-name="Layer 2"><g id="Layer_1-2" data-name="Layer 1"><g id="Regular-M"><path d="M29,101.32c1.91,0,3.32-1,5.62-3.13L52.25,82.08l33,0c14.55.05,22.37-8.06,22.37-22.36V22.36C107.62,8.06,99.8,0,85.25,0H22.36C7.81,0,0,8,0,22.36V59.77C0,74.12,7.81,82.13,22.36,82.08h2.3V96.29C24.66,99.32,26.22,101.32,29,101.32Zm-2.54-74a3.1,3.1,0,1,1,0-6.2H81.15a3.1,3.1,0,1,1,0,6.2Zm0,17.48a3.1,3.1,0,1,1,0-6.2H81.15a3.1,3.1,0,1,1,0,6.2Zm0,17.53a3.14,3.14,0,0,1-3.12-3.12,3.09,3.09,0,0,1,3.12-3.13h35.6a3.08,3.08,0,0,1,3.08,3.13,3.14,3.14,0,0,1-3.08,3.12Z"/></g></g></g></svg>