<svg xmlns="http://www.w3.org/2000/svg" viewBox="0 0 63.53 108.5"><title>Regular-M</title><g id="Layer_2" data-name="Layer 2"><g id="Layer_1-2" data-name="Layer 1"><g id="Regular-M"><path d="M25.59,108.5A25.5,25.5,0,0,0,51,83c0-7.42-3-13.92-8.89-19.19a3.18,3.18,0,0,1-1.27-3L40.92,17c0-10.2-6.2-17-15.33-17C16.31,0,10.11,6.79,10.11,17l.05,43.85a3.2,3.2,0,0,1-1.27,3C3,69.09,0,75.59,0,83A25.53,25.53,0,0,0,25.59,108.5Zm0-7.08A18.46,18.46,0,0,1,7.13,83a17.93,17.93,0,0,1,8.1-15.09,4.05,4.05,0,0,0,2.1-4V17.29c0-6.16,3.32-10.11,8.26-10.11,4.78,0,8.1,4,8.1,10.11V64a4.07,4.07,0,0,0,2.1,4A17.92,17.92,0,0,1,43.9,83,18.44,18.44,0,0,1,25.59,101.42Zm24.46-83.5H60.64a2.83,2.83,0,1,0,0-5.66H50.05a2.83,2.83,0,1,0,0,5.66Zm0,13.72H60.64a2.83,2.83,0,1,0,0-5.66H50.05a2.83,2.83,0,1,0,0,5.66ZM25.54,94.82A11.82,11.82,0,0,0,31,72.56c-1.62-.83-2.15-1.42-2.15-3.81V42.82c0-2.54-1.47-4-3.32-4s-3.37,1.51-3.37,4V68.75c0,2.39-.54,3-2.15,3.81a11.81,11.81,0,0,0,5.52,22.26ZM50.05,45.36H60.64a2.82,2.82,0,0,0,2.89-2.83,2.86,2.86,0,0,0-2.89-2.88H50.05a2.82,2.82,0,0,0-2.88,2.88A2.78,2.78,0,0,0,50.05,45.36Zm0,13.72H60.64a2.86,2.86,0,0,0,2.89-2.88,2.82,2.82,0,0,0-2.89-2.83H50.05a2.78,2.78,0,0,0-2.88,2.83A2.82,2.82,0,0,0,50.05,59.08Z"/></g></g></g></svg>