<svg xmlns="http://www.w3.org/2000/svg" viewBox="0 0 97.36 101.32"><title>thumbs-up</title><g id="Layer_2" data-name="Layer 2"><g id="Layer_1-2" data-name="Layer 1"><g id="Symbols"><g id="Regular-M"><path d="M81.93,100.2c3.81-.88,7.62-3.37,7.62-8.06a8,8,0,0,0-1.17-4.35c-.39-.63-.29-1.12.24-1.36,3.08-1.37,5.67-4.11,5.67-8.06a9.4,9.4,0,0,0-1.71-5.62C92,72,92.14,71.44,93,70.9c2.24-1.27,3.71-4.1,3.71-7.33,0-2.24-.73-4.73-2.1-6-.73-.69-.59-1.17.29-1.86,1.56-1.22,2.44-3.56,2.44-6.35a8.51,8.51,0,0,0-8.54-8.64H71.39c-4.45,0-7.38-2.29-7.38-5.91,0-6.74,8.3-18.84,8.3-27.58,0-4.55-3-7.28-6.83-7.28C62,0,60.16,2.44,58.25,6.15,51,20.51,41.16,32.08,33.64,42c-6.35,8.5-9.47,15.63-9.62,27.35-.24,18,14.36,31.73,37.31,31.93l6.79,0A60.37,60.37,0,0,0,81.93,100.2ZM0,69.68c0,14.65,9.13,26.9,21.34,26.9h8.74c-8.84-6.44-12.89-16.21-12.7-27.39a42.84,42.84,0,0,1,9.33-26.61H19.53C8.5,42.58,0,54.49,0,69.68Z"/></g></g></g></g></svg>