<?xml version="1.0" encoding="utf-8"?>
<!-- Generator: Adobe Illustrator 23.0.1, SVG Export Plug-In . SVG Version: 6.00 Build 0)  -->
<svg version="1.1" id="Layer_1" xmlns="http://www.w3.org/2000/svg" xmlns:xlink="http://www.w3.org/1999/xlink" x="0px" y="0px"
	 viewBox="0 0 1000 1000" style="enable-background:new 0 0 1000 1000;" xml:space="preserve">
<path d="M742,86c-16.7,20.7-25,45.3-25,74c0,34,12,63,36,87s53,36,87,36c27.3,0,52-8.3,74-25c2.7-2.7,6.7-4,12-4c6,0,11,2,15,6
	l44,44c8,8,12,17.7,12,29c0,12-4,21.7-12,29L363,985c-8,8-17.7,12-29,12c-12,0-21.7-4-29-12l-45-44c-4-4-6-9-6-15
	c0-4.7,1.3-8.7,4-12c16.7-20.7,25-45.3,25-74c0-34-12-63-36-87s-53-36-87-36c-27.3,0-52,8.3-74,25c-2.7,2.7-6.7,4-12,4
	c-6,0-11-2-15-6l-44-44c-8-8-12-17.7-12-29c0-12.7,4-22.3,12-29L638,15c7.3-8,17-12,29-12c11.3,0,21,4,29,12l44,44c4,4,6,9,6,15
	C746,78.7,744.7,82.7,742,86z M670,536c3.3,0,5-2,5-6c0-3.3-1.3-5.3-4-6l-83-59l1-102c0-2-0.7-3.7-2-5s-2.7-2-4-2h-2l-2,1l-82,62
	l-97-33l0,0h-2c-4,0-6,2-6,6v1v1l33,97l-62,82v2l-1,2c0,1.3,0.7,2.7,2,4s3,2,5,2l102-1l59,84c0,1.3,1.7,2,5,2s5.3-1.3,6-4l31-97
	l97-31H670z"/>
</svg>
