<?xml version="1.0" encoding="utf-8"?>
<!-- Generator: Adobe Illustrator 23.0.1, SVG Export Plug-In . SVG Version: 6.00 Build 0)  -->
<svg version="1.1" id="Layer_1" xmlns="http://www.w3.org/2000/svg" xmlns:xlink="http://www.w3.org/1999/xlink" x="0px" y="0px"
	 viewBox="0 0 1000 1000" style="enable-background:new 0 0 1000 1000;" xml:space="preserve">
<path d="M990.2,190.9c6.5,17.6,9.8,37.1,9.8,58.6c0,24.7-4.7,48-14.2,69.8s-22.9,40.9-40.5,57.1c-36.5,34.5-79.8,51.8-129.9,51.8
	c-18.9,0-35.5-2-49.8-5.9l-76.2,73.2L573.2,383.3l71.3-68.4c-8.5-21.5-12.7-43.3-12.7-65.4c0-24.7,4.7-48,14.2-69.8
	s22.6-41.2,39.6-58.1c36.5-34.5,79.8-51.8,129.9-51.8c23.4,0,43,3.3,58.6,9.8l-87.9,85v112.3h116.2l87.9-85V190.9z M910.2,756.3
	c9.1,8.5,16.3,18.7,21.5,30.8s7.8,25.2,7.8,39.6c0,13.7-2.6,26.5-7.8,38.6s-12.4,22.3-21.5,30.8c-9.1,9.1-20,16.3-32.7,21.5
	s-25.9,7.8-39.6,7.8c-28.6,0-52.7-9.8-72.3-29.3c-15.6-14.3-25.4-33.2-29.3-56.6l-473.6-460L160.2,480L0,324.7L254.9,77.6l158.2,2
	l80.1,77.1L377.9,268.1l473.6,460h1C875.3,730.6,894.5,740.1,910.2,756.3z M380.9,568.8l116.2,113.3l-166,161.1v1
	c-2.6,20.2-12,39.1-28.3,56.6c-22.8,19.5-47.2,29.3-73.2,29.3c-25.4,0-49.5-9.8-72.3-29.3C137,880.7,127,856.9,127,829.6
	c0-26.7,10.1-50.1,30.3-70.3c16.9-16.3,36.5-25.7,58.6-28.3L380.9,568.8z"/>
</svg>
