<svg xmlns="http://www.w3.org/2000/svg" viewBox="0 0 32 32"><path d="M23 14c0-.859-.027-1.711-.081-2.532A.5.5 0 0 0 22.42 11H9.58a.5.5 0 0 0-.499.468 38.768 38.768 0 0 0-.05 4.053.5.5 0 0 0 .499.479h12.94a.5.5 0 0 0 .499-.479c.021-.476.031-.983.031-1.521zm-1 5.5a1.5 1.5 0 1 0-2.999-.001A1.5 1.5 0 0 0 22 19.5zm-9 0a1.5 1.5 0 1 0-2.999-.001A1.5 1.5 0 0 0 13 19.5zM12 8a1 1 0 0 0 1 1h6a1 1 0 1 0 0-2h-6a1 1 0 0 0-1 1zm13 6c0 3.933-.506 6.614-.808 7.862A1.49 1.49 0 0 1 22.736 23H9.264a1.49 1.49 0 0 1-1.456-1.138C7.506 20.614 7 17.933 7 14c0-3.933.506-6.614.808-7.862A1.49 1.49 0 0 1 9.264 5h.828c.207-.581.757-1 1.408-1h1c.651 0 1.201.419 1.408 1h4.184c.207-.581.757-1 1.408-1h1c.651 0 1.201.419 1.408 1h.828a1.49 1.49 0 0 1 1.456 1.138C24.494 7.386 25 10.067 25 14zm-2.084 13.223A.5.5 0 0 1 22.5 28h-1a.5.5 0 0 1-.447-.276L20.691 27h-9.382l-.362.724A.5.5 0 0 1 10.5 28h-1a.5.5 0 0 1-.416-.777l2-3A.501.501 0 0 1 11.5 24h.5a.5.5 0 0 1 .447.724l-.138.276h7.382l-.138-.276A.5.5 0 0 1 20 24h.5c.167 0 .323.084.416.223l2 3z"/></svg>