<svg xmlns="http://www.w3.org/2000/svg" viewBox="0 0 94.53 106.98"><title>trash</title><g id="Layer_2" data-name="Layer 2"><g id="Layer_1-2" data-name="Layer 1"><g id="Symbols"><g id="Regular-M"><path d="M24.07,107H70.51c6,0,9.71-3.37,10-9.42l3.12-71.34h7.33a3.69,3.69,0,0,0,3.61-3.71,3.64,3.64,0,0,0-3.61-3.66H68.65V11.52C68.65,4.49,63.92,0,56.4,0H38.13c-7.51,0-12.2,4.49-12.2,11.52v7.33H3.61a3.69,3.69,0,0,0,0,7.37H11l3.12,71.34C14.4,103.61,18,107,24.07,107Zm9.67-88.13V12a4.63,4.63,0,0,1,5-4.73H55.86c3,0,5,2,5,4.73v6.84ZM26.9,89.94,24.71,36.72a3.25,3.25,0,0,1,3.22-3.57,3.58,3.58,0,0,1,3.27,3.57l2,53.22A3.32,3.32,0,0,1,30,93.55C28.22,93.55,27,92.09,26.9,89.94Zm17.09,0,0-53.22a3.35,3.35,0,1,1,6.68,0V89.94a3.56,3.56,0,0,1-3.36,3.61A3.49,3.49,0,0,1,44,89.94Zm17.44,0,2-53.22a3.51,3.51,0,0,1,3.27-3.57,3.31,3.31,0,0,1,3.22,3.57l-2.2,53.22c0,2.15-1.36,3.61-3.17,3.61A3.28,3.28,0,0,1,61.43,89.94Z"/></g></g></g></g></svg>