<?xml version="1.0" encoding="utf-8"?>
<!-- Generator: Adobe Illustrator 23.0.1, SVG Export Plug-In . SVG Version: 6.00 Build 0)  -->
<svg version="1.1" id="Layer_1" xmlns="http://www.w3.org/2000/svg" xmlns:xlink="http://www.w3.org/1999/xlink" x="0px" y="0px"
	 viewBox="0 0 1000 1000" style="enable-background:new 0 0 1000 1000;" xml:space="preserve">
<path d="M480,16c2.7-6.7,8.3-10,17-10c8.7,0,14.3,3.3,17,10l167,249c0.7,0.7,1,1.5,1,2.5s0.3,1.8,1,2.5c0.7,1.3,1,3.7,1,7
	c0,5.3-2,10-6,14s-8.7,6-14,6H331c-6,0-11-2-15-6s-6-8.7-6-14c0-4.7,1.3-8.7,4-12L480,16z M587,358L587,358c11.3,0,20.3,3.3,27,10
	l190,164c2,6,3,9.7,3,11c0,5.3-2,10-6,14s-8.7,6-14,6H213c-5.3,0-10-2-14-6s-6-8.7-6-14c0-2.7,0.3-4.7,1-6c0.7-0.7,1-1.5,1-2.5
	s0.3-1.8,1-2.5l190-163c6.7-6.7,15.7-10,27-10l0,0L587,358z M647,625c10.7,0,20.3,3.7,29,11l169,162c0.7,0.7,1,1.5,1,2.5
	s0.3,1.8,1,2.5c0.7,1.3,1,3.3,1,6c0,6-2,11-6,15s-8.7,6-14,6H172c-5.3,0-10-2-14-6s-6-9-6-15c0-2.7,0.3-4.7,1-6c0.7-0.7,1-1.5,1-2.5
	s0.3-1.8,1-2.5l169-162c8.7-7.3,18.3-11,29-11H647z M439,891c-6,0-11,2-15,6s-6,9-6,15v61c0,6,2,11,6,15s9,6,15,6h122c6,0,11-2,15-6
	s6-9,6-15v-61c0-6-2-11-6-15s-9-6-15-6H439z"/>
</svg>
