<svg xmlns="http://www.w3.org/2000/svg" viewBox="0 0 133.11 87.79"><title>two-people</title><g id="Layer_2" data-name="Layer 2"><g id="Layer_1-2" data-name="Layer 1"><g id="Symbols"><g id="Regular-M"><path d="M92,42.58c10.45,0,19.48-9.38,19.48-21.58S102.44,0,92,0,72.46,9.13,72.51,21.09C72.51,33.2,81.54,42.58,92,42.58ZM35.79,43.7c9.13,0,17-8.2,17-18.8s-7.91-18.26-17-18.26-17,8-17,18.36S26.71,43.7,35.79,43.7ZM8.59,87.79H45.65c-5.07-7.37,1.13-22.21,11.67-30.32a38,38,0,0,0-21.53-6.3C13.77,51.17,0,67.43,0,81,0,85.35,2.39,87.79,8.59,87.79Zm52.74,0h61.33c7.71,0,10.45-2.19,10.45-6.49,0-12.6-15.78-30-41.12-30S50.93,68.7,50.93,81.3C50.93,85.6,53.66,87.79,61.33,87.79Z"/></g></g></g></g></svg>