<?xml version="1.0" encoding="utf-8"?>
<!-- Generator: Adobe Illustrator 23.0.1, SVG Export Plug-In . SVG Version: 6.00 Build 0)  -->
<svg version="1.1" id="Layer_1" xmlns="http://www.w3.org/2000/svg" xmlns:xlink="http://www.w3.org/1999/xlink" x="0px" y="0px"
	 viewBox="0 0 1000 1000" style="enable-background:new 0 0 1000 1000;" xml:space="preserve">
<path d="M985,372.5c-15.3-52.7-38.3-101.3-69-146s-67-83.3-109-116C763.7,77.8,716,52.7,664,35S558.3,8.5,503,8.5h-1h-1
	c-57.3,0-112.3,9.3-165,28s-100.7,45-144,79c-42.7,34-79.2,73.8-109.5,119.5S29.7,330.2,15,383.5l-1,5v4c0,5.3,2,10,6,14s8.7,6,14,6
	h2c5.3,0,9-1,11-3c34-22,69.7-33,107-33c31.3,0,60.2,6.8,86.5,20.5s48.5,32.8,66.5,57.5c4,5.3,9.7,8,17,8h1h2c7.3,0,12.7-3,16-9
	c20-30,45.5-53.5,76.5-70.5s65.2-25.8,102.5-26.5c34,0,65.5,7.5,94.5,22.5s53.8,35.5,74.5,61.5c4.7,6,10.3,9,17,9h1h2
	c5.3,0,10.3-2.3,15-7c18-20.7,39.7-36.7,65-48s52-17,80-17c13.3,0,26,1,38,3c15.3,4,31,9.7,47,17c1.3,1.3,4,2,8,2h1h1
	c5.3,0,10-2,14-6s6-9,6-15v-4L985,372.5z M523,427.5c-8,0-15,3-21,9s-9,13.3-9,22v385v1v1c0,22-7.2,40.8-21.5,56.5
	s-32.2,24.8-53.5,27.5h-4h-4c-22.7,0-42-7.8-58-23.5s-24-34.8-24-57.5v-1v-10c0-8.7-3-16-9-22s-13.3-9-22-9c-8,0-15,3-21,9
	s-9,13.3-9,22v5v2c0,36.7,11.7,68.7,35,96s52.7,43.7,88,49c9.3,1.3,16.3,2,21,2c26,0,50-6.5,72-19.5s39.3-30.5,52-52.5s19-46,19-72
	v-389c0-8.7-3-16-9-22S531.7,427.5,523,427.5z"/>
</svg>
