<svg xmlns="http://www.w3.org/2000/svg" viewBox="0 0 99.85 95.26"><title>unlocked</title><g id="Layer_2" data-name="Layer 2"><g id="Layer_1-2" data-name="Layer 1"><g id="Regular-M"><path d="M9.42,95.26H55.86c6.3,0,9.42-3.12,9.42-10V49.46c0-6-2.39-9.13-7.27-9.81V26.27C58,14,65.87,7.52,75,7.52S92,14,92,26.27V37.11c0,3,1.71,4.44,4,4.44s3.9-1.32,3.9-4.44V27.29C99.85,8.89,87.79,0,75,0S50.15,8.89,50.15,27.29V39.55l-39.75.1C4.1,39.65,0,42.72,0,49.46V85.3C0,92.14,3.12,95.26,9.42,95.26Z"/></g></g></g></svg>