<?xml version="1.0" encoding="utf-8"?>
<!-- Generator: Adobe Illustrator 23.0.1, SVG Export Plug-In . SVG Version: 6.00 Build 0)  -->
<svg version="1.1" id="Layer_1" xmlns="http://www.w3.org/2000/svg" xmlns:xlink="http://www.w3.org/1999/xlink" x="0px" y="0px"
	 viewBox="0 0 1000 1000" style="enable-background:new 0 0 1000 1000;" xml:space="preserve">
<path d="M82.6,8.2c-4.3-4.3-9.4-6.5-15.2-6.5S56.5,3.8,52.2,8.2C17.4,42.9,0,85,0,134.2s17.4,91.3,52.2,126.1l219.6,219.6
	c8.7,8.7,19.2,13,31.5,13s22.8-4.3,31.5-13l79.3-78.3c8.7-8.7,13-19.2,13-31.5s-4.3-22.8-13-31.5L82.6,8.2z M990.2,200.5
	c6.5,6.5,9.8,14.5,9.8,23.9c0,6.5-3.3,14.5-9.8,23.9L754.3,484.2c-32.6,32.6-71.7,48.9-117.4,48.9c-24.6,0-48.6-5.4-71.7-16.3
	L109.8,972.3c-10.9,10.9-24.3,16.3-40.2,16.3c-15.2,0-28.3-5.4-39.1-16.3s-16.3-23.9-16.3-39.1c0-15.9,5.4-29.3,16.3-40.2
	l455.4-454.3c-10.9-23.9-16.3-48.2-16.3-72.8c0-23.2,4.3-44.7,13-64.7c8.7-19.9,20.7-37.5,35.9-52.7l235.9-238
	c5.8-5.8,13.8-8.7,23.9-8.7c9.4,0,17.4,3.3,23.9,9.8c6.5,6.5,9.8,14.5,9.8,23.9s-3.3,17.4-9.8,23.9L629.3,232.1
	c-6.5,6.5-9.8,14.1-9.8,22.8c0,9.4,3.3,17.4,9.8,23.9s14.5,9.8,23.9,9.8c8.7,0,16.3-3.3,22.8-9.8L848.9,106
	c5.8-5.8,13.4-8.7,22.8-8.7s17.4,3.3,23.9,9.8c6.5,6.5,9.8,14.5,9.8,23.9c0,8-2.9,15.6-8.7,22.8L722.8,326.6
	c-6.5,6.5-9.8,14.5-9.8,23.9c0,9.4,3.3,17.4,9.8,23.9c6.5,6.5,14.5,9.8,23.9,9.8s17.4-3.3,23.9-9.8l171.7-173.9
	c6.5-6.5,14.5-9.8,23.9-9.8C972.8,190.8,980.8,194,990.2,200.5z M637,570.1c-4.3-4.3-9.4-6.5-15.2-6.5c-6.5,0-12,2.2-16.3,6.5
	l-63,63c-4.3,4.3-6.5,9.4-6.5,15.2c0,6.5,2.2,12,6.5,16.3l315.2,314.1c13,13,29,19.6,47.8,19.6c18.1,0,33.7-6.5,46.7-19.6
	c13-13,19.6-29,19.6-47.8c0-18.1-6.5-33.7-19.6-46.7L637,570.1z"/>
</svg>
