<svg xmlns="http://www.w3.org/2000/svg" viewBox="0 0 93.07 89.55"><title>volume2</title><g id="Layer_2" data-name="Layer 2"><g id="Layer_1-2" data-name="Layer 1"><g id="Regular-M"><path d="M54.74,89.55a5.54,5.54,0,0,0,5.71-5.71V6a5.77,5.77,0,0,0-5.81-6c-2.39,0-4,1-6.59,3.47L26.42,23.83a1.83,1.83,0,0,1-1.22.44H10.6C3.71,24.27,0,28,0,35.4V54.3c0,7.32,3.71,11.08,10.6,11.08H25.2a1.83,1.83,0,0,1,1.22.44L48.05,86.38C50.39,88.57,52.34,89.55,54.74,89.55ZM81.49,66.16A3.92,3.92,0,0,0,87,65c3.81-5.13,6.11-12.65,6.11-20.31S90.77,29.59,87,24.41a4,4,0,0,0-5.47-1.17,4.06,4.06,0,0,0-.83,6.06c2.84,3.81,4.55,9.62,4.55,15.43a27.53,27.53,0,0,1-4.59,15.48C79.15,62.3,79.39,64.7,81.49,66.16Z"/></g></g></g></svg>