<?xml version="1.0" encoding="utf-8"?>
<!-- Generator: Adobe Illustrator 23.0.1, SVG Export Plug-In . SVG Version: 6.00 Build 0)  -->
<svg version="1.1" id="Layer_1" xmlns="http://www.w3.org/2000/svg" xmlns:xlink="http://www.w3.org/1999/xlink" x="0px" y="0px"
	 viewBox="0 0 643 643" style="enable-background:new 0 0 643 643;" xml:space="preserve">
<path d="M20.7,421.6c0.6,9.4,4.1,17.3,10.3,23.9s14,9.8,23.4,9.8H191l174,174c6.2,5,14,8.1,23.4,9.4c8.7,0.6,16.5-2.5,23.4-9.4
	c6.9-6.9,10.3-14.7,10.3-23.4V37.1c-0.6-9.4-4.1-17.2-10.3-23.4s-14-9.4-23.4-9.4s-17.2,3.1-23.4,9.4l-174,174H54.4
	c-9.4,0.6-17.3,4.1-23.9,10.3s-9.8,14-9.8,23.4V421.6z M495,413.1c-0.6,9.4,2.3,17.3,8.9,23.9c6.5,6.5,14.5,9.8,23.9,9.8
	c6.2,0,10.6-0.9,13.1-2.8c24.3-9.4,44-25.6,58.9-48.6c15-23.1,22.5-47.7,22.5-73.9s-7.5-50.8-22.5-73.9
	c-15-23.1-34.6-39.3-58.9-48.6c-2.5-1.9-6.9-2.8-13.1-2.8c-9.4-0.6-17.2,2.5-23.4,9.4c-6.2,6.9-9.4,15-9.4,24.3
	c-3.1,7.5-1.2,13.7,5.6,18.7l15.9,13.1c5,4.4,10.9,8.1,17.8,11.2c6.9,3.7,11.8,10,15,18.7c3.7,13.7,5.6,25.6,5.6,35.5
	s-1.9,18.1-5.6,24.3c-5,8.1-9.7,14-14,17.8s-10.6,7.8-18.7,12.2C502.2,388.8,495,399.4,495,413.1z"/>
</svg>
