<?xml version="1.0" encoding="utf-8"?>
<!-- Generator: Adobe Illustrator 23.0.1, SVG Export Plug-In . SVG Version: 6.00 Build 0)  -->
<svg version="1.1" id="Layer_1" xmlns="http://www.w3.org/2000/svg" xmlns:xlink="http://www.w3.org/1999/xlink" x="0px" y="0px"
	 viewBox="0 0 1000 1000" style="enable-background:new 0 0 1000 1000;" xml:space="preserve">
<path d="M535.5,188c22.7,0,42-8,58-24s24-35.3,24-58s-8-42-24-58s-35.3-24-58-24s-42,8-58,24s-24,35.3-24,58s8,42,24,58
	S512.8,188,535.5,188z M780.5,452v1l-63-11c-27.3-4.7-44.3-8-51-10h-2v-2l-13-27c-10.7-22.7-29.3-60.7-56-114
	c-8.7-16.7-15.3-27.8-20-33.5s-12-11.8-22-18.5c-8-5.3-18.3-10.3-31-15c-4.7-2-12-3-22-3c-12,0-24.3,2.7-37,8l-76,43
	c-46.7,26.7-72,40.7-76,42c-7.3,4.7-13.3,11.7-18,21l-67,124c-6,8.7-9,17-9,25c1.3,10.7,5.8,19.7,13.5,27c7.7,7.3,16.8,11,27.5,11
	c9.3,0,17.5-2.7,24.5-8c7-5.3,11.8-12.3,14.5-21l63-116l39-21c-0.7,1.3-3,11.7-7,31c-8.7,36-17.3,76.7-26,122l-6,27l-36,204
	l-127,151c-10,8.7-15,20-15,34c0,12.7,4.5,23.5,13.5,32.5s19.8,13.5,32.5,13.5c8,0,15.3-1.8,22-5.5s12-8.5,16-14.5l153-176
	c8-8,13.7-18.3,17-31c2.7-17.3,6.7-40.8,12-70.5c5.3-29.7,9-50.8,11-63.5l120,117v209c1.3,12,6.5,22,15.5,30s19.5,12,31.5,12
	s22.5-4,31.5-12s14.2-18,15.5-30v-4v-44v-67c-0.7-16-1-39-1-69c0-24,0.3-39,1-45c0.7-20-1.3-33.3-6-40s-8.3-10.7-11-12l-19-21
	l-39-42c-18.7-18.7-31.7-32.3-39-41l-18-18l25-118c3.3,6,8.8,16.5,16.5,31.5s13.8,26.8,18.5,35.5c5.3,9.3,13.3,16.3,24,21l145,29h6
	h2c10.7,0,19.8-3.8,27.5-11.5c7.7-7.7,11.5-16.8,11.5-27.5s-3.5-19.8-10.5-27.5S791.2,452,780.5,452z"/>
</svg>
