<svg xmlns="http://www.w3.org/2000/svg" viewBox="0 0 104.05 104.05"><title>wand3</title><g id="Layer_2" data-name="Layer 2"><g id="Layer_1-2" data-name="Layer 1"><g id="Symbols"><g id="Regular-M"><path d="M56.3,4.25a4.28,4.28,0,0,0-8.55,0v15a4.28,4.28,0,1,0,8.55,0ZM72,26a4.24,4.24,0,0,0,0,6,4.41,4.41,0,0,0,6.06,0L88.67,21.39a4.25,4.25,0,0,0-6-6.06ZM26,32a4.24,4.24,0,0,0,6-6L21.39,15.38a4.23,4.23,0,1,0-6,6ZM91.5,99.46a5.27,5.27,0,0,0,7.52,0,5.37,5.37,0,0,0,0-7.52L52.64,45.36a5.37,5.37,0,0,0-7.52,0,5.48,5.48,0,0,0,0,7.57ZM4.25,47.75a4.25,4.25,0,0,0,0,8.5H19.38a4.25,4.25,0,0,0,0-8.5Zm95.51,8.5a4.25,4.25,0,1,0,0-8.5h-15a4.25,4.25,0,0,0,0,8.5Zm-6.5,39.84L63.13,65.92l2.45-2.35L95.65,93.75c.88.83,1.13,1.81.3,2.69S94.19,97,93.26,96.09ZM15.33,82.62a4.26,4.26,0,1,0,6,6L32,78a4.28,4.28,0,0,0,0-6,4.24,4.24,0,0,0-6,0Zm41,2.15a4.28,4.28,0,1,0-8.55,0v15a4.28,4.28,0,0,0,8.55,0Z"/></g></g></g></g></svg>