<?xml version="1.0" encoding="utf-8"?>
<!-- Generator: Adobe Illustrator 23.0.1, SVG Export Plug-In . SVG Version: 6.00 Build 0)  -->
<svg version="1.1" id="Layer_1" xmlns="http://www.w3.org/2000/svg" xmlns:xlink="http://www.w3.org/1999/xlink" x="0px" y="0px"
	 viewBox="0 0 929 929" style="enable-background:new 0 0 929 929;" xml:space="preserve">
<path d="M135.5,150.5l17-55l54-17l-54-16l-17-55l-17,55l-55,16l55,17L135.5,150.5z M492.5,150.5l17-55l54-17l-54-16l-17-55l-17,55
	l-54,16l54,17L492.5,150.5z M7.5,775.5c0,10,3.3,18.3,10,25l111,111c6.7,6.7,15,10,25,10s18.3-3.3,25-10l717-718
	c6.7-6.7,10-15,10-25s-3.3-18.3-10-25l-110-111c-6.7-6.7-15-10-25-10s-18.3,3.3-25,10l-718,718C10.8,757.2,7.5,765.5,7.5,775.5z
	 M313.5,328.5l34-109l109-33l-109-34l-34-109l-33,109l-109,34l109,33L313.5,328.5z M820.5,168.5l-164,163l-60-59l164-164
	L820.5,168.5z M849.5,507.5l17-55l55-16l-55-17l-17-55l-17,55l-54,17l54,16L849.5,507.5z"/>
</svg>
