<?xml version="1.0" encoding="utf-8"?>
<!-- Generator: Adobe Illustrator 23.0.1, SVG Export Plug-In . SVG Version: 6.00 Build 0)  -->
<svg version="1.1" id="Layer_1" xmlns="http://www.w3.org/2000/svg" xmlns:xlink="http://www.w3.org/1999/xlink" x="0px" y="0px"
	 viewBox="0 0 1000 1000" style="enable-background:new 0 0 1000 1000;" xml:space="preserve">
<path d="M941,796c5.3,12.7,8,25.3,8,38c0,23.3-8.3,43.5-25,60.5S887.3,920,864,920c-1.3,0-2.3-0.3-3-1h-2H141h-2c-0.7,0.7-1.7,1-3,1
	c-23.3,0-43.3-8.5-60-25.5S51,857.3,51,834c0-12.7,2.7-25,8-37l359-670c8.7-14.7,20.2-26.2,34.5-34.5S482.7,80,500,80
	c17.3,0,33.2,4.2,47.5,12.5s25.8,19.8,34.5,34.5l359,670V796z M470,573c0,8.7,3,16,9,22s13,9,21,9c8.7,0,16-3,22-9s9-13.3,9-22V305
	c0-8.7-3-16-9-22s-13.3-9-22-9c-8,0-15,3-21,9s-9,13.3-9,22V573z M500,776c14,0,26-5,36-15s15-22,15-36l0,0c0-14.7-5-27-15-37
	s-22-15-36-15s-26.2,5-36.5,15S448,710.3,448,725c0,14,5.2,26,15.5,36S486,776,500,776L500,776z"/>
</svg>
