<?xml version="1.0" encoding="utf-8"?>
<!-- Generator: Adobe Illustrator 23.0.1, SVG Export Plug-In . SVG Version: 6.00 Build 0)  -->
<svg version="1.1" id="Layer_1" xmlns="http://www.w3.org/2000/svg" xmlns:xlink="http://www.w3.org/1999/xlink" x="0px" y="0px"
	 viewBox="0 0 1000 1000" style="enable-background:new 0 0 1000 1000;" xml:space="preserve">
<path d="M920,3c11.3,0,21,4,29,12s12,17.7,12,29v185H39V44c0-11.3,4-21,12-29S68.7,3,80,3H920z M817,188c17.3,0,32-6,44-18
	s18-26.7,18-44c0-16.7-6-31-18-43s-26.7-18-44-18c-16.7,0-31,6-43,18s-18,26.3-18,43c0,17.3,6,32,18,44S800.3,188,817,188z M674,157
	c8.7,0,16-3,22-9s9-13.3,9-22s-3-16-9-22s-13.3-9-22-9H510c-8,0-15,3-21,9s-9,13.3-9,22s3,16,9,22s13,9,21,9H674z M961,290v553
	c0,11.3-4,21-12,29s-17.7,12-29,12h-92v92c0,6-2,11-6,15s-9,6-15,6h-61c-6,0-11-2-15-6s-6-9-6-15v-92H275v92c0,6-2,11-6,15
	s-9,6-15,6h-61c-6,0-11-2-15-6s-6-9-6-15v-92H80c-11.3,0-21-4-29-12s-12-17.7-12-29V290H961z M500,812c30.7,0,59.8-5.8,87.5-17.5
	s51.8-27.8,72.5-48.5s36.7-44.7,48-72c11.3-27.3,17-56.3,17-87s-5.7-59.8-17-87.5c-11.3-27.7-27.3-51.8-48-72.5
	c-20.7-20.7-44.8-36.7-72.5-48s-56.8-17-87.5-17s-59.7,5.7-87,17s-51.3,27.3-72,48c-20.7,20.7-36.8,44.8-48.5,72.5
	C280.8,527.2,275,556.3,275,587s5.8,59.7,17.5,87c11.7,27.3,27.8,51.3,48.5,72s44.7,36.8,72,48.5S469.3,812,500,812z M664,587
	c0-30-7.3-57.5-22-82.5s-34.5-44.8-59.5-59.5c-25-14.7-52.5-22-82.5-22s-57.5,7.3-82.5,22c-25,14.7-44.8,34.5-59.5,59.5
	S336,557,336,587s7.3,57.5,22,82.5s34.5,44.8,59.5,59.5s52.5,22,82.5,22s57.5-7.3,82.5-22s44.8-34.5,59.5-59.5S664,617,664,587z"/>
</svg>
