<?xml version="1.0" encoding="utf-8"?>
<!-- Generator: Adobe Illustrator 23.0.1, SVG Export Plug-In . SVG Version: 6.00 Build 0)  -->
<svg version="1.1" id="Layer_1" xmlns="http://www.w3.org/2000/svg" xmlns:xlink="http://www.w3.org/1999/xlink" x="0px" y="0px"
	 viewBox="0 0 1000 1000" style="enable-background:new 0 0 1000 1000;" xml:space="preserve">
<path d="M391.5,155c-14,0-28.7,2.3-44,7c5.3-22.7,8.3-39,9-49c1.3-4.7,3-12.2,5-22.5s4.3-19.5,7-27.5s6.3-14.3,11-19
	C390.8,34,410,27.3,437,24s51.8-5,74.5-5c22.7,0,47.5,1.8,74.5,5.5S632.2,35,643.5,45c4,3.3,7.3,8.3,10,15s5.2,16,7.5,28
	s4.2,20.7,5.5,26c0.7,12,4,28,10,48c-15.3-4-30.3-6-45-6l0,0L391.5,155z M613.5,213c26,0,50,6.5,72,19.5S725,263,738,285
	s19.5,46,19.5,72v286c0,26-6.5,50-19.5,72s-30.5,39.5-52.5,52.5s-46,19.5-72,19.5h-204c-26,0-50-6.5-72-19.5S298,737,285,715
	s-19.5-46-19.5-72V357c0-26,6.5-50,19.5-72s30.5-39.5,52.5-52.5s46-19.5,72-19.5H613.5z M627.5,611c5.3-5.3,8-12,8-20
	c0-10.7-3.7-18.7-11-24l-80-61V316c0-8.7-3-16-9-22s-13.3-9-22-9c-8.7,0-16,3-22,9s-9,13.3-9,22v204v1v1l0,0v2l0,0v1v2v1v3l2,3l1,2
	l2,3l1,2l3,2l93,73c6,4.7,12.3,7,19,7c4.7,0,9.2-1.2,13.5-3.5S624.8,614.3,627.5,611z M631.5,844L631.5,844c16.7,0,31.3-2,44-6
	c-5.3,22.7-8.3,38.7-9,48c-1.3,5.3-3,13.2-5,23.5s-4.3,19.5-7,27.5s-6.3,14-11,18c-11.3,10-30.5,16.8-57.5,20.5s-51.8,5.5-74.5,5.5
	c-22.7,0-47.5-1.8-74.5-5.5S390.8,965,379.5,955c-4-3.3-7.3-8.3-10-15s-5.2-16-7.5-28s-4.2-20.7-5.5-26c-0.7-12-4-28-10-48
	c15.3,4,30.3,6,45,6l0,0H631.5z"/>
</svg>
