<?xml version="1.0" encoding="utf-8"?>
<!-- Generator: Adobe Illustrator 23.0.1, SVG Export Plug-In . SVG Version: 6.00 Build 0)  -->
<svg version="1.1" id="Layer_1" xmlns="http://www.w3.org/2000/svg" xmlns:xlink="http://www.w3.org/1999/xlink" x="0px" y="0px"
	 viewBox="0 0 1000 1000" style="enable-background:new 0 0 1000 1000;" xml:space="preserve">
<path d="M586,97c0-22.7-8.2-42.2-24.5-58.5S525.3,14,502,14c-22.7,0-42.3,8.2-59,24.5S418,74.3,418,97c0,23.3,8.3,43.2,25,59.5
	s36.3,24.5,59,24.5c23.3,0,43.2-8.2,59.5-24.5S586,120.3,586,97z M848,131L848,131h1c8,0,15,3,21,9s9,13.3,9,22l0,0v1v118v1
	c0,8-3,15-9,21s-13,9-21,9h-4c-1.3,0-2.3-0.3-3-1v7c0,8-3,15-9,21s-13.3,9-22,9s-16-3-22-9s-9-13-9-21v-66h-12v1v2v1v1l-31,152
	c-1.3,6.7-4.8,12.3-10.5,17s-12.2,7-19.5,7c-8.7,0-16.3-3.3-23-10l-68-76v597c-0.7,11.3-5.3,21.2-14,29.5S583,986,571,986
	s-22.3-4.2-31-12.5s-13.3-18.2-14-29.5V646h-38v298c-1.3,12-6.3,22-15,30s-18.7,12-30,12c-12,0-22.3-4.2-31-12.5s-13.3-18.2-14-29.5
	V331l-82,92c-4.7,6.7-12.3,10-23,10c-7.3,0-13.8-2.3-19.5-7s-9.2-10.3-10.5-17l-31-152v-1v-1v-2v-1h-9v66c0,8-3,15-9,21
	s-13.3,9-22,9s-16-3-22-9s-9-13-9-21v-8c-4,1.3-7,2-9,2l0,0c-8.7,0-16-3-22-9s-9-13.3-9-22l0,0V162c0-8.7,3-16,9-22s13.3-9,22-9
	c0.7,0.7,2.3,1,5,1l4,2v-18c0-8.7,3-16,9-22s13.3-9,22-9s16,3,22,9s9,13.3,9,22v75h557v-75c0-8.7,3-16,9-22s13.3-9,22-9
	c8,0,15,3,21,9s9,13.3,9,22v15h2h2h2H848z M295,252l16,84l76-84H295z M616,252v2l72,82l17-84H616z"/>
</svg>
