<?xml version="1.0" encoding="utf-8"?>
<!-- Generator: Adobe Illustrator 23.0.1, SVG Export Plug-In . SVG Version: 6.00 Build 0)  -->
<svg version="1.1" id="Layer_1" xmlns="http://www.w3.org/2000/svg" xmlns:xlink="http://www.w3.org/1999/xlink" x="0px" y="0px"
	 viewBox="0 0 1000 1000" style="enable-background:new 0 0 1000 1000;" xml:space="preserve">
<path d="M451,176.5c-22-0.7-40.8-8.8-56.5-24.5S371,117.2,371,94.5l0,0l0,0c0-22,7.8-41,23.5-57s34.5-24.3,56.5-25h4
	c22.7,0.7,41.7,9,57,25c15.3,16,23,35,23,57l0,0l0,0c0,22.7-7.7,41.8-23,57.5c-15.3,15.7-34.3,23.8-57,24.5H451z M924,880.5v3v4
	c0,18.7-6.7,34.8-20,48.5s-29.7,20.5-49,20.5c-18,0-33.7-6-47-18s-20.7-27-22-45l-19-194H475l0,0h-1c-16.7,0-31.8-4.5-45.5-13.5
	S405,665.2,399,650.5c-7.3-11.3-11.3-22.7-12-34l-36-288c-0.7-2.7-1-6.3-1-11c0-17.3,5.7-33.8,17-49.5s26.7-28.2,46-37.5
	s40.3-14,63-14c30,0,56,7.8,78,23.5s34.3,35.5,37,59.5l30,239h195l0,0c10,0,19,1.3,27,4c14.7,3.3,27,10.5,37,21.5s15.7,24.2,17,39.5
	L924,880.5z M690,744.5c6,2,10.7,5.5,14,10.5s5,10.8,5,17.5c0,6-1,10.7-3,14c-25.3,59.3-65,107.7-119,145s-115.3,56-184,56
	c-44,0-86-8.5-126-25.5s-75-40.5-105-70.5s-53.5-65-70.5-105s-25.5-82-25.5-126c0-70,20-133,60-189s91-95.3,153-118
	c3.3-2.7,8-4,14-4c8,0,15,3,21,9s9,13.3,9,22c0,7.3-2.3,13.8-7,19.5s-10.7,9.5-18,11.5c-51.3,19.3-92.3,51-123,95
	c-32,46.7-48,97.7-48,153c0,36.7,6.8,71.2,20.5,103.5c13.7,32.3,32.8,60.8,57.5,85.5s53.2,43.8,85.5,57.5S367,926.5,403,926.5
	c52.7,0,102.3-15.7,149-47c44-28.7,76.3-68.3,97-119c2.7-5.3,6.5-9.8,11.5-13.5s10.8-5.5,17.5-5.5
	C683.3,741.5,687.3,742.5,690,744.5z"/>
</svg>
