<svg xmlns="http://www.w3.org/2000/svg" viewBox="0 0 108.08 78.08"><title>wifi</title><g id="Layer_2" data-name="Layer 2"><g id="Layer_1-2" data-name="Layer 1"><g id="Symbols"><g id="Regular-M"><path d="M7.09,32.86a2.09,2.09,0,0,0,3.12,0,59,59,0,0,1,43.85-18.7A58.92,58.92,0,0,1,98,32.86a2.06,2.06,0,0,0,3-.1l6.45-6.49a1.93,1.93,0,0,0,.19-2.69C96.59,10,75.84,0,54.06,0S11.48,10,.5,23.58a1.88,1.88,0,0,0,.14,2.69ZM26.62,52.44a2,2,0,0,0,3.17-.14A33.18,33.18,0,0,1,54.06,41.55,33.62,33.62,0,0,1,78.43,52.44a1.94,1.94,0,0,0,3.07,0l7.28-7.18a1.85,1.85,0,0,0,.14-2.63c-7.08-8.74-20.26-15.19-34.86-15.19s-27.78,6.5-34.91,15.19a1.81,1.81,0,0,0,.19,2.63ZM54.06,78.08c1,0,1.9-.54,3.71-2.3l11.43-11a1.89,1.89,0,0,0,.29-2.58,20.05,20.05,0,0,0-15.43-7.38A19.82,19.82,0,0,0,38.44,62.5a1.73,1.73,0,0,0,.43,2.29l11.43,11C52.11,77.54,53,78.08,54.06,78.08Z"/></g></g></g></g></svg>