<?xml version="1.0" encoding="utf-8"?>
<!-- Generator: Adobe Illustrator 23.0.1, SVG Export Plug-In . SVG Version: 6.00 Build 0)  -->
<svg version="1.1" id="Layer_1" xmlns="http://www.w3.org/2000/svg" xmlns:xlink="http://www.w3.org/1999/xlink" x="0px" y="0px"
	 viewBox="0 0 1000 1000" style="enable-background:new 0 0 1000 1000;" xml:space="preserve">
<path d="M598.6,98.6c0-27.1-9.7-50.3-29-69.6S527.1,0,500,0c-27.1,0-50.3,9.7-69.6,29c-19.3,19.3-29,42.6-29,69.6
	c0,27.7,9.7,51.3,29,70.6c19.3,19.3,42.6,29,69.6,29c27.1,0,50.3-9.7,69.6-29S598.6,126.4,598.6,98.6z M766.9,545.5
	c2.6,4.5,3.9,11,3.9,19.3c0,13.5-4.8,25.1-14.5,34.8c-9.7,9.7-21.3,14.5-34.8,14.5c-10.3,0-19.7-2.9-28-8.7
	c-8.4-5.8-14.5-13.2-18.4-22.2l-61.9-148.9l55.1,250.5c0.6,0.6,1,1.9,1,3.9v4.8c0,11-3.9,20.3-11.6,28c-7.7,7.7-17.1,11.6-28,11.6
	l0,0H619v217.6c0,13.5-4.8,25.1-14.5,34.8c-9.7,9.7-21.3,14.5-34.8,14.5c-14.2,0-26.1-4.8-35.8-14.5c-9.7-9.7-14.5-21.3-14.5-34.8
	V733.1h-38.7v217.6c0,13.5-4.8,25.1-14.5,34.8c-9.7,9.7-21.6,14.5-35.8,14.5c-13.5,0-25.1-4.8-34.8-14.5
	c-9.7-9.7-14.5-21.3-14.5-34.8V733.1h-8.7h-1c-11,0-20.3-3.9-28-11.6c-7.7-7.7-11.6-17.1-11.6-28v-4.8c0-1.9,0.3-3.2,1-3.9
	l54.2-250.5L325,584.1c-3.9,8.4-10.2,15.5-18.9,21.3c-8.7,5.8-17.9,8.7-27.6,8.7c-13.5,0-25.1-4.8-34.8-14.5
	c-9.7-9.7-14.5-21.3-14.5-34.8c0-8.4,1.3-14.8,3.9-19.3l108.3-260.2c6.4-14.2,16.3-25.6,29.5-34.3c13.2-8.7,27.6-13.1,43-13.1h171.2
	c16.8,0,31.6,4.5,44.5,13.5c12.9,9,22.6,20.6,29,34.8L766.9,545.5z"/>
</svg>
