<svg xmlns="http://www.w3.org/2000/svg" viewBox="0 0 114.39 117.06"><title>wrench</title><g id="Layer_2" data-name="Layer 2"><g id="Layer_1-2" data-name="Layer 1"><g id="Symbols"><g id="Regular-M"><path d="M5.82,111.3c8,8.06,19.19,7.62,27.93-1.07,7-7,21.48-31.65,34.08-44.24,8.4-8.4,17.63-4,27-7.77L86.53,28c-1-3.76.49-6.88,4.83-8.06L109.67,15a18.63,18.63,0,0,0-4.19-6.1C94.2-2.67,75.54-2.86,64.41,7.73,48.15,23.21,60.5,39.57,49.81,50.26c-13.48,13.43-33,22.9-43,33.06C-1.85,92.11-2.34,103.15,5.82,111.3Zm60.69-74a1.9,1.9,0,0,1-1-3.67l11.42-3.07a1.93,1.93,0,0,1,.88,3.76Zm33.69,18.6a32.19,32.19,0,0,0,5.86-4.49c6.15-5.57,9.33-14,8.06-19.92l-14.8,4.05a10.49,10.49,0,0,1-4.59.29ZM68,43.09a1.91,1.91,0,0,1-2.4-1.42A1.81,1.81,0,0,1,67,39.47l11.38-3.12a2,2,0,0,1,2.29,1.37,1.88,1.88,0,0,1-1.37,2.39Zm1.41,5.81a1.88,1.88,0,0,1-1-3.62l11.38-3a1.71,1.71,0,0,1,2.3,1.27,1.93,1.93,0,0,1-1.27,2.29ZM13.48,103.68A8.63,8.63,0,1,1,25.64,91.43c3.52,3.32,3.18,8.79-.05,12.25C22.52,107,16.75,107,13.48,103.68Z"/></g></g></g></g></svg>