<?xml version="1.0" encoding="utf-8"?>
<!-- Generator: Adobe Illustrator 23.0.1, SVG Export Plug-In . SVG Version: 6.00 Build 0)  -->
<svg version="1.1" id="Layer_1" xmlns="http://www.w3.org/2000/svg" xmlns:xlink="http://www.w3.org/1999/xlink" x="0px" y="0px"
	 viewBox="0 0 574 574" style="enable-background:new 0 0 574 574;" xml:space="preserve">
<path d="M211,256h-85.7c-3.8,0-7,1.2-9.4,3.6c-2.4,2.4-3.6,5.5-3.6,9.4v41.8c-0.5,3.8,0.7,7,3.6,9.4c2.9,2.4,6,3.6,9.4,3.6h115.9
	v33.8H125.4c-3.8-0.5-7,0.7-9.4,3.6c-2.4,2.9-3.6,6-3.6,9.4v41c-0.5,3.8,0.7,7,3.6,9.4c2.9,2.4,6,3.6,9.4,3.6h115.9V557
	c0,3.8,1.2,7,3.6,9.4c2.4,2.4,5.5,3.6,9.4,3.6h69.1c3.4,0,6.2-1.2,8.6-3.6c2.4-2.4,3.6-5.5,3.6-9.4V424.5h116.6c3.8,0,7-1.2,9.4-3.6
	c2.4-2.4,3.6-5.5,3.6-9.4v-41c0.5-3.8-0.7-7-3.6-9.4c-2.9-2.4-6-3.6-9.4-3.6H335.6v-33.8h116.6c3.8,0,7-1.2,9.4-3.6
	c2.4-2.4,3.6-5.5,3.6-9.4V269c0.5-3.8-0.7-7-3.6-9.4c-2.9-2.4-6-3.6-9.4-3.6h-86.4l126-232.5c1-2.9,1.4-4.8,1.4-5.8
	c0-3.8-1.2-7-3.6-9.4s-5.5-3.6-9.4-3.6H404c-5.8,0-9.6,2.4-11.5,7.2l-77,168.5c-1.4,5.8-5,14.2-10.8,25.2
	c-6.7,13.4-10.8,22.3-12.2,26.6c-8.6-19.2-16.3-35.8-23-49.7L183,11.3c-1.9-4.8-5.8-7.2-11.5-7.2H93.7c-3.4,0-6.4,1.3-9,4
	s-4,5.9-4,9.7c0,1.9,0.5,3.8,1.4,5.8L211,256z"/>
</svg>
