<?xml version="1.0" encoding="utf-8"?>
<!-- Generator: Adobe Illustrator 23.0.1, SVG Export Plug-In . SVG Version: 6.00 Build 0)  -->
<svg version="1.1" id="Layer_1" xmlns="http://www.w3.org/2000/svg" xmlns:xlink="http://www.w3.org/1999/xlink" x="0px" y="0px"
	 viewBox="0 0 1000 1000" style="enable-background:new 0 0 1000 1000;" xml:space="preserve">
<path d="M4.5,660c2,32,6.3,59.3,13,82c6,28,18.7,51.2,38,69.5s42.7,28.8,70,31.5c85.3,9.3,210,14,374,14s288.7-4.7,374-14
	c26.7-2.7,50-13.3,70-32s33-41.7,39-69c4.7-24.7,8.5-51.2,11.5-79.5c3-28.3,4.5-52.2,4.5-71.5c0-34,0.3-64.3,1-91l1-41
	c0-12.7-0.7-27-2-43c-1.3-15.3-2.7-40.7-4-76c-1.3-32-5.7-59.3-13-82c-6-28-18.7-51.2-38-69.5s-42.7-28.8-70-31.5
	c-85.3-9.3-210-14-374-14s-288.7,4.7-374,14c-26.7,2.7-50,13.3-70,32s-33,41.7-39,69C11.8,282.7,8,309.2,5,337.5
	c-3,28.3-4.5,52.2-4.5,71.5c0,34-0.3,64.3-1,91C-0.5,556,1.2,609.3,4.5,660z M356.5,321c0-14,6.3-24.3,19-31c5.3-2.7,11-4,17-4
	c7.3,0,13.7,1.7,19,5l286,179c10.7,6,16,16,16,30s-5.3,24-16,30l-286,179c-6,4-12.3,6-19,6c-9.3,0-17.7-3.5-25-10.5
	s-11-15.5-11-25.5V321z"/>
</svg>
