<svg xmlns="http://www.w3.org/2000/svg" viewBox="0 0 279.11 323.8"><defs><style>.cls-1{fill:none;stroke:#000;stroke-linecap:round;stroke-miterlimit:10;stroke-width:11px;}</style></defs><title>Asset 3</title><g id="Layer_2" data-name="Layer 2"><g id="Layer_1-2" data-name="Layer 1"><path class="cls-1" d="M37.55,174.14l-21,16.7a29.15,29.15,0,0,0,0,45.64l87.26,69.41a57,57,0,0,0,71,0l86.83-69a29.15,29.15,0,0,0,0-45.64l-87.26-69.41a57,57,0,0,0-71,0L72.21,146.61"/><circle class="cls-1" cx="139.31" cy="162.15" r="23"/><path class="cls-1" d="M241.57,149.66l21-16.7a29.15,29.15,0,0,0,0-45.64L175.35,17.91a57,57,0,0,0-71,0l-86.82,69a29.15,29.15,0,0,0,0,45.64l87.26,69.41a57,57,0,0,0,71,0l31.14-24.73"/></g></g></svg>