<svg xmlns="http://www.w3.org/2000/svg" viewBox="0 0 512 512.12"><defs><style>.cls-1{fill:#fff;}.cls-2{fill:none;}</style></defs><title>wand</title><g id="Layer_2" data-name="Layer 2"><g id="Layer_1-2" data-name="Layer 1"><g id="Regular-M"><path class="cls-1" d="M277,20.9a21,21,0,0,0-42,0v74a21,21,0,1,0,42,0Zm77.37,107.16a20.88,20.88,0,0,0,0,29.55c7.93,7.93,21.62,7.93,29.79,0l52.14-52.38A20.9,20.9,0,0,0,407,75.44ZM127.82,157.61c7.93,7.93,21.38,7.93,29.55,0,7.93-8.17,7.93-21.62,0-29.55L105.24,75.68A20.81,20.81,0,1,0,75.68,105ZM450.25,489.42c10.33,10.33,27.63,10.33,37,0,10.09-10.58,10.09-26.91,0-37L259,223.2c-10.09-10.09-27.39-10.09-37,0a26.92,26.92,0,0,0,0,37.24ZM20.9,235a20.9,20.9,0,1,0,0,41.8H95.38a20.9,20.9,0,1,0,0-41.8Zm470,41.8a20.9,20.9,0,1,0,0-41.8h-74a20.9,20.9,0,1,0,0,41.8Zm-32,196.06L310.66,324.35l12-11.53,148,148.48c4.32,4.09,5.52,8.89,1.44,13.22C468,478.12,463.47,477.4,458.9,472.84ZM75.44,406.52c-7.93,7.93-7.93,21.63-.24,29.56a21.63,21.63,0,0,0,29.79.24l52.38-52.38a21,21,0,0,0,0-29.31c-7.69-8.17-21.62-8.17-29.55,0ZM277,417.1a21,21,0,1,0-42,0v74a21,21,0,0,0,42,0Z"/></g><rect class="cls-2" y="0.12" width="512" height="512"/></g></g></svg>