<?xml version="1.0" encoding="utf-8"?>
<!-- Generator: Adobe Illustrator 23.0.1, SVG Export Plug-In . SVG Version: 6.00 Build 0)  -->
<svg version="1.1" id="Layer_1" xmlns="http://www.w3.org/2000/svg" xmlns:xlink="http://www.w3.org/1999/xlink" x="0px" y="0px"
	 viewBox="0 0 105 105.2" style="enable-background:new 0 0 105 105.2;" xml:space="preserve">
<style type="text/css">
	.st0{fill:none;}
</style>
<title>Asset 4</title>
<g>
	<g id="Layer_1-2">
		<g id="Regular-M">
			<path d="M24.6,97.2c2.1,0,3.3-1.2,7.5-5.3l18.6-17.9c0.9-0.8,1.4-1.1,2-1.1c0.6,0,1.1,0.3,2,1.1l21.1,20.3c1.7,1.6,3,2.8,5.1,2.8
				c2.5,0,4.6-1.6,4.6-5.3V21.3c0-8.6-4.2-12.9-12.8-12.9H32.8C24.3,8.4,20,12.7,20,21.3v70.5C20,95.6,22,97.2,24.6,97.2z"/>
		</g>
		<rect x="8" y="8.1" class="st0" width="88.9" height="88.9"/>
	</g>
</g>
</svg>
