<?xml version="1.0" encoding="utf-8"?>
<!-- Generator: Adobe Illustrator 23.0.1, SVG Export Plug-In . SVG Version: 6.00 Build 0)  -->
<svg version="1.1" id="Layer_1" xmlns="http://www.w3.org/2000/svg" xmlns:xlink="http://www.w3.org/1999/xlink" x="0px" y="0px"
	 viewBox="0 0 32 32" style="enable-background:new 0 0 32 32;" xml:space="preserve">
<style type="text/css">
	.st0{fill:#FFFFFF;}
</style>
<path class="st0" d="M18.3,24.3L17,25.6V13c0-0.6-0.4-1-1-1c-0.6,0-1,0.4-1,1v12.6l-1.3-1.3c-0.4-0.4-1-0.4-1.4,0
	c-0.4,0.4-0.4,1,0,1.4l3,3c0.2,0.2,0.4,0.3,0.7,0.3c0.3,0,0.5-0.1,0.7-0.3l3-3c0.4-0.4,0.4-1,0-1.4S18.7,23.9,18.3,24.3L18.3,24.3
	 M29,15.5c0,3-2.5,5.5-5.5,5.5H20c-0.6,0-1-0.4-1-1s0.4-1,1-1h3.5c1.9,0,3.5-1.6,3.5-3.5c0-1.6-1-2.9-2.5-3.3l-0.8-0.2
	c-0.4-0.1-0.7-0.5-0.7-1l0-1c0-2.7-2.2-5-5-5c-1.7,0-3.2,0.8-4.1,2.2l-0.4,0.5c-0.2,0.3-0.6,0.5-1,0.4L11.9,8c-0.1,0-0.3,0-0.4,0
	C10.2,8,9.1,9.1,9,10.4L9,11.1c0,0.4-0.3,0.8-0.7,0.9l-0.7,0.2C6,12.6,5,13.9,5,15.5C5,17.4,6.6,19,8.5,19H12c0.6,0,1,0.4,1,1
	s-0.4,1-1,1H8.5c-3,0-5.5-2.5-5.5-5.5c0-2.5,1.6-4.6,4-5.3l0,0C7.2,7.9,9.1,6,11.4,6c0.2,0,0.5,0,0.8,0.1C13.5,4.1,15.7,3,18,3
	c3.9,0,7,3.1,7,7l0,0.2l0,0C27.4,10.9,29,13,29,15.5"/>
</svg>
