<svg xmlns="http://www.w3.org/2000/svg" viewBox="0 0 32 32"><path d="M4 17a1 1 0 1 0 0 2h7v-2H4zM27.5 7h-1a.5.5 0 0 0-.5.5V8c0 1.103-.897 2-2 2h-8c-1.103 0-2-.897-2-2v-.5a.5.5 0 0 0-.5-.5h-1c-.827 0-1.5.673-1.5 1.5V17h7v-2.5a.499.499 0 0 1 .829-.376l4 3.5a.516.516 0 0 1 0 .752l-4 3.5A.498.498 0 0 1 18 21.5V19h-7v7.5c0 .827.673 1.5 1.5 1.5h15c.827 0 1.5-.673 1.5-1.5v-18c0-.827-.673-1.5-1.5-1.5zM15 8V7c0-.551.449-1 1-1h.382a.497.497 0 0 0 .447-.276l.447-.895c.256-.511.77-.829 1.342-.829h2.764c.572 0 1.086.318 1.342.829l.447.895c.085.17.256.276.447.276H24c.551 0 1 .449 1 1v1c0 .551-.449 1-1 1h-8c-.551 0-1-.449-1-1z"/></svg>