<svg xmlns="http://www.w3.org/2000/svg" viewBox="0 0 104.98 115.32"><title>Symbols</title><g id="Layer_2" data-name="Layer 2"><g id="Layer_1-2" data-name="Layer 1"><g id="Symbols"><g id="Regular-M"><path d="M11.23,86.52h37.7V94H41.31c-3.57,0-4.93,3.46-2.69,6.2L49.9,114a3.33,3.33,0,0,0,5.37,0l11.18-13.81c2.15-2.69.84-6.2-2.63-6.2H56.1V86.52H93.75c7.47,0,11.23-3.61,11.23-11.13V58.25c0-7.47-3.76-11.08-11.23-11.08H56.1V39.4H93.75c7.47,0,11.23-3.66,11.23-11.13V11.08C105,3.61,101.22,0,93.75,0H11.23C3.76,0,0,3.61,0,11.08V28.27C0,35.74,3.76,39.4,11.23,39.4H49v7.77H11.23C3.76,47.17,0,50.78,0,58.25V75.39C0,82.91,3.76,86.52,11.23,86.52Z"/></g></g></g></g></svg>