<svg xmlns="http://www.w3.org/2000/svg" viewBox="0 0 98 98"><defs><style>.cls-1{fill:none;}</style></defs><title>Asset 1</title><g id="Layer_2" data-name="Layer 2"><g id="Layer_1-2" data-name="Layer 1"><rect class="cls-1" width="98" height="98"/><g id="Regular-M"><path d="M0,33.24c0,21,17.62,41.7,45.45,59.46A8,8,0,0,0,49,94a8.46,8.46,0,0,0,3.6-1.33C80.38,74.94,98,54.26,98,33.24c0-17.47-12-29.8-28-29.8a24.79,24.79,0,0,0-21,11,24.78,24.78,0,0,0-21-11C12,3.44,0,15.77,0,33.24Zm7.94,0c0-13.13,8.49-21.86,19.94-21.86,9.28,0,14.61,5.77,17.76,10.71,1.34,2,2.18,2.51,3.36,2.51s1.92-.59,3.36-2.51c3.4-4.84,8.53-10.71,17.76-10.71,11.45,0,19.94,8.73,19.94,21.86,0,18.36-19.4,38.14-40,51.86a2.86,2.86,0,0,1-1,.59,2.43,2.43,0,0,1-1-.59C27.34,71.38,7.94,51.6,7.94,33.24Z"/></g></g></g></svg>