<?xml version="1.0" encoding="utf-8"?>
<!-- Generator: Adobe Illustrator 23.0.1, SVG Export Plug-In . SVG Version: 6.00 Build 0)  -->
<svg version="1.1" id="Layer_1" xmlns="http://www.w3.org/2000/svg" xmlns:xlink="http://www.w3.org/1999/xlink" x="0px" y="0px"
	 viewBox="0 0 32 32" style="enable-background:new 0 0 32 32;" xml:space="preserve">
<style type="text/css">
	.st0{fill:#FFFFFF;}
</style>
<path class="st0" d="M16,4C9.4,4,4,9.4,4,16s5.4,12,12,12s12-5.4,12-12S22.6,4,16,4z M16.5,20.7c0.2,0,0.5-0.1,0.9-0.2
	c0.2,0,0.4,0,0.5,0.2c0.1,0.2,0.1,0.4,0,0.6c-1.1,1.3-2.3,1.8-3.6,1.5c-0.6-0.1-0.9-0.5-1.1-0.8c-0.3-0.5-0.2-1.2,0.2-2.2
	c0,0,1.3-3.1,1.4-3.5c0.1-0.1,0-0.3-0.2-0.3c-0.3,0-0.6,0.1-0.9,0.2c-0.2,0-0.4,0-0.5-0.2c-0.1-0.2-0.1-0.4,0-0.6
	c1.1-1.3,2.3-1.8,3.6-1.5c0.6,0.1,0.9,0.5,1.1,0.8c0.3,0.5,0.2,1.2-0.2,2.2c0,0-1.3,3.1-1.4,3.5C16.2,20.6,16.3,20.7,16.5,20.7z
	 M20,11.4c-0.2,1.1-1.3,1.8-2.4,1.5c-1.1-0.2-1.8-1.3-1.5-2.4c0.3-1.1,1.3-1.7,2.4-1.5C19.5,9.4,20.2,10.4,20,11.4z"/>
</svg>
