<?xml version="1.0" encoding="utf-8"?>
<!-- Generator: Adobe Illustrator 23.0.1, SVG Export Plug-In . SVG Version: 6.00 Build 0)  -->
<svg version="1.1" id="Layer_1" xmlns="http://www.w3.org/2000/svg" xmlns:xlink="http://www.w3.org/1999/xlink" x="0px" y="0px"
	 viewBox="0 0 32 32" style="enable-background:new 0 0 32 32;" xml:space="preserve">
<style type="text/css">
	.st0{fill:#FFFFFF;}
</style>
<path class="st0" d="M16,2.5C8.5,2.5,2.5,8.5,2.5,16S8.5,29.5,16,29.5S29.5,23.5,29.5,16S23.5,2.5,16,2.5z M16.6,21.3
	c0.2,0,0.6-0.1,1-0.2c0.2,0,0.5,0,0.6,0.2c0.1,0.2,0.1,0.5,0,0.7c-1.2,1.5-2.6,2-4.1,1.7c-0.7-0.1-1-0.6-1.2-0.9
	c-0.3-0.6-0.2-1.4,0.2-2.5c0,0,1.5-3.5,1.6-4c0.1-0.1,0-0.3-0.2-0.3c-0.3,0-0.7,0.1-1,0.2c-0.2,0-0.5,0-0.6-0.2
	c-0.1-0.2-0.1-0.5,0-0.7c1.2-1.5,2.6-2,4.1-1.7c0.7,0.1,1,0.6,1.2,0.9c0.3,0.6,0.2,1.4-0.2,2.5c0,0-1.5,3.5-1.6,4
	C16.2,21.2,16.3,21.3,16.6,21.3z M20.5,10.8c-0.2,1.2-1.5,2-2.7,1.7c-1.2-0.2-2-1.5-1.7-2.7c0.3-1.2,1.5-1.9,2.7-1.7
	C20,8.5,20.7,9.7,20.5,10.8z"/>
</svg>
