<svg xmlns="http://www.w3.org/2000/svg" viewBox="0 0 22 22"><defs><style>.cls-1{fill:#fff;}</style></defs><title>Asset 1</title><g id="Layer_2" data-name="Layer 2"><g id="Layer_1-2" data-name="Layer 1"><path class="cls-1" d="M4,20H2V18a1,1,0,0,0-2,0v3a1,1,0,0,0,1,1H4a1,1,0,0,0,0-2m17-3a1,1,0,0,0-1,1v2H18a1,1,0,0,0,0,2h3a1,1,0,0,0,1-1V18a1,1,0,0,0-1-1M1,5A1,1,0,0,0,2,4V2H4A1,1,0,0,0,4,0H1A1,1,0,0,0,0,1V4A1,1,0,0,0,1,5M3,3.5v15a.5.5,0,0,0,.5.5h15a.5.5,0,0,0,.5-.5V3.5a.5.5,0,0,0-.5-.5H3.5a.5.5,0,0,0-.5.5M22,1V4a1,1,0,0,1-2,0V2H18a1,1,0,0,1,0-2h3a1,1,0,0,1,1,1"/></g></g></svg>