<?xml version="1.0" encoding="utf-8"?>
<!-- Generator: Adobe Illustrator 23.0.1, SVG Export Plug-In . SVG Version: 6.00 Build 0)  -->
<svg version="1.1" id="Layer_1" xmlns="http://www.w3.org/2000/svg" xmlns:xlink="http://www.w3.org/1999/xlink" x="0px" y="0px"
	 viewBox="0 0 22 22" style="enable-background:new 0 0 22 22;" xml:space="preserve">
<style type="text/css">
	.st0{fill:#FFFFFF;}
</style>
<title>Asset 1</title>
<g>
	<g id="Layer_1-2">
		<path class="st0" d="M4.8,19H3v-1.8c0-0.5-0.4-0.9-0.9-0.9s-0.9,0.4-0.9,0.9v2.7c0,0.5,0.4,0.9,0.9,0.9h2.7c0.5,0,0.9-0.4,0.9-0.9
			S5.3,19,4.8,19 M19.9,16.3c-0.5,0-0.9,0.4-0.9,0.9V19h-1.8c-0.5,0-0.9,0.4-0.9,0.9s0.4,0.9,0.9,0.9h2.7c0.5,0,0.9-0.4,0.9-0.9
			v-2.7C20.8,16.7,20.4,16.3,19.9,16.3 M2.1,5.7C2.6,5.7,3,5.3,3,4.8V3h1.8c0.5,0,0.9-0.4,0.9-0.9S5.3,1.2,4.8,1.2H2.1
			c-0.5,0-0.9,0.4-0.9,0.9v2.7C1.2,5.3,1.6,5.7,2.1,5.7 M3.9,4.3v13.4c0,0.2,0.2,0.4,0.4,0.4h13.4c0.2,0,0.4-0.2,0.4-0.4V4.3
			c0-0.2-0.2-0.4-0.4-0.4H4.3C4.1,3.9,3.9,4.1,3.9,4.3 M20.8,2.1v2.7c0,0.5-0.4,0.9-0.9,0.9S19,5.3,19,4.8V3h-1.8
			c-0.5,0-0.9-0.4-0.9-0.9s0.4-0.9,0.9-0.9h2.7C20.4,1.2,20.8,1.6,20.8,2.1"/>
	</g>
</g>
</svg>
