<?xml version="1.0" encoding="utf-8"?>
<!-- Generator: Adobe Illustrator 23.0.1, SVG Export Plug-In . SVG Version: 6.00 Build 0)  -->
<svg version="1.1" id="Layer_1" xmlns="http://www.w3.org/2000/svg" xmlns:xlink="http://www.w3.org/1999/xlink" x="0px" y="0px"
	 viewBox="0 0 89.9 89.9" style="enable-background:new 0 0 89.9 89.9;" xml:space="preserve">
<title>QR</title>
<g>
	<g id="Layer_1-2">
		<g id="Symbols">
			<g id="Regular-M">
				<path d="M56.1,41.6h18.5c5.2,0,7.8-2.6,7.8-8V15.4c0-5.4-2.6-7.9-7.8-7.9H56.1c-5.2,0-7.8,2.6-7.8,7.9v18.2
					C48.3,39,50.9,41.6,56.1,41.6z M15.3,41.6h18.5c5.2,0,7.8-2.6,7.8-8V15.4c0-5.4-2.6-7.9-7.8-7.9H15.3c-5.2,0-7.8,2.6-7.8,7.9
					v18.2C7.5,39,10.1,41.6,15.3,41.6L15.3,41.6z M15.3,35.8c-1.4,0-2.1-0.7-2.1-2.2V15.4c0-1.5,0.7-2.2,2.1-2.2h18.3
					c1.1-0.1,2,0.6,2.2,1.7c0,0.2,0,0.3,0,0.5v18.2c0,1.5-0.7,2.2-2.2,2.2L15.3,35.8z M56.2,35.8c-1.5,0-2.2-0.7-2.2-2.2V15.4
					c0-1.5,0.7-2.2,2.2-2.2h18.3c1.4,0,2.1,0.7,2.1,2.2v18.2c0,1.5-0.7,2.2-2.1,2.2L56.2,35.8z M21,28.8h7c0.6,0,0.8-0.3,0.8-0.9
					v-6.8c0-0.7-0.3-0.9-0.8-0.9h-7c-0.6,0-0.8,0.3-0.8,0.9v6.8C20.2,28.6,20.4,28.8,21,28.8z M62.1,28.8h7c0.6,0,0.8-0.3,0.8-0.9
					v-6.8c0-0.7-0.2-0.9-0.8-0.9h-7c-0.6,0-0.8,0.3-0.8,0.9v6.8C61.3,28.6,61.5,28.8,62.1,28.8z M15.3,82.4h18.6
					c5.2,0,7.8-2.6,7.8-7.9V56.2c0-5.3-2.6-7.9-7.8-7.9H15.3c-5.2,0-7.8,2.6-7.8,7.9v18.2C7.5,79.8,10.1,82.4,15.3,82.4z M51.1,58.8
					h7c0.6,0,0.8-0.2,0.8-0.9v-6.8c0-0.7-0.2-0.9-0.8-0.9h-7c-0.6,0-0.8,0.2-0.8,0.9v6.8C50.3,58.6,50.5,58.8,51.1,58.8L51.1,58.8z
					 M72.7,58.8h7c0.6,0,0.8-0.2,0.8-0.9v-6.8c0-0.7-0.2-0.9-0.8-0.9h-7c-0.6,0-0.8,0.2-0.8,0.9v6.8C71.9,58.6,72.1,58.8,72.7,58.8
					L72.7,58.8z M15.3,76.7c-1.4,0-2.1-0.7-2.1-2.2V56.3c0-1.5,0.7-2.2,2.1-2.2h18.3c1.4,0,2.2,0.7,2.2,2.2v18.2
					c0.1,1.1-0.6,2-1.6,2.2c-0.2,0-0.3,0-0.5,0H15.3z M21,69.7h7c0.6,0,0.8-0.2,0.8-1V62c0-0.7-0.3-0.9-0.8-0.9h-7
					c-0.6,0-0.8,0.2-0.8,0.9v6.7C20.2,69.4,20.4,69.7,21,69.7L21,69.7z M62,69.7h7c0.6,0,0.8-0.2,0.8-1V62c0-0.7-0.3-0.9-0.8-0.9h-7
					c-0.6,0-0.8,0.2-0.8,0.9v6.7C61.2,69.4,61.4,69.7,62,69.7L62,69.7z M51.1,80.4h7c0.6,0,0.8-0.2,0.8-0.9v-6.8
					c0-0.7-0.2-0.9-0.8-0.9h-7c-0.6,0-0.8,0.2-0.8,0.9v6.8C50.3,80.2,50.5,80.4,51.1,80.4z M72.7,80.4h7c0.6,0,0.8-0.2,0.8-0.9v-6.8
					c0-0.7-0.2-0.9-0.8-0.9h-7c-0.6,0-0.8,0.2-0.8,0.9v6.8C71.9,80.2,72.1,80.4,72.7,80.4z"/>
			</g>
		</g>
	</g>
</g>
</svg>
