<?xml version="1.0" encoding="utf-8"?>
<!-- Generator: Adobe Illustrator 23.0.1, SVG Export Plug-In . SVG Version: 6.00 Build 0)  -->
<svg version="1.1" id="Layer_1" xmlns="http://www.w3.org/2000/svg" xmlns:xlink="http://www.w3.org/1999/xlink" x="0px" y="0px"
	 viewBox="0 0 192.1 192.1" style="enable-background:new 0 0 192.1 192.1;" xml:space="preserve">
<style type="text/css">
	.st0{fill:none;}
</style>
<title>share</title>
<g>
	<g id="Layer_1-2">
		<g id="Layer_1-2-2">
			<g id="Thin-M">
				<path d="M105.8,177.5c3,0,5.4-1.6,7.8-3.8l73.2-68.1c4.5-4.2,5.3-6.9,5.3-9.6s-0.7-5.2-5.3-9.7l-73.2-67.9
					c-2.5-2.2-4.7-3.9-7.8-3.9c-4.4,0-6.9,3.4-6.9,7.5v40h-4C36.5,62.1,0,95.7,0,169.8c0,4.8,2.8,7.8,6.4,7.8c3.1,0,5.3-1.3,7.2-5.5
					c13.2-29.8,38.7-41.2,81.4-41.2h4v39.3C98.9,174.2,101.4,177.5,105.8,177.5z"/>
			</g>
		</g>
		<rect class="st0" width="192.1" height="192.1"/>
	</g>
</g>
</svg>
