<?xml version="1.0" encoding="utf-8"?>
<!-- Generator: Adobe Illustrator 23.0.1, SVG Export Plug-In . SVG Version: 6.00 Build 0)  -->
<svg version="1.1" id="Layer_1" xmlns="http://www.w3.org/2000/svg" xmlns:xlink="http://www.w3.org/1999/xlink" x="0px" y="0px"
	 viewBox="0 0 235 199.2" style="enable-background:new 0 0 235 199.2;" xml:space="preserve">
<title>share</title>
<g>
	<g id="Layer_1-2">
		<g id="Thin-M">
			<path d="M129.4,199.2c3.6,0,6.6-1.9,9.6-4.6l89.5-83.3c5.5-5.2,6.5-8.4,6.5-11.7s-0.9-6.4-6.5-11.8L139,4.8
				c-3.1-2.7-5.8-4.8-9.6-4.8C124,0,121,4.1,121,9.2v48.9h-4.9C44.6,58.1,0,99.1,0,189.8c0,5.9,3.4,9.5,7.8,9.5
				c3.8,0,6.5-1.6,8.8-6.7c16.2-36.4,47.4-50.4,99.6-50.4h4.9v48.1C121,195.2,124,199.2,129.4,199.2z"/>
		</g>
	</g>
</g>
</svg>
