<svg xmlns="http://www.w3.org/2000/svg" viewBox="0 0 32 32">
    <path d="M20.707 19.293a1 1 0 1 1-1.414 1.414L16 17.414l-3.293 3.293a1 1 0 0 1-1.414-1.414L14.586 16l-3.293-3.293a1 1 0 0 1 1.414-1.414L16 14.586l3.293-3.293a1 1 0 0 1 1.414 1.414L17.414 16zm6.561-9.732l-4.829-4.829A2.484 2.484 0 0 0 20.671 4h-9.342a2.484 2.484 0 0 0-1.768.732L4.732 9.561A2.482 2.482 0 0 0 4 11.328v9.344a2.482 2.482 0 0 0 .732 1.767l4.829 4.829a2.484 2.484 0 0 0 1.768.732h9.342a2.484 2.484 0 0 0 1.768-.732l4.829-4.829A2.482 2.482 0 0 0 28 20.672v-9.344a2.482 2.482 0 0 0-.732-1.767z"/>
</svg>
