<svg xmlns="http://www.w3.org/2000/svg" viewBox="0 0 106.31 106"><defs><style>.cls-1{fill:#fff;}.cls-2{fill:none;}</style></defs><title>Asset 2</title><g id="Layer_2" data-name="Layer 2"><g id="Layer_1-2" data-name="Layer 1"><g id="Regular-M"><path class="cls-1" d="M40.62,27a.93.93,0,0,0,1-.88c1.66-7.81,1.56-8.1,9.77-9.76a1,1,0,0,0,0-2c-8.21-1.66-8.11-2-9.77-9.72-.1-.54-.39-.93-1-.93s-.87.39-1,.93c-1.66,7.76-1.56,8.06-9.77,9.72a1,1,0,0,0,0,2C38.09,18,38,18.32,39.65,26.13A.93.93,0,0,0,40.62,27ZM81,44.25a1.22,1.22,0,0,0,1.22-1.07c1.66-9.28,1.71-9.87,11.52-11.58a1.18,1.18,0,0,0,1.12-1.22,1.22,1.22,0,0,0-1.12-1.22c-9.81-1.66-9.86-2.24-11.52-11.52A1.26,1.26,0,0,0,81,16.52a1.24,1.24,0,0,0-1.22,1.12C78.08,26.92,78,27.5,68.21,29.16a1.27,1.27,0,0,0-1.12,1.22,1.21,1.21,0,0,0,1.12,1.22c9.82,1.71,9.87,2.3,11.53,11.58A1.21,1.21,0,0,0,81,44.25Zm-67.09,14a1.26,1.26,0,0,0,1.22-1.12c1.66-9.28,1.71-9.86,11.52-11.52a1.26,1.26,0,0,0,1.12-1.22,1.21,1.21,0,0,0-1.12-1.22c-9.81-1.71-9.86-2.3-11.52-11.58a1.22,1.22,0,0,0-1.22-1.07,1.21,1.21,0,0,0-1.22,1.07C11,40.88,10.94,41.47,1.12,43.18A1.21,1.21,0,0,0,0,44.4a1.27,1.27,0,0,0,1.12,1.22c9.82,1.66,9.87,2.24,11.53,11.52A1.24,1.24,0,0,0,13.87,58.26ZM97.27,100a5.26,5.26,0,0,0,7.51,0,5.44,5.44,0,0,0,0-7.52L58.35,45.91a5.37,5.37,0,0,0-7.52,0,5.48,5.48,0,0,0,0,7.57ZM68.9,66.47,54.54,52.11c-.88-.88-1.07-1.81-.29-2.68s1.8-.59,2.68.34L71.29,64.12ZM37.06,100.79a1.69,1.69,0,0,0,1.66-1.56c1.56-13,2.2-13.38,15.48-15.53,1-.19,1.66-.68,1.66-1.66a1.66,1.66,0,0,0-1.47-1.66C41,77.84,40.28,77.89,38.72,64.86a1.7,1.7,0,0,0-1.66-1.57,1.62,1.62,0,0,0-1.66,1.52C33.69,78,33.25,78.48,19.73,80.38A1.62,1.62,0,0,0,18.26,82a1.68,1.68,0,0,0,1.47,1.66c13.52,2.59,13.91,2.59,15.67,15.63A1.61,1.61,0,0,0,37.06,100.79Z"/></g><rect class="cls-2" x="0.31" width="106" height="106"/></g></g></svg>