<?xml version="1.0" encoding="utf-8"?>
<!-- Generator: Adobe Illustrator 23.0.1, SVG Export Plug-In . SVG Version: 6.00 Build 0)  -->
<svg version="1.1" id="Layer_1" xmlns="http://www.w3.org/2000/svg" xmlns:xlink="http://www.w3.org/1999/xlink" x="0px" y="0px"
	 viewBox="0 0 37.8 37.8" style="enable-background:new 0 0 37.8 37.8;" xml:space="preserve">
<style type="text/css">
	.st0{fill:none;}
	.st1{fill:#FFFFFF;}
</style>
<title>warning-white</title>
<g>
	<g id="Layer_1-2">
		<rect class="st0" width="37.8" height="37.8"/>
		<path class="st1" d="M18.9,28.1c-0.7,0-1.3-0.6-1.3-1.3c0-0.7,0.6-1.3,1.3-1.3c0.7,0,1.3,0.6,1.3,1.3
			C20.2,27.5,19.6,28.1,18.9,28.1 M18,15.4c0.5-0.5,1.3-0.5,1.8,0c0,0,0,0,0,0c0.2,0.2,0.4,0.6,0.4,0.9L20,22.2
			c0,0.4-0.3,0.6-0.7,0.6c0,0,0,0,0,0h-0.9c-0.4,0-0.6-0.3-0.7-0.6l-0.2-5.9C17.6,16,17.7,15.6,18,15.4 M34.2,29.5L21.1,5.8
			c-0.7-1.2-2.2-1.6-3.4-1c-0.4,0.2-0.7,0.6-1,1L3.6,29.5l0,0c-0.7,1.3-0.2,2.8,1.1,3.5C5,33.2,5.5,33.3,6,33.3h26.1
			c1.4,0,2.6-1.1,2.6-2.6c0-0.5-0.1-0.9-0.3-1.3"/>
	</g>
</g>
</svg>
