<svg xmlns="http://www.w3.org/2000/svg" viewBox="0 0 37.84 37.84"><defs><style>.cls-1{fill:none;}.cls-2{fill:#fff;}</style></defs><title>warning-white</title><g id="Layer_2" data-name="Layer 2"><g id="Layer_1-2" data-name="Layer 1"><rect class="cls-1" width="37.84" height="37.84"/><path class="cls-2" d="M18.92,25.93a1,1,0,1,1,1-1,1,1,0,0,1-1,1m-.72-9.71a1,1,0,0,1,1.44,0,1,1,0,0,1,.28.71l-.15,4.51a.5.5,0,0,1-.51.49h-.69a.51.51,0,0,1-.51-.48l-.14-4.52a1,1,0,0,1,.28-.71M30.67,27,20.58,8.89a1.9,1.9,0,0,0-3.32,0L7.17,27h0A2,2,0,0,0,8,29.68a2,2,0,0,0,1,.24h20a2,2,0,0,0,1.76-3"/></g></g></svg>