<svg xmlns="http://www.w3.org/2000/svg" viewBox="0 0 90.67 74.02"><title>Regular-M</title><g id="Layer_2" data-name="Layer 2"><g id="Layer_1-2" data-name="Layer 1"><g id="Regular-M"><path d="M90.67,37a4.41,4.41,0,0,0-1.46-3.27L56.84,1.46A4.39,4.39,0,0,0,53.56,0a4.12,4.12,0,0,0-4.24,4.2,4.35,4.35,0,0,0,1.17,3.08L61.43,18.41l16.4,15-11.77-.73H4.3A4.14,4.14,0,0,0,0,37a4.15,4.15,0,0,0,4.3,4.35H66.06l11.82-.73-16.45,15L50.49,66.75a4.23,4.23,0,0,0-1.17,3.07A4.11,4.11,0,0,0,53.56,74a4.48,4.48,0,0,0,3.18-1.36L89.21,40.28A4.39,4.39,0,0,0,90.67,37Z"/></g></g></g></svg>