<?xml version="1.0" encoding="utf-8"?>
<!-- Generator: Adobe Illustrator 23.0.1, SVG Export Plug-In . SVG Version: 6.00 Build 0)  -->
<svg version="1.1" id="Layer_1" xmlns="http://www.w3.org/2000/svg" xmlns:xlink="http://www.w3.org/1999/xlink" x="0px" y="0px"
	 viewBox="0 0 32 32" style="enable-background:new 0 0 32 32;" xml:space="preserve">
<style type="text/css">
	.st0{fill:#FFFFFF;}
</style>
<path class="st0" d="M23.5,12H20c-0.6,0-1,0.4-1,1s0.4,1,1,1h3v12H9V14h3c0.6,0,1-0.4,1-1s-0.4-1-1-1H8.5C7.7,12,7,12.7,7,13.5v13
	C7,27.3,7.7,28,8.5,28h15c0.8,0,1.5-0.7,1.5-1.5v-13C25,12.7,24.3,12,23.5,12 M13.7,17.3l1.3,1.3V4c0-0.6,0.4-1,1-1c0.6,0,1,0.4,1,1
	v14.6l1.3-1.3c0.4-0.4,1-0.4,1.4,0s0.4,1,0,1.4l-3,3C16.5,21.9,16.3,22,16,22c-0.3,0-0.5-0.1-0.7-0.3l-3-3c-0.4-0.4-0.4-1,0-1.4
	S13.3,16.9,13.7,17.3"/>
</svg>
