<svg xmlns="http://www.w3.org/2000/svg" xmlns:xlink="http://www.w3.org/1999/xlink" viewBox="0 0 512 512"><defs><style>.cls-1{fill:#fff;}.cls-2{fill:#fb2c57;}.cls-3{clip-path:url(#clip-path);}.cls-4{clip-path:url(#clip-path-2);}</style><clipPath id="clip-path"><path id="SVGID" class="cls-1" d="M251.33,288.67,158.76,396.21c-4.08,4.09-1.36,10.21,4.09,10.21H350a6.17,6.17,0,0,0,4.76-10.21L262.22,288.67c-1.36-1.36-3.4-2.72-5.44-2.72-2,.68-4.09,1.36-5.45,2.72"/></clipPath><clipPath id="clip-path-2"><path id="SVGID-2" data-name="SVGID" class="cls-1" d="M187.35,249.87a68.12,68.12,0,0,0,23.82,52.41,9.46,9.46,0,0,0,2.73,2.05,2.07,2.07,0,0,0,2.72,0c.68-.68,1.36-1.37,1.36-2.05,3.4-4.08,5.45-6.8,7.49-8.84h0a1.29,1.29,0,0,0,0-2.05h0a52.41,52.41,0,1,1,64,0,1.29,1.29,0,0,0,0,2.05h0c3.4,4.08,5.45,6.8,7.49,8.84.68.68.68,1.37,1.36,2.05s1.36.68,2.72,0a9.39,9.39,0,0,0,2.72-2.05c14.3-12.93,23.83-31.31,23.83-52.41a69.72,69.72,0,0,0-69.43-69.42c-38.12,0-70.79,31.31-70.79,69.42m-43.56,0A113.31,113.31,0,0,0,184.63,337l.68.68h0a2.07,2.07,0,0,0,2.72,0V337c3.41-4.09,6.13-6.81,7.49-8.85,0-.68.68-.68,1.36-1.36a1.28,1.28,0,0,0,0-2h0l-.68-.68a96,96,0,1,1,122.52,0l-1.36,1.36a1.28,1.28,0,0,0,0,2h0c.68.68.68,1.36,1.36,1.36,2,2,4.08,5.44,7.49,8.85l.68.68h0a1.28,1.28,0,0,0,2,0,.67.67,0,0,0,.68-.68c25.18-20.42,40.84-51.73,40.84-87.13a112.71,112.71,0,0,0-113-113c-62.62,0-113.67,49.69-113.67,112.31m-43.56,0A155.89,155.89,0,0,0,156,369.67a.67.67,0,0,1,.68.68,2.07,2.07,0,0,0,2.72,0l.68-.68c3.41-4.08,6.13-7.49,8.17-9.53a.67.67,0,0,1,.68-.68,2.07,2.07,0,0,0,0-2.72h0a.67.67,0,0,1-.68-.68c-31.31-25.19-50.37-63.31-50.37-106.19A138.86,138.86,0,1,1,345.26,356.74l-.68.68h0a1.27,1.27,0,0,0,0,2h0l.68.68a93.12,93.12,0,0,0,8.85,10.21h0a1.27,1.27,0,0,0,2,0h0a154.13,154.13,0,0,0,57.18-120.48,156.55,156.55,0,0,0-313.1,0"/></clipPath></defs><title>AirplayAudio</title><g id="Layer_2" data-name="Layer 2"><g id="Layer_1-2" data-name="Layer 1"><rect class="cls-2" width="512" height="512"/><path id="SVGID-3" data-name="SVGID" class="cls-1" d="M251.33,288.67,158.76,396.21c-4.08,4.09-1.36,10.21,4.09,10.21H350a6.17,6.17,0,0,0,4.76-10.21L262.22,288.67c-1.36-1.36-3.4-2.72-5.44-2.72-2,.68-4.09,1.36-5.45,2.72"/><g class="cls-3"><rect class="cls-1" x="113.16" y="243.07" width="286.56" height="206.92"/></g><path id="SVGID-4" data-name="SVGID" class="cls-1" d="M187.35,249.87a68.12,68.12,0,0,0,23.82,52.41,9.46,9.46,0,0,0,2.73,2.05,2.07,2.07,0,0,0,2.72,0c.68-.68,1.36-1.37,1.36-2.05,3.4-4.08,5.45-6.8,7.49-8.84h0a1.29,1.29,0,0,0,0-2.05h0a52.41,52.41,0,1,1,64,0,1.29,1.29,0,0,0,0,2.05h0c3.4,4.08,5.45,6.8,7.49,8.84.68.68.68,1.37,1.36,2.05s1.36.68,2.72,0a9.39,9.39,0,0,0,2.72-2.05c14.3-12.93,23.83-31.31,23.83-52.41a69.72,69.72,0,0,0-69.43-69.42c-38.12,0-70.79,31.31-70.79,69.42m-43.56,0A113.31,113.31,0,0,0,184.63,337l.68.68h0a2.07,2.07,0,0,0,2.72,0V337c3.41-4.09,6.13-6.81,7.49-8.85,0-.68.68-.68,1.36-1.36a1.28,1.28,0,0,0,0-2h0l-.68-.68a96,96,0,1,1,122.52,0l-1.36,1.36a1.28,1.28,0,0,0,0,2h0c.68.68.68,1.36,1.36,1.36,2,2,4.08,5.44,7.49,8.85l.68.68h0a1.28,1.28,0,0,0,2,0,.67.67,0,0,0,.68-.68c25.18-20.42,40.84-51.73,40.84-87.13a112.71,112.71,0,0,0-113-113c-62.62,0-113.67,49.69-113.67,112.31m-43.56,0A155.89,155.89,0,0,0,156,369.67a.67.67,0,0,1,.68.68,2.07,2.07,0,0,0,2.72,0l.68-.68c3.41-4.08,6.13-7.49,8.17-9.53a.67.67,0,0,1,.68-.68,2.07,2.07,0,0,0,0-2.72h0a.67.67,0,0,1-.68-.68c-31.31-25.19-50.37-63.31-50.37-106.19A138.86,138.86,0,1,1,345.26,356.74l-.68.68h0a1.27,1.27,0,0,0,0,2h0l.68.68a93.12,93.12,0,0,0,8.85,10.21h0a1.27,1.27,0,0,0,2,0h0a154.13,154.13,0,0,0,57.18-120.48,156.55,156.55,0,0,0-313.1,0"/><g class="cls-4"><rect class="cls-1" x="56.66" y="49.76" width="400.23" height="364.83"/></g></g></g></svg>