<svg xmlns="http://www.w3.org/2000/svg" viewBox="0 0 512 512"><defs><style>.cls-1{fill:#fb9302;}.cls-2{fill:#fff;}</style></defs><title>Airplane</title><g id="Layer_2" data-name="Layer 2"><g id="Layer_1-2" data-name="Layer 1"><rect class="cls-1" width="512" height="512"/><g id="Regular-M"><path class="cls-2" d="M436,243.72c-.15-17.46-23.87-30.14-52.36-30.14H323.57c-8.35,0-11.49-1.34-16.41-7L206.92,97.24a14.76,14.76,0,0,0-11.48-5.37H178.13c-3.88,0-6.11,3.43-4.17,7.6l51.61,114.11-75.78,8.66-27-49.53c-1.94-3.73-5.22-5.37-10.14-5.37h-6.42a6,6,0,0,0-6.41,6.42V313.67c0,3.88,2.54,6.27,6.41,6.27h6.42c4.92,0,8.2-1.64,10.14-5.22l27-49.52,75.78,8.65L174,388c-1.94,4,.29,7.61,4.17,7.61h17.31a15.26,15.26,0,0,0,11.48-5.37L307.16,280.71c4.92-5.52,8.06-6.86,16.41-6.86h60.11C412.17,273.85,435.89,261,436,243.72Z"/></g></g></g></svg>