<svg xmlns="http://www.w3.org/2000/svg" viewBox="0 0 274.2 258.15"><defs><style>.cls-1{fill:#0040db;}</style></defs><title>Ask</title><g id="Layer_2" data-name="Layer 2"><g id="Layer_1-2" data-name="Layer 1"><g id="Regular-M"><path class="cls-1" d="M73.9,258.15c4.85,0,8.46-2.48,14.31-8l44.91-41.05,84.1.12c37.08.12,57-20.53,57-57V57c0-36.45-19.9-57-57-57H57C19.91,0,0,20.4,0,57v95.3c0,36.58,19.91,57,57,56.86h5.85v36.2C62.83,253.05,66.81,258.15,73.9,258.15ZM67.43,69.67a7.9,7.9,0,1,1,0-15.8H206.77a7.9,7.9,0,1,1,0,15.8Zm0,44.54a7.9,7.9,0,1,1,0-15.8H206.77a7.9,7.9,0,1,1,0,15.8Zm0,44.66a8,8,0,0,1-8-8,7.86,7.86,0,0,1,8-8h90.7a7.83,7.83,0,0,1,7.83,8,8,8,0,0,1-7.83,8Z"/></g></g></g></svg>