<svg xmlns="http://www.w3.org/2000/svg" viewBox="0 0 512 512"><defs><style>.cls-1{fill:#ff4450;}.cls-2{fill:#fff;}</style></defs><title>Clipboard</title><g id="Layer_2" data-name="Layer 2"><g id="Layer_1-2" data-name="Layer 1"><rect class="cls-1" width="512" height="512"/><g id="Regular-M"><path class="cls-2" d="M275.14,127.86c0,24.6,10.13,28.54,10.13,39.46,0,2.5-.53,4.34-2.11,7.63l-11.84,22.23a64.76,64.76,0,0,1-3.94,6.7v.79c11.05,3,18.15,8,23.41,16.31h.79l15.92-29.85c5-9.34,9.07-10.13,20.78-10.13a53,53,0,1,0-53.14-53.14Zm21.44,0c0-17.36,14.34-31.3,31.7-31.3,17.75,0,31.83,13.94,31.83,31.3a31.77,31.77,0,0,1-63.53,0Zm-171.12,0A53,53,0,0,0,178.86,181c10.92,0,15.26.52,19.6,8.55L316.7,412.1c19.73-5.4,23.15-26.84,11.45-59.59L287.77,240.19c-5.66-15.79-13.42-22.63-28-26.84l-9.6-2.63c-6.84-2-10.26-5-15.52-15.39L223.84,175c-1.71-3.29-2.23-5.13-2.23-7.63,0-11,10.26-15,10.26-39.46a53.21,53.21,0,0,0-106.41,0ZM249.62,243.08a11,11,0,1,1,10.92,11.31A11.06,11.06,0,0,1,249.62,243.08Zm-71,109.43c-12.24,33-8.29,54.19,12,59.59L247.12,305l-28.54-54.32H217ZM147,127.86c0-17.36,14.07-31.3,31.83-31.3A31.5,31.5,0,1,1,147,127.86Z"/></g></g></g></svg>