<svg xmlns="http://www.w3.org/2000/svg" viewBox="0 0 512 512"><defs><style>.cls-1{fill:#fa3c2e;}.cls-2{fill:#fff;}</style></defs><title>Date</title><g id="Layer_2" data-name="Layer 2"><g id="Layer_1-2" data-name="Layer 1"><rect class="cls-1" width="512" height="512"/><g id="Regular-M"><path class="cls-2" d="M151.26,396.24H352.8c30.84,0,46.19-15.35,46.19-45.74V170.35c0-30.4-15.35-45.74-46.19-45.74H151.26c-30.84,0-46.33,15.19-46.33,45.74V350.5Q104.93,396.31,151.26,396.24ZM149,372.48c-13.13,0-20.36-6.93-20.36-20.65V212.69c0-13.57,7.23-20.66,20.36-20.66H354.72c13.13,0,20.51,7.09,20.51,20.66V351.83c0,13.72-7.38,20.65-20.51,20.65ZM223.11,245h8.71c5.16,0,6.93-1.47,6.93-6.64v-8.7c0-5.17-1.77-6.79-6.93-6.79h-8.71c-5.16,0-6.93,1.62-6.93,6.79v8.7C216.18,243.53,218,245,223.11,245Zm49.13,0h8.56c5.17,0,6.94-1.47,6.94-6.64v-8.7c0-5.17-1.77-6.79-6.94-6.79h-8.56c-5.31,0-6.93,1.62-6.93,6.79v8.7C265.31,243.53,266.93,245,272.24,245Zm49,0h8.7c5.17,0,6.79-1.47,6.79-6.64v-8.7c0-5.17-1.62-6.79-6.79-6.79h-8.7c-5.16,0-6.94,1.62-6.94,6.79v8.7C314.29,243.53,316.07,245,321.23,245Zm-147.1,48.25h8.7c5.17,0,6.79-1.47,6.79-6.64v-8.7c0-5.17-1.62-6.64-6.79-6.64h-8.7c-5.17,0-6.94,1.47-6.94,6.64v8.7C167.19,291.78,169,293.25,174.13,293.25Zm49,0h8.71c5.16,0,6.93-1.47,6.93-6.64v-8.7c0-5.17-1.77-6.64-6.93-6.64h-8.71c-5.16,0-6.93,1.47-6.93,6.64v8.7C216.18,291.78,218,293.25,223.11,293.25Zm49.13,0h8.56c5.17,0,6.94-1.47,6.94-6.64v-8.7c0-5.17-1.77-6.64-6.94-6.64h-8.56c-5.31,0-6.93,1.47-6.93,6.64v8.7C265.31,291.78,266.93,293.25,272.24,293.25Zm49,0h8.7c5.17,0,6.79-1.47,6.79-6.64v-8.7c0-5.17-1.62-6.64-6.79-6.64h-8.7c-5.16,0-6.94,1.47-6.94,6.64v8.7C314.29,291.78,316.07,293.25,321.23,293.25Zm-147.1,48.4h8.7c5.17,0,6.79-1.63,6.79-6.79v-8.71c0-5.16-1.62-6.64-6.79-6.64h-8.7c-5.17,0-6.94,1.48-6.94,6.64v8.71C167.19,340,169,341.65,174.13,341.65Zm49,0h8.71c5.16,0,6.93-1.63,6.93-6.79v-8.71c0-5.16-1.77-6.64-6.93-6.64h-8.71c-5.16,0-6.93,1.48-6.93,6.64v8.71C216.18,340,218,341.65,223.11,341.65Zm49.13,0h8.56c5.17,0,6.94-1.63,6.94-6.79v-8.71c0-5.16-1.77-6.64-6.94-6.64h-8.56c-5.31,0-6.93,1.48-6.93,6.64v8.71C265.31,340,266.93,341.65,272.24,341.65Z"/></g></g></g></svg>