<svg xmlns="http://www.w3.org/2000/svg" viewBox="0 0 512 512"><defs><style>.cls-1{fill:#292b35;}.cls-2{fill:#3e885f;}.cls-3{fill:#b09146;}.cls-4{fill:#cb3643;}.cls-5{fill:#359cbe;}.cls-6{fill:#efefee;}.cls-7{fill:#b2cac3;}.cls-8{fill:#cda0c5;}.cls-9{fill:#b1c074;}.cls-10{fill:#d0965a;}</style></defs><title>Dictate</title><g id="Layer_2" data-name="Layer 2"><g id="Layer_1-2" data-name="Layer 1"><rect class="cls-1" width="512" height="512"/><circle class="cls-2" cx="274.12" cy="240.46" r="116.85"/><circle class="cls-3" cx="222.38" cy="221.7" r="116.85"/><circle class="cls-4" cx="290.27" cy="288.83" r="116.85"/><circle class="cls-5" cx="238.93" cy="270.01" r="116.85"/><circle class="cls-6" cx="258" cy="255.73" r="117.49"/><path class="cls-7" d="M140.51,255.73a117.1,117.1,0,0,1,35.71-84.33A116.75,116.75,0,0,0,122.08,270a118.35,118.35,0,0,0,.71,12.83A117.53,117.53,0,0,0,160,320.48,116.89,116.89,0,0,1,140.51,255.73Z"/><path class="cls-8" d="M258,373.22a117,117,0,0,1-65-19.59,117.42,117.42,0,0,0,32.46,32.45,116.77,116.77,0,0,0,90.24-28A117,117,0,0,1,258,373.22Z"/><path class="cls-9" d="M258,138.25a116.92,116.92,0,0,1,60.2,16.58A117.49,117.49,0,0,0,287,124.31a118.39,118.39,0,0,0-12.84-.71,116.56,116.56,0,0,0-85.79,37.53A117,117,0,0,1,258,138.25Z"/><path class="cls-10" d="M375.74,255.73a117,117,0,0,1-14.41,56.41,116.38,116.38,0,0,0,27.56-75.36c0-4-.21-8-.6-11.94a117.48,117.48,0,0,0-33-35.36A116.88,116.88,0,0,1,375.74,255.73Z"/></g></g></svg>