<svg xmlns="http://www.w3.org/2000/svg" viewBox="0 0 512 512"><defs><style>.cls-1{fill:#fab613;}.cls-2{fill:#fff;}.cls-3{fill:none;stroke:#fff;stroke-linecap:round;stroke-miterlimit:10;stroke-width:18px;}</style></defs><title>Emoji</title><g id="Layer_2" data-name="Layer 2"><g id="Layer_1-2" data-name="Layer 1"><rect class="cls-1" width="512" height="512"/><g id="Regular-M"><path class="cls-2" d="M262.33,425.88c89.31,0,163.26-73.95,163.26-163.26,0-89.15-74.11-163.26-163.42-163.26S99.07,173.47,99.07,262.62C99.07,351.93,173.17,425.88,262.33,425.88Zm0-27.21a135.4,135.4,0,0,1-135.89-136c0-75.39,60.18-136,135.73-136a136.05,136.05,0,1,1,.16,272.1ZM205.59,248.05c9.44,0,17.29-8.32,17.29-20s-7.85-20-17.29-20-17.13,8.32-17.13,20S196.15,248.05,205.59,248.05Zm113.47,0c9.45,0,17.29-8.32,17.29-20s-7.84-20-17.29-20c-9.28,0-17.12,8.32-17.12,20S309.78,248.05,319.06,248.05Z"/></g><path class="cls-3" d="M343.37,301.26c-6.42,31.25-40.22,55.09-81,55.09s-74.55-23.84-81-55.09"/></g></g></svg>