<svg xmlns="http://www.w3.org/2000/svg" viewBox="0 0 512 512"><defs><style>.cls-1{fill:#017bff;}.cls-2{fill:#fff;}</style></defs><title>Flashlight</title><g id="Layer_2" data-name="Layer 2"><g id="Layer_1-2" data-name="Layer 1"><rect class="cls-1" width="512" height="512"/><g id="Regular-M"><path class="cls-2" d="M183.15,100.92H328.21V91.08c0-18-8.74-26.63-26.23-26.63H209.23c-17.34,0-26.08,8.6-26.08,26.63Zm55.45,335h34.15c17.35,0,26.09-8.61,26.09-26.64V201.77c0-9.29,1.5-13.8,7-20.77l11.88-15.29c7.79-9.84,10.52-13.62,10.52-26.05V118H183.15v21.7c0,12.43,2.59,16.21,10.38,26.05l12,15.29c5.32,7,6.83,11.48,6.83,20.77V409.25C212.38,427.28,221.12,435.89,238.6,435.89ZM255.68,232.2c12,0,19.94,8.34,19.94,20.77v41.11c0,12.29-7.92,20.63-19.94,20.76-12,.28-20.08-8.19-20.08-20.76V253C235.6,240.54,243.66,232.2,255.68,232.2Zm0,10.11a12.16,12.16,0,0,0,0,24.32,12.16,12.16,0,0,0,0-24.32Z"/></g></g></g></svg>