<svg xmlns="http://www.w3.org/2000/svg" viewBox="0 0 512 512"><defs><style>.cls-1{fill:#d749d5;}.cls-2,.cls-3,.cls-4,.cls-5,.cls-6,.cls-7{fill:#fff;}.cls-3{opacity:0.8;}.cls-4{opacity:0.1;}.cls-5{opacity:0.2;}.cls-6{opacity:0.4;}.cls-7{opacity:0.6;}</style></defs><title>GIF</title><g id="Layer_2" data-name="Layer 2"><g id="Layer_1-2" data-name="Layer 1"><rect class="cls-1" width="512" height="512"/><circle class="cls-2" cx="393.99" cy="252.82" r="48.94"/><circle class="cls-3" cx="338.87" cy="252.82" r="48.94"/><path class="cls-4" d="M121.81,252.82a48.85,48.85,0,0,1,19.93-39.41,48.94,48.94,0,1,0,0,78.82A48.85,48.85,0,0,1,121.81,252.82Z"/><path class="cls-5" d="M181.37,252.82A48.83,48.83,0,0,1,200.53,214a48.94,48.94,0,1,0,0,77.64A48.82,48.82,0,0,1,181.37,252.82Z"/><path class="cls-6" d="M234.9,252.82a48.88,48.88,0,0,1,22.17-41,48.94,48.94,0,1,0,0,81.92A48.87,48.87,0,0,1,234.9,252.82Z"/><path class="cls-7" d="M289.94,252.82a48.9,48.9,0,0,1,21.41-40.47,48.94,48.94,0,1,0,0,80.94A48.9,48.9,0,0,1,289.94,252.82Z"/></g></g></svg>