<svg xmlns="http://www.w3.org/2000/svg" viewBox="0 0 512 512"><defs><style>.cls-1{fill:#0079fb;}.cls-2{fill:#fff;}</style></defs><title>Location</title><g id="Layer_2" data-name="Layer 2"><g id="Layer_1-2" data-name="Layer 1"><rect class="cls-1" width="512" height="512"/><g id="Regular-M"><path class="cls-2" d="M143.09,276.11l91.24.36c1.68,0,2.53.72,2.53,2.53l.24,91c0,11.45,5.06,20.85,14.58,20.85,9.16,0,14.1-8.55,18.44-18.08l92.32-198.85a29.17,29.17,0,0,0,3.37-12.41,13.62,13.62,0,0,0-14-14,28.89,28.89,0,0,0-12.53,3.26L140.44,243c-9.16,4.21-18.07,9.28-18.07,18.56S131.28,276.11,143.09,276.11Z"/></g></g></g></svg>