<svg xmlns="http://www.w3.org/2000/svg" viewBox="0 0 512 512"><defs><style>.cls-1{fill:#d84ad6;}.cls-2{fill:#fff;}</style></defs><title>Make-PDF</title><g id="Layer_2" data-name="Layer 2"><g id="Layer_1-2" data-name="Layer 1"><rect class="cls-1" width="512" height="512"/><path class="cls-2" d="M267.72,213.79h68.82c4.74,0,7.11-6,3.76-9.56l-68.82-72.49c-3.35-3.53-9.08-1-9.08,4v72.49A5.47,5.47,0,0,0,267.72,213.79Z"/><path class="cls-2" d="M340.37,228.09H262.29c-8.64,0-15.65-7.38-15.65-16.49V134.66a5.14,5.14,0,0,0-5-5.27h-62c-8.64,0-15.65,7.38-15.65,16.48V269.08h83.17l10.5.59-10.06-9.33-11.14-11.13a7.12,7.12,0,0,1-2.29-5.28c0-4,2.88-6.93,7.23-6.93a7.41,7.41,0,0,1,5.17,2.34L278.28,271a7.6,7.6,0,0,1,0,10.8l-31.74,31.73a7.42,7.42,0,0,1-5.12,2.3,6.84,6.84,0,0,1-7.23-7,7.49,7.49,0,0,1,2.29-5.28l11.14-11.08,10.1-9.28-10.54.54H164V354c0,9.1,7,16.48,15.65,16.48H329.73c8.64,0,15.65-7.38,15.65-16.48V233.36A5.14,5.14,0,0,0,340.37,228.09Z"/><path class="cls-2" d="M110.91,269.08c-4.59,0-7.67,3-7.67,7.37s3.08,7.33,7.67,7.33H164v-14.7Z"/></g></g></svg>