<svg xmlns="http://www.w3.org/2000/svg" viewBox="0 0 512 512"><defs><style>.cls-1{fill:#4bd763;}.cls-2{fill:#fff;}</style></defs><title>Mobile</title><g id="Layer_2" data-name="Layer 2"><g id="Layer_1-2" data-name="Layer 1"><rect class="cls-1" width="512" height="512"/><g id="Regular-M"><path class="cls-2" d="M352.77,316.56c4.62,5.34,12.7,5.34,18.18-.72,23.95-26,37.51-60.59,37.51-98s-13.56-72-37.51-97.95c-5.48-6.06-13.56-6.06-18.18-.72s-3.17,12,2,17.89c19.33,21.49,30.15,49.77,30.15,80.78s-10.82,59.3-30.15,80.79C349.6,304.59,348.16,311.37,352.77,316.56Zm-194.9,0c4.62-5.19,3.17-12-2-17.89-19.33-21.49-30.15-49.77-30.15-80.79s10.82-59.29,30.15-80.78c5.19-5.92,6.64-12.7,2-17.89s-12.7-5.34-18.18.72c-24,26-37.51,60.59-37.51,97.95s13.56,72,37.51,98C145.17,321.9,153.25,321.9,157.87,316.56Zm43.28-41.11c4.62-5.2,2.74-11.69-1.88-17.89-8.65-10.68-12.84-24.67-12.84-39.68a65.92,65.92,0,0,1,12.84-39.67c4.48-6.35,6.5-12.69,1.88-17.89-4.76-5.48-13.42-5.62-18.47,1a90.81,90.81,0,0,0,0,113.11C187.73,281.07,196.39,280.93,201.15,275.45Zm108.34,0c4.76,5.48,13.42,5.62,18.47-1a90.81,90.81,0,0,0,0-113.11c-5-6.63-13.71-6.49-18.47-1-4.61,5.2-2.59,11.54,1.88,17.89a65.92,65.92,0,0,1,12.84,39.67c0,15-4.19,29-12.84,39.68C306.75,263.76,304.88,270.25,309.49,275.45Zm-54.1,137.91c6.78,0,11-4.91,11-12.41V241.4a25.89,25.89,0,1,0-22.08,0V401C244.28,408.31,248.76,413.36,255.39,413.36Z"/></g></g></g></svg>