<svg xmlns="http://www.w3.org/2000/svg" viewBox="0 0 512 512"><defs><style>.cls-1{fill:#ffca00;}.cls-2{fill:#fff;}</style></defs><title>Note</title><g id="Layer_2" data-name="Layer 2"><g id="Layer_1-2" data-name="Layer 1"><rect class="cls-1" width="512" height="512"/><g id="Regular-M"><path class="cls-2" d="M104.74,151H388.55a11.51,11.51,0,1,0,0-23H104.74a11.51,11.51,0,0,0,0,23Zm0,79.83H276.12a11.51,11.51,0,1,0,0-23H104.74a11.51,11.51,0,0,0,0,23Zm0,79.83H388.55a11.7,11.7,0,0,0,11.73-11.58,11.58,11.58,0,0,0-11.73-11.43H104.74a11.32,11.32,0,0,0-11.43,11.43A11.45,11.45,0,0,0,104.74,310.66Zm0,79.67H276.12A11.45,11.45,0,0,0,287.7,378.9a11.57,11.57,0,0,0-11.58-11.58H104.74A11.45,11.45,0,0,0,93.31,378.9,11.32,11.32,0,0,0,104.74,390.33Z"/></g></g></g></svg>