<svg xmlns="http://www.w3.org/2000/svg" viewBox="0 0 512 512"><defs><style>.cls-1{fill:#fa3c2f;}.cls-2{fill:#fff;}</style></defs><title>Notification</title><g id="Layer_2" data-name="Layer 2"><g id="Layer_1-2" data-name="Layer 1"><rect class="cls-1" width="512" height="512"/><g id="Regular-M"><path class="cls-2" d="M361,205.91a53.38,53.38,0,0,0,0-106.75c-29.22,0-53.22,24.15-53.22,53.38S331.73,205.91,361,205.91Zm-258.55,122c0,26.3,2.31,48.15,18,63.83s37.83,18.15,64.13,18.15H304c26.15,0,48.3-2.46,64-18.15s18-37.53,18-63.83V223.13a63.77,63.77,0,0,1-21.84,3.39c-1.08.15-1.85.15-2.92.3V332c0,16-2,32.3-11.23,41.68s-26,11.38-41.84,11.38h-128c-15.85,0-32.46-2.15-41.68-11.38-9.39-9.38-11.39-25.69-11.39-41.68V205.75c0-16.15,2-32.76,11.23-42,9.38-9.38,26.15-11.38,42.3-11.38H286.81a17.32,17.32,0,0,1,.31-2.92,60.14,60.14,0,0,1,3.39-21.84H184.07c-25.84,0-48,2.46-63.67,18.15s-18,37.68-18,63.37Z"/></g></g></g></svg>