<svg xmlns="http://www.w3.org/2000/svg" viewBox="0 0 512 512"><defs><style>.cls-1{fill:#017efc;}.cls-2{fill:#fff;}</style></defs><title>Phone</title><g id="Layer_2" data-name="Layer 2"><g id="Layer_1-2" data-name="Layer 1"><rect class="cls-1" width="512" height="512"/><g id="Ultralight-M"><path class="cls-2" d="M198.87,322.31c48.6,48.6,110.34,90.49,159.92,95,23.23,2.11,41.75-4.11,56.54-19.1,7.27-7.08,14.66-18.44,13.59-30.23-.66-7.28-4.45-14.84-13.67-21.7L359.4,304.93c-5.72-4.3-11.66-7.25-17.72-7.8-7.11-.64-14.61,1.94-22.38,9.14l-11.87,11.3a7.49,7.49,0,0,1-6.18,2,17.41,17.41,0,0,1-6-2.1C285.43,312,265,297,244.38,276.42c-20.23-20.23-35.65-40.37-40.71-50.63a15.63,15.63,0,0,1-1.85-5.33A6.1,6.1,0,0,1,203.9,215l11-12.92c7-8.13,9.58-15.63,8.93-22.74-.55-6.07-3.5-12-8-17.92L176.9,109c-7.25-9.77-15.93-14.51-24.77-15.31-10.4-1-21.17,3.57-30.46,12.87-14.66,14.66-20,33.95-18,55.61C108.18,211.61,149.73,273.49,198.87,322.31Z"/></g></g></g></svg>