<svg xmlns="http://www.w3.org/2000/svg" viewBox="0 0 512 512"><defs><style>.cls-1{fill:#ff2c55;}.cls-2{fill:#fff;}</style></defs><title>Play-Pause</title><g id="Layer_2" data-name="Layer 2"><g id="Layer_1-2" data-name="Layer 1"><rect class="cls-1" width="512" height="512"/><g id="Regular-M"><path class="cls-2" d="M282.46,338H305c8.74,0,13.22-4.57,13.22-13.32V189.32c0-9-4.48-13.21-13.22-13.21H282.46c-8.74,0-13.31,4.57-13.31,13.21V324.66C269.15,333.41,273.72,338,282.46,338Zm72.15,0h22.65c8.65,0,13.22-4.57,13.22-13.32V189.32c0-9-4.57-13.21-13.22-13.21H354.61c-8.75,0-13.22,4.57-13.22,13.21V324.66C341.39,333.41,345.86,338,354.61,338Zm-231.73-3c4.07,0,7.35-1.3,11.43-3.68L235.56,271.8c7.06-4.18,10-9.14,10-14.81s-3-10.63-10-14.8L134.31,182.57c-4.08-2.39-7.36-3.68-11.43-3.68-7.85,0-14.31,6-14.31,17.09V318C108.57,329.13,115,335,122.88,335Z"/></g></g></g></svg>