<svg xmlns="http://www.w3.org/2000/svg" viewBox="0 0 306.97 262.33"><defs><style>.cls-1{fill:#fff;}</style></defs><title>Regular-M</title><g id="Layer_2" data-name="Layer 2"><g id="Layer_1-2" data-name="Layer 1"><g id="Regular-M"><path class="cls-1" d="M11.43,23H295.24A11.6,11.6,0,0,0,307,11.43,11.58,11.58,0,0,0,295.24,0H11.43A11.32,11.32,0,0,0,0,11.43,11.35,11.35,0,0,0,11.43,23Zm0,79.83H182.81a11.5,11.5,0,1,0,0-23H11.43a11.5,11.5,0,0,0,0,23Zm0,79.83H295.24A11.7,11.7,0,0,0,307,171.08a11.58,11.58,0,0,0-11.73-11.43H11.43A11.32,11.32,0,0,0,0,171.08,11.45,11.45,0,0,0,11.43,182.66Zm0,79.67H182.81a11.45,11.45,0,0,0,11.58-11.42,11.57,11.57,0,0,0-11.58-11.58H11.43A11.45,11.45,0,0,0,0,250.91,11.32,11.32,0,0,0,11.43,262.33Z"/></g></g></g></svg>