<svg xmlns="http://www.w3.org/2000/svg" viewBox="0 0 512 512"><defs><style>.cls-1{fill:#ff2c56;}.cls-2{fill:#fff;}</style></defs><title>Volume</title><g id="Layer_2" data-name="Layer 2"><g id="Layer_1-2" data-name="Layer 1"><rect class="cls-1" width="512" height="512"/><g id="Regular-M"><path class="cls-2" d="M376.67,363.11c4.07,2.75,9.46,1.65,12.65-2.86,20.35-28.71,31.9-65.9,31.9-105.17s-11.88-76.35-31.9-105.17c-3.19-4.62-8.58-5.72-12.65-2.86s-4.84,8.36-1.65,13c17.71,26.07,28.71,59.51,28.71,95.05s-10.56,69.53-28.71,95C371.83,354.75,372.49,360.14,376.67,363.11Zm-148.52-7A12.48,12.48,0,0,0,241,343.2V167.73c0-7.37-5.39-13.42-13.09-13.42-5.39,0-9,2.31-14.85,7.81L164.34,208a4,4,0,0,1-2.75,1H128.7c-15.51,0-23.87,8.47-23.87,25.09v42.57c0,16.5,8.36,25,23.87,25h32.89a4,4,0,0,1,2.75,1l48.74,46.32C218.36,353.87,222.76,356.07,228.15,356.07Zm104.18-23c4.29,2.86,9.57,1.76,12.65-2.64,14.53-20.25,23-47.2,23-75.36s-8.25-55.34-23-75.47c-3.19-4.29-8.36-5.39-12.65-2.53s-4.84,8.25-1.54,13c12,17.6,19.48,40.71,19.48,65s-7.38,47.63-19.48,65C327.6,324.83,328.15,330.22,332.33,333.08Zm-43.89-29.71c3.74,2.64,9.13,1.87,12.32-2.53,8.58-11.55,13.75-28.49,13.75-45.76s-5.17-34.11-13.75-45.77c-3.19-4.4-8.47-5.17-12.32-2.64-4.73,3.3-5.39,8.91-1.87,13.64C293,228.89,296.8,242,296.8,255.08s-4.07,26.18-10.34,34.87C283.16,294.68,283.71,300.07,288.44,303.37Z"/></g></g></g></svg>