<svg xmlns="http://www.w3.org/2000/svg" viewBox="0 0 512 512"><defs><style>.cls-1{fill:#027cfa;}.cls-2{fill:#fff;}.cls-3{fill:none;stroke:#fff;stroke-miterlimit:10;stroke-width:10.71px;}</style></defs><title>Web</title><g id="Layer_2" data-name="Layer 2"><g id="Layer_1-2" data-name="Layer 1"><rect class="cls-1" width="512" height="512"/><path class="cls-2" d="M120.87,243.06h3.74l5.07-.5,2.62-3.11-2.78-1.09L128,236.6l-2.3-3.72-1.09-5.25-1.18.24c-.5,2.18-.94,4.37-1.33,6.59l2,1.28.27,2.13-2.93.61C121.23,240,121,241.52,120.87,243.06Z"/><path class="cls-2" d="M340.86,159.54l-6.2,2.42-2.61,2.85.6,3.31,3.21.46,1.94,4.82,5.5-2.23.91,6.46h-1.67L338,177l-5,.85-4.87,6.88-6.95,1.09-1,5.95,2.94.7-.85,3.82-6.9-1.38L309,196.24l-1.33,3.53,1.09,7.4,3.73,1.74,6.23,0,4.21-.38,1.31-3.36,6.58-8.56,4.32.89,4.27-3.86.8,3,10.5,7.08-1.28,1.73-4.73-.26,1.82,2.58,2.91.64,3.41-1.42,0-4.11,1.51-.76-1.22-1.3-7-3.9-1.85-5.2h5.83l1.86,1.84,5,4.32.21,5.23,5.2,5.54,2-7.6,3.59-2,.67,6.2,3.52,3.86,5.31-.1q-1.17-3-2.49-5.92l-2.27.31v-5.09a132.75,132.75,0,0,0-15.41-24.09l-1.74,2.61-9.24-.09-.58-1.92,5.78-2.93,0-4.38a134.88,134.88,0,0,0-9.72-9.56Z"/><path class="cls-2" d="M381.23,220.36h-10l-6.53-4.86-6.88.67v4.19h-2.19l-2.34-1.67-11.91-3V208l-15.1,1.18-4.69,2.52h-6l-2.94-.3-7.29,4V223l-14.87,10.73,1.24,4.59h3l-.79,4.36-2.12.78-.11,11.41,12.85,14.65h5.59l.35-.89h10.05l2.9-2.69h5.71l3.13,3.14,8.49.87-1.11,11.3,9.43,16.65-5,9.51.34,4.48,3.92,3.89v10.77l5.14,6.91v8.94H356a133.42,133.42,0,0,0,25.19-122Z"/><path class="cls-2" d="M140.27,188.13l-2.4,2.92a131,131,0,0,0-8,16.4v5.16l5.59,2.69v10.64l5.36,9.15,4.36.66.57-3.13-5.15-7.94-1-7.71h3l1.29,7.94,6,8.78-1.38.7.57,1.88,1.94,0-1.63,3,4.73,7.23,11.73,2.91v-1.9l4.7.67-.44,3.35,3.69.67,5.7,1.57,8.05,9.17,10.29.77,1,8.39-7,4.92-.34,7.49-1,4.59,10.18,12.73.78,4.37s3.69,1,4.14,1,8.28,5.93,8.28,5.93v23l2.78.8-1.9,10.61,4.7,6.26-.86,10.53,6.2,10.9,8,7,8,.14.79-2.56-5.88-5,.33-2.45,1.06-3,.22-3.07-4-.12-2-2.53,3.3-3.18.46-2.39-3.7-1.06.23-2.23,5.25-.81,8-3.84,2.69-4.92,8.39-10.74L254,326.06l2.58-4.48,7.7.24,5.21-4.11,1.68-16.19,5.76-7.31,1-4.7-5.25-1.7-3.46-5.68L257.32,282l-9.4-3.58-.44-6.7-3.14-5.48-8.49-.12-4.92-7.7-4.37-2.12-.21,2.34-7.94.47-2.9-4-8.28-1.68-6.81,7.88-9.66-1.64-.09,0-1-.17-.78-12.09L181.06,246l3.14-5.93-.9-3.41L173,243.58l-6.47-.79-2.31-5.07,1.42-5.21,3.56-6.57,8.22-4.16h15.86l0,4.83,5.7,2.66L198.5,221l4.1-4.14,8.29-5.45.57-3.82,8.28-8.62,8.8-4.86-.78-.64,6-5.61,2.19.58,1,1.26,2.27-2.51.56-.25-2.49-.34-2.51-.84v-2.43l1.33-1.1H239l1.34.59,1.17,2.35,1.42-.22v-.21l.41.14,4.13-.63.58-2,2.35.59V185l-2.19,1.5.32,2.4,7.49,2.3a.41.41,0,0,1,0,.09l1.72-.14.11-3.24-5.92-2.7-.33-1.56,4.92-1.67.21-4.7-5.13-3.13-.35-7.93-7,3.46h-2.57l.68-6-9.59-2.26-4,3v9.15l-7.13,2.26-2.86,5.95-3.09.5V174.6l-6.71-.92-3.35-2.19-1.34-4.94,12-7,5.87-1.78.6,3.94,3.27-.17.25-2,3.42-.49.06-.69-1.47-.6-.34-2.1,4.2-.36,2.55-2.64.11-.17h0l.79-.8,8.83-1.11,3.9,3.31-10.25,5.46,13,3.07,1.7-4.36h5.69l2-3.8-4-1v-4.81l-12.64-5.6-8.72,1-4.92,2.57.33,6.25-5.14-.78-.79-3.47,4.92-4.48-8.94-.44-2.56.79-1.12,3,3.35.57-.67,3.34-5.7.34-.89,2.23-8.27.23s-.22-4.7-.57-4.7l6.49-.11,4.92-4.81-2.68-1.34-3.58,3.47-5.93-.33-3.57-4.93h-7.61l-7.93,5.93h7.27l.66,2.12-1.89,1.79,8,.23,1.24,2.9-9.07-.33-.44-2.24-5.69-1.23-3-1.67-5,0a134,134,0,0,0-36.17,38.37Zm68.14,11.37-1.94,1.93H202.2l.66-2.94,2-.16.42-1,3.11-.42Zm1-5.28-2,1.29-2.52.47s0-4,0-4.44h4.52Zm3.81-3.11,2.06,1.28-1.64,1.36L212,192.39Zm-2.72,3.36h.33L216,196v2.6h-4.28l-1.17-1.68Zm-3.35-7.21,2.76,2.52-2.76.66Zm-11.75.41,3.86-1.59h5.28v1.59h1.17v2.77h-8l-3-.83Zm-.75,7.22,3.1-3.35h4.45l-5.7,8-2.36-1.27Zm-4.11-19,3.19.76L192.64,181l-3.45,1.08L187,177.61Zm-15.93-20.28v-.25h2.93l.26-1h4.81v2.1l-1.38,1.84h-6.62Zm4.7,6.54s2.94-.5,3.19-.5,0,2.93,0,2.93l-6.63.42-1.26-1.51Z"/><circle class="cls-3" cx="253.39" cy="257.2" r="149.07"/></g></g></svg>